<svg xmlns="http://www.w3.org/2000/svg" xmlns:xlink="http://www.w3.org/1999/xlink" width="30" height="30" viewBox="0 0 30 30">
  <defs>
    <clipPath id="clip-path">
      <rect width="30" height="30" fill="none"/>
    </clipPath>
  </defs>
  <g id="twitter" clip-path="url(#clip-path)">
    <rect id="長方形_393" data-name="長方形 393" width="30" height="30" fill="none"/>
    <path id="パス_2" data-name="パス 2" d="M47.5,26.333C58.833,26.333,65,17,65,8.833V8a13.548,13.548,0,0,0,3-3.167,13.835,13.835,0,0,1-3.5,1A6.484,6.484,0,0,0,67.167,2.5,15.287,15.287,0,0,1,63.333,4a5.952,5.952,0,0,0-4.5-2,6.262,6.262,0,0,0-6.167,6.167A3.249,3.249,0,0,0,52.833,9.5,17.231,17.231,0,0,1,40.167,3a6.383,6.383,0,0,0-.833,3.167A6.622,6.622,0,0,0,42,11.333a5.619,5.619,0,0,1-2.833-.833h0a6.091,6.091,0,0,0,5,6,5.138,5.138,0,0,1-1.667.167,2.836,2.836,0,0,1-1.167-.167,6.314,6.314,0,0,0,5.833,4.333A12.584,12.584,0,0,1,39.5,23.5a4.614,4.614,0,0,1-1.5-.167,15.731,15.731,0,0,0,9.5,3" transform="translate(-38 -0.001)" fill="#272727" fill-rule="evenodd"/>
  </g>
</svg>
