<?xml version="1.0" encoding="utf-8"?>
<!-- Generator: Adobe Illustrator 22.0.1, SVG Export Plug-In . SVG Version: 6.00 Build 0)  -->
<svg version="1.1" id="レイヤー_1" xmlns="http://www.w3.org/2000/svg" xmlns:xlink="http://www.w3.org/1999/xlink" x="0px"
	 y="0px" viewBox="0 0 300 146" style="enable-background:new 0 0 300 146;" xml:space="preserve">
<g>
	<g>
		<path d="M299.4,87.1c-0.8-0.7-1.9-0.6-2.6,0.1l-0.1,0.1c-4.4,5-9.6,9.7-15.3,12.8c-1.4,0.7-2.9,1.4-4.3,1.8s-2.9,0.7-4.2,0.6h-0.2
			h-0.3h-0.2c-0.1,0,0,0,0,0l0,0h-0.1c-0.2,0-0.4-0.1-0.6-0.2c-0.4-0.2-0.9-0.6-1.4-1c-1-0.9-1.9-2.1-2.7-3.5
			c-1.7-2.7-3-5.7-4.2-8.9c-0.4-1.1-0.8-2.1-1.1-3.2c0.7-1,1.4-2,2.2-3c4.1-5.9,7.3-12.4,9.7-19.2c1.2-3.4,2.2-6.8,3-10.3
			s1.4-7,1.8-10.5c0.9-7.1,1.2-14.2,0.6-21.5c-0.3-3.6-0.9-7.3-2.1-11c-0.7-1.9-1.5-3.8-2.9-5.6c-0.7-0.9-1.6-1.8-2.7-2.6
			c-1.1-0.7-2.4-1.3-3.8-1.5c-2.7-0.5-5.5,0.3-7.5,1.6c-2.1,1.3-3.6,2.9-4.8,4.6c-2.4,3.4-3.8,7.1-4.7,10.7c-1,3.6-1.6,7.2-2,10.8
			s-0.6,7.2-0.6,10.7c-0.1,3.6,0,7.1,0.2,10.6l0.1,2.6c0,0.9,0.1,1.8,0.2,2.7c0.1,1.8,0.4,3.6,0.6,5.4c1,7.1,2.5,14,4.5,20.9
			c0.5,1.8,1.1,3.5,1.7,5.3c-0.5,0.5-1,1.1-1.5,1.6l-0.9,1c-0.3,0.3-0.5,0.6-0.8,0.8c-0.6,0.6-1.2,1.1-1.8,1.6c-1.2,1-2.6,2-4,2.9
			c-5.5,3.5-11.8,6.6-17.3,5.8c-1.3-0.2-2.4-0.7-3.2-1.3l0,0c0.8-0.3,1.5-0.7,2.2-1.1c1.7-1,3.2-2.3,4.5-3.9s2.3-3.2,3.1-5.1
			s1.3-4.2,1-6.6s-1.7-4.8-3.7-6.3c-0.5-0.4-1.1-0.7-1.7-1.1c-0.3-0.2-0.7-0.3-1.1-0.4c-0.2-0.1-0.5-0.1-0.8-0.1s-0.7-0.1-1.3,0
			l-0.6,0.1l-0.4,0.1c-0.3,0.1-0.5,0.2-0.8,0.3c-0.6,0.2-1.1,0.4-1.7,0.7c-2.2,1.2-3.8,3-5,4.9c-1.1,1.9-1.8,3.9-2.2,5.9
			S217,90.1,217,92s0.1,3.9,0.8,6c-1,0.3-2,0.6-3,0.9c-2.2,0.6-4.5,1-6.7,1.2c-2.2,0.1-4.3,0-6.1-0.6c-1.6-0.5-3-1.5-3.8-2.8
			s-1.3-2.7-1.5-4.4V92v-0.4c0-0.2,0-0.5,0-0.7c0-0.5,0-1,0-1.5c0.1-1,0.2-2.1,0.4-3.1c0.4-1.9,1-3.9,1.9-5.4
			c0.2,0.3,0.5,0.5,0.9,0.6c1.1,0.4,2.2-0.2,2.6-1.3c0.3-0.8,0.5-1.4,0.5-2.3c0-0.5,0.1-1-0.3-2c-0.2-0.5-0.7-1.1-1.5-1.5
			c-0.4-0.2-0.8-0.2-1.1-0.3h-0.2h-0.1h-0.1h-0.2c-1.5,0.1-2.3,0.6-3.1,1.1s-1.3,1.1-1.9,1.6c-2.1,2.3-3.4,4.7-4.3,7.4
			c-0.5,1.3-0.9,2.7-1.1,4.1c-0.1,0.7-0.2,1.4-0.3,2.1c0,0.4-0.1,0.7-0.1,1.1c0,0.2,0,0.3,0,0.5v0.7c0,0.8,0.1,1.5,0.2,2.3
			c-1.9,1.4-4,2.7-6.1,3.7c-1.4,0.7-2.8,1.2-4.1,1.5s-2.5,0.3-3.1,0c-0.3-0.1-0.6-0.3-0.8-0.6c-0.1-0.1-0.2-0.3-0.3-0.5
			c-0.1-0.1-0.1-0.2-0.1-0.3l-0.1-0.3l-0.1-0.1c0-0.1,0,0.1,0,0.1l0,0l0,0l0,0c-0.4-1-0.6-2.5-0.8-4.1c-0.3-3.1-0.3-6.4-0.6-9.9
			c-0.2-1.8-0.3-3.6-1.1-5.8c-0.2-0.6-0.5-1.2-0.9-1.8c-0.4-0.7-1.1-1.4-2.1-1.9c-0.2-0.1-0.5-0.2-0.8-0.3l-0.4-0.1
			c-0.2,0-0.3-0.1-0.5-0.1h-0.2h-0.1h-0.1l0,0h-0.2h-0.1c-0.6,0-1.1,0.2-1.5,0.3c-0.7,0.3-1.1,0.6-1.4,0.8c-0.3,0.3-0.5,0.5-0.8,0.7
			c-0.8,0.9-1.3,1.6-1.9,2.4c-0.5,0.8-1,1.5-1.4,2.3c-0.2,0.4-0.5,0.8-0.7,1.2c0.1-1,0-2.1-0.1-3.2c-0.1-0.6-0.2-1.2-0.4-1.8
			c-0.2-0.6-0.4-1.3-1-2.1c-0.3-0.4-0.7-0.9-1.4-1.4c-0.4-0.2-0.9-0.5-1.5-0.6s-1.3-0.1-1.9,0.1c-0.3,0.1-0.5,0.2-0.8,0.3l-0.3,0.2
			c0.1,0-0.2,0.1-0.3,0.2c-0.4,0.3-0.4,0.4-0.5,0.5c-0.4,0.5-0.5,0.8-0.6,1c-0.2,0.5-0.3,0.8-0.4,1.1c-0.3,1.2-0.4,2.2-0.6,3.2
			c-0.1,1-0.2,1.9-0.3,2.9c-0.2,2.5-0.4,5-0.6,7.4c-2.6,2.2-5.5,4.2-8.4,5.8c-3.1,1.7-6.3,3.1-9.4,3.5c-1.6,0.2-3.2,0.3-4.6,0.1
			c-1.3-0.2-2.4-0.6-3.1-1.2c0.4-0.1,0.8-0.3,1.1-0.5c1-0.5,1.9-1,2.8-1.6c1.8-1.2,3.3-2.8,4.6-4.6c0.3-0.5,0.6-0.9,0.9-1.4
			c0.3-0.6,0.4-0.7,0.8-1.4c0.5-1,0.9-2.1,1.2-3.3c0.3-1.2,0.3-2.6,0.1-4.1c-0.3-1.5-1-2.9-2-4s-2.2-1.9-3.5-2.5
			c-0.6-0.3-1.3-0.5-2.1-0.6c-0.4-0.1-0.8-0.1-1.6-0.1c-0.1,0-0.1,0-0.4,0l-0.4,0.1l-0.3,0.1l-0.4,0.1c-1.1,0.3-2.5,0.8-3.6,1.5
			c-1.2,0.7-2.2,1.6-3,2.6c-1.7,2-2.6,4.2-3.2,6.3c-0.6,2.1-0.9,4.2-1.1,6.3c0,0.4-0.1,0.9-0.1,1.4c-0.7-0.1-1.3-0.2-1.9-0.4
			c-2.3-0.7-4-1.9-5.2-3.8c-1.2-1.8-1.9-4.2-2.5-6.9c-0.2-0.7-0.3-1.4-0.5-2.2c-0.1-0.4-0.2-0.8-0.4-1.3c-0.2-0.5-0.4-1.1-1.1-1.8
			c-0.2-0.2-0.4-0.4-0.6-0.6l-0.4-0.3c0,0-0.3-0.2-0.5-0.3c-0.2-0.1-0.4-0.2-0.5-0.3c-0.7-0.3-1.4-0.5-2.2-0.5
			c-1.5,0-2.7,0.4-3.7,0.9c-1.9,1.1-3.1,2.4-4.1,3.8c-0.1,0.1-0.1,0.1-0.2,0.2c0-0.7,0-1.3-0.1-2.1c0-0.2,0-0.5-0.1-0.8
			c0-0.1-0.1-0.3-0.1-0.5c-0.1-0.2-0.1-0.5-0.4-1c-0.2-0.3-0.3-0.6-1-1.2c-1.3-0.8-1.1-0.5-1.4-0.6c-0.5-0.1-0.8-0.1-1.1-0.1
			c-0.4,0-0.7,0.1-1,0.3c-0.6,0.3-1,0.6-1.2,0.8c-0.3,0.2-0.4,0.4-0.5,0.6c-0.5,0.6-0.6,1-0.8,1.3l-0.5,1c-0.6,1.2-1.2,2.3-1.9,3.5
			c-1.4,2.2-3,4.4-4.8,6.4c-1.8,2.1-3.7,3.9-5.7,5.7c-2,1.8-4.2,3.3-6.5,4.8c-2.3,1.4-4.6,2.7-7.1,3.7c-1,0.4-2,0.7-3,1.1
			c-1.8-0.9-3.6-1.7-5.3-2.5c-0.2-2.9-0.3-5.8-0.4-8.7c-0.1-3.8-0.2-7.6-0.2-11.4c5.8-3.5,11.3-7.6,16.3-12.4
			c4.2-4.1,8-8.6,11.1-13.7c3.1-5.1,5.4-10.7,6.7-16.6c1.3-5.9,1.5-12.1,0-18.1c-0.7-3-1.8-6-3.4-8.7c-1.6-2.8-3.8-5.3-6.8-7.2
			C68,1.8,66.3,1,64.5,0.5c-1.8-0.5-3.7-0.6-5.6-0.4c-3.8,0.5-7.1,2.6-9.5,5.4c-2.3,2.7-3.7,5.7-4.8,8.5c-1.1,2.9-1.9,5.8-2.6,8.6
			c-2.6,11.5-3.4,22.9-4,34.3c-0.3,5.7-0.4,11.4-0.5,17c0,1.6,0,3.2,0,4.8c-2,1.3-4.1,2.6-6.2,3.9l0,0c-0.8,0.5-1.1,1.5-0.7,2.3
			c0.4,0.9,1.5,1.4,2.4,0.9c1.5-0.7,3.1-1.4,4.6-2.2c0.1,2.4,0.1,4.9,0.3,7.3c0.1,1.7,0.2,3.4,0.3,5.1c-2.9-1.1-5.7-2.2-8.6-3.2
			c-5.4-1.9-10.7-3.8-16.2-5.4c-1.4-0.4-2.8-0.8-4.2-1.1C8.5,86.1,7.8,86,7,85.8c-0.8-0.1-1.5-0.3-2.4-0.4c-0.2,0-0.5,0-0.8,0
			c-0.2,0-0.4,0-0.6,0c-0.1,0-0.3,0-0.4,0.1c-0.2,0.1-0.3,0.1-0.7,0.2c-0.3,0.1-0.7,0.3-1.2,0.9C0.4,87.1,0,88.3,0.1,89
			c0,0.7,0.5,1.6,0.4,1.4c0,0,0.3,0.5,0.2,0.4C0.8,91,1,91.2,1.1,91.4c0.6,0.7,1.1,1.3,1.7,1.9c1.1,1.1,2.3,2.1,3.5,3
			c4.8,3.6,9.9,6.4,15.3,8.7c2.7,1.1,5.5,2.1,8.3,2.9c1.4,0.4,2.9,0.8,4.3,1c1.5,0.3,3.1,0.5,4.6,0.5c0.1,0,0.2,0,0.3,0
			c0.5,5.2,1.2,10.4,2,15.6c0.4,2.8,0.9,5.7,1.5,8.5c0.3,1.4,0.6,2.8,1,4.3s0.8,2.9,1.5,4.6c0.2,0.4,0.4,0.9,0.9,1.6
			c0.3,0.4,1,1.4,2.6,1.8c0.7,0.2,1.5,0.1,2,0c0.5-0.2,0.9-0.4,1.2-0.6c0.6-0.4,0.9-0.7,1.1-1c0.3-0.3,0.4-0.5,0.6-0.8
			c0.3-0.5,0.6-0.9,0.8-1.3c0.8-1.6,1.4-3,1.9-4.4c1-2.8,1.8-5.6,2.5-8.5c0.7-2.8,1.3-5.7,1.7-8.6c0.2-1.5,0.3-3,0.4-4.5
			c0.1-1.6,0.1-3.1-0.2-5l-0.1-0.4l-0.1-0.4v-0.1c-0.2-0.6-0.1-0.3-0.1-0.5c-0.1-0.2-0.1-0.3-0.2-0.5c-0.3-0.6-0.6-1.1-0.9-1.5
			c-0.6-0.9-1.3-1.5-1.9-2.1c-0.1-0.1-0.1-0.1-0.2-0.2c5.2-2.4,10-5.5,14.3-9.1c2.3-1.9,4.4-3.9,6.4-6c1.3-1.4,2.5-2.8,3.7-4.2
			c-0.2,2.6-0.4,5.2-0.6,7.8c-0.2,2.8-0.3,5.7-0.3,8.7c0,0.8,0,1.5,0.1,2.5c0,0.3,0.1,0.6,0.2,1c0.1,0.2,0.1,0.4,0.3,0.9
			c0.1,0.2,0.2,0.5,0.5,0.8c-0.2,0.1,1.8,1.4,1.4,1.1c1.1,0.4,0.9,0.3,1.5,0.4c0.4,0,0.9,0,1.3-0.1c0.8-0.2,1.5-0.7,1.8-1
			c0.7-0.7,0.9-1.2,1.1-1.6c0.3-0.7,0.4-1.2,0.5-1.7s0.2-0.9,0.2-1.3c0.1-0.8,0.2-1.6,0.3-2.3c0.3-2.9,0.4-5.7,0.7-8.3
			c0.1-1.3,0.3-2.6,0.6-3.5c0.4-1.2,0.8-2.4,1.3-3.6c0.5-1.1,1.1-2.2,1.7-3.1s1.4-1.7,1.9-2c0.1,0,0.1-0.1,0.2-0.1
			c0,0.1,0.1,0.2,0.1,0.3c0.2,0.5,0.4,1.2,0.6,1.9c0.8,2.7,1.7,5.9,3.8,8.7c1,1.4,2.4,2.6,3.9,3.5s3.1,1.5,4.7,1.8
			c1.2,0.3,2.4,0.4,3.6,0.4c0.1,0.2,0.1,0.5,0.2,0.7c0.4,1.2,0.9,2.5,1.7,3.6c0.8,1.1,1.8,2.2,3,3c2.3,1.6,4.9,2.1,7.2,2.1
			c2.3,0,4.5-0.3,6.5-0.9l0.8-0.2l0.7-0.2c0.5-0.2,1-0.4,1.5-0.5c1-0.4,1.9-0.8,2.8-1.3c1.8-0.9,3.5-2,5.1-3.1
			c1.8-1.3,3.6-2.7,5.2-4.2c-0.1,3-0.2,6-0.3,9l0,0l0.1,0.7c0.1,1.5,1.2,2.9,2.7,3.4c2.1,0.7,4.3-0.5,5-2.6c2-6.3,4.6-12.4,7.5-18.3
			c0.7-1.5,1.5-2.9,2.3-4.3c0.3-0.6,0.7-1.1,1-1.6c0.1,0.7,0.2,1.6,0.3,2.4c0.2,3.1,0.3,6.5,0.7,10.1c0.2,1.8,0.5,3.6,1.3,5.7
			l0.1,0.3l0.1,0.1l0.1,0.3c0.2,0.3,0.3,0.6,0.5,0.8c0.3,0.5,0.7,1,1.1,1.5c0.9,1,2.1,1.8,3.3,2.2c1.2,0.4,2.5,0.5,3.6,0.5
			c1.1-0.1,2.2-0.3,3.1-0.5c1.9-0.6,3.6-1.4,5.2-2.3c1.9-1.1,3.7-2.4,5.3-3.8c0.4,0.7,0.9,1.3,1.4,1.9c2.3,2.6,5.4,4.1,8.5,4.6
			c3,0.5,5.8,0.2,8.5-0.4c3.9-0.9,7.4-2.4,10.7-4.3c0.7,0.9,1.5,1.7,2.4,2.4c2,1.5,4.3,2.2,6.4,2.4c2.1,0.2,4.2,0,6.1-0.3
			c0.5-0.1,1-0.2,1.4-0.3l0.7-0.2l0.6-0.2c1-0.3,1.9-0.7,2.7-1c3.5-1.5,6.6-3.4,9.5-5.6c1.5-1.1,2.9-2.2,4.3-3.5
			c0.7-0.6,1.3-1.3,2-2c0.3-0.3,0.6-0.7,0.9-1.1l0.6-0.7c1.4,3.2,2.9,6.4,4.9,9.5c1.1,1.6,2.3,3.1,3.9,4.6c0.8,0.7,1.8,1.4,2.9,1.9
			c0.6,0.3,1.2,0.5,1.9,0.6c0.2,0,0.3,0.1,0.5,0.1h0.3h0.2h0.3h0.4c2.2,0,4.2-0.5,6-1.1c1.9-0.7,3.6-1.5,5.2-2.5
			c3.2-2,6-4.3,8.5-6.8c2.6-2.5,4.9-5.2,7.1-8.1C300.2,88.9,300.1,87.8,299.4,87.1z M46.2,57.4c0.3-5.6,0.7-11.1,1.3-16.6
			s1.4-10.9,2.6-16.2c0.6-2.6,1.3-5.2,2.2-7.5c0.9-2.4,2-4.6,3.4-6.2c0.3-0.4,0.7-0.7,1-1c0.2-0.1,0.3-0.3,0.5-0.4c0,0,0.1-0.1,0,0
			l0.1-0.1l0.2-0.1c0.2-0.1,0.2-0.1,0.3-0.2c0.8-0.5,1.7-0.9,2.6-1.2c0.9-0.3,1.8-0.5,2.8-0.4s2,0.3,2.9,0.9
			c1.9,1.1,3.5,2.8,4.8,4.9s2.2,4.4,2.7,6.9c1.1,5,0.9,10.3-0.3,15.4c-1.2,5.1-3.3,10-6.1,14.6c-2.7,4.6-6.1,8.8-9.9,12.7
			c-3.6,3.8-7.6,7.2-11.8,10.4C45.8,67.8,45.9,62.6,46.2,57.4z M3.8,91.7C3.8,91.7,3.9,91.7,3.8,91.7L3.8,91.7z M35.5,103
			c-1.3-0.3-2.6-0.6-3.9-0.9c-2.6-0.7-5.1-1.7-7.6-2.7c-3.8-1.6-7.4-3.6-10.9-5.8c2.2,0.6,4.4,1.2,6.7,1.8c2.7,0.8,5.3,1.6,8,2.5
			c3.6,1.3,7.3,2.7,10.7,4.3c0,0.4,0.1,0.9,0.1,1.3C37.6,103.3,36.5,103.2,35.5,103z M53.9,115.8c-0.1,1.3-0.3,2.6-0.5,3.9
			c-0.4,2.6-1,5.3-1.6,7.9c-0.5,1.9-1,3.7-1.5,5.5c-0.1-0.3-0.1-0.7-0.2-1c-0.5-2.7-1-5.4-1.4-8.2c-0.7-5-1.3-10-1.8-15
			c0.9-0.2,1.9-0.4,2.8-0.6c0.1,0.1,0.2,0.1,0.3,0.2c1.1,0.7,2,1.5,2.8,2.3c0.4,0.4,0.7,0.8,0.9,1c0.1,0.1,0.1,0.2,0.1,0.2v0.3
			C54,113.3,54,114.6,53.9,115.8z M53.9,112.2C53.8,112.2,53.9,112.2,53.9,112.2L53.9,112.2z M53.9,112.2L53.9,112.2L53.9,112.2
			L53.9,112.2z M86.8,78.5L86.8,78.5C86.8,78.5,86.8,78.4,86.8,78.5z M82.3,103.6L82.3,103.6C82.3,103.7,82.3,103.7,82.3,103.6z
			 M96.1,80.2C96,80.1,96.1,80.1,96.1,80.2L96.1,80.2z M125.2,81.2C125.2,81.2,125.3,81.2,125.2,81.2L125.2,81.2z M120.7,91.5
			c0.2-3.2,0.8-6.5,2.1-8.3c0.3-0.5,0.7-0.9,1.1-1.2c0.4-0.3,0.8-0.5,1.5-0.8h0.1c0.1,0,0.2,0,0.3,0.1c0.4,0.1,0.8,0.4,1.1,0.6
			c0.3,0.2,0.4,0.5,0.5,0.9s0.2,0.9,0.1,1.4c-0.1,0.6-0.2,1.3-0.5,2c-0.1,0.2-0.4,0.9-0.5,1.1c-0.1,0.3-0.3,0.7-0.5,1
			c-0.8,1.3-1.7,2.6-2.8,3.6c-0.6,0.5-1.2,1-1.9,1.4c-0.2,0.1-0.4,0.2-0.6,0.4C120.7,93,120.7,92.3,120.7,91.5z M151.9,78.7
			L151.9,78.7C151.8,78.6,151.9,78.6,151.9,78.7z M228.8,80.5C228.9,80.5,228.9,80.5,228.8,80.5c-0.1,0-0.1,0-0.1,0H228.8z
			 M224.1,92.2c0.1-1.6,0.3-3.1,0.6-4.6c0.6-2.9,1.7-5.4,3.4-6.5c0.2-0.1,0.4-0.3,0.7-0.4c0.1,0,0.2-0.1,0.3-0.1s0.2,0.1,0.2,0.1
			c0.8,0.5,1.4,1.4,1.6,2.3c0.3,1,0.1,2.3-0.3,3.6c-0.4,1.3-1.1,2.8-1.9,4c-0.8,1.2-1.8,2.4-3,3.3c-0.5,0.4-1,0.7-1.6,1.1
			C224,94.2,224,93.2,224.1,92.2z M260.1,79.3c-1.8-6.5-3.2-13.2-4-19.9c-0.2-1.7-0.4-3.3-0.5-5c-0.1-0.8-0.1-1.6-0.1-2.5l-0.1-2.6
			c-0.1-3.4,0-6.8,0.1-10.2s0.4-6.8,0.8-10.1s1-6.6,1.8-9.7c0.9-3.1,1.9-6.1,3.5-8.4c0.8-1.1,1.7-2.1,2.5-2.7
			c0.9-0.6,1.7-0.8,2.4-0.7c0.6,0.1,1.3,0.4,2.1,1.4c0.7,0.9,1.4,2.2,1.9,3.6c1.1,2.8,1.7,6.1,2,9.3c0.7,6.6,0.6,13.4-0.1,20.1
			c-0.3,3.4-0.8,6.7-1.5,10c-0.6,3.3-1.4,6.6-2.4,9.8c-1.9,6.4-4.7,12.6-8.3,18.3c0,0,0,0.1-0.1,0.1C260.2,80,260.1,79.7,260.1,79.3
			z"/>
	</g>
</g>
</svg>
