<?xml version="1.0" encoding="UTF-8"?><svg xmlns="http://www.w3.org/2000/svg" viewBox="0 0 102.92 109.62"><defs><style>.d{fill:#fff;}.e{fill:#7e7e7e;}</style></defs><g id="a"/><g id="b"><g id="c"><g><path class="d" d="M70.95,109.62s-.08,0-.12,0c-7.21-.15-9.67-9.22-11.85-17.22-1.68-6.18-3.58-13.18-6.96-13.18h-1.25c-3.38,0-5.28,7-6.96,13.18-2.17,8-4.64,17.07-11.85,17.22-5.31,.1-13.38-6.63-28.45-60.17l-.32-1.14C.44,38.55-1.64,28.29,1.78,19.31,5.41,9.74,10,3.88,15.8,1.38c7.8-3.36,16.15,.11,23.52,3.18,4.4,1.83,8.55,3.56,12.08,3.7,3.52-.15,7.68-1.88,12.08-3.7,7.37-3.06,15.72-6.54,23.52-3.18,5.8,2.5,10.39,8.37,14.02,17.94,3.41,8.98,1.33,19.24-1.42,28.99l-.32,1.14c-14.95,53.12-22.99,60.17-28.32,60.17Z"/><path class="e" d="M71.07,109.62s-.08,0-.12,0c-7.21-.15-9.67-9.22-11.85-17.22-1.68-6.18-3.58-13.18-6.96-13.18h-1.25c-3.38,0-5.28,7-6.96,13.18-2.17,8-4.64,17.07-11.85,17.22-5.31,.1-13.38-6.63-28.45-60.17l-.32-1.14C.56,38.55-1.52,28.29,1.9,19.31,5.53,9.74,10.12,3.88,15.92,1.38c7.8-3.36,16.15,.11,23.52,3.18,4.4,1.83,8.55,3.56,12.08,3.7,3.52-.15,7.68-1.88,12.08-3.7,7.37-3.06,15.72-6.54,23.52-3.18,5.8,2.5,10.39,8.37,14.02,17.94,3.41,8.98,1.33,19.24-1.42,28.99l-.32,1.14c-14.95,53.12-22.99,60.17-28.32,60.17Zm-20.18-34.93h1.25c6.85,0,9.13,8.4,11.33,16.52,1.76,6.47,3.75,13.8,7.56,13.87h.02c1.38,0,8.77-2.85,23.97-56.87l.32-1.15c2.54-9,4.49-18.4,1.55-26.15-3.18-8.36-6.96-13.39-11.58-15.38-6.04-2.6-13.13,.35-19.99,3.2-4.82,2-9.37,3.9-13.74,4.05-.05,0-.11,0-.16,0-4.36-.15-8.92-2.05-13.74-4.05-6.86-2.85-13.95-5.8-19.99-3.2-4.61,1.99-8.4,7.02-11.58,15.38-2.94,7.75-.99,17.15,1.55,26.15l.32,1.15c15.2,54.01,22.59,56.87,23.97,56.87h.02c3.82-.08,5.81-7.41,7.56-13.87,2.21-8.12,4.49-16.52,11.33-16.52Z"/></g></g></g></svg>