<?xml version="1.0" encoding="UTF-8"?><svg xmlns="http://www.w3.org/2000/svg" viewBox="0 0 129.62 164.12"><defs><style>.d{fill:#faa49b;}.e{fill:#fff;}.f{fill:#7e7e7e;}</style></defs><g id="a"/><g id="b"><g id="c"><g><path class="e" d="M119.54,2.5c-.13,1.27-.84,3.03-1.43,4.29-.74,1.59-1.31,2.72-2.44,3.84-2.63,2.61-5.61,4.91-8.42,7.3-1.03,.88-.9,2.63,0,3.54,1.02,1.02,2.5,.88,3.54,0,1.59-1.35,3.18-2.71,4.77-4.07,1.43-1.23,2.94-2.41,4.21-3.81s2.12-3.06,2.91-4.8c.92-2.04,1.63-4.04,1.86-6.28,.14-1.34-1.25-2.5-2.5-2.5-1.47,0-2.36,1.15-2.5,2.5h0Z"/><path class="e" d="M115.26,6.41c-11.58,12.38-24.97,22.82-38.33,33.19-1.46,1.14-.62,3.84,1.1,4.18,6.27,1.24,10.86-3.09,15.14-6.97l14.01-12.71c1-.91,.92-2.61,0-3.54-1.04-1.04-2.48-.85-3.54,0-6.61,5.3-12,11.86-17.33,18.4-.79,.96-1.02,2.24-.2,3.28,.73,.92,2.17,1.35,3.23,.64l7.59-5.06-3.03-3.93c-1.65,2.05-3.39,4.02-5.24,5.9-1.99,2.04,.54,5.31,3.03,3.93,3.39-1.89,6.55-4.11,9.52-6.61l-3.93-3.03c-1,1.8-2.12,3.52-3.43,5.11-.71,.87-.99,2-.39,3.03,.51,.88,1.81,1.56,2.82,1.15,3.44-1.38,6.51-3.27,9.25-5.78l-3.93-3.03c-1.23,1.61-2.36,3.28-3.38,5.02-1.21,2.07,1.29,4.86,3.42,3.42l7.13-4.83-3.42-3.42-4.62,6.22c-.73,.99-.26,2.55,.64,3.23,1.07,.8,2.28,.61,3.28-.2,2.31-1.85,4.7-3.79,7.45-4.94,3-1.26,6.25-1.16,9.44-1.07l-2.16-3.76c-1.54,2.45-4.44,3.69-6.96,4.86-3.23,1.5-6.54,2.81-9.87,4.07l2.43,4.18c3.86-3.23,8.12-5.93,12.63-8.14l-3.67-2.82c-1.79,6.53-8.84,8.95-14.79,10.1l1.33,4.82c1.89-.63,3.71-.79,5.68-.53l-1.26-4.66c-4.17,3.05-9.66,3.5-13.35,7.32-1.71,1.76,0,4.88,2.43,4.18l9.78-2.82-2.43-4.18c-1.25,1.11-2.55,2.17-3.9,3.15-.67,.49-1.35,.96-2.05,1.42-.38,.25-.76,.5-1.14,.73l-.38,.24c-.5,.24-.45,.27,.15,.09-1.53-.53-3.19,.87-3.16,2.41,.02,1.15,.29,2.2,.95,3.15,.77,1.11,2.19,1.61,3.42,.9,1.1-.64,1.67-2.3,.9-3.42-.22-.32-.26-.32-.27-.63l-3.16,2.41c2.38,.83,4.71-1.17,6.54-2.46,1.97-1.38,3.85-2.87,5.65-4.46,1.9-1.68-.11-4.85-2.43-4.18l-9.78,2.82,2.43,4.18c3.29-3.4,8.58-3.78,12.34-6.54,2.09-1.53,1.24-4.34-1.26-4.66-2.36-.3-4.76-.04-7.01,.71-3.07,1.03-1.82,5.43,1.33,4.82,7.77-1.5,16.01-5.31,18.29-13.59,.61-2.22-1.77-3.76-3.67-2.82-4.91,2.41-9.45,5.42-13.64,8.92-1.88,1.57,.13,5.05,2.43,4.18,3.88-1.47,7.74-3.01,11.5-4.78,3.24-1.53,6.36-3.34,8.32-6.45,1.04-1.65-.33-3.71-2.16-3.76-3.97-.11-7.88,0-11.58,1.59-3.29,1.41-6.08,3.66-8.84,5.88l3.93,3.03,4.62-6.22c1.49-2.01-1.42-4.78-3.42-3.42l-7.13,4.83,3.42,3.42c1.02-1.75,2.15-3.42,3.38-5.02,.75-.98,.25-2.56-.64-3.23-1.02-.76-2.34-.67-3.28,.2-2.06,1.89-4.44,3.45-7.04,4.49l2.43,4.18c1.58-1.92,3-3.95,4.21-6.12,1.43-2.58-1.8-4.82-3.93-3.03-2.64,2.22-5.5,4.15-8.51,5.82l3.03,3.93c1.84-1.88,3.59-3.85,5.24-5.9,.78-.97,1.03-2.24,.2-3.28-.73-.92-2.17-1.35-3.23-.64l-7.59,5.06,3.03,3.93c5.33-6.54,10.72-13.1,17.33-18.4l-3.54-3.54-12.54,11.37c-1.84,1.67-3.63,3.48-5.62,4.98-1.72,1.29-3.91,2.48-6.13,2.04l1.1,4.18c13.35-10.37,26.75-20.81,38.33-33.19,2.2-2.35-1.33-5.89-3.54-3.54h0Z"/><path class="e" d="M96.78,75.42c2.94,7.75,1,17.15-1.55,26.15l-.32,1.15c-15.21,54.02-22.59,56.87-23.97,56.87h-.02c-3.82-.08-5.81-7.41-7.56-13.87-2.21-8.12-4.49-16.52-11.33-16.52h-1.25c-6.85,0-9.13,8.4-11.33,16.52-1.76,6.47-3.75,13.8-7.57,13.88h-.02c-1.38,0-8.77-2.85-23.97-56.87l-.32-1.15c-2.54-9-4.49-18.4-1.55-26.15,3.18-8.36,6.96-13.39,11.58-15.38,6.04-2.6,13.13,.35,19.99,3.2,4.82,2,9.37,3.9,13.74,4.05,.05,0,.11,0,.16,0,4.36-.15,8.92-2.05,13.74-4.05,6.86-2.85,13.95-5.8,19.99-3.2,.1,.04,.2,.1,.3,.14l-12.88,14.8c-.64,.73-.56,1.85,.17,2.49,.33,.29,.75,.43,1.16,.43,.49,0,.98-.21,1.33-.61l13.22-15.2c.85,.71,1.68,1.56,2.47,2.54l-8.58,7.8c-.72,.65-.77,1.77-.12,2.49,.35,.38,.82,.58,1.3,.58,.42,0,.85-.15,1.19-.46l8.25-7.51c1.34,2.19,2.6,4.81,3.76,7.88Z"/><path class="d" d="M129.5,32.8c-.27-.67-.92-1.11-1.64-1.11h-.03l-26.73,.47,19.3-19.49c.68-.69,.68-1.81-.01-2.49-.69-.69-1.81-.68-2.49,.01l-22.35,22.56c-.5,.51-.65,1.27-.37,1.93,.28,.65,.92,1.07,1.62,1.07h.03l26.39-.46-28.89,26.29c-.91-1.1-1.86-2.06-2.85-2.9l11.59-13.32c.45-.52,.56-1.25,.28-1.87-.28-.63-.89-1.03-1.58-1.05l-23.94-.42L122.71,3.16c.74-.64,.82-1.75,.18-2.48-.64-.74-1.75-.82-2.48-.18l-48.36,41.88c-.55,.48-.75,1.25-.5,1.93,.25,.69,.9,1.15,1.63,1.16l24.76,.43-9.36,10.76c-.51-.29-1.03-.56-1.57-.78-7.8-3.36-16.15,.11-23.52,3.18-4.4,1.83-8.55,3.56-12.08,3.7-3.52-.15-7.68-1.88-12.08-3.7-7.37-3.06-15.72-6.54-23.52-3.18-5.8,2.5-10.39,8.37-14.02,17.94-3.41,8.98-1.33,19.24,1.42,28.99l.32,1.14c15.07,53.54,23.11,60.29,28.45,60.17,7.21-.15,9.67-9.22,11.85-17.22,1.68-6.18,3.58-13.18,6.96-13.18h1.25c3.38,0,5.28,7,6.96,13.18,2.17,8,4.64,17.07,11.85,17.22,.04,0,.08,0,.13,0,5.33,0,13.37-7.05,28.32-60.18l.32-1.14c2.75-9.75,4.83-20.01,1.42-28.99-1.39-3.66-2.92-6.77-4.6-9.37l32.62-29.69c.54-.49,.72-1.27,.45-1.95Zm-32.71,42.62c2.94,7.75,1,17.15-1.55,26.15l-.32,1.15c-15.21,54.02-22.59,56.87-23.97,56.87h-.02c-3.82-.08-5.81-7.41-7.56-13.87-2.21-8.12-4.49-16.52-11.33-16.52h-1.25c-6.85,0-9.13,8.4-11.33,16.52-1.76,6.47-3.75,13.8-7.57,13.88h-.02c-1.38,0-8.77-2.85-23.97-56.87l-.32-1.15c-2.54-9-4.49-18.4-1.55-26.15,3.18-8.36,6.96-13.39,11.58-15.38,6.04-2.6,13.13,.35,19.99,3.2,4.82,2,9.37,3.9,13.74,4.05,.05,0,.11,0,.16,0,4.36-.15,8.92-2.05,13.74-4.05,6.86-2.85,13.95-5.8,19.99-3.2,.1,.04,.2,.1,.3,.14l-12.88,14.8c-.64,.73-.56,1.85,.17,2.49,.33,.29,.75,.43,1.16,.43,.49,0,.98-.21,1.33-.61l13.22-15.2c.85,.71,1.68,1.56,2.47,2.54l-8.58,7.8c-.72,.65-.77,1.77-.12,2.49,.35,.38,.82,.58,1.3,.58,.42,0,.85-.15,1.19-.46l8.25-7.51c1.34,2.19,2.6,4.81,3.76,7.88Z"/></g><path class="f" d="M80.09,54.5v5c1.8,0,3.41,.32,4.93,.97,4.49,1.94,8.2,6.88,11.33,15.12,2.9,7.62,.96,16.93-1.56,25.86l-.32,1.14c-6.58,23.38-12.42,39.86-17.36,48.98-3.23,5.97-5.44,7.54-6.18,7.54-3.47-.07-5.5-7.53-7.13-13.53-2.15-7.9-4.58-16.86-11.78-16.86h-1.25c-7.2,0-9.63,8.96-11.78,16.86-1.63,6-3.66,13.46-7.13,13.53-.72,0-2.92-1.57-6.15-7.53-4.95-9.13-10.79-25.61-17.37-49l-.32-1.15c-2.52-8.93-4.46-18.24-1.56-25.86,3.13-8.24,6.84-13.19,11.33-15.12,1.51-.65,3.12-.97,4.93-.97,4.67,0,9.77,2.12,14.7,4.17,4.82,2,9.37,3.9,13.79,4.08h.42c4.41-.18,8.97-2.08,13.79-4.08,4.93-2.05,10.03-4.17,14.7-4.17v-5m0,0c-5.67,0-11.39,2.38-16.62,4.55-4.4,1.83-8.55,3.56-12.08,3.7-3.52-.15-7.68-1.88-12.08-3.7-5.23-2.17-10.95-4.55-16.62-4.55-2.32,0-4.64,.4-6.9,1.38-5.8,2.5-10.39,8.37-14.02,17.94-3.41,8.98-1.33,19.24,1.42,28.99l.32,1.14c14.97,53.17,23.03,60.17,28.34,60.17,.04,0,.07,0,.11,0,7.21-.15,9.67-9.22,11.85-17.22,1.68-6.18,3.58-13.18,6.96-13.18h1.25c3.38,0,5.28,7,6.96,13.18,2.17,8,4.64,17.07,11.85,17.22,.04,0,.08,0,.12,0,5.33,0,13.37-7.05,28.32-60.17l.32-1.14c2.76-9.75,4.84-20.01,1.42-28.99-3.64-9.57-8.22-15.44-14.02-17.94-2.27-.98-4.58-1.38-6.91-1.38h0Z"/><path class="d" d="M94.04,62.63c-1.55,1.04-2.97,2.28-4.19,3.71-.11,.13-.21,.27-.05,.4s.56,.12,.74,.1c.38-.03,.77-.11,1.13-.25,.27-.1,.62-.22,.81-.45,.57-.67,1.19-1.3,1.84-1.89,.32-.29,.65-.58,1-.84-.05,.04-.13,.1-.03,.03,.05-.04,.09-.07,.14-.11,.08-.06,.17-.13,.26-.19,.19-.14,.38-.27,.58-.4,.11-.07,.38-.26,.34-.45s-.39-.21-.51-.22c-.36-.01-.72,.04-1.06,.14s-.69,.21-.99,.41h0Z"/><path class="d" d="M94.83,61.33c-1.74,2.09-3.62,4.06-5.64,5.88-.18,.16-.33,.48-.26,.73s.35,.44,.59,.5c.72,.19,1.5-.06,2.05-.55,2.02-1.82,3.91-3.79,5.64-5.88,.17-.2,.33-.45,.26-.73-.07-.26-.35-.44-.59-.5-.64-.17-1.6,.01-2.05,.55h0Z"/><path class="d" d="M97.56,61.02c-2.75,2.65-5.53,5.26-8.37,7.81-.49,.44,.43,.52,.69,.5,.65-.06,1.43-.25,1.94-.7,2.85-2.54,5.63-5.16,8.37-7.81,.47-.45-.41-.52-.69-.5-.63,.05-1.46,.24-1.94,.7h0Z"/><path class="d" d="M95.61,61.32c-2.81,1.68-5.33,3.83-7.43,6.34-.4,.48,.36,.53,.69,.5,.38-.03,.77-.11,1.13-.25,.27-.1,.62-.22,.81-.45,2-2.4,4.35-4.43,7.02-6.03,.11-.07,.38-.27,.34-.45s-.39-.21-.51-.22c-.7-.03-1.45,.19-2.05,.55h0Z"/><path class="d" d="M94.82,61.16c-.06,.06-.13,.12-.2,.17,.28-.21,.06-.05,0,0-.13,.12-.27,.23-.4,.35-.33,.28-.66,.57-.98,.86-.49,.44-.94,.91-1.41,1.37-.53,.51-1.12,.97-1.61,1.52-.18,.2-.32,.49-.25,.77s.35,.47,.6,.54c.68,.2,1.57,0,2.05-.55s1.08-1.01,1.61-1.52c.47-.45,.92-.93,1.41-1.37,.06-.06,.12-.13,.19-.17l-.12,.11,.13-.12c.12-.11,.24-.21,.37-.32,.34-.29,.68-.59,1.01-.89,.19-.17,.32-.52,.25-.77-.07-.27-.35-.47-.6-.54-.75-.21-1.49,.05-2.05,.55h0Z"/><path class="d" d="M89.12,56.19c-.94,.98-1.89,1.93-2.8,2.94-1.08,1.2-2.08,2.48-3.1,3.73-.43,.53,.37,.84,.78,.84,.69,0,1.47-.24,1.91-.79,1.01-1.24,2-2.5,3.07-3.69,.07-.08,.37-.39,.08-.09,.09-.09,.17-.19,.26-.28,.18-.19,.35-.37,.53-.56,.52-.55,1.05-1.09,1.58-1.63,.15-.16,.36-.37,.29-.62-.06-.23-.35-.36-.56-.39-.63-.11-1.58,.06-2.05,.55h0Z"/><path class="d" d="M90.29,56.84c-1.94,2.7-4.14,5.2-6.55,7.49-.47,.45,.42,.52,.69,.5,.64-.06,1.45-.24,1.94-.7,2.5-2.37,4.77-4.99,6.78-7.79,.31-.44-1.06-.32-1.17-.3-.58,.11-1.33,.29-1.7,.8h0Z"/><path class="d" d="M87.33,61.18l5.52-4.89c.48-.43-.43-.45-.67-.42-.63,.07-1.45,.24-1.94,.68l-5.52,4.89c-.48,.43,.43,.45,.67,.42,.63-.07,1.45-.24,1.94-.68h0Z"/></g></g></svg>