<?xml version="1.0" encoding="UTF-8"?><svg xmlns="http://www.w3.org/2000/svg" viewBox="0 0 119.76 114.53"><defs><style>.d{fill:#faa49b;}.e{fill:#fff;}.f{fill:#7e7e7e;}</style></defs><g id="a"/><g id="b"><g id="c"><path class="d" d="M50.4,10.04c1.47-2.54,3.84-4.37,6.68-5.13,.95-.25,1.91-.38,2.87-.38,1.91,0,3.79,.5,5.48,1.48,2.54,1.47,4.36,3.84,5.12,6.68,.76,2.84,.37,5.8-1.1,8.35-3.03,5.25-9.77,7.06-15.03,4.03-5.25-3.03-7.06-9.77-4.03-15.03Z"/><path class="e" d="M12.73,105.51c-.33,.7-.92,1.21-1.66,1.43-.74,.23-1.51,.14-2.17-.24h0l-3-1.73c-.66-.38-1.13-1.01-1.3-1.76-.17-.75-.03-1.51,.41-2.15L37.84,52.83,12.73,105.51Z"/><path class="e" d="M58.94,108.44c-.33,.7-.92,1.21-1.66,1.43-.74,.23-1.51,.14-2.17-.24h0l-3-1.73c-.66-.38-1.13-1.01-1.3-1.76-.17-.75-.03-1.51,.41-2.15l32.83-48.24-25.11,52.69Z"/><g><path class="f" d="M59.9,31.07c5.37,0,10.61-2.79,13.48-7.76,2.08-3.59,2.63-7.78,1.55-11.79-1.07-4.01-3.64-7.36-7.24-9.43C64.11,.01,59.92-.54,55.91,.53c-4.01,1.07-7.36,3.65-9.43,7.24-3.78,6.54-2.23,14.71,3.27,19.49L1.26,98.52c-1.13,1.66-1.53,3.75-1.08,5.71,.45,1.96,1.71,3.67,3.45,4.67l3,1.73c1.11,.64,2.37,.97,3.64,.97,.72,0,1.45-.11,2.15-.33,1.93-.6,3.54-1.99,4.41-3.81L53.82,29.82c1.97,.84,4.03,1.25,6.08,1.25Zm-9.5-21.03c1.47-2.54,3.84-4.37,6.68-5.13,.95-.25,1.91-.38,2.87-.38,1.91,0,3.79,.5,5.48,1.48,2.54,1.47,4.36,3.84,5.12,6.68,.76,2.84,.37,5.8-1.1,8.35-3.03,5.25-9.77,7.06-15.03,4.03-5.25-3.03-7.06-9.77-4.03-15.03ZM12.73,105.51c-.33,.7-.92,1.21-1.66,1.43-.74,.23-1.51,.14-2.17-.24h0l-3-1.73c-.66-.38-1.13-1.01-1.3-1.76-.17-.75-.03-1.51,.41-2.15L37.84,52.83,12.73,105.51Z"/><path class="f" d="M119.69,25.49l-5.03-18.78c-.32-1.21-1.56-1.93-2.78-1.6-1.21,.32-1.93,1.57-1.6,2.78l4.44,16.59-16.59,4.44c-.16,.04-.31,.11-.46,.18-.67,.08-1.3,.43-1.71,1.03L47.51,101.33c-1.15,1.7-1.55,3.81-1.09,5.81,.46,2,1.74,3.73,3.51,4.76l2.88,1.66c1.11,.64,2.37,.97,3.64,.97,.72,0,1.45-.11,2.15-.33,1.93-.6,3.54-1.99,4.41-3.81L99.8,33.17l18.28-4.9c1.21-.32,1.93-1.57,1.6-2.78ZM58.91,108.44c-.33,.7-.92,1.21-1.66,1.43-.74,.23-1.51,.14-2.17-.24h0l-2.88-1.66c-.7-.4-1.18-1.06-1.36-1.84-.18-.79-.03-1.58,.42-2.25l32.75-48.13-25.11,52.69Z"/></g></g></g></svg>