<?xml version="1.0" encoding="UTF-8"?><svg xmlns="http://www.w3.org/2000/svg" viewBox="0 0 102.8 113.76"><defs><style>.d{fill:#faa49b;}.e{fill:#fff;}.f{fill:#7e7e7e;}</style></defs><g id="a"/><g id="b"><g id="c"><path class="f" d="M101.02,19.31c-3.64-9.57-8.22-15.44-14.02-17.94-7.8-3.36-16.15,.11-23.52,3.18-4.4,1.83-8.55,3.56-12.08,3.7-3.53-.15-7.68-1.87-12.08-3.7C31.95,1.49,23.6-1.98,15.8,1.38,10,3.87,5.41,9.74,1.77,19.31c-3.41,8.98-1.33,19.24,1.43,29.02,.88,3.12,3.76,5.3,7,5.3h28.95l.58,10.62h-11.45c-1.25,0-2.27,1.02-2.27,2.27s1.02,2.27,2.27,2.27h11.7l.51,9.31h-8.58c-1.25,0-2.27,1.02-2.27,2.27s1.02,2.27,2.27,2.27h8.83l.51,9.31h-5.7c-1.25,0-2.27,1.02-2.27,2.27s1.02,2.27,2.27,2.27h5.95l.51,9.26c.25,4.5,3.97,8.03,8.48,8.03h1.8c4.51,0,8.24-3.53,8.48-8.03l.51-9.26h5.95c1.25,0,2.27-1.02,2.27-2.27s-1.02-2.27-2.27-2.27h-5.7l.51-9.31h8.83c1.25,0,2.27-1.02,2.27-2.27s-1.02-2.27-2.27-2.27h-8.58l.51-9.31h11.7c1.25,0,2.27-1.02,2.27-2.27s-1.02-2.27-2.27-2.27h-11.45l.58-10.62h28.95c3.24,0,6.12-2.18,7.01-5.33,2.75-9.75,4.83-20.01,1.42-28.99ZM56.25,105.48c-.11,2.1-1.85,3.75-3.96,3.75h-1.8c-2.1,0-3.84-1.65-3.96-3.75l-.49-9.01h10.7l-.49,9.01Zm.74-13.55h-11.19l-.51-9.31h12.22l-.51,9.31Zm.76-13.84h-12.71l-.51-9.31h13.74l-.51,9.31Zm.76-13.84h-14.23l-.58-10.62h15.4l-.58,10.62Zm36.71-17.15c-.33,1.18-1.42,2-2.64,2H10.21c-1.22,0-2.3-.82-2.64-2.03-2.54-9-4.49-18.4-1.55-26.15,3.18-8.36,6.96-13.39,11.58-15.38,1.64-.71,3.36-1,5.13-1,4.74,0,9.86,2.13,14.85,4.2,4.82,2,9.37,3.9,13.74,4.05,.05,0,.11,0,.16,0,4.36-.15,8.92-2.05,13.74-4.05,6.86-2.85,13.95-5.8,19.99-3.2,4.61,1.99,8.4,7.02,11.58,15.38,2.94,7.75,1,17.15-1.56,26.18Z"/><path class="e" d="M95.22,47.1c-.33,1.18-1.42,2-2.64,2H10.21c-1.22,0-2.3-.82-2.64-2.03-2.54-9-4.49-18.4-1.55-26.15,3.18-8.36,6.96-13.39,11.58-15.38,1.64-.71,3.36-1,5.13-1,4.74,0,9.86,2.13,14.85,4.2,4.82,2,9.37,3.9,13.74,4.05,.05,0,.11,0,.16,0,4.36-.15,8.92-2.05,13.74-4.05,6.86-2.85,13.95-5.8,19.99-3.2,4.61,1.99,8.4,7.02,11.58,15.38,2.94,7.75,1,17.15-1.56,26.18Z"/><polygon class="d" points="58.51 64.25 44.28 64.25 43.7 53.63 59.1 53.63 58.51 64.25"/><polygon class="d" points="57.75 78.09 45.04 78.09 44.53 68.78 58.27 68.78 57.75 78.09"/><polygon class="d" points="57 91.93 45.8 91.93 45.29 82.63 57.51 82.63 57 91.93"/><path class="d" d="M56.25,105.48c-.11,2.1-1.85,3.75-3.96,3.75h-1.8c-2.1,0-3.84-1.65-3.96-3.75l-.49-9.01h10.7l-.49,9.01Z"/></g></g></svg>