<?xml version="1.0" encoding="UTF-8"?><svg xmlns="http://www.w3.org/2000/svg" viewBox="0 0 102.93 109.75"><defs><style>.d{fill:#faa49b;}.e{fill:#fff;}.f{fill:#7e7e7e;}</style></defs><g id="a"/><g id="b"><g id="c"><path class="e" d="M71.08,109.75s-.08,0-.12,0c-7.21-.15-9.67-9.22-11.85-17.22-1.68-6.18-3.58-13.18-6.96-13.18h-1.25c-3.38,0-5.28,7-6.96,13.18-2.17,8-4.64,17.07-11.85,17.22-5.31,.1-13.38-6.63-28.45-60.17l-.32-1.14C.57,38.68-1.51,28.42,1.91,19.44,5.54,9.87,10.13,4,15.93,1.51c7.8-3.36,16.15,.11,23.52,3.18,4.4,1.83,8.55,3.56,12.08,3.7,3.52-.15,7.68-1.88,12.08-3.7,7.37-3.06,15.72-6.54,23.52-3.18,5.8,2.5,10.39,8.37,14.02,17.94,3.41,8.98,1.33,19.24-1.42,28.99l-.32,1.14c-14.95,53.12-22.99,60.17-28.32,60.17Z"/><path class="d" d="M101.02,19.31c-3.64-9.57-8.22-15.44-14.02-17.94-7.8-3.36-16.15,.11-23.52,3.18-4.4,1.83-8.55,3.56-12.08,3.7-3.52-.15-7.68-1.88-12.08-3.7C31.95,1.49,23.6-1.98,15.8,1.38,10,3.88,5.41,9.74,1.78,19.31c-3.41,8.98-1.33,19.24,1.42,28.99l.32,1.14c14.96,53.13,22.99,60.17,28.32,60.17,.04,0,.08,0,.13,0,7.21-.15,9.67-9.22,11.85-17.22,1.68-6.18,3.58-13.18,6.96-13.18h1.25c3.38,0,5.28,7,6.96,13.18,2.17,8,4.64,17.07,11.85,17.22,.04,0,.08,0,.13,0,5.33,0,13.37-7.05,28.32-60.17l.32-1.14c2.75-9.75,4.83-20.01,1.42-28.99Zm-5.79,27.76l-.32,1.15c-15.21,54.01-22.59,56.87-23.97,56.87h-.02c-3.82-.08-5.81-7.41-7.57-13.88-2.21-8.12-4.49-16.52-11.33-16.52h-1.25c-6.84,0-9.13,8.4-11.33,16.52-1.76,6.47-3.75,13.8-7.57,13.88h-.02c-1.38,0-8.77-2.85-23.97-56.87l-.32-1.15c-2.54-9-4.49-18.4-1.55-26.15,3.18-8.36,6.96-13.39,11.58-15.38,6.04-2.6,13.13,.35,19.99,3.2,4.82,2,9.37,3.9,13.74,4.05,.05,0,.11,0,.16,0,1.57-.06,3.17-.34,4.79-.77l-17.54,16.29c-.67,.63-.9,1.6-.58,2.46,.32,.86,1.13,1.44,2.05,1.47l17.12,.52-19.9,19.83c-.89,.88-.89,2.32,0,3.21,.44,.44,1.02,.67,1.61,.67s1.16-.22,1.6-.66l23.63-23.55c.64-.64,.84-1.6,.51-2.44s-1.13-1.41-2.04-1.43l-16.85-.51,19.45-18.07c.41-.38,.64-.88,.7-1.4,6.61-2.74,13.38-5.37,19.19-2.87,4.61,1.99,8.4,7.02,11.58,15.38,2.94,7.75,1,17.15-1.55,26.15Z"/><path class="f" d="M80.23,.13V5.13c1.8,0,3.41,.32,4.93,.97,4.49,1.94,8.2,6.88,11.33,15.12,2.9,7.62,.96,16.93-1.56,25.86l-.32,1.14c-6.58,23.38-12.42,39.86-17.36,48.98-3.23,5.97-5.44,7.54-6.18,7.54h0c-3.47-.07-5.5-7.53-7.13-13.53-2.15-7.9-4.58-16.86-11.78-16.86h-1.25c-7.2,0-9.63,8.96-11.78,16.86-1.63,6-3.66,13.46-7.13,13.53-.72,0-2.92-1.57-6.15-7.53-4.95-9.13-10.79-25.61-17.37-49l-.32-1.15c-2.52-8.93-4.46-18.24-1.56-25.86,3.13-8.24,6.84-13.19,11.33-15.12,1.51-.65,3.12-.97,4.93-.97,4.67,0,9.77,2.12,14.7,4.17,4.82,2,9.37,3.9,13.79,4.08h.42c4.41-.18,8.97-2.08,13.79-4.08,4.93-2.05,10.03-4.17,14.7-4.17V.13m0,0c-5.67,0-11.39,2.38-16.62,4.55-4.4,1.83-8.55,3.56-12.08,3.7-3.52-.15-7.68-1.88-12.08-3.7C34.23,2.51,28.51,.13,22.84,.13c-2.32,0-4.64,.4-6.9,1.38C10.13,4,5.54,9.87,1.91,19.44c-3.41,8.98-1.33,19.24,1.42,28.99l.32,1.14c14.97,53.17,23.03,60.17,28.34,60.17,.04,0,.07,0,.11,0,7.21-.15,9.67-9.22,11.85-17.22,1.68-6.18,3.58-13.18,6.96-13.18h1.25c3.38,0,5.28,7,6.96,13.18,2.17,8,4.64,17.07,11.85,17.22,.04,0,.08,0,.12,0,5.33,0,13.37-7.05,28.32-60.17l.32-1.14c2.76-9.75,4.84-20.01,1.42-28.99-3.64-9.57-8.22-15.44-14.02-17.94-2.27-.98-4.58-1.38-6.9-1.38h0Z"/></g></g></svg>