<?xml version="1.0" encoding="UTF-8"?><svg xmlns="http://www.w3.org/2000/svg" viewBox="0 0 102.94 109.62"><defs><style>.d{fill:#faa49b;}.e{fill:#fff;}.f{fill:#7e7e7e;}</style></defs><g id="a"/><g id="b"><g id="c"><g><path class="e" d="M70.95,109.62s-.08,0-.12,0c-7.21-.15-9.67-9.22-11.85-17.22-1.68-6.18-3.58-13.18-6.96-13.18h-1.25c-3.38,0-5.28,7-6.96,13.18-2.17,8-4.64,17.07-11.85,17.22-5.31,.1-13.38-6.63-28.45-60.17l-.32-1.14C.44,38.55-1.64,28.29,1.78,19.31,5.41,9.74,10,3.88,15.8,1.38c7.8-3.36,16.15,.11,23.52,3.18,4.4,1.83,8.55,3.56,12.08,3.7,3.52-.15,7.68-1.88,12.08-3.7,7.37-3.06,15.72-6.54,23.52-3.18,5.8,2.5,10.39,8.37,14.02,17.94,3.41,8.98,1.33,19.24-1.42,28.99l-.32,1.14c-14.95,53.12-22.99,60.17-28.32,60.17Z"/><g><path class="f" d="M101.16,19.31c-3.64-9.57-8.22-15.44-14.02-17.94-7.8-3.36-16.16,.11-23.52,3.18-4.4,1.83-8.55,3.56-12.08,3.7-3.52-.15-7.68-1.88-12.08-3.7C32.1,1.49,23.74-1.98,15.94,1.38,10.14,3.88,5.55,9.74,1.92,19.31c-3.41,8.98-1.33,19.24,1.42,28.99l.32,1.14c15.07,53.55,23.07,60.29,28.45,60.18,7.21-.15,9.67-9.22,11.85-17.22,1.68-6.18,3.58-13.18,6.96-13.18h1.25c3.38,0,5.28,7,6.96,13.18,2.17,8,4.64,17.07,11.85,17.22,.04,0,.08,0,.13,0,5.33,0,13.37-7.05,28.33-60.18l.32-1.14c2.75-9.75,4.83-20.01,1.42-28.99Zm-5.79,27.76l-.32,1.14c-15.21,54.02-22.59,56.87-23.97,56.87h-.02c-3.82-.08-5.81-7.41-7.56-13.88-2.21-8.12-4.49-16.52-11.33-16.52h-1.25c-6.85,0-9.13,8.4-11.33,16.52-1.76,6.47-3.75,13.8-7.57,13.87h-.02c-1.38,0-8.77-2.85-23.97-56.87l-.32-1.14c-2.54-9-4.49-18.4-1.55-26.15,3.18-8.36,6.96-13.39,11.58-15.38,6.04-2.6,13.13,.35,19.99,3.2,4.82,2,9.37,3.9,13.74,4.05,.05,0,.11,0,.16,0,4.36-.15,8.92-2.05,13.74-4.05,6.86-2.85,13.94-5.8,19.99-3.2,4.61,1.99,8.4,7.02,11.58,15.38,2.94,7.75,1,17.15-1.55,26.15Z"/><path class="d" d="M70.94,22.55c-1.51-3.96-3.47-6.42-6.02-7.52-3.47-1.5-7.05-.01-9.92,1.18-1.5,.62-2.92,1.21-3.98,1.28-1.06-.06-2.48-.65-3.98-1.28-2.87-1.2-6.45-2.68-9.92-1.18-2.54,1.1-4.51,3.55-6.02,7.51,0,.02-.02,.05-.03,.07-.58,1.59-.36,3.32,.61,4.73,.98,1.42,2.6,2.29,4.32,2.31l29.98,.41h.07c1.59,0,3.09-.71,4.1-1.94,1.02-1.25,1.42-2.86,1.09-4.44-.09-.43-.2-.8-.32-1.13Zm-4.27,2.69c-.09,.11-.26,.26-.61,.29h0l-29.98-.41c-.37,0-.58-.25-.65-.35-.09-.13-.18-.34-.09-.6v-.03c1.04-2.71,2.24-4.37,3.58-4.95,1.71-.74,3.98,.21,6.38,1.21,1.84,.77,3.75,1.56,5.64,1.63,.05,0,.11,0,.16,0,1.89-.07,3.8-.86,5.64-1.63,2.4-1,4.67-1.94,6.38-1.21,1.34,.58,2.54,2.25,3.57,4.96,.05,.14,.09,.3,.13,.47,.06,.29-.07,.51-.15,.61Z"/><path class="d" d="M66.67,25.24c-.09,.11-.26,.26-.61,.29h0l-29.98-.41c-.37,0-.58-.25-.65-.35-.09-.13-.18-.34-.09-.6v-.03c1.04-2.71,2.24-4.37,3.58-4.95,1.71-.74,3.98,.21,6.38,1.21,1.84,.77,3.75,1.56,5.64,1.63,.05,0,.11,0,.16,0,1.89-.07,3.8-.86,5.64-1.63,2.4-1,4.67-1.94,6.38-1.21,1.34,.58,2.54,2.25,3.57,4.96,.05,.14,.09,.3,.13,.47,.06,.29-.07,.51-.15,.61Z"/></g></g></g></g></svg>