<?xml version="1.0" encoding="UTF-8"?><svg xmlns="http://www.w3.org/2000/svg" viewBox="0 0 128.23 177.24"><defs><style>.f{fill:#faa49b;}.g{fill:#fff;}.h{fill:#7e7e7e;}</style></defs><g id="a"/><g id="b"><g id="c"><g id="d"><g id="e"><g><path class="g" d="M99.2,71.18c-.97,.36-5.59,2.93-6.36,3.02-4.38,15.38-17.1,27.64-28.96,27.64-7.45,0-16.54-5.36-22.91-14.66-1.7,6.53-4.81,12.9-7.65,17.83,3.29-1.56,6.66-3.18,9.88-5.04,.57-.32,1.26-.37,1.86-.13,.61,.25,1.07,.76,1.25,1.39l17.57,61.6,17.48-61.08c.18-.63,.64-1.14,1.25-1.39s1.29-.2,1.86,.13c1.47,.85,2.96,1.63,4.46,2.38,4.15-7.45,10.1-14.72,10.54-22.87,.04-.7-.14-6.67-.27-8.81h0Zm-6.94-22.35c-1.17,.04-1.08,1.02-1.04,2.19s.01,2.05,1.19,2.06c.17,0,5.16-.08,6.23,2.9,.94,2.64,2.1,7.63-.7,11.37-2.01,2.66-5.79,2.69-6.61,2.64-1.02-.07-.96,.62-1.21,1.62-3.92,16.04-14.48,25.97-26.24,25.97-9.28,0-21.7-10.67-25.38-26.56-.25-1.08-1.29-1.78-2.39-1.62-.46,.06-.86,.28-1.17,.58-1.21-.13-3.1-.66-4.58-2.63-2.81-3.74-1.64-8.73-.7-11.37,.46-1.29,1.47-2.14,3.07-2.6,1.13-.32,1.78-1.5,1.46-2.63-.29-1.02-1.29-1.64-2.3-1.51-.54-2.08-.72-3.92-1.01-6.9l-.19-1.95c-1.18-20.91,13.42-33.13,27.49-35.63,13.55-2.41,30.79,3.54,36.49,22.27,.02,.05,.03,.09,.05,.14,2.06,5.38,4.76,9.39,6.3,15.15,.78,.8,.14,9.2-.13,11.78-2.46-1.18-8.47-5.27-8.64-5.26h0Z"/><path class="g" d="M122.99,175.15c-.06-2.7-.05-5.56-.04-8.6,.05-15.06,.12-33.8-9.07-43.76-6-6.38-13.05-9.64-20.52-13.1-2.84-1.31-5.75-2.66-8.65-4.21l-18.79,65.67c-.26,.91-1.09,1.54-2.04,1.54h0c-.95,0-1.78-.63-2.04-1.54l-18.88-66.18c-2.8,1.5-5.64,2.85-8.4,4.16-7.77,3.69-15.1,7.17-21.21,13.67-9.18,9.95-9.11,28.69-9.06,43.75,.01,3.03,.02,5.9-.04,8.59-.03,1.16-.97,2.08-2.12,2.08h-.05c-.1,0-.2-.02-.3-.04v.04H124.92v-.02c-1.06-.07-1.9-.98-1.93-2.07v.02Z"/></g><g><path class="h" d="M69.87,109.82c-1.84-1.12-3.43-2.58-4.72-4.33-.45-.6-1.18-.93-1.93-.85s-1.4,.55-1.71,1.23c-.43,.94-1.46,2.7-3.54,3.93-2.09,1.24-4.15,1.28-5.19,1.19-1.18-.09-2.2,.78-2.29,1.95-.1,1.17,.78,2.2,1.95,2.29,1.54,.12,4.59,.06,7.7-1.77,1.57-.92,2.73-2.06,3.58-3.13,1.18,1.19,2.5,2.23,3.94,3.11,1.89,1.15,3.94,1.99,6.09,2.5,.16,.04,.33,.06,.49,.06,.96,0,1.84-.66,2.07-1.64,.27-1.14-.44-2.29-1.58-2.56-1.72-.4-3.35-1.07-4.85-1.99h0Z"/><path class="h" d="M127.2,166.57c.06-15.8,.13-35.47-10.21-46.68-6.58-7-14.34-10.59-21.84-14.06-.79-.37-1.59-.73-2.39-1.11,4.44-8.06,6.72-17.26,6.45-26.09-.04-1.15-.98-2.06-2.12-2.06h-.07c-1.17,.04-2.1,1.02-2.06,2.19,.25,8.15-1.89,16.66-6.04,24.1-1.5-.75-2.99-1.53-4.46-2.38-.57-.33-1.25-.38-1.86-.13s-1.07,.76-1.25,1.39l-17.48,61.08-17.57-61.6c-.18-.63-.64-1.14-1.25-1.39-.61-.24-1.29-.2-1.86,.13-3.22,1.86-6.59,3.48-9.88,5.04,2.84-4.94,5.95-11.31,7.65-17.84,6.36,9.3,15.46,14.66,22.91,14.66,11.86,0,24.58-12.26,28.96-27.64,2.04-.22,5.12-1.13,7.5-4.29,4-5.33,2.54-11.9,1.3-15.35-2.12-5.93-9.09-5.73-9.38-5.72-1.17,.05-2.07,1.03-2.04,2.19,.04,1.17,1.01,2.05,2.19,2.05,.17,0,4.16-.08,5.23,2.9,.94,2.64,2.11,7.63-.7,11.37-2,2.67-4.79,2.69-5.61,2.65-1.02-.07-1.96,.61-2.21,1.62-3.92,16.04-16.16,25.97-25.24,25.97s-21.7-10.67-25.38-26.56c-.25-1.08-1.28-1.78-2.39-1.62-.46,.07-.86,.28-1.17,.58-1.21-.12-3.09-.66-4.58-2.63-2.81-3.73-1.64-8.73-.7-11.37,.46-1.29,1.46-2.13,3.07-2.6,1.13-.32,1.78-1.5,1.46-2.63-.29-1.02-1.28-1.65-2.3-1.52-.54-2.07-.72-3.91-1.01-6.89l-.19-1.95c-1.18-20.92,13.43-33.13,27.5-35.63,13.55-2.41,29.79,3.54,35.49,22.27,.01,.05,.03,.09,.05,.14,2.06,5.38,3.16,10.64,3.38,16.07,.05,1.17,1.05,2.09,2.21,2.04,1.17-.05,2.09-1.04,2.04-2.21-.24-5.88-1.43-11.56-3.63-17.35C91.24,4.56,72.82-2.15,57.44,.58c-15.86,2.82-32.32,16.55-30.99,40.15l.2,2.03c.33,3.38,.55,5.61,1.36,8.4-1.06,.9-1.86,2.04-2.35,3.4-1.23,3.45-2.7,10.03,1.31,15.35,2.55,3.4,5.91,4.19,7.97,4.33,.75,2.63,1.71,5.1,2.83,7.4-1.36,10.13-7.69,20.93-11.34,26.47-.08,.11-.14,.23-.19,.36-5.64,2.89-11.18,6.31-16,11.44C-.09,131.09-.02,150.76,.04,166.57c0,3,.02,5.84-.04,8.49-.03,1.17,.9,2.15,2.08,2.17h.05c1.15,0,2.1-.92,2.12-2.08,.06-2.7,.05-5.56,.04-8.59-.05-15.06-.12-33.81,9.06-43.75,6.11-6.5,13.44-9.98,21.21-13.67,2.76-1.31,5.6-2.66,8.4-4.16l18.88,66.18c.26,.91,1.09,1.54,2.04,1.54h0c.95,0,1.78-.63,2.04-1.54l18.79-65.67c2.9,1.55,5.81,2.9,8.65,4.21,7.47,3.45,14.52,6.72,20.52,13.1,9.19,9.96,9.12,28.7,9.07,43.76-.01,3.04-.02,5.9,.04,8.6,.03,1.17,.99,2.15,2.17,2.08,1.17-.03,2.1-1,2.08-2.17-.06-2.64-.05-5.48-.04-8.49h0Z"/><path class="h" d="M92.52,40.15c-8.35-3.83-14.3-8.67-17.69-14.37-.35-.59-.96-.97-1.63-1.03-.69-.06-1.35,.2-1.79,.72-4.91,5.6-15,9-23.91,11.99-3.8,1.28-7.38,2.48-10.38,3.79-1.08,.47-1.57,1.72-1.1,2.8,.35,.8,1.13,1.28,1.95,1.28,.28,0,.57-.06,.85-.18,2.82-1.23,6.33-2.41,10.03-3.66,8.43-2.83,17.86-6,23.81-11.27,3.95,5.47,10.02,10.11,18.08,13.8,1.07,.49,2.33,.02,2.82-1.05s.02-2.33-1.05-2.82h.01Z"/><path class="f" d="M112.45,61.98c.25,0,.51-.05,.76-.14l13.65-5.22c1.1-.42,1.65-1.65,1.23-2.75s-1.66-1.64-2.75-1.23l-13.65,5.22c-1.1,.42-1.65,1.65-1.23,2.75,.32,.85,1.13,1.37,1.99,1.37Z"/><path class="f" d="M126.82,72.86l-13.65-4.91c-1.1-.4-2.32,.17-2.72,1.28-.4,1.1,.18,2.32,1.28,2.72l13.65,4.91c.24,.09,.48,.13,.72,.13,.87,0,1.69-.54,2-1.41,.4-1.1-.18-2.32-1.28-2.72Z"/></g></g></g></g></g></svg>