<?xml version="1.0" encoding="UTF-8"?><svg xmlns="http://www.w3.org/2000/svg" viewBox="0 0 103.19 109.75"><defs><style>.d{fill:#fff;}.e{fill:#7e7e7e;}.f{fill:#faa49b;}</style></defs><g id="a"/><g id="b"><g id="c"><g><path class="d" d="M70.95,109.75s-.08,0-.12,0c-7.21-.15-9.67-9.22-11.85-17.22-1.68-6.18-3.58-13.18-6.96-13.18h-1.25c-3.38,0-5.28,7-6.96,13.18-2.17,8-4.64,17.07-11.85,17.22-5.31,.1-13.38-6.63-28.45-60.17l-.32-1.14C.44,38.68-1.64,28.42,1.78,19.44,5.41,9.87,10,4,15.8,1.51c7.8-3.36,16.15,.11,23.52,3.18,4.4,1.83,8.55,3.56,12.08,3.7,3.52-.15,7.68-1.88,12.08-3.7,7.37-3.06,15.72-6.54,23.52-3.18,5.8,2.5,10.39,8.37,14.02,17.94,3.41,8.98,1.33,19.24-1.42,28.99l-.32,1.14c-14.95,53.12-22.99,60.17-28.32,60.17Z"/><g><path class="e" d="M87.39,1.38c-7.8-3.36-16.15,.11-23.52,3.18-4.4,1.83-8.55,3.56-12.08,3.7-3.52-.15-7.68-1.88-12.08-3.7C32.35,1.49,24-1.98,16.19,1.38,10.39,3.88,5.8,9.74,2.17,19.31c-3.41,8.98-1.33,19.24,1.42,28.99l.32,1.14c14.95,53.13,23,60.18,28.32,60.18,.04,0,.08,0,.13,0,7.21-.15,9.67-9.22,11.85-17.22,1.68-6.18,3.58-13.18,6.96-13.18h1.25c3.38,0,5.28,7,6.96,13.18,2.17,8,4.64,17.07,11.85,17.22,.04,0,.08,0,.13,0,5.33,0,13.37-7.05,28.32-60.17l.32-1.14c2.76-9.75,4.84-20.01,1.42-28.99-3.64-9.57-8.22-15.44-14.02-17.94Zm8.24,45.7l-.32,1.15c-15.2,54.01-22.59,56.87-23.97,56.87h-.02c-3.82-.08-5.81-7.41-7.57-13.88-2.21-8.12-4.49-16.52-11.33-16.52h-1.25c-6.85,0-9.13,8.4-11.33,16.52-1.76,6.47-3.75,13.8-7.56,13.87h-.02c-1.38,0-8.77-2.85-23.97-56.87l-.32-1.15c-2.54-9-4.49-18.4-1.55-26.15,3.18-8.36,6.96-13.39,11.58-15.38,6.04-2.6,13.13,.35,19.99,3.2,4.82,2,9.37,3.9,13.74,4.05,.05,0,.11,0,.16,0,4.36-.15,8.92-2.05,13.74-4.05,6.86-2.85,13.95-5.8,19.99-3.2,4.61,1.99,8.4,7.02,11.58,15.38,2.94,7.75,1,17.15-1.55,26.15Z"/><path class="f" d="M91.7,27.27c-10.77-1.46-11.62-2.32-13.09-13.09-.09-.64-.64-1.12-1.29-1.12s-1.2,.48-1.29,1.12c-1.46,10.77-2.32,11.62-13.09,13.09-.64,.09-1.12,.64-1.12,1.29s.48,1.2,1.12,1.29c10.77,1.46,11.62,2.32,13.09,13.09,.09,.64,.64,1.12,1.29,1.12s1.2-.48,1.29-1.12c1.46-10.77,2.32-11.62,13.09-13.09,.64-.09,1.12-.64,1.12-1.29s-.48-1.2-1.12-1.29Zm-14.37,8.47c-1.18-4.11-3.07-6-7.18-7.18,4.12-1.18,6-3.07,7.18-7.18,1.18,4.12,3.07,6,7.18,7.18-4.12,1.18-6,3.07-7.18,7.18Z"/></g></g></g></g></svg>