<?xml version="1.0" encoding="UTF-8"?><svg xmlns="http://www.w3.org/2000/svg" viewBox="0 0 102.8 109.62"><defs><style>.d{fill:#faa49b;}.e{fill:#fff;}.f{fill:#7e7e7e;}</style></defs><g id="a"/><g id="b"><g id="c"><path class="e" d="M70.95,109.62s-.08,0-.12,0c-7.21-.15-9.67-9.22-11.85-17.22-1.68-6.18-3.58-13.18-6.96-13.18h-1.25c-3.38,0-5.28,7-6.96,13.18-2.17,8-4.64,17.07-11.85,17.22-5.31,.1-13.38-6.63-28.45-60.17l-.32-1.14C.44,38.55-1.64,28.29,1.78,19.31,5.41,9.74,10,3.88,15.8,1.38c7.8-3.36,16.15,.11,23.52,3.18,4.4,1.83,8.55,3.56,12.08,3.7,3.52-.15,7.68-1.88,12.08-3.7,7.37-3.06,15.72-6.54,23.52-3.18,5.8,2.5,10.39,8.37,14.02,17.94,3.41,8.98,1.33,19.24-1.42,28.99l-.32,1.14c-14.95,53.12-22.99,60.17-28.32,60.17Z"/><path class="f" d="M101.02,19.31c-3.64-9.57-8.22-15.44-14.02-17.94-7.8-3.36-16.15,.11-23.52,3.18-4.4,1.83-8.55,3.56-12.08,3.7-3.52-.15-7.68-1.87-12.08-3.7C31.96,1.49,23.6-1.98,15.8,1.38,10,3.88,5.41,9.74,1.78,19.31c-3.41,8.98-1.33,19.24,1.42,28.99l.32,1.14c14.96,53.13,23,60.18,28.33,60.18,.04,0,.08,0,.12,0,7.21-.15,9.67-9.22,11.85-17.22,1.68-6.18,3.58-13.18,6.96-13.18h1.25c3.38,0,5.28,7,6.96,13.18,2.17,8,4.64,17.07,11.85,17.22,.04,0,.08,0,.12,0,5.33,0,13.37-7.05,28.33-60.18l.32-1.14c2.75-9.75,4.83-20.02,1.42-28.99ZM6.02,20.92c3.18-8.36,6.96-13.39,11.58-15.38,6.04-2.6,13.13,.35,19.99,3.2,4.82,2,9.37,3.9,13.74,4.05,.05,0,.11,0,.16,0,4.36-.15,8.92-2.05,13.74-4.05,6.86-2.85,13.94-5.8,19.99-3.2,4.61,1.99,8.4,7.02,11.58,15.38,2.04,5.36,1.73,11.51,.51,17.77h-28.69c-.39-4.73-4.35-8.46-9.18-8.46h-16.32c-4.83,0-8.79,3.73-9.18,8.46H5.51c-1.22-6.26-1.53-12.41,.51-17.77Zm32.4,18.53c0-2.58,2.1-4.68,4.68-4.68h16.32c2.58,0,4.68,2.1,4.68,4.68v4.48c0,2.58-2.1,4.68-4.68,4.68h-16.32c-2.58,0-4.68-2.1-4.68-4.68v-4.48Zm56.5,8.77c-15.21,54.02-22.59,56.87-23.97,56.87h-.02c-3.82-.08-5.81-7.41-7.56-13.88-2.21-8.12-4.49-16.52-11.33-16.52h-1.25c-6.85,0-9.13,8.4-11.33,16.52-1.76,6.47-3.75,13.8-7.57,13.88h-.02c-1.38,0-8.77-2.86-23.97-56.87l-.32-1.15c-.36-1.27-.71-2.56-1.03-3.84h27.34v.7c0,5.08,4.13,9.22,9.22,9.22h16.32c5.08,0,9.22-4.13,9.22-9.22v-.7h27.63c-.32,1.28-.67,2.57-1.03,3.84l-.32,1.15Z"/><path class="d" d="M43.1,34.77h16.32c2.58,0,4.68,2.1,4.68,4.68v4.48c0,2.58-2.1,4.68-4.68,4.68h-16.32c-2.58,0-4.68-2.1-4.68-4.68v-4.48c0-2.58,2.1-4.68,4.68-4.68Z"/></g></g></svg>