<?xml version="1.0" encoding="UTF-8"?><svg xmlns="http://www.w3.org/2000/svg" viewBox="0 0 167.8 146.5"><defs><style>.d{fill:#fff;}.d,.e{stroke-linejoin:round;}.d,.e,.f{stroke:#7e7e7e;stroke-linecap:round;stroke-width:5.67px;}.e,.f{fill:none;}.g{fill:#faa49b;}</style></defs><g id="a"/><g id="b"><g id="c"><g><g><path class="d" d="M103.34,129.58c25.5-.9,54.29-.14,56.37-.69,2.79-.76,5.26-2.51,5.26-5.55v-19.33c0-.26-.12-.49-.15-.75,.06-.5,.14-1,.14-1.53v-25.66c-.01-6.99-6.72-17.55-13.81-25.85,.68-.32,1.44-.58,1.98-.99,2.82-2.11,4.27-10.18,.88-12.72-1.62-1.2-6.76-1.4-11.48-1.31-2.77-6.42-5.86-13.25-7.92-16.83-4.69-8.11-12.8-13.73-27.94-14.62-10.26-.6-22.35-.91-22.35-.91,0,0-12.1,.33-22.34,.93-15.15,.91-23.23,6.52-27.94,14.66-2.07,3.57-5.14,10.38-7.9,16.8-4.83-.12-10.28,.06-11.94,1.3-3.38,2.54-1.92,10.61,.88,12.72,.68,.51,1.58,.87,2.49,1.24-7.46,8.72-14.71,19.57-14.7,24.79v26.54c0,.49,.08,.96,.14,1.43-.05,.29-.16,.55-.16,.85v19.3c0,3.04,2.48,4.87,5.27,5.55,3.56,.86,31.63-.18,57.26,.65"/><path class="e" d="M20.63,92.09c-.82-1.45-1.29-3.13-1.29-4.91,0-5.53,4.49-10.02,10.02-10.02s10.01,4.49,10.01,10.02"/><path class="e" d="M39.37,87.17c0,5.53-4.48,10.01-10.01,10.01-2.13,0-4.1-.66-5.72-1.79"/><path class="e" d="M128.53,93.15c-1.24-1.67-1.98-3.74-1.98-5.98,0-5.53,4.48-10.02,10-10.02s10.02,4.49,10.02,10.02"/><path class="e" d="M146.57,87.17c0,5.53-4.47,10.01-10.02,10.01-1.38,0-2.69-.28-3.89-.79"/><rect class="d" x="66.37" y="116.8" width="35.93" height="19.27"/><line class="f" x1="52.65" y1="76.9" x2="111.92" y2="76.9"/><line class="f" x1="52.65" y1="88.44" x2="111.92" y2="88.44"/><line class="f" x1="52.65" y1="99.99" x2="111.92" y2="99.99"/><path class="d" d="M43.31,52.54h92.75c-6.71-12.17-15.04-26.35-15.58-27.28-4.45-7.69-12.4-9.11-18.83-9.48-7.67-.45-16.75-.7-17.94-.74-1.19,.03-10.27,.3-17.94,.75-12.24,.74-16.49,5.47-18.83,9.52-.53,.92-8.94,15.2-15.81,27.24"/><circle class="g" cx="29.32" cy="86.92" r="8.05"/><circle class="g" cx="136.56" cy="87.17" r="8.3"/></g><path class="d" d="M41.46,132.11v5.72c0,3.22-3.27,5.83-7.3,5.83h-10.19c-4.03,0-7.3-2.61-7.3-5.83v-5.51"/><path class="d" d="M152.92,132.11v5.72c0,3.22-3.27,5.83-7.3,5.83h-10.19c-4.03,0-7.3-2.61-7.3-5.83v-5.51"/></g></g></g></svg>