<?xml version="1.0" encoding="UTF-8"?><svg xmlns="http://www.w3.org/2000/svg" viewBox="0 0 249.9 129.21"><defs><style>.d{fill:#faa49b;}.e{fill:#fff;}.f{fill:none;stroke:#7e7e7e;stroke-linecap:round;stroke-linejoin:round;stroke-width:5.67px;}</style></defs><g id="a"/><g id="b"><g id="c"><g><path class="e" d="M193.41,113.71c-3.24-1.15-8.58-7.85-2.72-9.69,1.09-.34,3.68-.09,4.7,.5,1.23,.72,.99-.05,1.18,1.77,.1,.94-.21,1.94-.64,2.77s-1.91,1.81-1.23,1.88l4.21,1.74c-2.87-3.36,3.22-4.01-5.02-.44-.51,.22,1.06,.42,.54,.41-7.66-.13-7.67,11.78,0,11.91s13.09-6.7,11.54-13.93c-1.32-6.18-8.86-13.53-15.49-9.61s-4.8,14.27-.81,19.13c5.08,6.19,13.03,.63,16.24-4.59,3.41-5.55,3.66-13.73-.87-18.78s-14.86-6.25-20.7-2.96-9.06,10.54-7.72,17.13c1.45,7.09,7.04,11.93,13.62,14.25,7.24,2.56,10.35-8.94,3.17-11.48h0Z"/><path class="e" d="M47.5,110.25c-1.4,1.14-3.71,1.84-4.39-.22-.47-1.43,1.23-5.28,2.44-6.1,.91-.62,.13-.6,.85-.24,.88,.44,1,2.82,.94,3.56-.08,.82-.36,1.62-.78,2.32-.25,.5-.6,.92-1.06,1.26-1.41,.77-.86,1.11,1.64,1.01l2.74,3.56c-.74-2.06-1.45-5.54-.19-7.48,1.12-1.71,5.62-3.67,7.43-4.21l-4.59-.6c-1.93-1.16-.77,.33-.93,1.79s-.73,2.84-1.53,4.06c-1.3,1.99-3.28,3.58-5.48,4.49l6.72,8.75,.42-.58c1.24-1.73,.95-4.25,0-6.01l-.34-.63c-3.63-6.75-13.92-.74-10.28,6.01l.34,.63v-6.01l-.42,.58c-2.87,4.01,1.98,10.71,6.72,8.75,5.73-2.37,10.78-5.99,13.56-11.71,2.53-5.22,3.65-13.43-.23-18.34-4.72-5.96-13.33-.53-17.93,2.98-5.64,4.3-6.43,10.8-5.49,17.4,1,7.07,6.86,10.07,13.15,6.38,5.43-3.19,8.76-9.51,8.41-15.77s-4.44-13.15-11.12-14.25c-6.19-1.02-11.48,3.21-14.18,8.47-3.27,6.38-4.19,14.55,1.69,19.77,6.19,5.49,14.47,3.55,20.31-1.2s-2.52-13.21-8.42-8.42h0Z"/><path class="e" d="M29.88,16.63c22.93-.51,45.87-.7,68.81-.54,11.3,.08,22.6,.24,33.9,.48,5.65,.12,11.3,.26,16.95,.43,2.66,.08,5.32,.16,7.97,.24,2.23,.07,6.02-.5,8.05,.58l-2.74-6.72c.09-.24-6.74,.14-7.37,.17-3.64,.19-7.27,.37-10.91,.56-7.27,.36-14.55,.7-21.82,.99-14.21,.57-28.44,.94-42.66,.91s-28.42-.47-42.6-1.53c-5.75-.43-12.25-1.39-16.91,2.87-3.83,3.51-4.53,8.69-2.24,13.19,.93,1.82,3.14,2.97,5.14,2.95,28.62-.33,57.24-.78,85.85-1.39,13.98-.29,27.95-.62,41.92-.98,6.94-.18,14.1,.11,21-.63,5.16-.55,8.84-3.42,9.31-8.74l-10.16,4.21,7.4,8.83,4.21-10.16c-32.1,1.09-64.21,.27-96.31-.49-15.89-.38-31.78-.73-47.67-.8-11.12-.05-31.19-.71-30.3,15.75,.17,3.17,2.59,6.01,5.95,5.95l90.11-1.55,44.56-.77,21.79-.37c4.67-.08,16.18-2.2,17.62,4.13l5.74-7.54c-34.9,.82-69.8,1.33-104.7,1.51-17.29,.09-34.57,.1-51.86,.03-11.6-.05-28.82-2.13-35.03,10.52-1.95,3.96,.38,8.96,5.14,8.96,37-.01,74-.02,110.99-.03l55-.02c8.81,0,18.4,1.11,27.12-.09,6.64-.92,10.33-9.35,3.53-13.24l-6.01,10.28,12.83,5.63,3-11.09c-60.06,2.22-120.15,3.55-180.25,3.79-7.23,.03-14.46,.04-21.68,.04-2.94,0-5.86-.43-8.18,1.74s-3.42,6.37-2.61,9.49c1.07,4.1,5.81,7.67,9.88,8.08,7.46,.75,15.44-.28,22.94-.32,30.42-.16,60.83,.97,91.24,1.71,34.34,.83,68.72,1.12,103-1.42,3.51-.26,5.55-2.54,5.95-5.95,1.03-8.72-9.52-9.38-15.47-9.26-9.55,.19-19.06,.95-28.53,2.16l1.58,11.69c8.04-2.96,16.31-4.38,24.89-3.87,5.21,.31,14.32,1.26,16.55,7.04l5.74-7.54c-77.34,5.69-154.98,6.93-232.46,3.71-3.16-.13-6.02,2.83-5.95,5.95l.22,9.83c.07,3.19,2.67,5.98,5.95,5.95l122.67-1.14,60.84-.57,29.92-.28c8.47-.08,18.22,1.26,24.89-5.02l-10.16-4.21-.17,8.81,5.95-5.95c-32.78,3.23-65.73,3.93-98.65,3.13-32.16-.78-64.17-3.46-96.27-5.21-7.73-.42-15.48-.7-23.23-.65-6.04,.04-15.06-1.17-19.4,4.12-3.98,4.85-2.14,12.13,4.1,13.87,3.39,.95,7.47,.56,10.97,.71,4.64,.19,9.27,.38,13.91,.56,32.45,1.23,64.92,2.03,97.4,2.39,37.11,.41,74.23,.23,111.34-.49l-5.74-4.37c-.24-1.64-2.39-.76-4.1-.76-2.64,0-5.29-.09-7.93-.13l-13.88-.23-27.76-.47-57.51-.96-115.02-1.93c-7.66-.13-7.67,11.78,0,11.91l199.3,3.34c8.67,.15,17.72,1.05,26.36,.28,7.89-.7,13.21-6.18,12.03-14.21-.37-2.5-3.37-4.42-5.74-4.37-60.64,1.19-121.3,.88-181.91-.97-14.91-.46-29.81-1-44.71-1.64l-1.99-.09c-3.51-.78-3.6,1.11-.27,5.66,1.1,.43,3.58-.15,4.76-.19,3.22-.09,6.45-.12,9.68-.1,7.75,.05,15.49,.41,23.22,.87,29.82,1.8,59.57,4.11,89.44,4.91,33.9,.91,67.85,.27,101.61-3.05,3.25-.32,5.88-2.47,5.95-5.95l.17-8.81c.1-5.31-6.5-7.65-10.16-4.21-2.75,2.59-9.07,1.46-12.49,1.5l-13.96,.13-27.92,.26-58.84,.55-116.69,1.09,5.95,5.95-.22-9.83-5.95,5.95c77.49,3.22,155.12,1.99,232.46-3.71,3.48-.26,7.24-3.65,5.74-7.54-8.03-20.82-39.38-17.63-56.08-11.49-5.78,2.12-5.56,12.61,1.58,11.69,5.88-.75,11.77-1.35,17.68-1.72,2.63-.16,5.26-.29,7.89-.37,1.64-.05,3.29-.09,4.93-.11,.66-.01,1.32-.02,1.97-.02,1.79,.28,1.66-.58-.39-2.59l5.95-5.95c-37.25,2.75-74.61,2.17-111.93,1.19-18.51-.49-37.02-1.06-55.54-1.33-9.25-.14-18.51-.2-27.77-.14-4.63,.03-9.25,.09-13.88,.18-.64,.01-6.89,.36-6.94,.17,2.11,1.43,2.59,1.65,1.43,.66-1.5-1.48-1.66-1.2-.48,.85l-5.14,2.95c68.66,.04,137.3-1.3,205.91-3.83,5.38-.2,8.78-8.56,3-11.09l-12.83-5.63c-6.84-3-12.83,6.37-6.01,10.28l.55,.32-2.74-3.56,.16,.69,.6-4.59c3.51-1.5,3.77-2.08,.78-1.73h-44l-49,.03c-32.33,0-64.66,.02-97,.03l5.14,8.96c2.22-4.52,8.03-4.59,12.49-4.68,7.74-.14,15.5,.07,23.23,.08,16.29,.03,32.58,0,48.87-.11,32.24-.21,64.49-.71,96.72-1.46,3.99-.09,6.61-3.72,5.74-7.54-3.55-15.64-23.07-12.97-35.04-12.77l-50.5,.87-100.01,1.72,5.95,5.95c-.3-5.54,12.04-3.86,15.42-3.85,6.62,.02,13.24,.08,19.86,.18,14.24,.21,28.47,.58,42.7,.91,28.13,.66,56.26,1.16,84.39,.21,5.43-.18,7.49-6.25,4.21-10.16l-7.4-8.83c-3.63-4.33-9.76-.42-10.16,4.21l2.07-3.2c-.49,.15-.99,.2-1.51,.15-1.25-.36-3.76,.1-4.99,.14-2.99,.08-5.99,.16-8.98,.24-6.32,.17-12.64,.33-18.96,.48-12.64,.31-25.29,.58-37.93,.83-25.29,.5-50.58,.89-75.87,1.18l5.14,2.95c-.39,1.35-.08,1.84,.93,1.46,.52-.1,1.05-.12,1.58-.06,1.46,0,2.93,.19,4.38,.3,3.3,.25,6.59,.49,9.89,.68,6.6,.39,13.2,.65,19.81,.81,13.55,.33,27.11,.21,40.66-.15,13.23-.36,26.46-.95,39.68-1.61,9.53-.48,24.69,1.71,28.76-9.42,.87-2.37-.56-5.56-2.74-6.72-4.38-2.34-9.22-2.05-14.06-2.21-5.98-.19-11.96-.36-17.94-.51-12.3-.3-24.59-.51-36.89-.61-24.27-.21-48.53-.03-72.79,.51-7.65,.17-7.68,12.08,0,11.91h0Z"/><g><path class="f" d="M4.6,101.9c1.67,3.14,4.95,5.3,8.74,5.34,2.31,.02,4.14,.06,4.22,.12l10.77,.02c-.01,.19-.03,.37-.03,.56,0,10.16,8.26,18.43,18.42,18.43"/><path class="f" d="M76.27,107.61l86.84,.31c-47.87,0-46.36,.44-86.84-.31Zm-29.54,18.76c10.16,0,18.42-8.27,18.42-18.43,0-.16-.02-.32-.03-.48l109.07,.21c-.01,.09-.02,.18-.02,.27,0,10.16,8.26,18.43,18.42,18.43s18.42-8.27,18.42-18.43c0-.06-.01-.13-.01-.19l11.2,.02,15.06-.3c5.45-.1,9.81-4.55,9.81-9.99v-.09l-.29-31.16-41.86-22.16L171.93,6.26c-1.89-2.18-4.65-3.43-7.53-3.43h-.07m.07,0h-.07L31.41,3.79c-3.89,.03-7.42,2.32-9.03,5.87L4.6,48.79m242.46,48.69v-.09"/><path class="f" d="M4.6,101.9c-.71-1.36-1.13-2.89-1.15-4.52l-.62-44.68,1.77-3.91"/><path class="f" d="M184.73,44.8l-23.82-27.4H93.09l.68,27.06,90.96,.33Z"/><polygon class="f" points="78.29 17.57 37.28 17.57 25.26 44.81 78.54 44.45 78.29 17.57"/><path class="f" d="M210.99,107.75c-.11-10.07-8.32-18.22-18.41-18.22s-18.26,8.12-18.4,18.14"/><path class="f" d="M65.11,107.46c-.26-9.93-8.4-17.93-18.39-17.93s-18.09,7.96-18.39,17.85"/><path class="f" d="M236.22,89.56h2.93l-.46-16.88h-2.47c-2.83,0-5.13,2.3-5.13,5.13v6.62c0,2.83,2.3,5.13,5.13,5.13Z"/></g><circle class="d" cx="46.99" cy="107.93" r="9.22"/><circle class="d" cx="192.59" cy="107.72" r="9.22"/></g></g></g></svg>