<svg xmlns="http://www.w3.org/2000/svg" xmlns:xlink="http://www.w3.org/1999/xlink" width="504.132" height="166.838" viewBox="0 0 504.132 166.838"><defs><style>.a{fill:none;}.b{fill:#38a1db;}.c{clip-path:url(#a);}</style><clipPath id="a"><rect class="a" width="504.132" height="166.838"/></clipPath></defs><rect class="b" width="154.66" height="35.195" transform="translate(20.712 0)"/><g class="c"><path class="b" d="M45.7,17.369c0,9.547-10.231,17.287-22.851,17.287S0,26.916,0,17.369,10.231.082,22.852.082,45.7,7.822,45.7,17.369"/><rect class="b" width="29.768" height="18.956" transform="translate(0 16.239)"/><rect class="b" width="154.66" height="35.195" transform="translate(21.456 65.822)"/><path class="b" d="M46.447,83.648c0-9.547-10.231-17.287-22.851-17.287S.744,74.1.744,83.648,10.975,100.935,23.6,100.935s22.851-7.74,22.851-17.287"/><rect class="b" width="29.768" height="18.956" transform="translate(0.744 65.822)"/><rect class="b" width="154.66" height="35.195" transform="translate(0 131.643)"/><path class="b" d="M129.669,149.469c0-9.547,10.231-17.287,22.851-17.287s22.852,7.74,22.852,17.287-10.231,17.287-22.852,17.287-22.851-7.74-22.851-17.287"/><rect class="b" width="29.768" height="18.956" transform="translate(145.604 131.643)"/><path class="b" d="M218.6,110.976h-5.2v-9.8h4.976v1.039h-3.828v3.261H218.1v1.032h-3.541v3.432H218.6Z"/><path class="b" d="M228.249,110.976h-1.121v-3.992q0-2.229-1.627-2.229a1.765,1.765,0,0,0-1.392.633,2.341,2.341,0,0,0-.55,1.6v3.992h-1.121v-7h1.121v1.162h.028a2.524,2.524,0,0,1,2.3-1.326,2.145,2.145,0,0,1,1.758.742,3.3,3.3,0,0,1,.608,2.143Z"/><path class="b" d="M238.435,110.976h-1.121v-1.189h-.027a2.826,2.826,0,0,1-4.515.414,3.856,3.856,0,0,1-.79-2.561,4.191,4.191,0,0,1,.875-2.782,2.886,2.886,0,0,1,2.331-1.046,2.245,2.245,0,0,1,2.1,1.135h.027v-4.334h1.121Zm-1.121-3.165v-1.032a2,2,0,0,0-.561-1.436,1.881,1.881,0,0,0-1.421-.588,1.938,1.938,0,0,0-1.614.752,3.3,3.3,0,0,0-.588,2.078,2.964,2.964,0,0,0,.564,1.911,1.845,1.845,0,0,0,1.515.7,1.916,1.916,0,0,0,1.521-.677,2.524,2.524,0,0,0,.584-1.709"/><path class="b" d="M245.73,111.141a3.247,3.247,0,0,1-2.478-.981,3.631,3.631,0,0,1-.926-2.6,3.784,3.784,0,0,1,.964-2.755,3.462,3.462,0,0,1,2.6-.991,3.138,3.138,0,0,1,2.444.964,3.822,3.822,0,0,1,.878,2.672,3.764,3.764,0,0,1-.946,2.684,3.32,3.32,0,0,1-2.54,1.008m.083-6.385a2.135,2.135,0,0,0-1.71.734,3.024,3.024,0,0,0-.629,2.028,2.855,2.855,0,0,0,.636,1.962,2.162,2.162,0,0,0,1.7.717,2.045,2.045,0,0,0,1.67-.7,3.051,3.051,0,0,0,.585-2,3.1,3.1,0,0,0-.585-2.023,2.037,2.037,0,0,0-1.67-.711"/><path class="b" d="M259.194,110.977v-9.8H261.9q5.181,0,5.181,4.778a4.816,4.816,0,0,1-1.439,3.648,5.338,5.338,0,0,1-3.852,1.377Zm1.148-8.764v7.725H261.8a4.148,4.148,0,0,0,3-1.033,3.87,3.87,0,0,0,1.073-2.925q0-3.767-4.006-3.767Z"/><path class="b" d="M276.585,107.756h-4.942a2.619,2.619,0,0,0,.629,1.805,2.168,2.168,0,0,0,1.654.636,3.437,3.437,0,0,0,2.174-.78v1.053a4.067,4.067,0,0,1-2.44.67,2.96,2.96,0,0,1-2.331-.953,3.907,3.907,0,0,1-.848-2.684,3.829,3.829,0,0,1,.926-2.662,2.97,2.97,0,0,1,2.3-1.029,2.628,2.628,0,0,1,2.125.889,3.7,3.7,0,0,1,.752,2.467Zm-1.148-.95a2.284,2.284,0,0,0-.468-1.511,1.6,1.6,0,0,0-1.282-.54,1.812,1.812,0,0,0-1.347.568,2.572,2.572,0,0,0-.683,1.483Z"/><path class="b" d="M286.191,110.976H285.07v-3.992q0-2.229-1.627-2.229a1.763,1.763,0,0,0-1.391.633,2.341,2.341,0,0,0-.55,1.6v3.992H280.38v-7H281.5v1.162h.027a2.527,2.527,0,0,1,2.3-1.326,2.142,2.142,0,0,1,1.757.742,3.3,3.3,0,0,1,.608,2.143Z"/><path class="b" d="M293.65,110.908a2.159,2.159,0,0,1-1.046.219q-1.839,0-1.839-2.051v-4.143h-1.2v-.957h1.2v-1.709l1.121-.362v2.071h1.764v.957h-1.764v3.945a1.633,1.633,0,0,0,.24,1.005.954.954,0,0,0,.793.3,1.178,1.178,0,0,0,.731-.232Z"/><path class="b" d="M302.258,110.976h-1.121v-1.094h-.027a2.348,2.348,0,0,1-2.154,1.258,2.3,2.3,0,0,1-1.637-.554,1.918,1.918,0,0,1-.591-1.469q0-1.962,2.31-2.284l2.1-.294q0-1.784-1.442-1.784a3.445,3.445,0,0,0-2.284.862v-1.149a4.341,4.341,0,0,1,2.379-.656q2.467,0,2.468,2.611Zm-1.121-3.541-1.688.232a2.747,2.747,0,0,0-1.176.387,1.114,1.114,0,0,0-.4.981,1.071,1.071,0,0,0,.366.838,1.419,1.419,0,0,0,.974.324,1.807,1.807,0,0,0,1.378-.584,2.094,2.094,0,0,0,.543-1.481Z"/><rect class="b" width="1.121" height="10.363" transform="translate(306.471 100.613)"/><path class="b" d="M324.719,110.566a5.748,5.748,0,0,1-2.707.574,4.369,4.369,0,0,1-3.35-1.346,4.974,4.974,0,0,1-1.257-3.535,5.2,5.2,0,0,1,1.415-3.8,4.8,4.8,0,0,1,3.588-1.45,5.753,5.753,0,0,1,2.311.4v1.223a4.7,4.7,0,0,0-2.324-.588,3.567,3.567,0,0,0-2.738,1.128,4.248,4.248,0,0,0-1.049,3.015,4.042,4.042,0,0,0,.981,2.854,3.334,3.334,0,0,0,2.573,1.063,4.832,4.832,0,0,0,2.557-.656Z"/><rect class="b" width="1.121" height="10.363" transform="translate(328.664 100.613)"/><path class="b" d="M334.729,102.2a.709.709,0,0,1-.513-.2.694.694,0,0,1-.212-.52.717.717,0,0,1,.725-.731.725.725,0,0,1,.523.208.731.731,0,0,1,0,1.036.716.716,0,0,1-.523.212m.547,8.777h-1.121v-7h1.121Z"/><path class="b" d="M345.456,110.976h-1.121v-3.992q0-2.229-1.627-2.229a1.763,1.763,0,0,0-1.391.633,2.341,2.341,0,0,0-.55,1.6v3.992h-1.122v-7h1.122v1.162h.027a2.527,2.527,0,0,1,2.3-1.326,2.142,2.142,0,0,1,1.757.742,3.3,3.3,0,0,1,.608,2.143Z"/><path class="b" d="M350.243,102.2a.709.709,0,0,1-.513-.2.694.694,0,0,1-.212-.52.717.717,0,0,1,.725-.731.724.724,0,0,1,.523.208.731.731,0,0,1,0,1.036.716.716,0,0,1-.523.212m.547,8.777h-1.121v-7h1.121Z"/><path class="b" d="M359.931,110.655a3.649,3.649,0,0,1-1.914.485,3.168,3.168,0,0,1-2.417-.974,3.533,3.533,0,0,1-.919-2.526,3.885,3.885,0,0,1,.991-2.779,3.47,3.47,0,0,1,2.646-1.049,3.683,3.683,0,0,1,1.627.342V105.3a2.856,2.856,0,0,0-1.668-.546,2.251,2.251,0,0,0-1.761.769,2.917,2.917,0,0,0-.687,2.02,2.781,2.781,0,0,0,.646,1.941,2.228,2.228,0,0,0,1.733.711,2.814,2.814,0,0,0,1.723-.608Z"/><path class="b" d="M252.87,78.725a4.17,4.17,0,0,0-.759,1.785c-.068.464-.15.731-.246.8a1.5,1.5,0,0,1-.718.123q-8.183.513-14.909.513-7.485,0-10.336-1.292a8.381,8.381,0,0,1-3.978-4.163,46.2,46.2,0,0,1-4.43,4.081q-.882.738-.964.841-.246.369-.451.369a.633.633,0,0,1-.513-.328,18.1,18.1,0,0,1-1.21-2.235,19.007,19.007,0,0,0,2.6-1.559,23.545,23.545,0,0,0,3.732-3.4v-10.4h-3.014l-2.871.082c-.246,0-.37-.116-.37-.348V61.745c0-.219.124-.328.37-.328l2.871.082h2.174l3.035-.082a.29.29,0,0,1,.328.328l-.082,3.958v8.736a7.093,7.093,0,0,0,3.732,4.1q2.44,1.045,8.408,1.046,8.265,0,17.6-.862M223.011,52.8a.347.347,0,0,1,.061.164c0,.1-.13.253-.389.471l-1.026.8a1.316,1.316,0,0,1-.512.287c-.083,0-.178-.082-.288-.246a33.482,33.482,0,0,0-4.573-5.927.451.451,0,0,1-.164-.287q0-.143.369-.389l1.026-.718a.79.79,0,0,1,.41-.2.354.354,0,0,1,.246.123,40.814,40.814,0,0,1,4.84,5.927m28.136,3.322a.29.29,0,0,1-.328.328l-5.926-.082H230.7l-5.927.082a.29.29,0,0,1-.328-.328V54.567c0-.246.11-.369.328-.369l5.927.082h5.455V50.9h-3.24l-5.5.082q-.286,0-.287-.369V49.092q0-.328.287-.329l5.5.083h3.24a19.88,19.88,0,0,0-.287-3.938q1.539.062,2.6.2c.3.055.451.185.451.39a1.719,1.719,0,0,1-.205.533,12.243,12.243,0,0,0-.164,2.81h3.937l5.5-.083q.35,0,.349.329v1.517q0,.369-.349.369l-5.5-.082h-3.937V54.28h6.337l5.926-.082q.328,0,.328.369Zm.841,18.518A4.493,4.493,0,0,0,250.983,76q-.348.738-.574.738a1.89,1.89,0,0,1-.6-.184q-8.038-3.344-11.607-8.655.04,2.523.144,6.624.081,3.138.082,3.241c0,.218-.117.328-.349.328H236.2c-.191,0-.287-.11-.287-.328q0-.062.082-3.9.062-3.466.082-5.722a30.982,30.982,0,0,1-9.249,7.137,2.875,2.875,0,0,1-.574.205c-.137,0-.321-.2-.554-.6a6.127,6.127,0,0,0-1.128-1.169,28.813,28.813,0,0,0,10.541-7.136h-1.681l-5.271.082a.29.29,0,0,1-.328-.328l.1-2.564v-2.03l-.1-2.564a.29.29,0,0,1,.328-.328l5.271.082h7.854l5.291-.082a.29.29,0,0,1,.328.328l-.082,2.564v2.03l.082,2.564a.29.29,0,0,1-.328.328l-5.291-.082h-2.112a16.922,16.922,0,0,0,4,3.876,25.262,25.262,0,0,0,3.609-2.871,7.894,7.894,0,0,0,1.128-1.415,14.093,14.093,0,0,1,1.948,1.333.53.53,0,0,1,.247.43q0,.246-.411.369a3.907,3.907,0,0,0-1.353.8q-1.62,1.293-3.363,2.482a36.406,36.406,0,0,0,7.013,3.055M244.462,60.9H230.23V64.7h14.232Z"/><path class="b" d="M277.2,54.957l-.082,4.573V73.373l.041,5.557a3.593,3.593,0,0,1-1.005,2.892,5.427,5.427,0,0,1-3.26.718h-.39a1.392,1.392,0,0,1-.779-.123,1.878,1.878,0,0,1-.267-.718,4.625,4.625,0,0,0-.718-1.559q1.232.1,2.133.1.369,0,.677-.021,1.4-.062,1.394-1.722V71.609h-5.332a30.651,30.651,0,0,1-2.645,10.5q-.246.553-.431.554a1.476,1.476,0,0,1-.6-.369,4.58,4.58,0,0,0-1.415-.923,21.583,21.583,0,0,0,2.5-7.116,78.31,78.31,0,0,0,.6-11.28V59.53l-.082-4.573a.29.29,0,0,1,.328-.328l3.158.082h2.646l3.2-.082a.29.29,0,0,1,.328.328m24.63-4.471q0,.329-.348.328l-5.5-.082h-5.762l.082,1.518a.29.29,0,0,1-.328.328h-1.764a.29.29,0,0,1-.328-.328c0-.041.007-.219.02-.533.028-.329.048-.657.062-.985h-9.208l.082,2.4q0,.369-.328.369h-1.764q-.328,0-.328-.369,0-.021.02-.759.042-.759.062-1.641h-5.435l-5.455.082a.29.29,0,0,1-.328-.328V48.8a.29.29,0,0,1,.328-.328l5.455.082h5.435a14.863,14.863,0,0,0-.308-3.486q1.293.062,2.523.226c.314.041.472.15.472.328a1.11,1.11,0,0,1-.165.553,6.36,6.36,0,0,0-.266,2.379h9.208a17.242,17.242,0,0,0-.267-3.486,17.909,17.909,0,0,1,2.543.267c.274.041.41.15.41.328a2.156,2.156,0,0,1-.164.553,6.189,6.189,0,0,0-.266,2.338h5.762l5.5-.082c.232,0,.348.11.348.328ZM274.948,69.6V64.144h-5.086q-.1,5-.123,5.455Zm0-12.8h-5.086v5.332h5.086Zm27.973,14.151a5.12,5.12,0,0,0-1.087,1.333c-.205.4-.376.595-.513.595a2.905,2.905,0,0,1-.635-.329,25.816,25.816,0,0,1-7.014-6.726h-7.506a23.36,23.36,0,0,1-6.521,6.685,1.644,1.644,0,0,1-.616.329q-.184,0-.553-.513a3.734,3.734,0,0,0-1.128-1.046,22.368,22.368,0,0,0,6.255-5.455l-5.168.082a.29.29,0,0,1-.328-.328v-1.4a.29.29,0,0,1,.328-.328l5.742.082h.718a19.961,19.961,0,0,0,1.6-3.4h-1.21l-5.475.082a.29.29,0,0,1-.328-.328v-1.4a.29.29,0,0,1,.328-.328l3.486.082a20.969,20.969,0,0,0-1.969-3.486.5.5,0,0,1-.123-.246c0-.069.123-.157.369-.267l.985-.369a1.085,1.085,0,0,1,.389-.123c.1,0,.185.068.267.2a25.088,25.088,0,0,1,2.4,4.286h1.477a20.141,20.141,0,0,0,.615-2.768,16.26,16.26,0,0,0,.226-2.728,22.226,22.226,0,0,1,2.256.41q.553.123.553.39a1.2,1.2,0,0,1-.328.656,6.638,6.638,0,0,0-.512,1.6q-.39,1.722-.636,2.44h3.794a31.149,31.149,0,0,0,1.722-2.85,5.914,5.914,0,0,0,.616-1.764,15.348,15.348,0,0,1,2.071.615c.246.11.369.253.369.431q0,.184-.328.451a2.637,2.637,0,0,0-.677.8,23.641,23.641,0,0,1-1.6,2.317l4.8-.082a.29.29,0,0,1,.329.328v1.4a.29.29,0,0,1-.329.328l-5.475-.082h-1.723a22.23,22.23,0,0,0,1.989,3.4h1.169l5.8-.082c.192,0,.287.11.287.328v1.4c0,.219-.1.328-.287.328l-5.475-.082a20.792,20.792,0,0,0,6.6,5.127m-15.545,4.532a2.656,2.656,0,0,1,.164.656q0,.288-.574.636a43.048,43.048,0,0,1-4.717,2.523,4.485,4.485,0,0,0-1.251.8.506.506,0,0,1-.389.246c-.137,0-.274-.1-.411-.287a17,17,0,0,1-1.086-1.968,14.274,14.274,0,0,0,2.337-.759,35.363,35.363,0,0,0,5.64-3.015,7.487,7.487,0,0,0,.287,1.169m-.677-2.4a.41.41,0,0,1,.123.225q0,.123-.328.41l-.923.759a.6.6,0,0,1-.328.164c-.082,0-.164-.068-.246-.2a19.873,19.873,0,0,0-2.44-2.871c-.1-.082-.144-.15-.144-.205s.116-.191.349-.369l.8-.636a.763.763,0,0,1,.348-.184.46.46,0,0,1,.267.143,27.68,27.68,0,0,1,2.522,2.769m4.512-5.127a3.179,3.179,0,0,1-.246.717,13.16,13.16,0,0,0-.164,2.851v3.712l.082,3.855a3.067,3.067,0,0,1-1.005,2.687q-.963.677-4.245.677a1.172,1.172,0,0,1-.7-.123,1.5,1.5,0,0,1-.267-.636,6.636,6.636,0,0,0-.677-1.6,28.662,28.662,0,0,0,3.179.226,1.288,1.288,0,0,0,1.436-1.477v-7.2a23.113,23.113,0,0,0-.287-4.266,14.5,14.5,0,0,1,2.378.247q.513.062.513.328m1.292-4.02a24.093,24.093,0,0,1-1.641-3.4h-2.173a26.087,26.087,0,0,1-1.477,3.4Zm8.224,15.114a6.5,6.5,0,0,0-1.128,1.169c-.246.37-.445.554-.6.554a1.683,1.683,0,0,1-.533-.205,30.032,30.032,0,0,1-6.419-4.409c-.109-.11-.164-.192-.164-.246s.109-.2.328-.39l.738-.636a.723.723,0,0,1,.369-.205.609.609,0,0,1,.308.164,29.32,29.32,0,0,0,7.1,4.2m-3.261-7.69q0,.225-.472.39a2.8,2.8,0,0,0-.882.676q-1.127,1.128-1.722,1.641a1.2,1.2,0,0,1-.492.287q-.185,0-.554-.39a4.936,4.936,0,0,0-1.087-.8,13.128,13.128,0,0,0,2.01-1.928,8,8,0,0,0,1.005-1.477,15.376,15.376,0,0,1,1.866,1.149c.219.15.328.3.328.451"/><path class="b" d="M352.049,56.864q0,.329-.348.328l-5.537-.082H321.8l-5.537.082a.29.29,0,0,1-.328-.328V55.182a.29.29,0,0,1,.328-.328l5.537.082h1.477V51.963a21.056,21.056,0,0,0-.328-4.573,25.088,25.088,0,0,1,2.768.246q.534.081.534.389a1.716,1.716,0,0,1-.246.8,8.826,8.826,0,0,0-.247,2.851v3.26h7.1V49.481a23.851,23.851,0,0,0-.287-4.573,26.32,26.32,0,0,1,2.748.246q.513.083.513.349a1.719,1.719,0,0,1-.246.8,9.766,9.766,0,0,0-.2,2.768h7.095l5.127-.082c.192,0,.287.11.287.328v1.6c0,.219-.1.328-.287.328l-5.127-.082h-7.095v3.773h10.787l5.537-.082c.232,0,.348.11.348.328Zm-2.009,3.322a2.552,2.552,0,0,1-.267.8,12.622,12.622,0,0,0-.205,3.076V75.977l.082,6.686q0,.307-.328.308h-1.907q-.328,0-.328-.308V80.571H320.693V82.5q0,.39-.328.39h-1.907q-.328,0-.328-.39l.082-6.522V63.939a23.938,23.938,0,0,0-.288-4.47,21.84,21.84,0,0,1,2.728.266c.3.041.451.151.451.328a2.71,2.71,0,0,1-.246.8,15.549,15.549,0,0,0-.164,3.076v14.4h26.394V64.062a27.625,27.625,0,0,0-.247-4.45,24.3,24.3,0,0,1,2.728.246c.314.041.472.151.472.328m-4,13.823a4.914,4.914,0,0,0-1.087,1.251c-.233.4-.41.594-.533.594a4.342,4.342,0,0,1-.636-.246,25.684,25.684,0,0,1-9.085-6.849q.04,2.358.143,5.537.083,2.419.082,2.584,0,.329-.348.328h-1.723a.29.29,0,0,1-.328-.328q0-.042.1-3.158.081-2.729.1-4.881a23.949,23.949,0,0,1-8.572,7.075,1.527,1.527,0,0,1-.615.246q-.227,0-.6-.513A3.8,3.8,0,0,0,321.9,74.6a25.145,25.145,0,0,0,9.454-6.849h-2.563l-5.558.082a.29.29,0,0,1-.328-.328v-1.4a.29.29,0,0,1,.328-.328l5.558.082h3.855V62.811a29.3,29.3,0,0,0-.287-4.286q.984.042,2.4.246c.328.055.493.171.493.349a1.49,1.49,0,0,1-.1.472c-.082.232-.13.376-.144.43a14.389,14.389,0,0,0-.164,2.789v3.056h4.328l5.578-.082q.287,0,.287.328v1.4c0,.218-.1.328-.287.328l-5.578-.082H335.93a26.131,26.131,0,0,0,10.111,6.255M329.552,63.345a.621.621,0,0,1,.062.2q0,.164-.41.389l-.841.452a1.33,1.33,0,0,1-.472.184c-.1,0-.191-.089-.287-.267a17.3,17.3,0,0,0-2.379-3.691.412.412,0,0,1-.123-.226q0-.142.41-.369l.882-.41a.93.93,0,0,1,.369-.164c.069,0,.171.082.308.246a20.44,20.44,0,0,1,2.481,3.651m13.433-2.892q0,.185-.328.451a2.431,2.431,0,0,0-.6.677,34.239,34.239,0,0,1-2.153,2.727q-.451.473-.574.472a2.154,2.154,0,0,1-.636-.287,6.286,6.286,0,0,0-.964-.431,26.623,26.623,0,0,0,2.44-3.363,4.678,4.678,0,0,0,.534-1.435l1.886.758q.39.185.39.431"/><path class="b" d="M381.84,66.667a6.3,6.3,0,0,0-.964,1.763c-.137.329-.266.493-.39.493s-.287-.123-.451-.369a40.655,40.655,0,0,1-4.327-7.4q.021,7.342.185,15.545.041,1.928.123,4.573.02,1.272.02,1.4a.29.29,0,0,1-.328.328H373.6a.29.29,0,0,1-.328-.328q0-.021.082-3.4.266-9.885.287-18.15a48.236,48.236,0,0,1-6.173,12.961c-.178.274-.328.41-.451.41s-.253-.157-.431-.471a5.869,5.869,0,0,0-1.169-1.723,41.2,41.2,0,0,0,7.342-13.228h-1.169l-5,.082q-.287,0-.287-.328v-1.64q0-.329.287-.328l5,.082h1.846V50.794q-2.133.553-4.45,1.005a5.24,5.24,0,0,1-.554.061q-.328,0-.656-.656a5.44,5.44,0,0,0-1.026-1.292A39.3,39.3,0,0,0,377.39,47a7.924,7.924,0,0,0,1.887-1.21,14.218,14.218,0,0,1,1.8,1.476,1.038,1.038,0,0,1,.369.7q0,.327-.676.389a6.64,6.64,0,0,0-1.8.534q-1.723.738-3.056,1.189v6.85h.554l4.983-.082q.35,0,.349.328v1.64q0,.328-.349.328l-4.983-.082h-.226a32.526,32.526,0,0,0,5.6,7.609M403.291,69.6a.862.862,0,0,1,.021.144c0,.1-.1.178-.308.246l-5.291,1.005v4.327l.082,7.26a.29.29,0,0,1-.328.328h-2.03a.29.29,0,0,1-.328-.328l.082-7.219V71.486l-8.265,1.6q-2.461.471-4.245.882-1.189.246-1.231.266a.859.859,0,0,1-.164.021c-.109,0-.177-.11-.205-.328l-.389-1.805v-.144c0-.123.1-.2.307-.225q2.6-.39,5.537-.985l8.655-1.7V51.327a41.872,41.872,0,0,0-.288-5.742,25.172,25.172,0,0,1,2.728.205q.553.083.554.369a2.747,2.747,0,0,1-.2.759,19.237,19.237,0,0,0-.267,4.327V68.554q2.911-.575,4.881-1.128a.622.622,0,0,1,.1-.021q.226,0,.267.349Zm-11.915-6.213a.523.523,0,0,1,.164.287q0,.1-.287.389l-.943,1.005q-.35.369-.472.369c-.055,0-.13-.054-.226-.164a33.748,33.748,0,0,0-5.844-5.311c-.123-.082-.185-.164-.185-.246s.1-.226.308-.431l.882-.841q.246-.246.369-.246a.6.6,0,0,1,.266.123,32.027,32.027,0,0,1,5.968,5.066m1.005-9.311c.109.109.164.191.164.246q0,.123-.246.369l-.964,1.026a1.974,1.974,0,0,1-.472.389c-.054,0-.123-.061-.205-.184a27.257,27.257,0,0,0-5.762-5.25c-.11-.082-.164-.151-.164-.205,0-.082.109-.24.328-.472l.882-.882q.246-.246.348-.246a.5.5,0,0,1,.246.123,29.233,29.233,0,0,1,5.845,5.086"/><path class="b" d="M452.522,80.489a.29.29,0,0,1-.328.328l-5.886-.082H420.9v1.887q0,.35-.369.349h-1.989q-.328,0-.329-.349l.082-8.572V56l-.082-8.531a.29.29,0,0,1,.329-.328l5.844.082h21.554l5.742-.082q.35,0,.349.328v1.907q0,.328-.349.328l-5.742-.082H420.9V78.336h25.409l5.886-.082a.29.29,0,0,1,.328.328Zm-1.415-6.234a5.723,5.723,0,0,0-1.107,1.6q-.288.615-.513.615a2.338,2.338,0,0,1-.574-.144q-8.471-2.952-12.223-9.782a13.924,13.924,0,0,1-4.245,6.05,23.491,23.491,0,0,1-7.219,3.835,2.057,2.057,0,0,1-.615.184q-.225,0-.554-.553a4.927,4.927,0,0,0-1.312-1.374,23.121,23.121,0,0,0,8.428-4.2,11.674,11.674,0,0,0,3.425-5.291h-5l-5.885.082a.291.291,0,0,1-.329-.329V63.3a.29.29,0,0,1,.329-.328l5.885.082h5.537a33.353,33.353,0,0,0,.431-5.8h-6.05a38.553,38.553,0,0,1-2.727,3.589q-.473.452-.636.451a1.933,1.933,0,0,1-.636-.369,4.423,4.423,0,0,0-1.374-.8A23.5,23.5,0,0,0,429,53.4a10.566,10.566,0,0,0,.84-2.769,16.69,16.69,0,0,1,2.4.718c.287.109.43.26.43.451,0,.164-.129.349-.389.554a4.941,4.941,0,0,0-.8,1.374l-.718,1.394h11.731l5.291-.082a.29.29,0,0,1,.328.328v1.6c0,.246-.11.369-.328.369l-5.291-.082h-4.45a42.669,42.669,0,0,1-.472,5.8h6.973l5.926-.082a.29.29,0,0,1,.328.328v1.64a.29.29,0,0,1-.328.329l-5.926-.082H438.29q3.609,6.172,12.817,9.064"/><path class="b" d="M479.973,48.6a.734.734,0,0,1-.328.553,3.815,3.815,0,0,0-.759,1.4,92.072,92.072,0,0,1-4.081,8.941,23.562,23.562,0,0,1,3.671,5.742,10.243,10.243,0,0,1,.738,3.876q0,5.209-5.516,5.537a1.392,1.392,0,0,1-.779-.123,2.105,2.105,0,0,1-.226-.717,3.085,3.085,0,0,0-.615-1.477,7.515,7.515,0,0,0,.779.041q4,0,4-3.466a9.065,9.065,0,0,0-1.128-4.122,37.918,37.918,0,0,0-3.445-5.127,74.507,74.507,0,0,0,4.491-10.459h-6.009V73.968l.082,8.695q0,.307-.328.308h-1.948c-.219,0-.328-.1-.328-.308l.082-8.613V55.921l-.082-8.716a.29.29,0,0,1,.328-.328l3.076.082h5.086a2.212,2.212,0,0,0,.964-.123,1.153,1.153,0,0,1,.472-.123q.286,0,1.045.759.759.819.759,1.128m24.138,27.931q-.267,3.691-1.5,4.758-1.23,1-4.84,1-3.117,0-3.917-.6-1.168-.778-1.169-3.322V66.257H488.73q-.164,7.3-2.933,11.238a16.309,16.309,0,0,1-7.423,5.394,5.046,5.046,0,0,1-.636.205q-.205,0-.636-.554a5.4,5.4,0,0,0-1.435-1.4q5.844-1.783,8.2-5.27,2.3-3.384,2.4-9.618l-5.6.082a.29.29,0,0,1-.328-.328V64.267a.29.29,0,0,1,.328-.328l5.64.082h10.705l5.64-.082a.29.29,0,0,1,.328.328v1.744a.29.29,0,0,1-.328.328l-5.64-.082h-1.846V77.721q0,1.578.513,1.886a4.6,4.6,0,0,0,2.338.369q2.462,0,3.117-.717a3.29,3.29,0,0,0,.513-1.559q.1-.778.205-2.974a5.732,5.732,0,0,0,1.538.8q.738.206.738.657c0,.082-.006.2-.02.348m-1.374-19.646c0,.218-.116.328-.349.328h-1.845a.291.291,0,0,1-.329-.328V52.619H482.783v4.266a.29.29,0,0,1-.328.328h-1.8c-.232,0-.349-.11-.349-.328l.041-3.507v-.964l-.041-1.682a.29.29,0,0,1,.328-.328l5.722.082h3.61v-.759a22.858,22.858,0,0,0-.288-4.327,23.447,23.447,0,0,1,2.769.267q.513.062.513.328a2.223,2.223,0,0,1-.2.8,8.625,8.625,0,0,0-.267,2.891v.8h4.2l5.722-.082a.29.29,0,0,1,.328.328l-.082,1.477v1.169Zm-3.63,2.153a.29.29,0,0,1-.328.328l-4.491-.082h-5.414l-4.512.082a.29.29,0,0,1-.328-.328V57.295a.29.29,0,0,1,.328-.328l4.512.082h5.414l4.491-.082a.29.29,0,0,1,.328.328Z"/></g></svg>