<svg xmlns="http://www.w3.org/2000/svg" xmlns:xlink="http://www.w3.org/1999/xlink" width="195.654" height="246.377" viewBox="0 0 195.654 246.377"><defs><style>.a{fill:none;}.b{fill:#38a1db;}.c{clip-path:url(#a);}</style><clipPath id="a"><rect class="a" width="195.654" height="246.377"/></clipPath></defs><rect class="b" width="154.66" height="35.195" transform="translate(30.39 0)"/><g class="c"><path class="b" d="M55.381,17.369c0,9.547-10.231,17.287-22.851,17.287S9.678,26.916,9.678,17.369,19.909.082,32.53.082s22.851,7.74,22.851,17.287"/><rect class="b" width="29.768" height="18.956" transform="translate(9.678 16.239)"/><rect class="b" width="154.66" height="35.195" transform="translate(31.135 65.822)"/><path class="b" d="M56.126,83.647c0-9.547-10.231-17.286-22.851-17.286S10.423,74.1,10.423,83.647s10.231,17.287,22.852,17.287,22.851-7.739,22.851-17.287"/><rect class="b" width="29.768" height="18.956" transform="translate(10.422 65.822)"/><rect class="b" width="154.66" height="35.195" transform="translate(9.678 131.643)"/><path class="b" d="M139.347,149.469c0-9.547,10.231-17.287,22.851-17.287s22.852,7.74,22.852,17.287-10.231,17.287-22.852,17.287-22.851-7.74-22.851-17.287"/><rect class="b" width="29.768" height="18.956" transform="translate(155.282 131.643)"/><path class="b" d="M6.937,203.815H0V190.727H6.644v1.388H1.534v4.353H6.261v1.378H1.534v4.582h5.4Z"/><path class="b" d="M19.817,203.815h-1.5v-5.329q0-2.977-2.172-2.977a2.36,2.36,0,0,0-1.858.845,3.128,3.128,0,0,0-.734,2.132v5.329h-1.5v-9.347h1.5v1.553h.036a3.373,3.373,0,0,1,3.067-1.771,2.862,2.862,0,0,1,2.346.991,4.412,4.412,0,0,1,.812,2.861Z"/><path class="b" d="M33.419,203.816h-1.5v-1.588h-.037a3.455,3.455,0,0,1-3.213,1.806,3.489,3.489,0,0,1-2.815-1.255,5.146,5.146,0,0,1-1.055-3.418,5.6,5.6,0,0,1,1.169-3.714,3.853,3.853,0,0,1,3.112-1.4,3,3,0,0,1,2.8,1.515h.037v-5.786h1.5Zm-1.5-4.227v-1.378a2.677,2.677,0,0,0-.749-1.917,2.513,2.513,0,0,0-1.9-.784,2.582,2.582,0,0,0-2.154,1,4.393,4.393,0,0,0-.785,2.774,3.955,3.955,0,0,0,.753,2.551,2.46,2.46,0,0,0,2.021.936,2.555,2.555,0,0,0,2.031-.9,3.363,3.363,0,0,0,.781-2.282"/><path class="b" d="M43.159,204.034a4.334,4.334,0,0,1-3.308-1.309,4.849,4.849,0,0,1-1.237-3.473,5.057,5.057,0,0,1,1.287-3.679,4.631,4.631,0,0,1,3.477-1.323,4.2,4.2,0,0,1,3.264,1.287,5.106,5.106,0,0,1,1.172,3.569,5.019,5.019,0,0,1-1.264,3.582,4.428,4.428,0,0,1-3.391,1.346m.11-8.524a2.851,2.851,0,0,0-2.282.98,4.034,4.034,0,0,0-.84,2.708A3.81,3.81,0,0,0,41,201.817a2.889,2.889,0,0,0,2.273.958,2.738,2.738,0,0,0,2.231-.94,4.082,4.082,0,0,0,.781-2.675,4.15,4.15,0,0,0-.781-2.7,2.723,2.723,0,0,0-2.231-.949"/><path class="b" d="M61.133,203.815V190.726h3.615q6.918,0,6.918,6.38a6.425,6.425,0,0,1-1.921,4.869,7.123,7.123,0,0,1-5.143,1.84Zm1.534-11.7v10.313H64.62a5.548,5.548,0,0,0,4.007-1.377,5.168,5.168,0,0,0,1.433-3.907q0-5.028-5.349-5.029Z"/><path class="b" d="M84.355,199.517h-6.6a3.491,3.491,0,0,0,.84,2.409,2.891,2.891,0,0,0,2.208.848,4.59,4.59,0,0,0,2.9-1.04v1.406a5.427,5.427,0,0,1-3.259.894,3.953,3.953,0,0,1-3.112-1.273,5.214,5.214,0,0,1-1.132-3.582,5.112,5.112,0,0,1,1.237-3.555,3.967,3.967,0,0,1,3.071-1.374,3.513,3.513,0,0,1,2.839,1.186,4.95,4.95,0,0,1,1,3.295Zm-1.533-1.269a3.052,3.052,0,0,0-.625-2.018,2.132,2.132,0,0,0-1.712-.72,2.419,2.419,0,0,0-1.8.757,3.435,3.435,0,0,0-.912,1.981Z"/><path class="b" d="M97.181,203.815h-1.5v-5.329q0-2.977-2.172-2.977a2.36,2.36,0,0,0-1.858.845,3.129,3.129,0,0,0-.734,2.132v5.329h-1.5v-9.347h1.5v1.553h.036a3.373,3.373,0,0,1,3.067-1.771,2.862,2.862,0,0,1,2.346.991,4.412,4.412,0,0,1,.812,2.861Z"/><path class="b" d="M107.141,203.724a2.881,2.881,0,0,1-1.4.292q-2.456,0-2.456-2.738v-5.531h-1.606v-1.278h1.606v-2.281l1.5-.485v2.766h2.355v1.278h-2.355v5.266a2.184,2.184,0,0,0,.319,1.342,1.276,1.276,0,0,0,1.059.4,1.575,1.575,0,0,0,.977-.31Z"/><path class="b" d="M118.634,203.816h-1.5v-1.461H117.1a3.131,3.131,0,0,1-2.875,1.679,3.073,3.073,0,0,1-2.186-.739,2.561,2.561,0,0,1-.789-1.962q0-2.62,3.085-3.049l2.8-.392q0-2.382-1.926-2.382a4.6,4.6,0,0,0-3.048,1.149v-1.533a5.79,5.79,0,0,1,3.176-.876q3.294,0,3.3,3.486Zm-1.5-4.729-2.254.311a3.657,3.657,0,0,0-1.57.515,1.489,1.489,0,0,0-.53,1.31,1.425,1.425,0,0,0,.489,1.118,1.886,1.886,0,0,0,1.3.434,2.4,2.4,0,0,0,1.839-.781,2.785,2.785,0,0,0,.726-1.975Z"/><rect class="b" width="1.497" height="13.837" transform="translate(124.258 189.978)"/><path class="b" d="M148.622,203.268a7.675,7.675,0,0,1-3.614.767,5.83,5.83,0,0,1-4.472-1.8,6.63,6.63,0,0,1-1.68-4.719,6.955,6.955,0,0,1,1.889-5.075,6.414,6.414,0,0,1,4.792-1.935,7.7,7.7,0,0,1,3.085.538v1.634a6.27,6.27,0,0,0-3.1-.784,4.763,4.763,0,0,0-3.656,1.506,5.671,5.671,0,0,0-1.4,4.024,5.4,5.4,0,0,0,1.31,3.811,4.456,4.456,0,0,0,3.436,1.42,6.447,6.447,0,0,0,3.414-.876Z"/><rect class="b" width="1.497" height="13.837" transform="translate(153.89 189.978)"/><path class="b" d="M161.987,192.1a.946.946,0,0,1-.684-.274.923.923,0,0,1-.283-.694.96.96,0,0,1,.967-.977.972.972,0,0,1,.7.279.977.977,0,0,1,0,1.383.959.959,0,0,1-.7.283m.731,11.719h-1.5v-9.347h1.5Z"/><path class="b" d="M176.31,203.815h-1.5v-5.329q0-2.977-2.172-2.977a2.36,2.36,0,0,0-1.858.845,3.128,3.128,0,0,0-.734,2.132v5.329h-1.5v-9.347h1.5v1.553h.036a3.373,3.373,0,0,1,3.067-1.771,2.862,2.862,0,0,1,2.346.991,4.412,4.412,0,0,1,.812,2.861Z"/><path class="b" d="M182.7,192.1a.946.946,0,0,1-.684-.274.923.923,0,0,1-.283-.694.96.96,0,0,1,.967-.977.968.968,0,0,1,.7.279.974.974,0,0,1,0,1.383.955.955,0,0,1-.7.283m.731,11.719h-1.5v-9.347h1.5Z"/><path class="b" d="M195.635,203.386a4.855,4.855,0,0,1-2.556.648,4.232,4.232,0,0,1-3.226-1.3,4.713,4.713,0,0,1-1.228-3.372,5.18,5.18,0,0,1,1.324-3.71,4.627,4.627,0,0,1,3.532-1.4,4.94,4.94,0,0,1,2.173.456v1.534a3.8,3.8,0,0,0-2.227-.73,3.012,3.012,0,0,0-2.351,1.026,3.9,3.9,0,0,0-.917,2.7,3.712,3.712,0,0,0,.862,2.591,2.973,2.973,0,0,0,2.314.95,3.748,3.748,0,0,0,2.3-.813Z"/><path class="b" d="M32.656,243.8a2.44,2.44,0,0,0-.447,1.052q-.062.41-.145.47a.893.893,0,0,1-.423.073q-4.821.3-8.785.3a16.593,16.593,0,0,1-6.09-.761,4.934,4.934,0,0,1-2.345-2.454,27.111,27.111,0,0,1-2.609,2.406c-.347.29-.537.455-.568.495-.1.145-.186.218-.266.218a.372.372,0,0,1-.3-.194,10.5,10.5,0,0,1-.714-1.317,11.124,11.124,0,0,0,1.535-.918,13.822,13.822,0,0,0,2.2-2.006v-6.127H11.92l-1.691.049c-.146,0-.218-.068-.218-.206V233.8c0-.129.072-.193.218-.193l1.691.047H13.2l1.788-.047a.171.171,0,0,1,.194.193l-.049,2.332v5.147a4.182,4.182,0,0,0,2.2,2.417,13.881,13.881,0,0,0,4.955.617q4.87,0,10.368-.508M15.062,228.529a.208.208,0,0,1,.036.1c0,.057-.077.149-.229.277l-.6.472a.77.77,0,0,1-.3.169c-.048,0-.1-.048-.169-.145a19.723,19.723,0,0,0-2.694-3.492.262.262,0,0,1-.1-.17c0-.055.072-.132.217-.229l.605-.423a.468.468,0,0,1,.241-.12.2.2,0,0,1,.145.072,24.1,24.1,0,0,1,2.852,3.492m16.579,1.957a.171.171,0,0,1-.193.194l-3.492-.048H19.593l-3.492.048a.171.171,0,0,1-.193-.194v-.918c0-.145.064-.217.193-.217l3.492.048h3.215V227.4H20.9l-3.238.049c-.113,0-.169-.073-.169-.218v-.894c0-.129.056-.194.169-.194l3.238.049h1.91a11.8,11.8,0,0,0-.169-2.32q.906.036,1.534.121c.177.032.266.108.266.23a1.016,1.016,0,0,1-.121.313,7.223,7.223,0,0,0-.1,1.656h2.32l3.238-.049c.137,0,.2.065.2.194v.894c0,.145-.068.218-.2.218l-3.238-.049h-2.32V229.4h3.734l3.492-.048c.128,0,.193.072.193.217Zm.5,10.912a2.647,2.647,0,0,0-.592.8c-.137.29-.25.436-.338.436a1.113,1.113,0,0,1-.351-.108,14.756,14.756,0,0,1-6.839-5.1q.024,1.486.085,3.9c.032,1.233.048,1.868.048,1.909,0,.129-.068.194-.206.194H22.832c-.113,0-.169-.065-.169-.194q0-.036.048-2.295.036-2.043.048-3.373a18.242,18.242,0,0,1-5.449,4.206,1.706,1.706,0,0,1-.339.121q-.12,0-.326-.351a3.621,3.621,0,0,0-.665-.688,16.976,16.976,0,0,0,6.211-4.206H21.2l-3.106.048a.17.17,0,0,1-.193-.193l.06-1.51v-1.2l-.06-1.511a.17.17,0,0,1,.193-.193l3.106.049h4.628l3.117-.049a.171.171,0,0,1,.194.193l-.049,1.511v1.2l.049,1.51a.171.171,0,0,1-.194.193l-3.117-.048H24.584a9.954,9.954,0,0,0,2.356,2.285,14.863,14.863,0,0,0,2.127-1.693,4.6,4.6,0,0,0,.664-.834,8.372,8.372,0,0,1,1.148.786.315.315,0,0,1,.145.254c0,.1-.08.169-.241.217a2.314,2.314,0,0,0-.8.472Q29.031,238.9,28,239.6a21.441,21.441,0,0,0,4.132,1.8M27.7,233.3H19.316v2.236H27.7Z"/><path class="b" d="M46.995,229.8l-.048,2.694v8.158l.024,3.274a2.12,2.12,0,0,1-.592,1.7,3.212,3.212,0,0,1-1.922.423h-.229c-.258,0-.411-.024-.459-.073a1.1,1.1,0,0,1-.157-.423,2.743,2.743,0,0,0-.423-.918q.725.06,1.256.06c.145,0,.279,0,.4-.012q.822-.036.822-1.015v-4.059H42.524a18.072,18.072,0,0,1-1.559,6.186c-.1.218-.181.326-.253.326a.852.852,0,0,1-.351-.218,2.741,2.741,0,0,0-.834-.544A12.684,12.684,0,0,0,41,241.169a46.113,46.113,0,0,0,.351-6.646v-2.031L41.3,229.8a.17.17,0,0,1,.193-.193l1.861.048h1.559L46.8,229.6a.17.17,0,0,1,.193.193m14.513-2.634c0,.129-.069.194-.206.194l-3.238-.049h-3.4l.049.894a.172.172,0,0,1-.194.194H53.484a.171.171,0,0,1-.193-.194c0-.024,0-.129.012-.314s.028-.387.036-.58H47.913l.049,1.414c0,.144-.065.217-.194.217H46.729c-.128,0-.193-.073-.193-.217q0-.012.012-.447c.016-.3.028-.621.036-.967h-3.2l-3.214.049a.171.171,0,0,1-.193-.194v-.991a.17.17,0,0,1,.193-.193l3.214.047h3.2a8.746,8.746,0,0,0-.181-2.053q.762.036,1.487.133c.185.024.277.088.277.193a.66.66,0,0,1-.1.326,3.716,3.716,0,0,0-.158,1.4h5.426a10.145,10.145,0,0,0-.157-2.053,10.528,10.528,0,0,1,1.5.157c.16.023.241.089.241.193a1.3,1.3,0,0,1-.1.327,3.612,3.612,0,0,0-.158,1.376h3.4l3.238-.047c.137,0,.206.064.206.193ZM45.666,238.426v-3.215h-3q-.06,2.949-.072,3.215Zm0-7.54h-3v3.142h3Zm16.482,8.338a2.992,2.992,0,0,0-.64.785c-.121.233-.222.351-.3.351a1.73,1.73,0,0,1-.374-.194A15.232,15.232,0,0,1,56.7,236.2H52.276a13.771,13.771,0,0,1-3.843,3.94.968.968,0,0,1-.362.193c-.073,0-.181-.1-.326-.3a2.209,2.209,0,0,0-.665-.616,13.147,13.147,0,0,0,3.685-3.215l-3.045.049a.17.17,0,0,1-.193-.193v-.822a.171.171,0,0,1,.193-.194l3.383.049h.424a11.915,11.915,0,0,0,.942-2.006h-.713l-3.226.048a.171.171,0,0,1-.194-.193v-.822a.171.171,0,0,1,.194-.193l2.054.048a12.363,12.363,0,0,0-1.16-2.054.289.289,0,0,1-.073-.145c0-.04.073-.092.218-.158l.58-.216a.636.636,0,0,1,.23-.074c.056,0,.108.041.157.121a14.83,14.83,0,0,1,1.414,2.526h.87a12.114,12.114,0,0,0,.362-1.631,9.681,9.681,0,0,0,.133-1.607,12.9,12.9,0,0,1,1.329.242c.218.048.327.125.327.229a.71.71,0,0,1-.194.387,3.856,3.856,0,0,0-.3.942q-.229,1.016-.374,1.438h2.235a18.056,18.056,0,0,0,1.015-1.68,3.476,3.476,0,0,0,.362-1.039,9.311,9.311,0,0,1,1.221.362c.145.066.217.15.217.254,0,.074-.064.161-.193.266a1.572,1.572,0,0,0-.4.472,14.022,14.022,0,0,1-.942,1.365l2.827-.048a.171.171,0,0,1,.194.193v.822a.171.171,0,0,1-.194.193l-3.226-.048H56.2a13.113,13.113,0,0,0,1.172,2.006h.689l3.419-.049c.113,0,.17.065.17.194v.822c0,.129-.057.193-.17.193l-3.226-.049a12.234,12.234,0,0,0,3.891,3.022m-9.159,2.67a1.59,1.59,0,0,1,.1.386c0,.114-.112.239-.338.375a25.335,25.335,0,0,1-2.779,1.487,2.631,2.631,0,0,0-.737.47.3.3,0,0,1-.23.146c-.081,0-.161-.057-.242-.17a10.045,10.045,0,0,1-.64-1.159,8.383,8.383,0,0,0,1.377-.447,20.836,20.836,0,0,0,3.324-1.777,4.368,4.368,0,0,0,.169.689m-.4-1.414a.246.246,0,0,1,.073.133c0,.048-.065.129-.194.242l-.544.447a.358.358,0,0,1-.193.1c-.048,0-.1-.04-.145-.122a11.674,11.674,0,0,0-1.438-1.691c-.056-.049-.085-.089-.085-.121s.069-.112.206-.218l.471-.374a.446.446,0,0,1,.206-.109.269.269,0,0,1,.156.085,16.369,16.369,0,0,1,1.487,1.631m2.658-3.021a1.854,1.854,0,0,1-.145.423,7.8,7.8,0,0,0-.1,1.68v2.187l.048,2.272a1.811,1.811,0,0,1-.592,1.583,5.033,5.033,0,0,1-2.5.4.693.693,0,0,1-.41-.072.873.873,0,0,1-.158-.375,3.9,3.9,0,0,0-.4-.943,16.868,16.868,0,0,0,1.873.133.759.759,0,0,0,.846-.87v-4.241a13.55,13.55,0,0,0-.17-2.513,8.585,8.585,0,0,1,1.4.145c.2.024.3.089.3.193m.762-2.368a14.115,14.115,0,0,1-.967-2.006H53.762a15.38,15.38,0,0,1-.87,2.006Zm4.845,8.9a3.847,3.847,0,0,0-.664.689c-.145.217-.262.327-.351.327a1.018,1.018,0,0,1-.314-.121,17.643,17.643,0,0,1-3.782-2.6c-.065-.063-.1-.112-.1-.144s.064-.117.193-.23l.435-.375a.427.427,0,0,1,.218-.12.353.353,0,0,1,.181.1A17.283,17.283,0,0,0,60.855,244m-1.921-4.531c0,.089-.093.165-.278.229a1.675,1.675,0,0,0-.52.4q-.665.664-1.014.967a.713.713,0,0,1-.291.17c-.072,0-.181-.078-.326-.231a2.993,2.993,0,0,0-.64-.471,7.715,7.715,0,0,0,1.184-1.135,4.689,4.689,0,0,0,.592-.87,8.949,8.949,0,0,1,1.1.676c.129.089.193.177.193.266"/><path class="b" d="M91.1,230.922c0,.129-.069.193-.205.193l-3.263-.049H73.272l-3.263.049a.17.17,0,0,1-.193-.193v-.991a.171.171,0,0,1,.193-.194l3.263.049h.869v-1.753a12.406,12.406,0,0,0-.193-2.694,14.625,14.625,0,0,1,1.631.145c.21.032.315.109.315.23a1.014,1.014,0,0,1-.145.47,5.222,5.222,0,0,0-.145,1.68v1.922h4.181v-3.215a13.991,13.991,0,0,0-.17-2.694,15.6,15.6,0,0,1,1.619.144c.2.033.3.1.3.206a1.017,1.017,0,0,1-.145.471,5.745,5.745,0,0,0-.121,1.632h4.181l3.021-.049c.113,0,.169.065.169.193v.943c0,.129-.056.193-.169.193l-3.021-.048H81.271v2.224h6.356l3.263-.049c.136,0,.205.065.205.194Zm-1.184,1.957a1.519,1.519,0,0,1-.157.471,7.424,7.424,0,0,0-.121,1.813v7.02l.048,3.94c0,.121-.064.182-.193.182H88.364c-.129,0-.193-.061-.193-.182V244.89H72.619v1.136c0,.154-.065.23-.194.23H71.3c-.129,0-.194-.076-.194-.23l.049-3.843v-7.092a14.123,14.123,0,0,0-.17-2.635,12.868,12.868,0,0,1,1.608.157c.177.025.265.089.265.194a1.588,1.588,0,0,1-.145.471,9.209,9.209,0,0,0-.1,1.813v8.482H88.171v-8.41a16.278,16.278,0,0,0-.146-2.622,14.411,14.411,0,0,1,1.608.144c.185.025.278.089.278.194m-2.357,8.144a2.956,2.956,0,0,0-.64.738q-.206.35-.314.35a2.674,2.674,0,0,1-.375-.145,15.135,15.135,0,0,1-5.353-4.035q.024,1.388.085,3.261.048,1.427.048,1.524c0,.129-.068.193-.206.193H79.785a.171.171,0,0,1-.194-.193q0-.025.06-1.862.049-1.606.061-2.876a14.1,14.1,0,0,1-5.051,4.169.893.893,0,0,1-.363.145q-.132,0-.35-.3a2.226,2.226,0,0,0-.616-.616,14.813,14.813,0,0,0,5.57-4.036h-1.51l-3.275.049a.171.171,0,0,1-.193-.194v-.822a.17.17,0,0,1,.193-.193l3.275.048h2.272v-1.8A17.358,17.358,0,0,0,79.5,231.9c.386.017.858.065,1.413.146.194.032.29.1.29.205a.866.866,0,0,1-.06.277c-.049.138-.077.222-.085.254a8.522,8.522,0,0,0-.1,1.644v1.8h2.549l3.287-.048c.113,0,.169.064.169.193v.822c0,.129-.056.194-.169.194l-3.287-.049H81.6a15.4,15.4,0,0,0,5.957,3.685m-9.715-6.283a.373.373,0,0,1,.036.121c0,.065-.08.141-.241.23l-.5.265a.775.775,0,0,1-.278.109c-.056,0-.113-.052-.169-.158a10.22,10.22,0,0,0-1.4-2.174.239.239,0,0,1-.073-.133c0-.057.08-.129.242-.218l.519-.241a.535.535,0,0,1,.218-.1c.04,0,.1.048.181.145a12.08,12.08,0,0,1,1.462,2.151m7.915-1.7c0,.072-.064.161-.193.266a1.429,1.429,0,0,0-.351.4,20.353,20.353,0,0,1-1.268,1.606q-.267.279-.339.279a1.281,1.281,0,0,1-.374-.169,3.822,3.822,0,0,0-.569-.254,15.688,15.688,0,0,0,1.438-1.981,2.773,2.773,0,0,0,.315-.846l1.112.446c.152.073.229.157.229.254"/><path class="b" d="M108.648,236.7a3.709,3.709,0,0,0-.568,1.04c-.08.193-.157.29-.229.29s-.17-.073-.266-.218a23.849,23.849,0,0,1-2.55-4.362q.012,4.326.109,9.159.024,1.137.072,2.695.012.749.012.822a.17.17,0,0,1-.193.193h-1.244a.171.171,0,0,1-.194-.193q0-.012.049-2.006.156-5.825.169-10.694a28.409,28.409,0,0,1-3.638,7.636c-.105.161-.193.242-.265.242s-.15-.092-.254-.278a3.49,3.49,0,0,0-.689-1.015,24.279,24.279,0,0,0,4.326-7.793h-.689l-2.948.047c-.113,0-.17-.064-.17-.193V231.1c0-.128.057-.193.17-.193l2.948.049h1.088v-3.614q-1.257.327-2.623.592a2.931,2.931,0,0,1-.326.037q-.194,0-.386-.386a3.233,3.233,0,0,0-.6-.762,23.121,23.121,0,0,0,6.271-1.716,4.643,4.643,0,0,0,1.112-.713,8.509,8.509,0,0,1,1.063.87.613.613,0,0,1,.218.411c0,.129-.133.205-.4.23a3.913,3.913,0,0,0-1.064.313q-1.016.435-1.8.7v4.036h.326l2.937-.049c.136,0,.205.065.205.193v.967c0,.129-.069.193-.205.193l-2.937-.047h-.133a19.189,19.189,0,0,0,3.3,4.482m12.64,1.728a.535.535,0,0,1,.012.084c0,.057-.061.106-.182.146l-3.117.592v2.55l.048,4.277a.171.171,0,0,1-.193.193h-1.2a.171.171,0,0,1-.194-.193l.049-4.253v-2.284l-4.87.942q-1.45.279-2.5.52c-.468.1-.709.149-.725.157a.472.472,0,0,1-.1.013c-.065,0-.1-.065-.121-.194l-.23-1.063v-.085c0-.072.061-.116.181-.133q1.535-.228,3.263-.58l5.1-1V227.659a24.69,24.69,0,0,0-.17-3.384,14.931,14.931,0,0,1,1.608.121c.217.032.326.105.326.218a1.637,1.637,0,0,1-.121.447A11.334,11.334,0,0,0,118,227.61v10.2q1.716-.338,2.876-.665a.361.361,0,0,1,.06-.012c.089,0,.141.069.157.206Zm-7.021-3.661a.314.314,0,0,1,.1.169c0,.04-.057.117-.17.23l-.555.592c-.137.145-.23.217-.278.217s-.077-.032-.133-.1a19.82,19.82,0,0,0-3.444-3.13c-.072-.048-.109-.1-.109-.145s.06-.133.182-.254l.519-.495c.1-.1.169-.145.217-.145a.355.355,0,0,1,.158.072,18.922,18.922,0,0,1,3.516,2.985m.592-5.486c.064.064.1.113.1.145,0,.048-.049.121-.145.217l-.568.6a1.154,1.154,0,0,1-.278.229c-.032,0-.073-.036-.121-.108a16.08,16.08,0,0,0-3.4-3.094c-.064-.049-.1-.089-.1-.121,0-.048.064-.141.193-.277l.52-.521c.1-.1.165-.144.2-.144a.293.293,0,0,1,.145.072,17.212,17.212,0,0,1,3.444,3"/><path class="b" d="M150.295,244.842a.17.17,0,0,1-.193.193l-3.468-.048H131.663V246.1c0,.136-.073.206-.218.206h-1.172c-.129,0-.193-.07-.193-.206l.048-5.051V230.414l-.048-5.026a.171.171,0,0,1,.193-.194l3.444.048h12.7l3.383-.048c.137,0,.205.065.205.194v1.123c0,.129-.068.193-.205.193l-3.383-.048H131.663v16.917h14.971l3.468-.048a.171.171,0,0,1,.193.194Zm-.833-3.673a3.38,3.38,0,0,0-.653.942c-.113.242-.213.363-.3.363a1.413,1.413,0,0,1-.338-.085,12.5,12.5,0,0,1-7.2-5.764,8.2,8.2,0,0,1-2.5,3.565,13.831,13.831,0,0,1-4.253,2.259,1.183,1.183,0,0,1-.362.11c-.089,0-.2-.11-.326-.327a2.921,2.921,0,0,0-.774-.809,13.614,13.614,0,0,0,4.966-2.478,6.873,6.873,0,0,0,2.018-3.117h-2.948l-3.468.048a.17.17,0,0,1-.193-.193v-.967a.17.17,0,0,1,.193-.193l3.468.048h3.262a19.63,19.63,0,0,0,.254-3.42h-3.564a22.6,22.6,0,0,1-1.608,2.115q-.277.265-.374.266a1.162,1.162,0,0,1-.375-.217,2.593,2.593,0,0,0-.809-.472,13.863,13.863,0,0,0,2.864-3.963,6.22,6.22,0,0,0,.495-1.632,9.97,9.97,0,0,1,1.414.423c.169.064.254.153.254.266,0,.1-.077.206-.23.327a2.9,2.9,0,0,0-.471.809l-.423.822h6.912l3.117-.048a.171.171,0,0,1,.194.192v.943c0,.145-.065.217-.194.217l-3.117-.048h-2.622a25.075,25.075,0,0,1-.279,3.42H145.6l3.492-.048a.171.171,0,0,1,.194.193v.967a.171.171,0,0,1-.194.193l-3.492-.048H141.91q2.125,3.638,7.552,5.341"/><path class="b" d="M166.472,226.052a.432.432,0,0,1-.193.326,2.254,2.254,0,0,0-.448.822,54.409,54.409,0,0,1-2.4,5.269,13.924,13.924,0,0,1,2.163,3.382,6.041,6.041,0,0,1,.435,2.285q0,3.067-3.251,3.262a.829.829,0,0,1-.459-.072,1.255,1.255,0,0,1-.133-.424,1.813,1.813,0,0,0-.362-.869,4.411,4.411,0,0,0,.459.023q2.356,0,2.356-2.042a5.354,5.354,0,0,0-.664-2.428,22.386,22.386,0,0,0-2.03-3.021,44.013,44.013,0,0,0,2.646-6.163h-3.541V241l.049,5.124c0,.121-.065.182-.194.182h-1.148c-.129,0-.193-.061-.193-.182l.048-5.075V230.366l-.048-5.136a.17.17,0,0,1,.193-.193l1.813.048h3a1.314,1.314,0,0,0,.568-.072.681.681,0,0,1,.278-.073c.112,0,.318.15.616.448q.447.483.447.664M180.7,242.51a4.216,4.216,0,0,1-.883,2.8,4.793,4.793,0,0,1-2.851.592,4.635,4.635,0,0,1-2.308-.35q-.69-.459-.689-1.957v-7.142h-2.332a11.912,11.912,0,0,1-1.728,6.622,9.618,9.618,0,0,1-4.374,3.178,3.048,3.048,0,0,1-.375.121c-.081,0-.205-.11-.375-.326a3.149,3.149,0,0,0-.846-.823,8.6,8.6,0,0,0,4.834-3.1,10.35,10.35,0,0,0,1.414-5.667l-3.3.048a.171.171,0,0,1-.194-.194v-1.026a.171.171,0,0,1,.194-.193l3.323.048h6.308l3.323-.048a.171.171,0,0,1,.193.193v1.026a.171.171,0,0,1-.193.194l-3.323-.048h-1.088v6.755q0,.93.3,1.111a2.7,2.7,0,0,0,1.378.218,2.65,2.65,0,0,0,1.836-.423,1.941,1.941,0,0,0,.3-.918q.06-.461.12-1.753a3.393,3.393,0,0,0,.906.472c.29.08.435.21.435.387,0,.047,0,.117-.011.205m-.81-11.577c0,.129-.069.194-.205.194h-1.088a.171.171,0,0,1-.193-.194V228.42H168.127v2.513a.171.171,0,0,1-.193.194h-1.063c-.137,0-.206-.065-.206-.194l.024-2.066V228.3l-.024-.992a.171.171,0,0,1,.194-.193l3.371.049h2.127v-.447a13.465,13.465,0,0,0-.17-2.55,13.718,13.718,0,0,1,1.632.157c.2.024.3.089.3.193a1.31,1.31,0,0,1-.121.471,5.087,5.087,0,0,0-.157,1.7v.472h2.477l3.372-.049a.171.171,0,0,1,.193.193l-.048.871v.688Zm-2.139,1.269a.17.17,0,0,1-.193.193l-2.646-.047h-3.191l-2.658.047a.17.17,0,0,1-.193-.193v-1.026a.171.171,0,0,1,.193-.194l2.658.048h3.191l2.646-.048a.171.171,0,0,1,.193.194Z"/></g></svg>