<svg height="181.8" viewBox="0 0 265.92 181.8" width="265.92" xmlns="http://www.w3.org/2000/svg"><path d="m-161.04-20.16c-4.44 3.72-11.04 7.8-16.44 11.28a162.236 162.236 0 0 0 -16.08 6.96c-2.52.6-5.04.96-7.56 1.68-3.12 3.12-5.16.6-6.84 2.88a2.559 2.559 0 0 0 -1.44-.36 8.517 8.517 0 0 0 -4.32 1.56c-6.84 1.44-15.24 1.2-22.44 2.28-1.2-.96-3.12-1.2-5.28-1.2-8.76-5.76-10.92-9.6-12.6-18.96a90.621 90.621 0 0 0 2.28-13.32 7.957 7.957 0 0 0 2.16-5.88c0-1.56 2.76-1.8 1.92-3.84 2.04-.6 3.12-9.84 4.92-9.84 1.2 0 1.08-1.32 1.32-2.28h.36c1.08 0 1.44-.84 1.44-2.28 2.64-3.24 6.12-8.04 9.24-10.92 3.24-3.72 7.8-6.48 10.92-10.44 2.4-.24 2.64-2.64 4.56-3.48 3.48-2.28 6.72-5.4 10.44-7.44 0-1.44 2.04-.96 2.88-1.68a26.149 26.149 0 0 0 6.84-5.28 1.783 1.783 0 0 0 .72.12c1.56 0 1.44-1.44 2.76-1.8 1.92 0 2.52-1.32 4.32-1.32a7.184 7.184 0 0 1 1.44.24c1.2-.72 1.68-2.28 3.48-2.4 2.16-.48 4.8-.48 6.84-1.08 4.08 2.88 9.84 1.08 9.84 10.32a29.246 29.246 0 0 1 -.6 5.76c-1.92 1.44-2.4 4.08-4.56 5.16 0 3.48-3.24 3.36-3.48 6.36-3.48 3.24-7.2 6.24-9.84 10.32-2.28 1.32-5.28 2.04-5.28 5.52 0 1.44 2.04 1.56 3.12 1.56 2.76 0 5.4-1.56 6.24-3.6h.24a1.329 1.329 0 0 0 1.44-1.08c.12-.84 3.72-1.8 8.16-8.64.6-1.68 2.4-2.16 2.88-4.08 1.92-2.64 3.72-5.4 5.76-8.04a40.478 40.478 0 0 0 1.08-9.84v-2.88c-2.28-1.68-.96-6.72-4.56-9.72-2.52-.48-5.4-2.28-8.28-2.28a24.825 24.825 0 0 0 -2.64.48c-3.72.48-5.64.36-8.16 1.2-.96.36-1.2 1.2-2.28 1.2h-.96c-.48 0-.84 0-.84.48a1.082 1.082 0 0 0 .12.6c-3.48.6-5.4 2.64-8.64 3.48-5.28 3-10.32 6.24-15.6 9.24-2.16 2.4-5.16 4.08-7.44 5.76-2.04 1.44-3.12 3.24-4.68 4.56-.6.72-2.28.96-2.28 1.32 0 .12.12.48.12.72 0 .6-1.44.6-1.8.84a11.566 11.566 0 0 0 -2.88 4.08c-3.24.96-4.2 4.2-6.96 5.76-1.68 3.48-4.8 5.52-6.36 9.12-5.64 6.84-8.88 17.64-11.52 25.44 0 .12-1.08.84-1.08 1.08-1.56 6-1.08 11.64-1.2 18.48a32.478 32.478 0 0 0 7.56 14.4 17 17 0 0 1 5.16 3.48 61.636 61.636 0 0 0 14.52 1.8c12.36 0 21.12-3.84 29.76-5.28 1.56-.24 1.44-2.28 3.24-2.28 2.16 0 3.84-1.44 6-1.8 3.84 0 4.08-2.88 9.24-2.88.36-1.92 3.6-.96 4.08-2.88.72-1.08 9.96-3.12 9.96-4.2s2.16.48 2.28-.72v-.24c.6-.12 8.64-6.24 12.6-11.88 3.12-4.56 2.28-9.84 2.28-10.44-3 3.96-5.76 7.92-9.6 11.04zm69.24-4.2c-2.76 1.56-4.8 3.24-7.2 4.56a16.31 16.31 0 0 0 -4.8 3.48c-3.48 1.56-6.84 3-10.32 4.56-1.8.84-3.96 1.44-5.76 2.28-1.8.96-3.24.48-5.16 1.08-1.08.24-2.52 0-3.48.48-.36-1.08-3.48.36-2.88-1.68-.84-2.28 1.44-2.64 2.28-3.48 1.08-1.08 1.92-2.28 3.48-2.88 1.08-1.68 2.16-3.6 3.96-4.56.12-3.24 3.24-3.36 2.88-6.96-.84-.96-.84-2.88-2.28-3.48-6.72-.6-6.84 5.4-11.52 6.96 0 2.4-1.68 3.24-2.88 4.56-.24 2.64-1.8 3.96-2.28 6.36-1.8-.24-1.56 1.56-2.88 1.68-.72.72-2.04.72-3.48.6.12 1.8-2.4 1.8-3.48 2.4-.6.36-.96.72-1.68 1.08-.72.48-1.68.12-1.68 1.2-3.24.12-6.36 3.12-9.84 1.08.36-4.32 2.52-6.6 3.48-10.32 1.68-.24 1.8-2.04 2.88-2.88s1.44-2.4 2.88-2.88a66.292 66.292 0 0 0 5.16-6.36c3.84-1.32 6-4.44 9.24-6.36 1.92-.36 2.88-1.92 4.56-2.88 1.8-.84 4.08-1.08 5.76-2.28 3.72.6 5.76-2.04 8.64-.6-.12 2.64-3.84 3.96-1.68 6.96.84-.12 2.16.24 2.28-.6 0-.84 1.44-.48 1.2-1.68 1.68-.48 2.4-1.8 3.36-2.88 1.44-4.8-.36-9-4.56-9.84-5.16.72-8.52 3.36-13.8 4.08-1.2 2.04-4.08 2.4-6.36 3.48-1.92 1.08-2.76 3.24-5.76 3.36-1.2 2.04-3.12 3.36-5.16 4.68-3.12 3.36-6.96 6.12-9.84 9.72-1.68 1.8-2.76 4.2-4.56 5.76a14.166 14.166 0 0 1 -2.88 6.36c-1.32 5.16.12 9 2.88 11.52a3.124 3.124 0 0 1 2.88.6 23.522 23.522 0 0 0 7.44-1.68c1.8-1.2 4.92-1.8 5.76-2.4a28.552 28.552 0 0 1 5.76-2.88c1.32-.24 1.8-1.92 3.48-1.68 1.56-.24.6 2.16 1.68 2.28.12 1.44 2.28.84 2.4 2.28.96.36 3.36-.6 3.36.6 3.96-.72 6.84-.48 11.04-.96 1.68-2.4 5.4-1.8 7.44-3.84 1.44.12 1.68-.48 2.88-1.2 1.08-.6 2.4-.6 3.48-1.08 2.04-1.08 3.6-2.64 5.64-3.72s1.56-1.92 3.6-2.88c1.92-.96 4.2-3.96 6.24-5.04-.36.12-1.8-4.08-1.8-4.08zm63.36-5.16a3.5 3.5 0 0 0 .24-1.08c0-.84-.48-1.32-.24-2.28h-.6c-3.96 0-5.28 2.64-8.64 3.96-.6 1.44-2.04 2.04-3 3.12-1.56.6-2.52 1.56-4.08 2.16-8.04 7.08-19.56 10.2-29.52 13.44-1.68-1.08-3.6-1.68-5.28-2.88-1.2-.96-3.6 0-4.56-1.2.48-.96 1.56-1.44 2.28-2.28v-1.2h1.2l.6-1.68c1.44-1.68 4.08-2.4 3.96-5.16 2.52.48 2.4-1.8 2.88-3.48 1.8.12 12.36-11.04 13.8-13.32 2.52-.96 3.84-3.6 6.36-4.56 2.64-3.6 8.28-7.2 9.84-10.92a4.067 4.067 0 0 0 1.68-1.8l1.2-.48c2.64-2.64 4.8-5.64 7.44-8.16a40.943 40.943 0 0 1 2.28-7.44c-.84-1.92-.96-3.48-2.88-4.56-3 0-5.64 8.16-8.64 9.72v2.88c-.36 0-3.72 3.48-5.16 4.08-1.68 4.68-6.84 6.96-8.64 11.52-3.84.84-7.92 8.16-11.52 9.72-1.56 2.16-13.92 16.32-15.48 17.28-1.92 4.56-13.2 11.88-15 17.88-4.56 1.92-6 7.08-9.84 9.84a41.7 41.7 0 0 1 -5.76 8.64h-1.08v1.08a1.705 1.705 0 0 0 -1.2 1.8c-1.32.12-1.32 1.68-2.28 2.28-1.2 3.48-4.2 5.88-5.16 9.84a11.613 11.613 0 0 0 -4.08 5.76c-2.16 1.08-2.04 4.44-4.56 5.16 0 2.04-.96 3.96-1.8 5.76l-1.08.48v1.8c-1.56 2.52-2.76 3.96-3.48 6.96l-.6.48a38.4 38.4 0 0 0 -2.04 10.32c0 3.12.84 6.24.84 9.24v.6a38.815 38.815 0 0 1 3.48 5.16 35.44 35.44 0 0 0 7.08.72c6.72 0 17.4-5.28 23.52-8.16.24-.72 5.88-5.52 6.84-6.36l1.8-.6c2.76-2.4 4.8-5.52 8.04-7.44 1.44-2.4 3.96-3.24 5.76-5.16 2.04-2.16 3.36-5.04 5.76-6.96v-1.08l1.08-.6v-1.68c1.68-1.56 2.88-4.8 4.68-5.88 2.76-9.72 6.6-16.8 6.6-27.12a6.08 6.08 0 0 1 .24-1.56c-.48 0-.6-.48-.6-.84a11.643 11.643 0 0 0 .12-2.04 18.368 18.368 0 0 1 -3.48-8.16c.6-1.92 3.72-.36 3.96-2.52 3.24.6 28.32-15 32.64-17.76.48-.84 4.44-4.8 4.08-5.28zm-57.24 21.6h1.56l.12.36c0 .72-.48.84-1.08.84a8.9 8.9 0 0 0 -2.52-.12c.12-.96 1.08-1.08 1.92-1.08zm-48.6 81.12c-1.08-2.16-.24-4.92-1.68-6.84.48-3.6 1.44-7.2 1.68-10.92 2.28-2.04 3.24-5.28 4.08-8.16 1.2-.84 5.64-9.48 6.96-11.52l1.08-.48c.12-.96 5.88-10.56 6.96-12.12l1.08-.6v-1.08l1.2-.6c.36-1.08 0-2.28 1.68-2.28.12-1.56 1.56-2.4 2.4-3.48v-1.8c.96-.12 6.96-7.2 7.44-8.64a37.569 37.569 0 0 0 5.16-6.24l1.2-.12c2.04 0 3.84.84 5.76 1.2 4.2-.96 9.36-.84 13.2-2.88h1.2c.36 1.44 1.44 2.52 1.68 4.08 1.8 1.8 2.88 10.32 2.88 12.72 0 5.4-3.84 9.96-3.96 14.88a1.7 1.7 0 0 0 -1.2 1.68c-.6.6-8.76 14.04-10.92 16.8-3.24 3.96-8.16 6.72-11.52 10.92a70.437 70.437 0 0 0 -12.72 9.24c-5.64 2.28-11.4 4.32-16.68 7.44-2.16-.96-4.8-.12-6.96-1.2zm142.08-92.28c-1.2 0-3.48 1.2-4.56 1.56a28.757 28.757 0 0 0 -4.56 2.52c-5.04 3.72-14.52 7.68-20.88 8.04h-1.2c-1.68-.48-4.56-1.2-6.36-2.76 2.76-.96 4.2-3.12 6.96-4.08.72-1.56 2.4-2.04 3.48-3.36s2.28-3.84 3.96-4.68c.36-4.2 4.8-9.36 4.8-14.04.96-1.08.72-3.12 1.2-3.96.24-.48.48-.24.48-1.2.12-2.28 0-3.84-1.68-5.16-3.96-.12-5.64 2.04-9.84 1.68-2.28 2.4-5.4 3.84-8.64 5.28-1.68 2.76-4.92 4.2-6.24 7.44-1.68.6-2.28 2.4-2.88 4.08-1.44.6-3.36 6.36-3.72 7.56 0 .36-.48.6-.48.6-.72 2.76 0 5.76.48 8.16-.24 2.16.72 5.4 3.48 5.76 4.56 3.12 11.52 4.92 19.08 4.44 9-.6 24.96-10.08 26.76-12.96.36-.6.36-4.68.36-4.92zm-23.52-20.16c.48 0 .48.72.6 1.08 0 2.28-1.32 4.08-2.4 5.76-2.16 3.48-6.84 11.76-10.44 14.64a24.908 24.908 0 0 1 -3.48 2.28 10.536 10.536 0 0 1 -4.68 1.2c.12-6.12 5.52-12.96 7.68-16.92 3.24-1.44 5.16-5.04 8.64-6.96.96-.48 2.52 0 4.08-1.08z" fill="#fff" opacity=".8" transform="translate(258.12 102.12)"/></svg>