<svg height="245.52" viewBox="0 0 700.038 245.52" width="700.038" xmlns="http://www.w3.org/2000/svg"><path d="m-491.04-30.24c-6.66 5.58-16.56 11.7-24.66 16.92a243.351 243.351 0 0 0 -24.12 10.44c-3.78.9-7.56 1.44-11.34 2.52-4.68 4.68-7.74.9-10.26 4.32a3.839 3.839 0 0 0 -2.16-.54 12.776 12.776 0 0 0 -6.48 2.34c-10.26 2.16-22.86 1.8-33.66 3.42-1.8-1.44-4.68-1.8-7.92-1.8-13.14-8.64-16.38-14.4-18.9-28.44a135.937 135.937 0 0 0 3.42-19.98 11.935 11.935 0 0 0 3.24-8.82c0-2.34 4.14-2.7 2.88-5.76 3.06-.9 4.68-14.76 7.38-14.76 1.8 0 1.62-1.98 1.98-3.42h.54c1.62 0 2.16-1.26 2.16-3.42 3.96-4.86 9.18-12.06 13.86-16.38 4.86-5.58 11.7-9.72 16.38-15.66 3.6-.36 3.96-3.96 6.84-5.22 5.22-3.42 10.08-8.1 15.66-11.16 0-2.16 3.06-1.44 4.32-2.52a39.224 39.224 0 0 0 10.26-7.92 2.675 2.675 0 0 0 1.08.18c2.34 0 2.16-2.16 4.14-2.7 2.88 0 3.78-1.98 6.48-1.98a10.777 10.777 0 0 1 2.16.36c1.8-1.08 2.52-3.42 5.22-3.6 3.24-.72 7.2-.72 10.26-1.62 6.12 4.32 14.76 1.62 14.76 15.48a43.866 43.866 0 0 1 -.9 8.64c-2.88 2.16-3.6 6.12-6.84 7.74 0 5.22-4.86 5.04-5.22 9.54-5.22 4.86-10.8 9.36-14.76 15.48-3.42 1.98-7.92 3.06-7.92 8.28 0 2.16 3.06 2.34 4.68 2.34 4.14 0 8.1-2.34 9.36-5.4h.36a1.993 1.993 0 0 0 2.16-1.62c.18-1.26 5.58-2.7 12.24-12.96.9-2.52 3.6-3.24 4.32-6.12 2.88-3.96 5.58-8.1 8.64-12.06a60.716 60.716 0 0 0 1.62-14.76v-4.32c-3.42-2.52-1.44-10.08-6.84-14.58-3.78-.72-8.1-3.42-12.42-3.42a37.241 37.241 0 0 0 -3.96.72c-5.58.72-8.46.54-12.24 1.8-1.44.54-1.8 1.8-3.42 1.8h-1.44c-.72 0-1.26 0-1.26.72a1.623 1.623 0 0 0 .18.9c-5.22.9-8.1 3.96-12.96 5.22-7.92 4.5-15.48 9.36-23.4 13.86-3.24 3.6-7.74 6.12-11.16 8.64-3.06 2.16-4.68 4.86-7.02 6.84-.9 1.08-3.42 1.44-3.42 1.98 0 .18.18.72.18 1.08 0 .9-2.16.9-2.7 1.26-2.16 1.62-3.24 4.14-4.32 6.12-4.86 1.44-6.3 6.3-10.44 8.64-2.52 5.22-7.2 8.28-9.54 13.68-8.46 10.26-13.32 26.46-17.28 38.16 0 .18-1.62 1.26-1.62 1.62-2.34 9-1.62 17.46-1.8 27.72a48.717 48.717 0 0 0 11.34 21.6 25.5 25.5 0 0 1 7.74 5.22 92.455 92.455 0 0 0 21.78 2.7c18.54 0 31.68-5.76 44.64-7.92 2.34-.36 2.16-3.42 4.86-3.42 3.24 0 5.76-2.16 9-2.7 5.76 0 6.12-4.32 13.86-4.32.54-2.88 5.4-1.44 6.12-4.32 1.08-1.62 14.94-4.68 14.94-6.3s3.24.72 3.42-1.08v-.36c.9-.18 12.96-9.36 18.9-17.82 4.68-6.84 3.42-14.76 3.42-15.66-4.5 5.94-8.64 11.88-14.4 16.56zm6.66-10.8c-3.06 2.88-3.78 7.02-5.94 10.8-.54 1.08-.18 2.34-.9 3.42-.36.72-2.16 1.08-2.52 1.8a62.874 62.874 0 0 0 -2.7 6.12c0 5.94-.54 12.6 1.8 16.38 4.32 1.26 12.96 2.16 19.08.9a95.933 95.933 0 0 0 20.7-12.96c2.16-2.34 1.44-3.96 3.6-4.32-.54-1.62 3.96-4.14 5.04-5.22 3.6-5.22 8.28-8.46 10.44-15.48 0-.18.36-.54 3.24-1.62 2.7-1.08.9-.18 3.78-1.26 1.44-.54 2.16-.72 2.52-.9.9-.72 4.5-6.12 4.32-7.56a12.989 12.989 0 0 0 -7.38.36c-2.52.9-.18.18-2.7.72-1.44.36-2.34 0-2.52-.36-.54-2.88-.72-6.3-2.16-9.36.18-5.04-5.94-7.38-8.82-9.54-5.76 0-8.82 2.7-13.68 3.42-2.52 2.52-4.14 5.76-7.02 7.92-4.68 1.44-6.84 5.22-12.06 5.94-1.98 1.08-3.6 3.06-4.32 3.42a40.28 40.28 0 0 1 -1.8 7.38zm33.84-16.74c1.26-.36 5.04.72 6.12.72 1.62 2.16.54 7.02.9 10.44-3.24 1.8-10.44 2.88-15.66 2.52.36-1.62-.72-3.06-.9-1.62-2.34-1.8 1.98-4.32 2.52-6.12 2.52-.54 5.04-1.26 6.12-3.42-.36-1.44.72-1.44.9-2.52zm-21.6 17.28c2.88.72 4.5 2.88 6.84 4.32 2.34 0 4.86-.36 6.12.72 3.6-.18 9.36-.54 12.24-2.34 0 2.88-1.44 2.88-2.7 5.04a27.492 27.492 0 0 0 -5.94 5.22 53.617 53.617 0 0 0 -5.22 5.94c-3.42.54-5.04 3.6-7.74 5.22-1.08.54-1.08.18-1.8.9-.54.54-6.84 4.14-8.64 4.32h-8.82c-.72-4.5 1.8-5.76 1.8-9.54 3.42-3.78 5.94-9.36 9.54-13.86.9-1.26 1.26-3.24 3.42-3.42-.36-1.44.72-1.44.9-2.52zm153.54 12.24c.18-.72 3.06-1.8 4.68-1.8 2.7-.18 4.68-3.6 3.78-12.06-5.22.18-7.92 3.06-11.34 4.86-1.26.54-3.78 2.7-5.22 3.24a25.9 25.9 0 0 1 -4.5 3.96c-3.06 2.16-2.7 1.8-6.48 3.24-7.74 5.58-10.62 4.86-19.98 8.82-1.98.54-1.98 1.44-4.32 1.62-1.44 1.26-4.32 0-6.12.72-1.98-.18-3.78 4.14-5.22 1.8 1.8-1.08.9-4.86 3.42-5.22a28.854 28.854 0 0 0 3.6-6.12c2.88-3.06 9.18-12.06 10.44-16.92 2.34-.54 1.8-3.96 4.32-4.32-.18-3.42 3.78-2.7 3.42-6.12a10.216 10.216 0 0 0 4.32-12.96c-4.32-2.34-11.7 1.26-14.76 2.7-3.96 3.6-10.62 5.76-14.76 8.64-.9.54-1.8 1.98-2.7 2.52a42.548 42.548 0 0 1 -6.84 4.32c-1.62.9-2.34 2.34-4.32 1.8-.9 2.16-3.42 2.88-4.32 5.22-2.34-.72-1.26 1.62-2.88 1.62-1.26-.36-2.16 3.42-2.7.9h.9c0-.9 1.26-1.26 0-1.8 2.16-3.6 5.22-19.44 2.16-22.32-4.32-.72-6.3-1.08-7.56 1.98-.9 2.16-4.14 17.28-4.86 20.34-2.16 6.12-9.54 16.2-12.24 21.42-1.62 2.34-2.88 5.22-5.22 6.84-1.44 2.7-3.78 4.32-3.42 8.64 2.34 3.24 3.42.36 7.92.9 1.98-1.26 3.42-3.06 5.22-4.32 2.7-.54 2.34-4.14 5.22-4.32 3.78-2.7 5.04-7.38 9-9.9 1.08-1.98 3.78-3.78 5.4-5.4 5.4-4.86 21.06-16.56 28.26-19.08-2.16 3.96-7.74 14.58-9.54 17.1a8.533 8.533 0 0 1 -1.8 1.8c-.18.18.18 1.44 0 1.62-.72 1.08-1.98 1.8-2.52 2.7-.9 1.08-.9 1.98-1.8 3.42-.36.72-1.44.36-1.62.9-.72 1.08 0 1.8-.9 2.52-.36.18.18 1.44 0 1.8a18.753 18.753 0 0 0 -2.7 10.26c3.96 4.14 10.62 1.98 15.66 1.8 7.02-4.32 15.3-4.86 21.96-9.54 3.24-2.52 4.86-1.8 7.92-4.5 4.86-2.16 5.58-3.6 8.64-4.68 3.96-1.8 10.8-5.58 14.4-8.64zm95.04-6.12c-5.4 1.98-9.18 7.02-14.04 9.54a113.488 113.488 0 0 0 -15.66 7.38c-6.12 1.44-10.26 6.12-16.38 7.56-2.34 1.26-5.94 1.44-8.64 2.52-6.84 3.24-17.28 2.88-26.82 3.42-4.68-1.8-9.36-3.78-11.16-8.64-2.52-8.64 1.8-9.54 3.6-16.56 1.26-1.26 2.16-2.88 4.32-3.42.72-4.86 5.94-5.04 6.84-9.36 1.62-1.44 3.6-2.34 3.6-5.22 2.88 1.44 2.7-1.98 3.42-2.7 1.08-.9 2.88-1.26 3.42-2.52 2.16.72 3.24-1.08 4.32-1.8.72-.18 1.98.36 2.52 0 .54-.18 0-2.52 1.8-1.62s1.8.9.9-.9c4.68-2.52 9-1.8 12.96.9.72 2.16 1.62 3.24 1.62 5.04.36 4.86-2.88 6.66-3.42 9.54-.36 1.44.18 2.88 0 4.32 5.4 4.5 9.72-.36 12.06-2.52.54-1.26-.9-4.5.9-4.32-2.16-7.74-3.78-15.84-7.74-21.6-19.62-3.42-31.86 7.74-41.58 17.28-5.4 4.5-8.82 11.16-13.68 16.38-.72 3.6-3.78 8.64-4.14 12.24-.54 6.12.72 5.4.54 11.16 2.34.9 2.88 3.6 3.42 6.12 3.78.9 5.94 3.24 8.64 5.22 5.94 1.26 13.5.72 20.7.9 4.68-1.44 9.18-2.7 15.66-2.34.18-1.8 3.78-.18 4.32-1.62 0-1.98 3.6-.36 5.04-.9 2.52-2.52 7.02-2.88 9.9-4.86 2.7.18 2.52-2.7 6.12-1.62.54-2.52 3.42-2.7 5.22-3.24.18 0 1.26-1.8 1.62-1.98 2.7-1.26 5.76-2.88 8.28-4.32 4.32-.9 13.86-7.38 15.12-11.52 2.34-7.74-.54-7.74-3.6-5.94zm69.66 5.76c-1.8 0-5.22 1.8-6.84 2.34a43.135 43.135 0 0 0 -6.84 3.78c-7.56 5.58-21.78 11.52-31.32 12.06h-1.8c-2.52-.72-6.84-1.8-9.54-4.14 4.14-1.44 6.3-4.68 10.44-6.12 1.08-2.34 3.6-3.06 5.22-5.04s3.42-5.76 5.94-7.02c.54-6.3 7.2-14.04 7.2-21.06 1.44-1.62 1.08-4.68 1.8-5.94.36-.72.72-.36.72-1.8.18-3.42 0-5.76-2.52-7.74-5.94-.18-8.46 3.06-14.76 2.52-3.42 3.6-8.1 5.76-12.96 7.92-2.52 4.14-7.38 6.3-9.36 11.16-2.52.9-3.42 3.6-4.32 6.12-2.16.9-5.04 9.54-5.58 11.34 0 .54-.72.9-.72.9-1.08 4.14 0 8.64.72 12.24-.36 3.24 1.08 8.1 5.22 8.64 6.84 4.68 17.28 7.38 28.62 6.66 13.5-.9 37.44-15.12 40.14-19.44.54-.9.54-7.02.54-7.38zm-35.28-30.24c.72 0 .72 1.08.9 1.62 0 3.42-1.98 6.12-3.6 8.64-3.24 5.22-10.26 17.64-15.66 21.96a37.362 37.362 0 0 1 -5.22 3.42c-1.08.54-4.32 1.98-7.02 1.8.18-9.18 8.28-19.44 11.52-25.38 4.86-2.16 7.74-7.56 12.96-10.44 1.44-.72 3.78 0 6.12-1.62zm157.68 5.4c-5.4 2.7-41.58 20.16-45.54 20.16a1.944 1.944 0 0 1 -1.26-.54c1.26-6.12 2.52-12.42 2.52-18.9v-1.8l-.9-1.62c0-2.16.9-4.14.9-6.3v-.72c-.72-.9-1.44-2.34-.9-3.42-3.6-3.96-6.3-7.92-12.06-7.92-6.3 0-38.16 18.54-39.78 23.4-3.78.36-24.48 19.62-27.54 23.4-.18.54-14.04 14.58-15.66 15.48-2.52 7.02-28.8 36.9-26.64 42.48-2.16 1.08-8.28 12.96-7.92 15.48-2.34.36-1.98 3.78-4.32 4.32l.18 1.62c0 1.98-1.8 3.24-1.8 5.22-2.16 1.08-.54 4.86-2.52 6.12-.72 4.86-2.88 9.18-4.5 13.86.18 4.14-1.08 12.24 1.8 15.48h.72c10.08 0 28.98-31.68 33.84-39.78 2.16-3.78 5.4-6.66 7.74-10.26a2.558 2.558 0 0 1 1.8-2.7c4.32-5.94 16.74-27.54 21.6-30.24-.18-2.52 2.34-3.24 1.62-5.94 3.96-1.26 17.28-22.14 21.6-26.82 2.88 5.22 5.22 11.16 9.54 15.48a33.7 33.7 0 0 0 9.54.9h6.12c.54-1.98 5.04-.54 5.4-2.7a23.968 23.968 0 0 1 5.04-1.8 169.813 169.813 0 0 1 16.02-9.18 14.48 14.48 0 0 1 7.74-4.32c.36-1.08 30.24-15.12 32.76-16.2.18 0 11.16-11.88 10.8-11.88zm-61.56-12.24a19.031 19.031 0 0 1 7.02 1.62 25.471 25.471 0 0 1 2.16 10.98c0 8.28-2.7 20.34-7.92 27-1.44.54-4.68 1.44-4.5 3.42-5.4 0-10.62 3.06-15.3 3.06-6.3 0-7.56-7.2-11.7-9.9.36-2.52 1.62-4.14 3.06-5.94 2.52-4.14 7.74-12.78 8.46-17.28a22.51 22.51 0 0 0 6.66-7.02c4.14.18 5.22-3.96 9.54-3.42.36-.9 1.44-1.44 1.62-2.52zm-38.88 25.02c.9-.18 1.08 0 1.08.54 0 3.6-6.66 12.78-8.82 15.84-.72 3.06-4.14 4.32-4.32 7.74-8.28 6.12-13.14 18-19.8 25.92v1.8h-1.8c-1.08 1.62-.72 3.6-1.8 5.22a3.457 3.457 0 0 0 -2.52 3.42c-3.42 5.4-7.92 10.08-11.16 15.48-2.34-.18-1.08 2.52-1.8 3.6l-1.8.72c-1.44 2.34-3.78 5.58-5.04 7.92v1.62c-3.42 2.7-4.14 7.92-7.92 10.44a11.366 11.366 0 0 1 -5.04 6.84c-1.08 2.52-2.16 5.4-5.22 6.12a2.6 2.6 0 0 0 .36-1.26c0-1.08-1.26-1.98-1.26-3.24 0-.36.54-.54.9-.72.54-1.8 2.52-1.62 1.62-4.32 1.26-3.78 3.06-6.3 2.7-10.44 1.98-2.34 2.52-5.94 5.22-7.74v-4.32c3.24-2.88 3.6-7.38 6.84-10.26.36-5.04 4.86-6.84 6.12-11.34 1.08-1.44 13.5-19.44 13.68-19.8 3.42-1.08 5.58-8.28 8.64-8.64 0-2.88 3.06-2.88 3.6-5.22 1.8-.72 1.08-4.14 3.42-4.32 3.6-2.16 4.86-6.66 8.64-8.64 2.16-3.42 6.66-4.5 7.74-8.64 2.52 0 3.42-1.98 5.22-3.42a4.3 4.3 0 0 0 2.52-.9zm147.42 19.44c-2.52.36-5.76-.18-6.66 1.8-1.44.36-3.78.36-5.22.9-1.62.72-2.7 1.98-4.14 2.7-.18 0-4.86 2.34-5.04 2.52-2.88 2.52-7.2 3.24-9.9 3.96-6.3.9-14.22 3.6-19.98.9-.18-.18 0-.72-.72-.9-1.98-.54-3.24-1.98-5.22-3.42-3.06-6.66-.18-12.24.9-19.08 2.16-1.26 2.16-4.14 3.42-5.94 1.08-1.8 3.6-2.88 3.42-5.22 4.68-2.88 4.32-8.1 8.64-11.16 1.98-5.4 6.66-7.92 8.64-12.96 1.26-.54 4.5.9 4.32-.9 3.06-3.6 7.38.36 9.54 0a22.27 22.27 0 0 0 5.22-1.8c2.52.72 2.52.72 5.04 0 5.94-1.8 6.3 1.08 12.24-1.62a24.948 24.948 0 0 0 8.64.72c4.86-1.8 8.28-.36 12.06-2.52 5.58.54 8.82-1.08 13.86-.9-.18.18 3.6-.36 8.1-.72 2.16-2.7-.9-4.14-3.06-5.22-19.98 1.62-41.22 2.52-61.2 4.32-1.8-.54-5.76.9-6.12-.9 2.88-9.9 10.44-14.94 14.76-23.4-1.98-1.62.9-7.74-2.7-7.74-5.94-.72-5.58 4.68-8.64 6.84-3.24 4.68-5.94 9.54-9.54 13.86-1.8 2.52-5.58 5.4-6.84 7.02-.54.72-.36 1.8-.9 2.52-.72.9-1.98 2.34-3.42 2.52-8.64.9-16.92 2.16-25.92 2.7-1.26 1.8-5.22 1.08-6.84 2.52-1.62 1.62-6.48 0-6.12 3.42 1.8 5.94 9.18 3.24 14.76 2.7 3.96-.54 8.28-1.44 10.26-1.8 2.7-.36 5.76-.54 7.02.9-5.04 6.12-7.92 14.58-12.24 21.6-2.52 2.34-3.78 10.26-5.94 14.76-1.26 4.68-2.52 9.18-1.8 13.68.9 6.12 5.58 9.36 7.74 12.96 2.34.72 5.04.9 6.12 2.7 5.22.18 11.7-.72 15.48.9a15.043 15.043 0 0 1 5.22-1.8c3.78-.9.9.36 3.6-.36 1.62-.36 4.86-1.44 5.94-1.8 2.16-.54 2.34-1.26 3.42-1.62a17.088 17.088 0 0 1 3.78-1.62c2.88-.9 5.94-3.6 7.74-4.5 2.88-1.44 4.86-3.78 9.18-5.76-1.62-1.98 1.8-3.6-.9-5.76z" fill="#fff" opacity=".2" transform="translate(636.66 153.18)"/></svg>