<svg height="25.226" viewBox="0 0 31 25.226" width="31" xmlns="http://www.w3.org/2000/svg"><path d="m32.413 7.489a12.858 12.858 0 0 1 -3.652 1.005 6.382 6.382 0 0 0 2.8-3.521 12.638 12.638 0 0 1 -4.04 1.544 6.358 6.358 0 0 0 -11 4.349 6.227 6.227 0 0 0 .164 1.452 18.024 18.024 0 0 1 -13.117-6.655 6.373 6.373 0 0 0 1.977 8.5 6.212 6.212 0 0 1 -2.89-.795v.079a6.366 6.366 0 0 0 5.1 6.241 6.4 6.4 0 0 1 -1.675.223 6 6 0 0 1 -1.2-.118 6.37 6.37 0 0 0 5.945 4.421 12.752 12.752 0 0 1 -7.9 2.726 12.892 12.892 0 0 1 -1.517-.092 17.777 17.777 0 0 0 9.736 2.877c11.713 0 18.111-9.7 18.111-18.118 0-.276-.007-.552-.02-.821a12.947 12.947 0 0 0 3.178-3.297z" fill="#fff" transform="translate(-1.413 -4.5)"/></svg>