<svg height="115.786" viewBox="0 0 458 115.786" width="458" xmlns="http://www.w3.org/2000/svg"><g fill="#fff"><path d="m43.789 48.044v6.868a85.036 85.036 0 0 1 -7.269 6.627 49.755 49.755 0 0 1 -6.631 4.6 26 26 0 0 1 -12.569 3.343 16.629 16.629 0 0 1 -12.395-5.023 17.586 17.586 0 0 1 -4.925-12.853 33.743 33.743 0 0 1 2.434-12.375 40.44 40.44 0 0 1 6.516-11.149 32.923 32.923 0 0 1 9.325-7.861 20.9 20.9 0 0 1 10.225-2.93 12.1 12.1 0 0 1 8.427 2.9 9.9 9.9 0 0 1 3.214 7.734 9.366 9.366 0 0 1 -.085 1.283 3.47 3.47 0 0 1 -.61 1.4 4.979 4.979 0 0 1 -2.2 1.492l-6.721 3.284a8.24 8.24 0 0 1 -1.794.6q-.811 0-.811-1.194l.348-3.165.348-3.224a7.778 7.778 0 0 0 -1.041-4.18 3.252 3.252 0 0 0 -2.9-1.673q-2.783 0-5.388 2.96a22.405 22.405 0 0 0 -4.228 7.865 32.7 32.7 0 0 0 -1.621 10.346q0 7 3.3 11.3a10.537 10.537 0 0 0 8.807 4.305 14.968 14.968 0 0 0 5.588-1.075 22.577 22.577 0 0 0 5.706-3.522 71.15 71.15 0 0 0 6.95-6.683z" transform="translate(0 17.06)"/><path d="m84.248 48.044v6.868a153.391 153.391 0 0 1 -12.83 11.524 13.519 13.519 0 0 1 -8.08 3.045q-8.63 0-8.63-16.66-5.968 8.839-10.888 12.749t-9.905 3.912a9.734 9.734 0 0 1 -6.141-2.237 14.794 14.794 0 0 1 -4.458-6.234 22.431 22.431 0 0 1 -1.621-8.529 31.514 31.514 0 0 1 3.069-13.839 41.08 41.08 0 0 1 7.736-11.123 39.366 39.366 0 0 1 9.963-7.486 21.039 21.039 0 0 1 9.472-2.744q7.179 0 10.136 6.747l11.816-6.747h3.243l-5.1 17.522-2.662 10.167q-.578 2.512-.926 4.635a21.838 21.838 0 0 0 -.348 3.318 6.337 6.337 0 0 0 .983 3.8 3.021 3.021 0 0 0 2.549 1.345 7.24 7.24 0 0 0 4.286-1.977q2.426-1.966 8.336-8.056zm-31.685-25.856q-3.883 0-7.647 4.859a40.413 40.413 0 0 0 -6.141 11.834 38.423 38.423 0 0 0 -2.374 12.1 8.638 8.638 0 0 0 1.506 5.187 4.887 4.887 0 0 0 3.94 2.032q4 0 7.674-4.857a41.2 41.2 0 0 0 6.023-11.894 39.412 39.412 0 0 0 2.346-12.162 8.628 8.628 0 0 0 -1.39-5.187 4.575 4.575 0 0 0 -3.937-1.912z" transform="translate(21.405 17.06)"/><path d="m52.513 66.594 10.978-11.767 3.209-15.522q.578-2.631 1.188-4.816t1.738-5.773q1.129-3.588 2.112-6.46t1.913-5.145q1.97-5.024 3.359-7.986a42.178 42.178 0 0 1 2-3.918q.608-.957 7.966-3.111 3.649-1.016 5.587-1.526a22.3 22.3 0 0 1 2.521-.57q2.2 0 3.594 2.99a18.577 18.577 0 0 1 1.389 7.776 31.059 31.059 0 0 1 -5.038 17.464q-5.039 7.655-15.466 17.824l-4.863 24.9q2.78 6.27 8.515 6.27a14.9 14.9 0 0 0 8.4-2.926 43.945 43.945 0 0 0 9.21-9.2v6.868a58.174 58.174 0 0 1 -11.7 10.569q-6.025 4-10.773 4a16.645 16.645 0 0 1 -6.023-1.732l-1.16 6.58-.87 5.563-1.043 6.937-1.214 9.329q-4.866.715-14.482 2.571 1.913-16.5 6.429-42.5l-2.259-5.737-3.88 4.418h-1.339v-5.37zm28.844-28.661a50.09 50.09 0 0 0 10.483-12.927q4-7.137 4-13.108a8.273 8.273 0 0 0 -.928-4.061q-.93-1.672-2.2-1.671-1.737 0-3.475 3.105-.638 1.255-1.448 3.343t-1.621 4.6q-1.448 4.959-2.606 10.271-.87 4.476-1.041 5.255-.41 1.97-1.164 5.193z" transform="translate(51.809)"/><path d="m120.3 47.953v6.868q-3.013 2.986-5.328 5.046t-4.577 3.792a29.924 29.924 0 0 1 -7.964 4.329 24.912 24.912 0 0 1 -8.254 1.4 16.5 16.5 0 0 1 -12.712-5.225q-4.836-5.224-4.837-13.644a34.585 34.585 0 0 1 2.287-12.242 36.8 36.8 0 0 1 6.111-10.688 31.225 31.225 0 0 1 8.862-7.4 20.651 20.651 0 0 1 10.138-2.807 12.661 12.661 0 0 1 8.6 2.837 9.492 9.492 0 0 1 3.272 7.553 12.579 12.579 0 0 1 -4 9.136 30.9 30.9 0 0 1 -9.325 6.389q-5.036 2.211-12.162 4.539a15.924 15.924 0 0 0 4.313 8.664 10.9 10.9 0 0 0 7.79 2.986 12.728 12.728 0 0 0 5.763-1.313 21.939 21.939 0 0 0 4.9-3.345q.983-.834 2.839-2.6t4.284-4.275zm-30.35-4.18q7.241-2.152 11.034-6.151a13.624 13.624 0 0 0 3.794-9.732 7.068 7.068 0 0 0 -1.1-4.239 3.491 3.491 0 0 0 -2.954-1.492q-2.259 0-4.75 2.509a20.069 20.069 0 0 0 -4.262 7.432 34.608 34.608 0 0 0 -1.764 11.673z" transform="translate(75.599 17.15)"/><path d="m175.742 48.044v6.868a153.4 153.4 0 0 1 -12.83 11.524 13.519 13.519 0 0 1 -8.08 3.045q-8.63 0-8.63-16.66-5.969 8.838-10.889 12.748t-9.905 3.912a9.734 9.734 0 0 1 -6.141-2.237 14.794 14.794 0 0 1 -4.458-6.234 22.431 22.431 0 0 1 -1.621-8.529 31.514 31.514 0 0 1 3.069-13.839 41.08 41.08 0 0 1 7.734-11.123 39.366 39.366 0 0 1 9.963-7.486 21.039 21.039 0 0 1 9.472-2.744q7.179 0 10.136 6.747l11.816-6.747h3.244l-5.1 17.522-2.666 10.166q-.578 2.512-.926 4.635a21.84 21.84 0 0 0 -.348 3.318 6.337 6.337 0 0 0 .983 3.8 3.021 3.021 0 0 0 2.549 1.345 7.24 7.24 0 0 0 4.285-1.971q2.433-1.97 8.343-8.06zm-31.683-25.856q-3.883 0-7.646 4.859a40.413 40.413 0 0 0 -6.141 11.834 38.423 38.423 0 0 0 -2.374 12.1 8.638 8.638 0 0 0 1.506 5.187 4.887 4.887 0 0 0 3.939 2.026q4 0 7.674-4.857a41.2 41.2 0 0 0 6.023-11.894 39.413 39.413 0 0 0 2.346-12.162 8.628 8.628 0 0 0 -1.386-5.181 4.58 4.58 0 0 0 -3.941-1.912z" transform="translate(111.675 17.06)"/><path d="m144.006 54.823v-5.374a153.043 153.043 0 0 0 11.876-14.212l4.4-6.151 3.822-5.912 2.2-3.822q.808-1.97 1.563-1.971l1.738.238a49.291 49.291 0 0 0 5.674 1.015 48.267 48.267 0 0 0 5.851.36 72.8 72.8 0 0 0 12.57-1.253 17.123 17.123 0 0 1 2.722-.358c.7 0 1.061.2 1.1.6q0 .957-2.372 4.659l-4.514 6.031-8.163 10.279-8.346 10.326-4.637 5.791 3.824-.24a54.134 54.134 0 0 1 7.9 1.343 65.986 65.986 0 0 0 7.269 1.345 10.2 10.2 0 0 0 4.257-.807 14.1 14.1 0 0 0 3.852-2.865q2.083-2.059 5.561-5.882v6.868l-5.793 6.27a52.86 52.86 0 0 1 -4.9 4.629 21.524 21.524 0 0 1 -4.49 2.837 14.319 14.319 0 0 1 -2.2.717 10.416 10.416 0 0 1 -2.316.238q-2.029 0-7.762-1.852-6.2-2.089-9.21-2.09a8.19 8.19 0 0 0 -6.315 2.807 3.26 3.26 0 0 1 -1.389 1.134q-3.94 0-4.055-.538 0-.9 3.473-5.557l8.404-10.816 10.917-13.533 7.108-8.97a32.723 32.723 0 0 1 -7.241.715 36.224 36.224 0 0 1 -10.773-1.79q-3.71 5.552-7.3 10.271-.986 1.314-2.434 3.165-2.551 3.224-3.969 4.957t-3.069 3.584q-1.651 1.851-3.5 3.82h-1.331z" transform="translate(142.08 17.148)"/><path d="m202.035 59.855v6.868q-13.553 14.691-20.273 14.691-3.707 0-6.254-4a17.757 17.757 0 0 1 -2.549-9.734 62.586 62.586 0 0 1 2.4-16.779q2.4-8.657 5.938-18.452l14.711-3.165h.7l-5.791 18.69q-1.97 6.571-2.779 10.271a30.169 30.169 0 0 0 -.811 6.27 5.51 5.51 0 0 0 .84 3.224 2.5 2.5 0 0 0 2.112 1.194 7.218 7.218 0 0 0 4.721-1.883 87.306 87.306 0 0 0 7.035-7.195zm-14.713-54.535 4.17 2.34a8.807 8.807 0 0 0 3.187.6 10.386 10.386 0 0 0 6.2-2.328q0 7.048-2.579 10.688a8.781 8.781 0 0 1 -7.674 3.641 12.444 12.444 0 0 1 -8.513-3.105 48.182 48.182 0 0 0 5.209-11.836z" transform="translate(170.645 5.249)"/><path d="m195.655 29.026 5.415-18.638 15.543-3.294-5.908 20.8 8.05-.479-1.911 9.2-8.98.715-2.028 6.689q-1.737 5.853-2.779 10.3a33.828 33.828 0 0 0 -1.041 7.494 7.608 7.608 0 0 0 1.389 4.6 4.283 4.283 0 0 0 3.477 1.732 10 10 0 0 0 6.226-2.209 78 78 0 0 0 8.139-7.823v6.857q-7.53 7.763-12.859 11.167t-9.9 3.4a9.489 9.489 0 0 1 -8.08-4.359q-3.1-4.357-3.1-11.346a41.847 41.847 0 0 1 .811-8.151q.811-4.091 2.318-9.166l2.316-8.121-4.46.24 1.857-9.373z" transform="translate(184.797 6.999)"/><path d="m256.663 48.043v6.868a21.484 21.484 0 0 1 -5.07 3.641 11.264 11.264 0 0 1 -5.068 1.254 12 12 0 0 1 -2.056-.149 11.207 11.207 0 0 1 -2.056-.626 21.1 21.1 0 0 1 -4.17-2.567 33.032 33.032 0 0 1 -8.92 9.732 19.675 19.675 0 0 1 -4.925 2.448 16.835 16.835 0 0 1 -5.271.836 13.719 13.719 0 0 1 -7.821-2.332 14.915 14.915 0 0 1 -5.356-6.695 24.978 24.978 0 0 1 -1.883-9.983 34.525 34.525 0 0 1 1.043-8.608 32.451 32.451 0 0 1 3.244-7.95 33.445 33.445 0 0 1 11.614-12.077 29.6 29.6 0 0 1 15.9-4.543q4.866 0 7.156 1.107a5.221 5.221 0 0 1 2.839 2.571 10.971 10.971 0 0 1 .548 3.8q0 11.124-5.908 27.451a12.692 12.692 0 0 0 2.984 2.064 7.245 7.245 0 0 0 3.214.747 7.934 7.934 0 0 0 4.488-1.762 33.335 33.335 0 0 0 5.474-5.227zm-21.722 5.123a24.394 24.394 0 0 1 -5.445-15.19 19.563 19.563 0 0 1 1.883-8.85 26.945 26.945 0 0 1 6.166-7.654 6.791 6.791 0 0 0 -2.491-.36 11.429 11.429 0 0 0 -9.21 4.335 26.933 26.933 0 0 0 -5.213 10.587 48.6 48.6 0 0 0 -1.621 12.23q0 6.16 1.911 9.448t5.1 3.288q3.997 0 8.92-7.834z" transform="translate(201.337 17.061)"/><path d="m112.7 4.641c.111 5.88-4.621 9.013-8.2 12.613-6.816 6.848-17.248 7.74-17.248 7.74 3.7-2.551 10.942-14.139 12.548-20.26a28.608 28.608 0 0 0 12.9-.093z" transform="translate(86.081 4.579)"/></g></svg>