<svg height="43.428" viewBox="0 0 171.784 43.428" width="171.784" xmlns="http://www.w3.org/2000/svg"><g fill="#505096"><path d="m16.424 28.826v2.574a31.9 31.9 0 0 1 -2.724 2.487 18.662 18.662 0 0 1 -2.487 1.725 9.75 9.75 0 0 1 -4.713 1.254 6.237 6.237 0 0 1 -4.649-1.884 6.6 6.6 0 0 1 -1.851-4.82 12.656 12.656 0 0 1 .913-4.642 15.168 15.168 0 0 1 2.444-4.182 12.349 12.349 0 0 1 3.5-2.948 7.839 7.839 0 0 1 3.834-1.1 4.54 4.54 0 0 1 3.161 1.086 3.714 3.714 0 0 1 1.206 2.9 3.513 3.513 0 0 1 -.032.481 1.3 1.3 0 0 1 -.229.527 1.868 1.868 0 0 1 -.825.56l-2.521 1.232a3.091 3.091 0 0 1 -.673.224q-.3 0-.3-.448l.13-1.187.13-1.209a2.917 2.917 0 0 0 -.39-1.568 1.22 1.22 0 0 0 -1.086-.627 2.746 2.746 0 0 0 -2.021 1.11 8.4 8.4 0 0 0 -1.586 2.95 12.265 12.265 0 0 0 -.613 3.879 6.786 6.786 0 0 0 1.238 4.24 3.952 3.952 0 0 0 3.3 1.615 5.614 5.614 0 0 0 2.1-.4 8.468 8.468 0 0 0 2.14-1.321 26.687 26.687 0 0 0 2.604-2.508z" transform="translate(0 -4.407)"/><path d="m45.157 28.826v2.574a57.534 57.534 0 0 1 -4.812 4.323 5.071 5.071 0 0 1 -3.03 1.142q-3.237 0-3.237-6.249a21.665 21.665 0 0 1 -4.084 4.784 5.963 5.963 0 0 1 -3.715 1.467 3.651 3.651 0 0 1 -2.3-.839 5.549 5.549 0 0 1 -1.679-2.339 8.413 8.413 0 0 1 -.608-3.2 11.82 11.82 0 0 1 1.154-5.189 15.408 15.408 0 0 1 2.9-4.172 14.765 14.765 0 0 1 3.737-2.808 7.891 7.891 0 0 1 3.553-1.029 3.867 3.867 0 0 1 3.8 2.53l4.432-2.53h1.217l-1.911 6.572-1 3.813q-.217.942-.347 1.738a8.191 8.191 0 0 0 -.13 1.244 2.377 2.377 0 0 0 .369 1.425 1.133 1.133 0 0 0 .956.5 2.716 2.716 0 0 0 1.607-.739q.911-.734 3.128-3.018zm-11.884-9.7a3.828 3.828 0 0 0 -2.873 1.824 15.158 15.158 0 0 0 -2.3 4.439 14.411 14.411 0 0 0 -.89 4.539 3.24 3.24 0 0 0 .565 1.946 1.833 1.833 0 0 0 1.478.76 3.767 3.767 0 0 0 2.878-1.822 15.454 15.454 0 0 0 2.259-4.461 14.783 14.783 0 0 0 .88-4.562 3.236 3.236 0 0 0 -.522-1.945 1.716 1.716 0 0 0 -1.475-.716z" transform="translate(-5.529 -4.407)"/><path d="m52.512 24.978 4.118-4.413 1.2-5.822q.217-.987.446-1.806t.652-2.165q.424-1.346.792-2.423t.718-1.93q.739-1.884 1.26-3a15.821 15.821 0 0 1 .75-1.469 8.744 8.744 0 0 1 2.99-1.164q1.369-.386 2.096-.572a8.365 8.365 0 0 1 .945-.214q.826 0 1.348 1.121a6.968 6.968 0 0 1 .521 2.916 11.649 11.649 0 0 1 -1.89 6.55 42.649 42.649 0 0 1 -5.8 6.685l-1.825 9.339a3.392 3.392 0 0 0 3.194 2.352 5.59 5.59 0 0 0 3.15-1.1 16.483 16.483 0 0 0 3.454-3.449v2.576a21.82 21.82 0 0 1 -4.389 3.964 7.559 7.559 0 0 1 -4.041 1.5 6.243 6.243 0 0 1 -2.259-.65l-.435 2.468-.326 2.086-.391 2.6-.455 3.5q-1.825.268-5.432.964.718-6.188 2.411-15.94l-.847-2.152-1.455 1.657h-.5zm10.818-10.75a18.788 18.788 0 0 0 3.932-4.849 10.2 10.2 0 0 0 1.5-4.916 3.1 3.1 0 0 0 -.348-1.523q-.349-.627-.826-.627-.652 0-1.3 1.165-.239.471-.543 1.254t-.608 1.724q-.543 1.86-.978 3.852-.326 1.679-.39 1.971-.156.74-.439 1.949z" transform="translate(-13.383)"/><path d="m93 28.849v2.576q-1.13 1.12-2 1.893t-1.71 1.422a11.224 11.224 0 0 1 -2.99 1.624 9.344 9.344 0 0 1 -3.1.527 6.188 6.188 0 0 1 -4.768-1.96 7.233 7.233 0 0 1 -1.814-5.118 12.972 12.972 0 0 1 .858-4.591 13.8 13.8 0 0 1 2.292-4.009 11.711 11.711 0 0 1 3.332-2.777 7.746 7.746 0 0 1 3.8-1.053 4.749 4.749 0 0 1 3.226 1.064 3.56 3.56 0 0 1 1.227 2.833 4.718 4.718 0 0 1 -1.5 3.427 11.589 11.589 0 0 1 -3.5 2.4q-1.889.829-4.562 1.7a5.973 5.973 0 0 0 1.618 3.247 4.089 4.089 0 0 0 2.922 1.12 4.774 4.774 0 0 0 2.162-.493 8.229 8.229 0 0 0 1.836-1.255q.369-.313 1.065-.974t1.606-1.603zm-11.378-1.568a9.179 9.179 0 0 0 4.138-2.307 5.11 5.11 0 0 0 1.423-3.65 2.651 2.651 0 0 0 -.413-1.59 1.309 1.309 0 0 0 -1.108-.56 2.623 2.623 0 0 0 -1.782.941 7.527 7.527 0 0 0 -1.6 2.788 12.981 12.981 0 0 0 -.658 4.378z" transform="translate(-19.529 -4.43)"/><path d="m136.651 28.826v2.574a57.536 57.536 0 0 1 -4.812 4.323 5.071 5.071 0 0 1 -3.03 1.142q-3.237 0-3.237-6.249a21.665 21.665 0 0 1 -4.084 4.782 5.963 5.963 0 0 1 -3.715 1.467 3.651 3.651 0 0 1 -2.3-.839 5.549 5.549 0 0 1 -1.672-2.338 8.413 8.413 0 0 1 -.608-3.2 11.82 11.82 0 0 1 1.147-5.188 15.408 15.408 0 0 1 2.9-4.172 14.765 14.765 0 0 1 3.737-2.808 7.891 7.891 0 0 1 3.553-1.029 3.867 3.867 0 0 1 3.8 2.53l4.432-2.53h1.217l-1.911 6.572-1 3.813q-.217.942-.347 1.738a8.19 8.19 0 0 0 -.13 1.244 2.377 2.377 0 0 0 .369 1.425 1.133 1.133 0 0 0 .956.5 2.716 2.716 0 0 0 1.607-.739q.911-.734 3.128-3.018zm-11.883-9.7a3.828 3.828 0 0 0 -2.868 1.824 15.158 15.158 0 0 0 -2.3 4.439 14.412 14.412 0 0 0 -.89 4.539 3.24 3.24 0 0 0 .565 1.946 1.833 1.833 0 0 0 1.478.76 3.767 3.767 0 0 0 2.878-1.822 15.454 15.454 0 0 0 2.259-4.461 14.782 14.782 0 0 0 .88-4.562 3.236 3.236 0 0 0 -.522-1.945 1.718 1.718 0 0 0 -1.48-.716z" transform="translate(-28.848 -4.407)"/><path d="m144.006 31.424v-2.015a57.4 57.4 0 0 0 4.454-5.331l1.651-2.307 1.434-2.218.826-1.434q.3-.739.586-.739l.652.089a18.488 18.488 0 0 0 2.128.381 18.1 18.1 0 0 0 2.194.135 27.305 27.305 0 0 0 4.714-.47 6.422 6.422 0 0 1 1.021-.134c.261 0 .4.075.413.224a5.267 5.267 0 0 1 -.89 1.747l-1.689 2.263-3.062 3.855-3.13 3.873-1.739 2.172 1.434-.09a20.3 20.3 0 0 1 2.965.5 24.752 24.752 0 0 0 2.726.5 3.824 3.824 0 0 0 1.6-.3 5.29 5.29 0 0 0 1.445-1.074q.781-.772 2.086-2.206v2.576l-2.173 2.352a19.821 19.821 0 0 1 -1.836 1.736 8.073 8.073 0 0 1 -1.684 1.064 5.372 5.372 0 0 1 -.825.269 3.906 3.906 0 0 1 -.869.089 11.935 11.935 0 0 1 -2.911-.694 12.18 12.18 0 0 0 -3.454-.784 3.072 3.072 0 0 0 -2.369 1.053 1.223 1.223 0 0 1 -.521.425q-1.478 0-1.521-.2a7.291 7.291 0 0 1 1.3-2.084l3.147-4.056 4.094-5.076 2.666-3.364a12.274 12.274 0 0 1 -2.716.268 13.587 13.587 0 0 1 -4.041-.671q-1.392 2.082-2.738 3.852-.37.493-.913 1.187-.961 1.213-1.49 1.863t-1.151 1.344q-.619.694-1.314 1.433h-.5z" transform="translate(-36.703 -4.43)"/><path d="m183.865 25.775v2.575q-5.083 5.51-7.6 5.51a2.76 2.76 0 0 1 -2.346-1.5 6.66 6.66 0 0 1 -.956-3.651 23.475 23.475 0 0 1 .9-6.293q.9-3.247 2.227-6.921l5.518-1.187h.261l-2.172 7.01q-.739 2.465-1.042 3.852a11.316 11.316 0 0 0 -.3 2.352 2.067 2.067 0 0 0 .315 1.209.937.937 0 0 0 .792.448 2.707 2.707 0 0 0 1.771-.706 32.742 32.742 0 0 0 2.632-2.698zm-5.519-20.455 1.564.878a3.3 3.3 0 0 0 1.2.225 3.9 3.9 0 0 0 2.325-.873 6.916 6.916 0 0 1 -.967 4.009 3.294 3.294 0 0 1 -2.878 1.366 4.667 4.667 0 0 1 -3.193-1.165 18.071 18.071 0 0 0 1.949-4.44z" transform="translate(-44.082 -1.356)"/><path d="m190.435 15.32 2.031-6.991 5.83-1.235-2.216 7.8 3.019-.18-.717 3.449-3.368.268-.761 2.509q-.652 2.2-1.042 3.864a12.687 12.687 0 0 0 -.39 2.811 2.854 2.854 0 0 0 .521 1.724 1.606 1.606 0 0 0 1.3.65 3.749 3.749 0 0 0 2.335-.829 29.256 29.256 0 0 0 3.053-2.934v2.574a29.009 29.009 0 0 1 -4.823 4.188 7.008 7.008 0 0 1 -3.714 1.276 3.559 3.559 0 0 1 -3.03-1.635 7.182 7.182 0 0 1 -1.163-4.255 15.694 15.694 0 0 1 .3-3.057q.3-1.535.87-3.438l.869-3.046-1.673.09.7-3.516z" transform="translate(-47.738 -1.808)"/><path d="m223.794 28.826v2.574a8.057 8.057 0 0 1 -1.9 1.366 4.225 4.225 0 0 1 -1.9.47 4.5 4.5 0 0 1 -.771-.056 4.2 4.2 0 0 1 -.771-.235 7.915 7.915 0 0 1 -1.564-.963 12.39 12.39 0 0 1 -3.346 3.65 7.38 7.38 0 0 1 -1.847.918 6.314 6.314 0 0 1 -1.977.314 5.145 5.145 0 0 1 -2.934-.875 5.594 5.594 0 0 1 -2.009-2.511 9.368 9.368 0 0 1 -.706-3.744 12.949 12.949 0 0 1 .391-3.229 12.171 12.171 0 0 1 1.217-2.982 12.544 12.544 0 0 1 4.354-4.523 11.1 11.1 0 0 1 5.963-1.7 6.512 6.512 0 0 1 2.684.415 1.958 1.958 0 0 1 1.065.964 4.115 4.115 0 0 1 .206 1.425 31.4 31.4 0 0 1 -2.216 10.3 4.761 4.761 0 0 0 1.119.774 2.717 2.717 0 0 0 1.206.28 2.976 2.976 0 0 0 1.683-.661 12.5 12.5 0 0 0 2.053-1.971zm-8.147 1.922a9.15 9.15 0 0 1 -2.042-5.7 7.338 7.338 0 0 1 .706-3.32 10.107 10.107 0 0 1 2.313-2.871 2.547 2.547 0 0 0 -.934-.135 4.287 4.287 0 0 0 -3.454 1.626 10.1 10.1 0 0 0 -1.955 3.971 18.23 18.23 0 0 0 -.608 4.587 7.143 7.143 0 0 0 .717 3.544 2.154 2.154 0 0 0 1.912 1.233q1.498.003 3.345-2.935z" transform="translate(-52.01 -4.407)"/><path d="m96.795 4.641c.042 2.206-1.733 3.381-3.077 4.731a11.582 11.582 0 0 1 -6.469 2.9c1.388-.957 4.1-5.3 4.706-7.6a10.73 10.73 0 0 0 4.84-.031z" transform="translate(-22.237 2.634)"/></g></svg>