<svg height="192.888" viewBox="0 0 762.979 192.888" width="762.979" xmlns="http://www.w3.org/2000/svg"><g fill="#fff"><path d="m72.948 68.522v11.441a141.664 141.664 0 0 1 -12.109 11.037 82.888 82.888 0 0 1 -11.047 7.661 43.306 43.306 0 0 1 -20.939 5.57q-12.45 0-20.648-8.366t-8.205-21.409a56.212 56.212 0 0 1 4.054-20.615 67.368 67.368 0 0 1 10.855-18.573 54.847 54.847 0 0 1 15.535-13.1 34.815 34.815 0 0 1 17.031-4.882q8.687 0 14.039 4.825t5.354 12.889a15.6 15.6 0 0 1 -.142 2.138 5.781 5.781 0 0 1 -1.016 2.34 8.3 8.3 0 0 1 -3.664 2.485l-11.2 5.471a13.729 13.729 0 0 1 -2.988 1q-1.35 0-1.35-1.989l.579-5.272.583-5.373a12.957 12.957 0 0 0 -1.734-6.963 5.417 5.417 0 0 0 -4.825-2.787q-4.637 0-8.975 4.931a37.325 37.325 0 0 0 -7.043 13.1 54.477 54.477 0 0 0 -2.7 17.236q0 11.656 5.5 18.831a17.554 17.554 0 0 0 14.667 7.172 24.936 24.936 0 0 0 9.31-1.79 37.611 37.611 0 0 0 9.5-5.868 118.532 118.532 0 0 0 11.578-11.14z" transform="translate(0 39.934)"/><path d="m125.9 68.522v11.441q-14.57 14.128-21.373 19.2t-13.46 5.073q-14.376 0-14.376-27.753-9.942 14.722-18.138 21.235t-16.5 6.516a16.216 16.216 0 0 1 -10.23-3.726 24.645 24.645 0 0 1 -7.423-10.385 37.368 37.368 0 0 1 -2.7-14.208 52.5 52.5 0 0 1 5.113-23.054 68.434 68.434 0 0 1 12.884-18.53 65.579 65.579 0 0 1 16.6-12.47q8.826-4.572 15.78-4.57 11.959 0 16.885 11.239l19.685-11.239h5.4l-8.489 29.19-4.441 16.935q-.963 4.185-1.542 7.721a36.381 36.381 0 0 0 -.579 5.527 10.556 10.556 0 0 0 1.638 6.328 5.033 5.033 0 0 0 4.246 2.241q3.088 0 7.139-3.283t13.881-13.428zm-52.782-43.073q-6.468 0-12.738 8.1a67.324 67.324 0 0 0 -10.23 19.71q-3.956 11.616-3.95 20.158a14.39 14.39 0 0 0 2.5 8.641 8.141 8.141 0 0 0 6.563 3.376q6.657 0 12.785-8.092a68.639 68.639 0 0 0 10.038-19.814q3.907-11.721 3.909-20.261 0-5.461-2.317-8.638a7.622 7.622 0 0 0 -6.56-3.18z" transform="translate(50.105 39.934)"/><path d="m52.514 110.938 18.286-19.602 5.345-25.857q.963-4.383 1.979-8.022t2.9-9.617q1.876-5.978 3.516-10.764t3.187-8.576q3.281-8.37 5.6-13.3a70.257 70.257 0 0 1 3.329-6.526q1.013-1.594 13.271-5.183 6.078-1.691 9.307-2.541a37.154 37.154 0 0 1 4.2-.95q3.669 0 5.987 4.981t2.313 12.953a51.74 51.74 0 0 1 -8.393 29.094q-8.395 12.753-25.764 29.693l-8.1 41.481q4.632 10.445 14.185 10.445 6.851 0 13.993-4.875t15.343-15.32v11.441a96.912 96.912 0 0 1 -19.498 17.607q-10.038 6.662-17.947 6.665-3.475 0-10.034-2.886l-1.935 10.961-1.45 9.267-1.734 11.557-2.022 15.541q-8.107 1.191-24.126 4.283 3.187-27.482 10.71-70.8l-3.762-9.555-6.463 7.36h-2.226v-8.955zm48.051-47.746a83.444 83.444 0 0 0 17.464-21.535q6.662-11.889 6.662-21.836a13.782 13.782 0 0 0 -1.546-6.765q-1.549-2.785-3.667-2.783-2.894 0-5.788 5.173-1.062 2.09-2.413 5.57t-2.7 7.658q-2.413 8.261-4.342 17.11-1.45 7.456-1.734 8.754-.68 3.286-1.936 8.654z" transform="translate(121.274)"/><path d="m149.38 68.31v11.441q-5.019 4.974-8.876 8.406t-7.625 6.318a49.85 49.85 0 0 1 -13.268 7.211 41.5 41.5 0 0 1 -13.751 2.34q-13.125 0-21.177-8.7t-8.059-22.73a57.615 57.615 0 0 1 3.809-20.396 61.3 61.3 0 0 1 10.18-17.805 52.016 52.016 0 0 1 14.764-12.334 34.4 34.4 0 0 1 16.888-4.676q8.876 0 14.327 4.726a15.812 15.812 0 0 1 5.451 12.583q0 8.558-6.659 15.22a51.471 51.471 0 0 1 -15.535 10.643q-8.39 3.683-20.261 7.562 1.926 9.452 7.188 14.423a18.16 18.16 0 0 0 12.977 4.974 21.2 21.2 0 0 0 9.6-2.188 36.549 36.549 0 0 0 8.155-5.573q1.638-1.39 4.729-4.326t7.143-7.119zm-50.559-6.964q12.063-3.584 18.379-10.246a22.7 22.7 0 0 0 6.321-16.213q0-4.572-1.833-7.062a5.815 5.815 0 0 0 -4.921-2.485q-3.763 0-7.913 4.18t-7.094 12.38a57.653 57.653 0 0 0 -2.939 19.446z" transform="translate(176.963 40.146)"/><path d="m217.4 68.522v11.441q-14.57 14.128-21.373 19.2t-13.46 5.073q-14.376 0-14.376-27.753-9.943 14.724-18.139 21.237t-16.5 6.516a16.216 16.216 0 0 1 -10.23-3.726 24.646 24.646 0 0 1 -7.427-10.385 37.367 37.367 0 0 1 -2.7-14.208 52.5 52.5 0 0 1 5.105-23.056 68.434 68.434 0 0 1 12.884-18.53 65.58 65.58 0 0 1 16.6-12.47q8.826-4.572 15.78-4.57 11.959 0 16.885 11.239l19.685-11.239h5.4l-8.489 29.19-4.441 16.935q-.963 4.185-1.542 7.721a36.376 36.376 0 0 0 -.579 5.527 10.556 10.556 0 0 0 1.638 6.328 5.033 5.033 0 0 0 4.246 2.241q3.088 0 7.139-3.283t13.894-13.428zm-52.78-43.073q-6.468 0-12.738 8.1a67.325 67.325 0 0 0 -10.23 19.715q-3.956 11.616-3.955 20.158a14.39 14.39 0 0 0 2.509 8.641 8.141 8.141 0 0 0 6.563 3.376q6.657 0 12.785-8.092a68.64 68.64 0 0 0 10.034-19.814q3.907-11.721 3.909-20.261 0-5.461-2.317-8.638a7.63 7.63 0 0 0 -6.565-3.185z" transform="translate(261.41 39.934)"/><path d="m144.006 79.755v-8.955a254.954 254.954 0 0 0 19.784-23.673l7.334-10.246 6.367-9.849 3.667-6.367q1.345-3.281 2.6-3.283l2.9.4a82.113 82.113 0 0 0 9.452 1.691 80.408 80.408 0 0 0 9.747.6 121.278 121.278 0 0 0 20.943-2.093 28.523 28.523 0 0 1 4.534-.6c1.158 0 1.767.331 1.834.993q0 1.594-3.952 7.761l-7.519 10.048-13.6 17.123-13.9 17.2-7.724 9.647 6.371-.4q2.7 0 13.168 2.237t12.11 2.241a16.983 16.983 0 0 0 7.092-1.344 23.5 23.5 0 0 0 6.417-4.772q3.47-3.43 9.263-9.8v11.448l-9.65 10.445a88.037 88.037 0 0 1 -8.155 7.711 35.856 35.856 0 0 1 -7.479 4.726 23.856 23.856 0 0 1 -3.664 1.195 17.351 17.351 0 0 1 -3.859.4q-3.381 0-12.93-3.084-10.326-3.48-15.343-3.482a13.643 13.643 0 0 0 -10.521 4.676 5.432 5.432 0 0 1 -2.313 1.89q-6.563 0-6.755-.9 0-1.494 5.785-9.257l13.979-18.014 18.186-22.544 11.841-14.942a54.513 54.513 0 0 1 -12.063 1.191 60.345 60.345 0 0 1 -17.953-2.982q-6.18 9.249-12.159 17.109-1.643 2.189-4.054 5.272-4.249 5.371-6.612 8.257t-5.113 5.97q-2.75 3.083-5.838 6.364h-2.217z" transform="translate(332.582 40.141)"/><path d="m221.4 96.169v11.441q-22.577 24.474-33.773 24.474-6.176 0-10.418-6.665t-4.25-16.219a104.262 104.262 0 0 1 4-27.952q4.006-14.421 9.892-30.739l24.507-5.272h1.158l-9.647 31.136q-3.281 10.946-4.63 17.11a50.261 50.261 0 0 0 -1.35 10.445 9.178 9.178 0 0 0 1.4 5.371 4.163 4.163 0 0 0 3.518 1.989 12.024 12.024 0 0 0 7.867-3.134 145.425 145.425 0 0 0 11.726-11.985zm-24.513-90.849 6.947 3.9a14.67 14.67 0 0 0 5.308 1q5.113 0 10.326-3.879 0 11.74-4.3 17.805t-12.785 6.066a20.73 20.73 0 0 1 -14.181-5.173 80.263 80.263 0 0 0 8.685-19.719z" transform="translate(399.449 12.287)"/><path d="m201.216 43.631 9.022-31.05 25.893-5.487-9.842 34.644 13.41-.8-3.184 15.32-14.959 1.191-3.379 11.143q-2.894 9.75-4.63 17.16a56.353 56.353 0 0 0 -1.734 12.483 12.675 12.675 0 0 0 2.313 7.658 7.135 7.135 0 0 0 5.792 2.886 16.651 16.651 0 0 0 10.372-3.68q4.78-3.679 13.559-13.033v11.444q-12.545 12.932-21.422 18.6t-16.5 5.669q-8.305 0-13.46-7.261t-5.166-18.9a69.706 69.706 0 0 1 1.35-13.579q1.35-6.816 3.862-15.27l3.859-13.529-7.43.4 3.094-15.614z" transform="translate(432.576 16.384)"/><path d="m291.686 68.52v11.441a35.788 35.788 0 0 1 -8.446 6.066 18.764 18.764 0 0 1 -8.443 2.088 20 20 0 0 1 -3.425-.248 18.67 18.67 0 0 1 -3.425-1.042 35.152 35.152 0 0 1 -6.947-4.276q-6.662 10.544-14.86 16.213a32.78 32.78 0 0 1 -8.2 4.077 28.046 28.046 0 0 1 -8.78 1.393 22.853 22.853 0 0 1 -13.029-3.885 24.846 24.846 0 0 1 -8.931-11.153 41.609 41.609 0 0 1 -3.137-16.63 57.516 57.516 0 0 1 1.737-14.34 54.06 54.06 0 0 1 5.4-13.245 55.716 55.716 0 0 1 19.347-20.118 49.317 49.317 0 0 1 26.486-7.569q8.107 0 11.921 1.843t4.729 4.282a18.277 18.277 0 0 1 .913 6.328q0 18.532-9.842 45.731a21.144 21.144 0 0 0 4.971 3.439 12.068 12.068 0 0 0 5.355 1.244q3.376 0 7.476-2.936a55.534 55.534 0 0 0 9.13-8.703zm-36.186 8.535q-9.07-11.755-9.071-25.3a32.59 32.59 0 0 1 3.137-14.744 44.888 44.888 0 0 1 10.273-12.752 11.313 11.313 0 0 0 -4.15-.6 19.04 19.04 0 0 0 -15.343 7.221 44.868 44.868 0 0 0 -8.684 17.636 80.965 80.965 0 0 0 -2.7 20.373q0 10.261 3.184 15.74t8.492 5.477q6.662-.006 14.862-13.051z" transform="translate(471.293 39.936)"/><path d="m129.649 4.641c.185 9.8-7.7 15.015-13.668 21.012-11.355 11.408-28.733 12.894-28.733 12.894 6.166-4.249 18.229-23.554 20.9-33.75 5.952 1.489 12.93 1.621 21.501-.156z" transform="translate(201.499 27.672)"/></g></svg>