<svg height="81.669" viewBox="0 0 435.35 81.669" width="435.35" xmlns="http://www.w3.org/2000/svg"><path d="m63.75-26.85c0-2.35-2.1-3.6-3.2-5.15-1.45-.7-3.7-1.4-4.3-1.65-1.1-.45-2.8-.25-4.1-.75h-2.6a2.943 2.943 0 0 0 -1 .25c-.4 0-.8-.25-1.2-.25-.4.05-1.2.2-1.65.25-3.3.35-18.25 1.3-18.25 6.05 0 1.1.8 1.65.95 2.6a43.866 43.866 0 0 0 -5.75 2.15c-.1.05 0 .2-.25.25a13.727 13.727 0 0 0 -3.35 1.2c-.55.5-1.15 1.2-1.95 1.2-.75.1-.8.75-1.6.95a12.282 12.282 0 0 0 -1.75 1.2c-2.9 1.7-5 4.45-7.45 6a2.648 2.648 0 0 1 -1.2 1.45c-.7 1.1-1.35 2.3-2.15 3.35-.3 2.2-1 3.95-1 6.45a11.147 11.147 0 0 0 2.95 7c.45.45 1.45.45 1.9.95.05 1.3 5.75 2.7 9.1 2.7.9 0 1.8-.05 2.75-.05h1.1c2.25-.9 5.4-.85 6.75-2.65h-.35c-1.35-.05-2.15.55-3.25.7a26.553 26.553 0 0 1 -3.45.15c-5.45 0-10.6-1.1-13.6-4.2-1.05-1.05-1.5-3.85-1.5-5 0-3.3.8-6 2.45-7.25v-.25c0-1.4 1.35-1.4 1.45-2.65.1 0 .25.05.35.05 1.3 0 1-1.95 2.65-1.95a23.74 23.74 0 0 1 5.85-4.3c0-.55 2-1.45 2.2-1.45a.544.544 0 0 0 .25.05c.4 0 0-.8.4-.8.15 0 .3.05.45.05.85-.05 1-.6 1.75-.75a4.592 4.592 0 0 0 1.95-1.2 2.509 2.509 0 0 0 .7.15c1.15 0 1-.9 1.45-.9.1 0 .15.05.25.05 2.15-.15 3.55-1.15 6-1.45 2.75-.3 5.75 0 7.65-.95.95-.15 1.85-.25 1.95-1.2a3.09 3.09 0 0 0 -2.8-1.2c-1.55 0-3.4.45-5 .45-1.55 0-3.35-.15-4-.95.9-2.15 7.1-2.4 10.6-2.9 1-.15 2.05-.55 3.1-.7a37.8 37.8 0 0 1 4.75-.25 40.041 40.041 0 0 1 7 .75c1.1 1.25 2.65 1.35 3.35 1.9a4.212 4.212 0 0 1 1.2 2.15c-.05.4-.3.5-.7.5h-.25c0 1-.4 1.9 1.25 1.9a3.849 3.849 0 0 0 3.1-1.45 2.434 2.434 0 0 0 .05-.6zm-30.3 22.8c.05-.45.8-.15.95-.5.45-.1.45-.65 1.2-.45a2.9 2.9 0 0 0 0 2.05 6.138 6.138 0 0 1 2.4 1.7c1.05.05 1.95.65 2.9.7 3 .3 5.95-1.1 8.65-1.4a12.7 12.7 0 0 1 3.35-1.15c.75-.2.9-.35 1.45-.5a16.176 16.176 0 0 0 1.65-.65 2.212 2.212 0 0 0 .75-.25 18.693 18.693 0 0 1 1.8-1.25 2.891 2.891 0 0 1 .7-.25c.15 0 .6-.4.75-.45.5-.2 1.25-1.05 1.8-1.25.35.3.15-1 .15-2.05a78.994 78.994 0 0 1 -7.15 3.5c-2.1.55-4.35 1.15-6.45 1.65-1-.35-1.85.7-2.4 0 .2-1.05 1-1.55 1.65-2.15a29.782 29.782 0 0 1 2.95-5.5c.1-.05-.05-.35 0-.45a30.519 30.519 0 0 0 1.7-2.7c.3-.6.95-1.3.7-2.15a9.964 9.964 0 0 1 -.95-1.2 8.426 8.426 0 0 0 -3.35 1.65c-1.15.7-2.2 1.55-3.4 2.25-2.25 1.15-5.1 3.7-7.2 5.05-1.7.9-4.05 3.35-6.05 3.9a11.983 11.983 0 0 1 .1 2.35c0 .2.75-.15 1.35-.5zm7.9.15c-2.1.25-2.85-1.05-4.05-2.05a68.121 68.121 0 0 0 6.35-4.8c1.8-.4 2.05-2.25 3.8-2.7.05-.3.4-.35.45-.7.4-.1.45.2.5.5-.45.05-.55.4-.5.95-.6.25-.8 1.95-1.45 2.2-.15 1.2-2.4 4.05-3.15 4.7a3.323 3.323 0 0 1 -1.95 1.9zm51.7-10.95c-1.5.75-11.55 5.6-12.65 5.6a.54.54 0 0 1 -.35-.15 26.03 26.03 0 0 0 .7-5.25v-.5l-.25-.45c0-.6.25-1.15.25-1.75v-.2a.981.981 0 0 1 -.25-.95c-1-1.1-1.75-2.2-3.35-2.2-1.75 0-10.6 5.15-11.05 6.5-1.05.1-6.8 5.45-7.65 6.5a59.289 59.289 0 0 1 -4.35 4.3c-.7 1.95-8 10.25-7.4 11.8a9.807 9.807 0 0 0 -2.2 4.3c-.65.1-.55 1.05-1.2 1.2l.05.45c0 .55-.5.9-.5 1.45-.6.3-.15 1.35-.7 1.7a21.616 21.616 0 0 1 -1.25 3.85c.05 1.15-.3 3.4.5 4.3h.2c2.8 0 8.05-8.8 9.4-11.05.6-1.05 1.5-1.85 2.15-2.85a.711.711 0 0 1 .5-.75c1.2-1.65 4.65-7.65 6-8.4-.05-.7.65-.9.45-1.65 1.1-.35 4.8-6.15 6-7.45a18.118 18.118 0 0 0 2.65 4.3 9.36 9.36 0 0 0 2.65.25h1.7c.15-.55 1.4-.15 1.5-.75a6.658 6.658 0 0 1 1.4-.5 47.171 47.171 0 0 1 4.45-2.55 4.022 4.022 0 0 1 2.15-1.2c.1-.3 8.4-4.2 9.1-4.5.05 0 3.1-3.3 3-3.3zm-17.1-3.4a5.286 5.286 0 0 1 1.95.45 7.075 7.075 0 0 1 .6 3.05c0 2.3-.75 5.65-2.2 7.5-.4.15-1.3.4-1.25.95-1.5 0-2.95.85-4.25.85-1.75 0-2.1-2-3.25-2.75a3.271 3.271 0 0 1 .85-1.65c.7-1.15 2.15-3.55 2.35-4.8a6.253 6.253 0 0 0 1.85-1.95c1.15.05 1.45-1.1 2.65-.95.1-.25.4-.4.45-.7zm-10.8 6.95c.25-.05.3 0 .3.15 0 1-1.85 3.55-2.45 4.4-.2.85-1.15 1.2-1.2 2.15-2.3 1.7-3.65 5-5.5 7.2v.5h-.5c-.3.45-.2 1-.5 1.45a.96.96 0 0 0 -.7.95c-.95 1.5-2.2 2.8-3.1 4.3-.65-.05-.3.7-.5 1l-.5.2c-.4.65-1.05 1.55-1.4 2.2v.45c-.95.75-1.15 2.2-2.2 2.9a3.157 3.157 0 0 1 -1.4 1.9c-.3.7-.6 1.5-1.45 1.7a.723.723 0 0 0 .1-.35c0-.3-.35-.55-.35-.9 0-.1.15-.15.25-.2.15-.5.7-.45.45-1.2a6.578 6.578 0 0 0 .75-2.9c.55-.65.7-1.65 1.45-2.15v-1.2c.9-.8 1-2.05 1.9-2.85.1-1.4 1.35-1.9 1.7-3.15.3-.4 3.75-5.4 3.8-5.5.95-.3 1.55-2.3 2.4-2.4 0-.8.85-.8 1-1.45.5-.2.3-1.15.95-1.2 1-.6 1.35-1.85 2.4-2.4.6-.95 1.85-1.25 2.15-2.4.7 0 .95-.55 1.45-.95a1.2 1.2 0 0 0 .7-.25zm43.3 3.35a8.531 8.531 0 0 0 -1.9.65 11.982 11.982 0 0 0 -1.9 1.05 19.543 19.543 0 0 1 -8.7 3.35h-.5a7.13 7.13 0 0 1 -2.65-1.15c1.15-.4 1.75-1.3 2.9-1.7.3-.65 1-.85 1.45-1.4s.95-1.6 1.65-1.95c.15-1.75 2-3.9 2-5.85.4-.45.3-1.3.5-1.65.1-.2.2-.1.2-.5a2.189 2.189 0 0 0 -.7-2.15c-1.65-.05-2.35.85-4.1.7a10.887 10.887 0 0 1 -3.6 2.2c-.7 1.15-2.05 1.75-2.6 3.1-.7.25-.95 1-1.2 1.7-.6.25-1.4 2.65-1.55 3.15 0 .15-.2.25-.2.25a7.7 7.7 0 0 0 .2 3.4c-.1.9.3 2.25 1.45 2.4a12.981 12.981 0 0 0 7.95 1.85c3.75-.25 10.4-4.2 11.15-5.4a10.148 10.148 0 0 0 .15-2.05zm-9.8-8.4c.2 0 .2.3.25.45a4.5 4.5 0 0 1 -1 2.4c-.9 1.45-2.85 4.9-4.35 6.1a10.379 10.379 0 0 1 -1.45.95 4.39 4.39 0 0 1 -1.95.5c.05-2.55 2.3-5.4 3.2-7.05 1.35-.6 2.15-2.1 3.6-2.9.4-.2 1.05 0 1.7-.45zm36.7 6.8c-1.5.55-2.55 1.95-3.9 2.65a31.524 31.524 0 0 0 -4.35 2.05c-1.7.4-2.85 1.7-4.55 2.1-.65.35-1.65.4-2.4.7-1.9.9-4.8.8-7.45.95-1.3-.5-2.6-1.05-3.1-2.4-.7-2.4.5-2.65 1-4.6.35-.35.6-.8 1.2-.95.2-1.35 1.65-1.4 1.9-2.6.45-.4 1-.65 1-1.45.8.4.75-.55.95-.75.3-.25.8-.35.95-.7.6.2.9-.3 1.2-.5.2-.05.55.1.7 0 .15-.05 0-.7.5-.45s.5.25.25-.25a3.245 3.245 0 0 1 3.6.25 4.512 4.512 0 0 1 .45 1.4c.1 1.35-.8 1.85-.95 2.65a9.609 9.609 0 0 0 0 1.2c1.5 1.25 2.7-.1 3.35-.7.15-.35-.25-1.25.25-1.2-.6-2.15-1.05-4.4-2.15-6-5.45-.95-8.85 2.15-11.55 4.8-1.5 1.25-2.45 3.1-3.8 4.55-.2 1-1.05 2.4-1.15 3.4-.15 1.7.2 1.5.15 3.1.65.25.8 1 .95 1.7a6.435 6.435 0 0 1 2.4 1.45 35.054 35.054 0 0 0 5.75.25 11.394 11.394 0 0 1 4.35-.65c.05-.5 1.05-.05 1.2-.45 0-.55 1-.1 1.4-.25.7-.7 1.95-.8 2.75-1.35.75.05.7-.75 1.7-.45.15-.7.95-.75 1.45-.9.05 0 .35-.5.45-.55.75-.35 1.6-.8 2.3-1.2 1.2-.25 3.85-2.05 4.2-3.2.65-2.15-.15-2.15-1-1.65zm11.45 4.35c.4-.45 1.2-.7 1.55-1.2 2.25-1.15 3.15-2.65 2.6-4.2-1.25.1-2.25 1-3.3 1.3-.85.5-.85 1.2-1.85 1.6-1.3.75-2.5 1.3-3.8 2a11.757 11.757 0 0 1 -4.55 1.65c-.65.55-2.15 1.4-3.15.75.2-1.5 1.55-1.85 2.15-2.9 1.1-.7 2.25-3.15 3.5-3.65.95-.7 1.2-2.2 2.45-2.65.4-1.35 1.9-1.6 2.15-3.1-.55-.35-.2-1.55-1.2-1.45-.9-.25-.75.5-1.2.7a11.562 11.562 0 0 1 -1.2 1c-.2.5-.9.5-.95 1.2-.5.2-1.05.4-1.2.95-1.65 1.2-3.4 4.25-4.95 5.55a13.234 13.234 0 0 0 -2.5 3.6 3.778 3.778 0 0 0 -.15 2.2c-.05.8.8.75.95 1.4 1.05-.25 2.35 0 3.6-.2.1-.05.6-.45.7-.5.5-.15.95.3 1.2-.25 1.3-.55 2.9-.8 4.1-1.45.05-.3 1.6-1.05 1.7-.7.55-1.05 2.7-.9 3.35-1.65zm4.3-22.85c.8.4 2.5.85 3.15 0a9.578 9.578 0 0 0 -.75-3.6c-2.45-.45-2.45 1.55-2.4 3.6zm26.85 17.9c-1.15.65-2 1.35-3 1.9a6.8 6.8 0 0 0 -2 1.45c-1.45.65-2.85 1.25-4.3 1.9-.75.35-1.65.6-2.4.95-.75.4-1.35.2-2.15.45a6.762 6.762 0 0 0 -1.45.2c-.15-.45-1.45.15-1.2-.7-.35-.95.6-1.1.95-1.45a4.246 4.246 0 0 1 1.45-1.2 5.067 5.067 0 0 1 1.65-1.9c.05-1.35 1.35-1.4 1.2-2.9-.35-.4-.35-1.2-.95-1.45-2.8-.25-2.85 2.25-4.8 2.9 0 1-.7 1.35-1.2 1.9-.1 1.1-.75 1.65-.95 2.65-.75-.1-.65.65-1.2.7a1.873 1.873 0 0 1 -1.45.25c.05.75-1 .75-1.45 1-.25.15-.4.3-.7.45-.3.2-.7.05-.7.5-1.35.05-2.65 1.3-4.1.45.15-1.8 1.05-2.75 1.45-4.3.7-.1.75-.85 1.2-1.2s.6-1 1.2-1.2a27.621 27.621 0 0 0 2.15-2.65c1.6-.55 2.5-1.85 3.85-2.65.8-.15 1.2-.8 1.9-1.2a14.1 14.1 0 0 0 2.4-.95c1.55.25 2.4-.85 3.6-.25-.05 1.1-1.6 1.65-.7 2.9.35-.05.9.1.95-.25 0-.35.6-.2.5-.7.7-.2 1-.75 1.4-1.2.6-2-.15-3.75-1.9-4.1-2.15.3-3.55 1.4-5.75 1.7-.5.85-1.7 1-2.65 1.45-.8.45-1.15 1.35-2.4 1.4a6.225 6.225 0 0 1 -2.15 1.95c-1.3 1.4-2.9 2.55-4.1 4.05-.7.75-1.15 1.75-1.9 2.4a5.9 5.9 0 0 1 -1.2 2.65 4.583 4.583 0 0 0 1.2 4.8 1.3 1.3 0 0 1 1.2.25 9.8 9.8 0 0 0 3.1-.7c.75-.5 2.05-.75 2.4-1a11.9 11.9 0 0 1 2.4-1.2c.55-.1.75-.8 1.45-.7.65-.1.25.9.7.95.05.6.95.35 1 .95.4.15 1.4-.25 1.4.25 1.65-.3 2.85-.2 4.6-.4.7-1 2.25-.75 3.1-1.6.6.05.7-.2 1.2-.5.45-.25 1-.25 1.45-.45.85-.45 1.5-1.1 2.35-1.55s.65-.8 1.5-1.2c.8-.4 1.75-1.65 2.6-2.1-.15.05-.75-1.7-.75-1.7zm16.75.1a33.291 33.291 0 0 1 -5.4 4.3c-2.05 1.4-5.65 4.05-9.6 4.05-1 0-2.1-.15-2.1-1.75a11.644 11.644 0 0 1 .5-2.8c1.1-.1 1.35-1.05 2.4-1.2.25-1.2 1.55-1.35 2.15-2.15a11.249 11.249 0 0 1 2.9-1.45c.05-.35.05-.5.5-.5.3-.8 2.3-2.05 3.6-2.65.55-1.4 1.85-2.3 2.85-3.35a30.56 30.56 0 0 0 7.45-11.25c0-.6.45-.75.7-1.2a17.519 17.519 0 0 0 1.5-5.75 7.116 7.116 0 0 0 -.5-2.2.976.976 0 0 1 -.35.05c-.55 0-.75-.3-1.35-.3 0 .75-2.75 1.65-4.1 2.9-4.35 4.05-4.65 5.9-7.4 8.15a6.748 6.748 0 0 1 -2.4 3.35 5.652 5.652 0 0 1 -.75 1.45c-2.15 3.1-4.3 6.4-6.25 9.6-.4.65-.65 1.45-.95 1.95-1.5 2.45-2.9 5.25-2.9 7.65a7.284 7.284 0 0 0 .75 2.9 8.308 8.308 0 0 0 3.85 1.2 16.845 16.845 0 0 1 2.15-.25c.7-.15 2.55-1 3-1 .05 0 .2.05.3.05.6 0 1.5-.95 1.8-.95.2 0 1.9-1.5 2.5-1.9.65 0 1.15-1 1.8-1.3.75-.35 3-3.05 3-2.95a13.638 13.638 0 0 0 .35-2.7zm4.65-25.15c.35 0 .75.15.75.6 0 .5-.45 1-.45 1.75a1.385 1.385 0 0 0 .05.45 9.764 9.764 0 0 0 -1.65 3.45c0 .2.05.5-.25.35a23.765 23.765 0 0 0 -1.7 3.85c-1.9 2.05-3.55 4.3-5.5 6.25-.6.6-2.4 2.9-2.95 2.9-.05 0-.2-.05-.3-.05-1.5.8-5.45 5.2-7.25 5.2a9.345 9.345 0 0 0 1.8-2.9 8.1 8.1 0 0 0 .6-1.3c.35 0 1.1-1.4 1.1-1.6 0-.25.5-.15.5-.4 0-.5.9-.45 1.2-2.55.1-.3.55-.1.75-.25.35-.35.95-2.45 2.6-3.35a3.776 3.776 0 0 1 2.2-2.9c0-.9.7-.9.7-1.7 0-.25 1.85-1.9 2.4-2.6.95-1.2 2.5-2.5 3.6-3.85.5-.5 1.05-1.35 1.8-1.35zm12.6 29.3c-.7.1-1.6-.05-1.85.5a14.655 14.655 0 0 0 -1.45.25c-.45.2-.75.55-1.15.75-.05 0-1.35.65-1.4.7a6.623 6.623 0 0 1 -2.75 1.1c-1.75.25-3.95 1-5.55.25-.05-.05 0-.2-.2-.25a4.812 4.812 0 0 1 -1.45-.95c-.85-1.85-.05-3.4.25-5.3.6-.35.6-1.15.95-1.65.3-.5 1-.8.95-1.45 1.3-.8 1.2-2.25 2.4-3.1.55-1.5 1.85-2.2 2.4-3.6.35-.15 1.25.25 1.2-.25.85-1 2.05.1 2.65 0a6.186 6.186 0 0 0 1.45-.5 1.708 1.708 0 0 0 1.4 0c1.65-.5 1.75.3 3.4-.45a6.93 6.93 0 0 0 2.4.2c1.35-.5 2.3-.1 3.35-.7 1.55.15 2.45-.3 3.85-.25-.05.05 1-.1 2.25-.2.6-.75-.25-1.15-.85-1.45-5.55.45-11.45.7-17 1.2-.5-.15-1.6.25-1.7-.25.8-2.75 2.9-4.15 4.1-6.5-.55-.45.25-2.15-.75-2.15-1.65-.2-1.55 1.3-2.4 1.9-.9 1.3-1.65 2.65-2.65 3.85-.5.7-1.55 1.5-1.9 1.95-.15.2-.1.5-.25.7a1.711 1.711 0 0 1 -.95.7c-2.4.25-4.7.6-7.2.75-.35.5-1.45.3-1.9.7-.45.45-1.8 0-1.7.95.5 1.65 2.55.9 4.1.75 1.1-.15 2.3-.4 2.85-.5.75-.1 1.6-.15 1.95.25-1.4 1.7-2.2 4.05-3.4 6-.7.65-1.05 2.85-1.65 4.1a9.185 9.185 0 0 0 -.5 3.8c.25 1.7 1.55 2.6 2.15 3.6.65.2 1.4.25 1.7.75 1.45.05 3.25-.2 4.3.25a4.179 4.179 0 0 1 1.45-.5c1.05-.25.25.1 1-.1.45-.1 1.35-.4 1.65-.5.6-.15.65-.35.95-.45a4.747 4.747 0 0 1 1.05-.45 13.618 13.618 0 0 0 2.15-1.25c.8-.4 1.35-1.05 2.55-1.6-.45-.55.5-1-.25-1.6zm-3.4 4.6c1.1.65 3.05.5 4.8.5.3-.1.45-.35.95-.25a14.58 14.58 0 0 1 1.9-.7c.5-.2 1.5-.7 1.7-.75.25 0 .1-.15.25-.2.6-.3 1.35-.45 1.9-.75.6-.3 1.05-1.15 1.9-.95-.15.55-.1 1.3-.7 1.45-.4.3 0 1.4-.7 1.45 0 .7-.65.8-.75 1.4-1.05 2.55-2.2 5-3.35 7.45a18.387 18.387 0 0 1 -2.9 1.7c-.3.15-.65.05-.95.25-.2.1-.25.55-.45.7-.3.15-.75.1-1 .25-.15.1-.5.35-.7.45-.5.3-.95.65-1.45 1a45.68 45.68 0 0 1 -4.3 2.85c-.75 1.25-2.2 1.95-2.9 2.9-.55.75-1.1 1.25-1.65 1.9-1.2.75-1.35 2.5-2.9 2.9-.15.7-.5 1.25-.7 1.9a3.632 3.632 0 0 0 -1.7 1.95c-.4.85-1.3 1.25-1.45 2.4-1.2 1.3-1.65 3.4-2.85 4.8-.1 1.35-.75 2.1-1 3.35a12.032 12.032 0 0 0 1 5.5c1.5.8 3.55.1 5.25-.25.85-.55 1.3-1.55 2.65-1.65a4.347 4.347 0 0 1 .7-1.45c1.6-.65 2.35-2.15 3.6-3.1a6.654 6.654 0 0 0 .5-1.7c.8-.1 1.05-.7 1.7-.95-.05-1.5 1.4-1.5 1.4-2.9.8.15.75-.85 1-1.2 0 0 .2-.2.2-.25a3.437 3.437 0 0 0 .75-1.2c1.15-1.85 2.3-3.75 3.35-5.75.7-.75.7-2.2 1.7-2.65.35-1.15 1.05-1.95 1.4-3.1a10.4 10.4 0 0 0 1.45-3.1c.85-.7.95-2.15 1.7-2.9 1.75-.95 3.55-2.05 5.5-2.9 2-.8 4-2 6-2.85.1-.5 1.3 0 1.45-.45a12.966 12.966 0 0 1 3.35-1.2 29.869 29.869 0 0 1 5.05-1.2c1.25-.2 2.35-.55 2.15-2.15-1.2-.95-1.95.3-3.85 0-.95.7-2.3.65-3.35.95-3.55.95-6.65 2.7-9.85 3.95a12.919 12.919 0 0 0 -2.4 1.05c-.6.15-1.5 1.2-2.15.5-.35-1.1.8-.65.75-1.45.2-.5.45-.95.7-1.45.45-1.1.65-2.4 1.7-2.9-.2-.85.4-1 .2-1.9 1.05-.25 1.3-1.3 1.45-2.4 1.7-1.4 2.4-3.85 4.1-5.3 1.3-1.8 3.2-3 3.85-5.5-.6-.2-.3-1.35-1.2-1.2-1.2-.2-1.1.8-1.7 1.2a3.465 3.465 0 0 0 -1.45 1.7 32.99 32.99 0 0 1 -3.6 3.8 6.066 6.066 0 0 1 -.7.5 19.653 19.653 0 0 0 -1.95 1.2c-.2.2-.5.3-.7.5a5.493 5.493 0 0 0 -.7.45 2.716 2.716 0 0 1 -1.45.75 18.693 18.693 0 0 1 -5.3 2.15 1.581 1.581 0 0 1 -1.9.25c-.05-1.3 1.05-1.5 1.45-2.4.6-.7 1.9-2.45 2.5-3.15 1.05-1.6 2.9-2.35 3.6-4.3a14.484 14.484 0 0 0 -.95-1.45 2.611 2.611 0 0 0 -2.15.5c-.1 0-.15.4-.25.45-.2.1-.55.7-.75.8s-.45.6-.95.5a3.068 3.068 0 0 1 -.95 1.45c-.1.05-.4-.1-.5 0-.05.05-.1.35-.2.45a1.978 1.978 0 0 1 -.75.5c.05.55-1.25 2.25-1.55 2.5-.35.3-.9 2.05-1.25 2.3-.35 1.35-1.4 2.75-.65 4.45zm5.75 12.5c.2 0 .2.3.25.5a15.125 15.125 0 0 0 -1.95 3.8c-1 .85-1.15 2.55-2.15 3.4a8.54 8.54 0 0 1 -1.45 2.85c-.5.9-.9 1.8-1.45 2.65-.5.85-1.15 1.6-1.65 2.4-.55.85-.75 1.9-1.7 2.4a15.352 15.352 0 0 1 -2.15 3.35c-.4.5-1.05.95-1.45 1.45-.25.3-.35 1.3-1.2 1.45-.55 1.25-2.15 1.5-2.65 2.85-1.5.25-2.15 1.4-4.05 1.2-1-1.3-.55-3.2-.25-5a27.762 27.762 0 0 1 2.4-5.05 45.094 45.094 0 0 0 2.65-4.55c.5-.15.65-.65.95-1 .3-.3.8-.45.95-.95.6-.6.9-1.5 1.7-1.9a38.464 38.464 0 0 1 5.75-5.3 25.664 25.664 0 0 1 4.3-2.85 12.871 12.871 0 0 1 2.2-1.45c.5.1.6-.2.95-.25zm83-45.95c-.05.2-.2.25-.45.25h-.2c-.3 0-.4.35-.55.45-1.1.6-2.35.35-3.1 1h-.3c-.75 0-1.25.25-2.05.25a2.242 2.242 0 0 1 -.55-.05c-1.7.9-3.6 1-5.5 1.45s-3.8 1.1-5.75 1.45c-2.05.4-4.1.6-6.25.95-.1 0-.2.2-.5.25a44.913 44.913 0 0 0 -6.25.95c-1.35.5-1.2.9-1.9 1.45a2.778 2.778 0 0 0 -.75-.15c-1.4 0-1.3 3.25-1.65 4.45-.6 2-1.55 4.45-2.65 5.55a2.435 2.435 0 0 1 .05.6c0 1.25-.75 1.7-.75 3-.45 0-3.85 5.05-3.85 5.35a.634.634 0 0 0 .05.3c-1.1.75-1.5 2.15-2.65 2.85-.5 2.2-2.4 2.85-2.4 5.45 0 .3 1.25.35 1.75.35 1.25 0 2.55-2.35 3.3-3.6a65.927 65.927 0 0 1 6.9-9.5 26.777 26.777 0 0 1 3.15-3.15 1.1 1.1 0 0 0 .4.05c.6 0 .9-.3 1.5-.3h.25c0-.15.05-.2.15-.2s.25.05.35.05c.4 0 .15-.6.5-.6a.378.378 0 0 1 .2.05c1-.05 2.05-.05 2.4-.7a5.041 5.041 0 0 0 2.4-.75 1.1 1.1 0 0 0 .4.05 7.332 7.332 0 0 0 2.7-.75c1.15-.25 2.45-.25 3.6-.5.05 0 .1-.2.25-.2 2.25-.6 4.35-.5 6-1.45.85-.9 3-.55 3.1-2.2a1.039 1.039 0 0 0 -.6-.25c-.45 0-1 .3-1.55.3-.1 0-.15-.05-.25-.05a23.913 23.913 0 0 0 -5 1 90.631 90.631 0 0 0 -10.35 1.9 9.115 9.115 0 0 1 -1.85.45.752.752 0 0 1 -.55-.2c.1-.4.55-.45.55-.9 0-.1-.05-.2-.05-.3h.15c.6 0 .5-.6.8-.95.55 0 .75-.6.75-1.2a1.939 1.939 0 0 0 -.5-1.45c-2 .1-2.2 1.95-3.6 2.65-.75 1.35-2.1 2.05-2.9 3.35a2.167 2.167 0 0 1 -.25-.05c-.35 0-.45.3-.8.3h-.15c-.35.15-.5 1.35-.8 1.35q-.075 0-.15-.15c.9-2.6 1.75-5.4 2.9-7.95a9.87 9.87 0 0 0 3.35-1.2c2.65-.4 5.3-.8 7.9-1.2 2.7-.45 5.25-1.15 7.95-1.4.2-.55 1.05-.4 1.4-.75 3.2-.2 5.1-1.6 8.4-1.65.75-.65 2.2-.55 2.9-1.2 1.15-.2 2.35-.55 2.65-1.45-.05-1.05-.8-1.3-1.7-1.45zm-9.65 23.35c-.85.8-1.05 1.95-1.65 3-.15.3-.05.65-.25.95-.1.2-.6.3-.7.5a17.462 17.462 0 0 0 -.75 1.7c0 1.65-.15 3.5.5 4.55a13.064 13.064 0 0 0 5.3.25 26.648 26.648 0 0 0 5.75-3.6c.6-.65.4-1.1 1-1.2-.15-.45 1.1-1.15 1.4-1.45 1-1.45 2.3-2.35 2.9-4.3 0-.05.1-.15.9-.45.75-.3.25-.05 1.05-.35.4-.15.6-.2.7-.25a5.488 5.488 0 0 0 1.2-2.1 3.608 3.608 0 0 0 -2.05.1c-.7.25-.05.05-.75.2-.4.1-.65 0-.7-.1a10.249 10.249 0 0 0 -.6-2.6c.05-1.4-1.65-2.05-2.45-2.65-1.6 0-2.45.75-3.8.95a20.437 20.437 0 0 1 -1.95 2.2c-1.3.4-1.9 1.45-3.35 1.65a12.437 12.437 0 0 0 -1.2.95 11.191 11.191 0 0 1 -.5 2.05zm9.4-4.65a9.3 9.3 0 0 1 1.7.2c.45.6.15 1.95.25 2.9a9.593 9.593 0 0 1 -4.35.7c.1-.45-.2-.85-.25-.45-.65-.5.55-1.2.7-1.7a2.256 2.256 0 0 0 1.7-.95c-.1-.4.2-.4.25-.7zm-6 4.8c.8.2 1.25.8 1.9 1.2.65 0 1.35-.1 1.7.2a8.414 8.414 0 0 0 3.4-.65c0 .8-.4.8-.75 1.4a7.637 7.637 0 0 0 -1.65 1.45 14.893 14.893 0 0 0 -1.45 1.65c-.95.15-1.4 1-2.15 1.45-.3.15-.3.05-.5.25a9.749 9.749 0 0 1 -2.4 1.2h-2.45c-.2-1.25.5-1.6.5-2.65.95-1.05 1.65-2.6 2.65-3.85.25-.35.35-.9.95-.95-.1-.4.2-.4.25-.7zm33.75 3.95c-1.9 1.4-4.45 3.65-7.25 3.95a7.241 7.241 0 0 1 -4.05-.5c-.25-1.2.7-1.2.95-1.9.75-1.2 1.6-1.75 2.15-3.15.15-.2.5-.4.7-.7.15-.25.05-.95.5-.95 0-1-.95-1.5-.75-2.65-.4-.65-.55-1.55-.95-2.15-.2-1.3-.05-2.85-1.2-3.15-1.1-.35-.9.6-1.15.9-.4.35-2 1.35-2.05 1.9-.9.45-3.35 3.8-4 4.55-.65.5-2 2.25-2.75 2.9-.05-.05 1.75 1.25 1.75 1.25 1.4-.4 5.55-6.35 7-6.7a8.111 8.111 0 0 1 .75 3.15c-1.5 1.45-2.25 3.2-3.6 4.8a8.287 8.287 0 0 0 -.5 2.6c.45.55.8 1.45 1.45 1.45.25.05.15.2.25.25a2.725 2.725 0 0 0 1.2.25 21.3 21.3 0 0 0 4.55.25c3.35-.75 5.8-2.9 8.4-4.55a19.736 19.736 0 0 0 1.8-1.75s-.65-1.95-.65-1.9-1.8 1.2-2.55 1.85zm56.35-3.95c-.05.05-1.25.4-1.3.45-1.8 1.3-3.75 2-5.3 3.35-1.05.65-1.65 1.7-3.1 1.9.6-.6.4-1.4.7-2.15.05-.1.4-.25.5-.45a10.731 10.731 0 0 0 1.2-2.9c1.15-.2.8-1.9 1.9-2.15.15-.55.2-1.2.85-1.2.15 0 .5-1.45.9-1.45.7 0 .45-.9 1.15-.7a11.818 11.818 0 0 1 3.6-2.65c.5-.45.1-.95.9-.95.2 0 .75-.95 1-1.2.7-.7 1.5-1.25 2.15-1.95 1.95-1.15 2.3-2.95 3.85-3.8 1.3-3.1 3.95-5.75 3.95-9.75 0-.55-.15-2.3-1.45-2.3-1.55 0-2.15 1-3.45 1.25-1.6 1.45-3.1 3-4.55 4.55 0 .7-.65.8-.75 1.45v.1c0 .2-1.7 2.65-2.4 3.7a14.923 14.923 0 0 0 -1.9 3.4 5.822 5.822 0 0 0 -1.7 2.85c-.4 0-.45.3-.45.6 0 .7-1.2.75-1.2 2.2 0 .25-.75.95-1 1.3-.4.4-.25 1.3-.7 1.65-.75.45-1.6.95-2.15 1.2.25-.1-1.55 2-2.7 2-.1 0-.15-.05-.2-.05-.55.8-1.65 1.1-2.15 1.45-.25.15-.5.55-.7.7-.5.3-1 .3-1.2.5a20.6 20.6 0 0 1 -3.6 2.15c-1.1.55-3.7 2.2-4.65 2.2h-.35a32.27 32.27 0 0 0 -3.65 1.4h-.25c-.65 0-1.05.3-1.75.3a1.1 1.1 0 0 1 -.4-.05 8.472 8.472 0 0 1 -3.6.95 3.528 3.528 0 0 1 -1.2-1.7c0-1.75.7-2.7.7-4.4a6.665 6.665 0 0 1 2.2-2.8 12.582 12.582 0 0 1 2.15-4.05c.6-.9 2.95-3.2 3.1-4.35.25 0 .5-.05.5-.45.35-.4 1-.45 1.2-1 .45-.1.4-.75 1-.75a1.384 1.384 0 0 1 .45.05c.05-.95.95-1.1 1.2-1.9 1.1-.1 1.35-1.05 2.15-1.45.45-.85 1.6-.95 2.4-1.45.65.05.65.75 1.3.75 1 0 2.3-2.3 2.5-3.65-1.05 0-1.55-.65-2.35-.95-.35.5-1.1.55-1.7.75-.55.15-.55.9-1.2.95-.5.2-.7.7-1.45.7-.6.6-.85 1.55-1.9 1.7-.45.85-1.55 1-1.95 1.9-1.15.25-1.8 1.9-2.4 2.4-.1.15-.35.1-.45.25-.9.95-1.7 2-2.65 2.9-.4.85-1.4 1.15-1.45 2.4a10.131 10.131 0 0 0 -2.85 4.55c-1.3 1.05-1.55 3.1-2.4 4.55v.4c0 1.1-.3 1.9-.3 3a3.543 3.543 0 0 0 .05.7c.2.45.95 2.4 1.3 2.4a10.575 10.575 0 0 1 2.55.95c8.25-1.1 14.55-5.1 20.15-8.4.5-.35 1.2-.35 1.4-.95.75-.4 2.2-1.6 2.5-1.6a.133.133 0 0 1 .15.15 7.169 7.169 0 0 1 -1.2 2.65c-.55.85-.75 1.95-1.45 2.6-.85 1.8-1.9 3.35-2.85 5.05-1.5.35-2 1.7-3.35 2.15a37.325 37.325 0 0 1 -3.15 2.4c-.3.55-1.2.6-1.4 1.2-1.05.9-2.2 1.7-3.15 2.65-.3.65-1.2.7-1.45 1.45-1.3.55-1.85 1.8-3.1 2.4 0 1.25-2.4 1.45-2.4 3.1a36.438 36.438 0 0 0 -2.9 2.65c-1.15.75-1.55 2.25-2.85 2.9-.35 1.55-1.8 2.05-2.4 3.35-2.95 3.1-4.6 6.9-5.75 11.75a6.452 6.452 0 0 1 .45 1.45c.15.5 1.15 2.65 2.4 2.85a37.538 37.538 0 0 0 4.1-.95c.45-.95 2-.85 2.4-1.9 2.45-1.1 6.45-6.15 8.85-9.35.8-1.05 1.3-2.25 2.4-2.9v-1.2c.75-.15 1.75-1.75 1.7-1.7.55-.7.7-1.6 1.45-2.15.5-1.5 1.65-2.45 2.4-4.8.2-.35 1.2-.85 1.2-1.3 0-.15-.05-.3-.05-.45 0-.4.75-.7.75-1.9v-.2c1.4-.6 1.45-2.5 2.4-3.55a9.152 9.152 0 0 0 1.9-4.1c.9-.2.9-1.35 1.2-1.9.35-.6 1.25-1 1.25-1.9 0-.1-.05-.2-.05-.3 1.3 0 1.2-1.2 2.4-1.2.75-1.15 2.35-1.5 3.15-2.65.35-.2 1.2.05 1.2-.6v-.1c.55-.65 1.75-.7 1.75-1.35 0 .1 3.1-1.85 4.25-2-.1.15-.7-1.65-.85-1.65zm10.9-25.25c-.05 2.55-1.3 3.95-1.9 6-.75.05-.75.85-.95 1.45-.8.2-1.45 1.9-1.85 1.9a.108.108 0 0 0 -.1.1 4.391 4.391 0 0 1 -.7 1.15c-.35.3-.85.4-1.2.7-.15.15-.1.55-.25.7-.15.2-.5.1-.7.25-.85.75-1.7 1.9-2.65 2.9-1.05.2-1.4 1.15-2.4 1.45a11.6 11.6 0 0 1 1.2-2.65c.05-.1.45-.2.5-.25.2-.6.75-2.45 2.15-3.1 0-2.35 2.4-2.9 2.4-5.2 0-.8 1.8-.8 1.45-1.8a.3.3 0 0 0 .2.05c.35 0 .4-.5 1-.5a4.729 4.729 0 0 1 .7-1.2c.15-.2.55-.1.7-.25.2-.15.1-.6.25-.7s1.25-.25 1.45-1zm-28.05 38.65h.15c.25 0 .3.25.35.5a22.3 22.3 0 0 0 -1.95 3.6c-.1.15-.1.55-.25.7-.05.1-.4.15-.45.25-.15.2-.65 1-.75 1.2-.6 1-1.05 2.35-1.65 3.6-.95.25-.75 1.65-1.45 2.15a17.908 17.908 0 0 1 -1.2 2.4c-.05.1-.75.7-.75.8s.05.2.05.3c0 .3-.65 1-1 1.3-.3.25-.55 1.7-1.4 1.7-.05 1-1 1.15-1 2.25v.15c-1.5.65-2.85 4.55-4.3 4.8a5.848 5.848 0 0 1 -1.2 1.65c-2.35 2.9-6.3 6.8-9.2 6.8-1.2 0-1.35-1.8-1.35-2.95 0-.95.45-1.9.45-2.8v-.3c1.45-1.6 2.35-3.75 3.6-5.55.25-.7 1.2-.75 1.2-1.65a14.238 14.238 0 0 0 2.65-3.35c.8-.25.85-1.25 1.7-1.45.45-1.35 1.75-2.15 2.85-3.15.2-.15.1-.7.55-.7h.2c.2-.2.1-.75.5-.75.05 0 .1.05.2.05a9.329 9.329 0 0 1 1.7-1.45c0-1 1.1-.8 1.2-1.7 1.15-.9 2.15-1.8 3.35-2.65 1.95-1.4 3.55-3.65 5.5-4.05 0-1.2 1.65-.6 1.7-1.7zm22.5-13.55c-.85.8-1.05 1.95-1.65 3-.15.3-.05.65-.25.95-.1.2-.6.3-.7.5a17.462 17.462 0 0 0 -.75 1.7c0 1.65-.15 3.5.5 4.55a13.064 13.064 0 0 0 5.3.25 26.648 26.648 0 0 0 5.75-3.6c.6-.65.4-1.1 1-1.2-.15-.45 1.1-1.15 1.4-1.45 1-1.45 2.3-2.35 2.9-4.3 0-.05.1-.15.9-.45.75-.3.25-.05 1.05-.35.4-.15.6-.2.7-.25a5.488 5.488 0 0 0 1.2-2.1 3.608 3.608 0 0 0 -2.05.1c-.7.25-.05.05-.75.2-.4.1-.65 0-.7-.1a10.249 10.249 0 0 0 -.6-2.6c.05-1.4-1.65-2.05-2.45-2.65-1.6 0-2.45.75-3.8.95a20.437 20.437 0 0 1 -1.95 2.2c-1.3.4-1.9 1.45-3.35 1.65a12.437 12.437 0 0 0 -1.2.95 11.191 11.191 0 0 1 -.5 2.05zm9.4-4.65a9.3 9.3 0 0 1 1.7.2c.45.6.15 1.95.25 2.9a9.593 9.593 0 0 1 -4.35.7c.1-.45-.2-.85-.25-.45-.65-.5.55-1.2.7-1.7a2.256 2.256 0 0 0 1.7-.95c-.1-.4.2-.4.25-.7zm-6 4.8c.8.2 1.25.8 1.9 1.2.65 0 1.35-.1 1.7.2a8.414 8.414 0 0 0 3.4-.65c0 .8-.4.8-.75 1.4a7.637 7.637 0 0 0 -1.65 1.45 14.893 14.893 0 0 0 -1.45 1.65c-.95.15-1.4 1-2.15 1.45-.3.15-.3.05-.5.25a9.749 9.749 0 0 1 -2.4 1.2h-2.45c-.2-1.25.5-1.6.5-2.65.95-1.05 1.65-2.6 2.65-3.85.25-.35.35-.9.95-.95-.1-.4.2-.4.25-.7zm39.6 4.25a19.048 19.048 0 0 1 -6.65 3.4 4.19 4.19 0 0 1 -2.6-.5c.4-2.05 3.6-4.6 4.85-5.85s2.4-2.7 3.6-4.05c.25-.45.45-.6.45-1 .05-.25.15-.1.25-.2.35-.55.55-2.3-.45-2.4-.35-.7-1.2.05-1.45.2a2.779 2.779 0 0 1 -1.2 1.2c-.4.35-.95.5-.95 1.2-.75.25-1 .95-1.45 1.45-1.45 1.55-4.4 4.45-5.35 6.3a14.113 14.113 0 0 0 -3.1 1.95c-1.15.65-2.3 1.15-3.4 1.9-2.05.4-4 2.05-6.45 1.2-.4-2.15 1.25-2.45 1.55-3.95.7-.3 2.95-3.75 3.4-4.35.55-.5 1.45-1.2 1.6-2.1 1.15-1.05 2.6-1.75 2.4-4.05-.55-.35-.8-1-1.9-.75-.75-.1-.7.6-.95.95-.1.6-2.65 2.7-2.55 3.45-.85.5-5.1 7.15-5.7 7.9-.35.9-.45 2-.75 2.9.6.75.65 2.1 1.7 2.4a4.6 4.6 0 0 0 2.65.25c.35-.05.8.05 1.2 0 2-.35 3.95-1.55 5.75-1.95a6.531 6.531 0 0 1 3.1-1.9c.4.75.7 1.55 1.45 1.9 1.1 0 2.25.5 3.35.5a6.885 6.885 0 0 1 1.95-.45c2.35-.5 5.5-3 5.65-2.95s3.3-2.05 3.3-2.05a16.016 16.016 0 0 0 -.85-2.15c-.15.1-1.7 1-2.45 1.6zm3.25 4.95c.75 1.45 3.65 2.45 4.55.5 0-1.45-.9-2-1.2-3.15-1.95-.75-3.75.35-3.35 2.65z" fill="#fff" transform="translate(-1.95 39.15)"/></svg>