<svg height="124.898" viewBox="0 0 494.042 124.898" width="494.042" xmlns="http://www.w3.org/2000/svg"><g fill="#fff"><path d="m47.235 50.464v7.408a91.728 91.728 0 0 1 -7.841 7.149 53.671 53.671 0 0 1 -7.153 4.961 28.042 28.042 0 0 1 -13.559 3.607 17.938 17.938 0 0 1 -13.37-5.417 18.97 18.97 0 0 1 -5.312-13.866 36.4 36.4 0 0 1 2.625-13.348 43.622 43.622 0 0 1 7.029-12.026 35.514 35.514 0 0 1 10.059-8.48 22.544 22.544 0 0 1 11.028-3.161 13.057 13.057 0 0 1 9.09 3.124 10.681 10.681 0 0 1 3.469 8.343 10.1 10.1 0 0 1 -.092 1.384 3.743 3.743 0 0 1 -.658 1.515 5.371 5.371 0 0 1 -2.372 1.609l-7.25 3.542a8.889 8.889 0 0 1 -1.935.645q-.874 0-.874-1.288l.375-3.414.375-3.478a8.39 8.39 0 0 0 -1.123-4.509 3.507 3.507 0 0 0 -3.124-1.8q-3 0-5.812 3.193a24.168 24.168 0 0 0 -4.56 8.484 35.274 35.274 0 0 0 -1.75 11.159q0 7.548 3.559 12.193a11.367 11.367 0 0 0 9.5 4.644 16.146 16.146 0 0 0 6.028-1.159 24.353 24.353 0 0 0 6.155-3.8 76.75 76.75 0 0 0 7.493-7.214z" transform="translate(0 19.763)"/><path d="m89.17 50.464v7.408a165.463 165.463 0 0 1 -13.839 12.428 14.582 14.582 0 0 1 -8.715 3.285q-9.309 0-9.309-17.971-6.439 9.534-11.746 13.751t-10.685 4.224a10.5 10.5 0 0 1 -6.624-2.413 15.958 15.958 0 0 1 -4.809-6.725 24.2 24.2 0 0 1 -1.749-9.2 33.994 33.994 0 0 1 3.311-14.928 44.312 44.312 0 0 1 8.343-12 42.464 42.464 0 0 1 10.752-8.073 22.7 22.7 0 0 1 10.218-2.959q7.744 0 10.933 7.277l12.746-7.277h3.5l-5.497 18.901-2.88 10.965q-.624 2.71-1 5a23.557 23.557 0 0 0 -.375 3.579 6.836 6.836 0 0 0 1.061 4.1 3.259 3.259 0 0 0 2.749 1.451q2 0 4.622-2.126t8.993-8.697zm-34.178-27.891q-4.188 0-8.248 5.242a43.593 43.593 0 0 0 -6.624 12.766 41.446 41.446 0 0 0 -2.561 13.053 9.318 9.318 0 0 0 1.624 5.6 5.271 5.271 0 0 0 4.249 2.186q4.311 0 8.278-5.24a44.445 44.445 0 0 0 6.5-12.83 42.514 42.514 0 0 0 2.53-13.124 9.307 9.307 0 0 0 -1.5-5.593 4.935 4.935 0 0 0 -4.248-2.06z" transform="translate(24.796 19.763)"/><path d="m52.513 71.834 11.842-12.693 3.461-16.741q.624-2.84 1.284-5.2t1.875-6.227q1.218-3.87 2.278-6.969t2.064-5.55q2.125-5.42 3.624-8.615a45.5 45.5 0 0 1 2.156-4.226q.656-1.032 8.593-3.356 3.938-1.1 6.028-1.646a24.058 24.058 0 0 1 2.717-.611q2.375 0 3.877 3.225a20.039 20.039 0 0 1 1.5 8.388 33.5 33.5 0 0 1 -5.435 18.839q-5.436 8.258-16.683 19.227l-5.248 26.86q3 6.763 9.185 6.763a16.075 16.075 0 0 0 9.06-3.157 47.4 47.4 0 0 0 9.935-9.92v7.408a62.752 62.752 0 0 1 -12.626 11.401q-6.5 4.314-11.621 4.316a17.955 17.955 0 0 1 -6.5-1.869l-1.251 7.1-.939 6-1.125 7.483-1.309 10.063q-5.249.771-15.622 2.773 2.064-17.8 6.935-45.842l-2.437-6.189-4.185 4.766h-1.435v-5.8zm31.114-30.916a54.032 54.032 0 0 0 11.308-13.945q4.314-7.7 4.314-14.139a8.924 8.924 0 0 0 -1-4.38q-1-1.8-2.374-1.8-1.875-.002-3.749 3.346-.688 1.353-1.562 3.607t-1.749 4.959q-1.562 5.349-2.815 11.08-.939 4.828-1.123 5.668-.437 2.128-1.25 5.604z" transform="translate(60.018)"/><path d="m123.735 50.359v7.408q-3.25 3.221-5.747 5.443t-4.938 4.09a32.279 32.279 0 0 1 -8.591 4.669 26.873 26.873 0 0 1 -8.9 1.515q-8.5 0-13.713-5.636t-5.222-14.716a37.307 37.307 0 0 1 2.467-13.2 39.692 39.692 0 0 1 6.591-11.532 33.682 33.682 0 0 1 9.56-7.987 22.276 22.276 0 0 1 10.936-3.028 13.658 13.658 0 0 1 9.277 3.06 10.239 10.239 0 0 1 3.529 8.148 13.569 13.569 0 0 1 -4.312 9.855 33.328 33.328 0 0 1 -10.059 6.892q-5.432 2.385-13.119 4.9 1.247 6.12 4.655 9.339a11.759 11.759 0 0 0 8.4 3.221 13.729 13.729 0 0 0 6.217-1.416 23.665 23.665 0 0 0 5.28-3.609q1.061-.9 3.062-2.8t4.627-4.616zm-32.735-4.509q7.811-2.321 11.9-6.635a14.7 14.7 0 0 0 4.093-10.5 7.624 7.624 0 0 0 -1.187-4.573 3.765 3.765 0 0 0 -3.187-1.609q-2.437 0-5.124 2.707a21.649 21.649 0 0 0 -4.595 8.02 37.331 37.331 0 0 0 -1.9 12.59z" transform="translate(87.578 19.868)"/><path d="m180.664 50.464v7.408a165.464 165.464 0 0 1 -13.839 12.428 14.582 14.582 0 0 1 -8.715 3.285q-9.309 0-9.309-17.971-6.439 9.534-11.746 13.751t-10.685 4.224a10.5 10.5 0 0 1 -6.624-2.413 15.958 15.958 0 0 1 -4.809-6.725 24.2 24.2 0 0 1 -1.749-9.2 33.994 33.994 0 0 1 3.312-14.927 44.312 44.312 0 0 1 8.343-12 42.464 42.464 0 0 1 10.747-8.075 22.7 22.7 0 0 1 10.218-2.959q7.744 0 10.933 7.277l12.746-7.277h3.5l-5.5 18.9-2.876 10.966q-.624 2.71-1 5a23.556 23.556 0 0 0 -.375 3.579 6.836 6.836 0 0 0 1.061 4.1 3.259 3.259 0 0 0 2.749 1.451q2 0 4.622-2.126t8.996-8.696zm-34.176-27.891q-4.188 0-8.248 5.242a43.593 43.593 0 0 0 -6.624 12.766 41.447 41.447 0 0 0 -2.561 13.053 9.317 9.317 0 0 0 1.624 5.6 5.271 5.271 0 0 0 4.249 2.186q4.311 0 8.278-5.24a44.446 44.446 0 0 0 6.5-12.83 42.514 42.514 0 0 0 2.531-13.119 9.307 9.307 0 0 0 -1.5-5.593 4.94 4.94 0 0 0 -4.249-2.065z" transform="translate(129.37 19.763)"/><path d="m144.006 57.769v-5.8a165.087 165.087 0 0 0 12.811-15.331l4.749-6.635 4.123-6.377 2.374-4.123q.871-2.125 1.687-2.126l1.875.257a53.171 53.171 0 0 0 6.12 1.1 52.065 52.065 0 0 0 6.311.388 78.527 78.527 0 0 0 13.558-1.352 18.47 18.47 0 0 1 2.936-.386c.75 0 1.144.214 1.187.643q0 1.032-2.559 5.025l-4.869 6.506-8.809 11.087-9 11.139-5 6.247 4.125-.259a58.394 58.394 0 0 1 8.527 1.449 71.178 71.178 0 0 0 7.841 1.451 11 11 0 0 0 4.592-.87 15.214 15.214 0 0 0 4.155-3.09q2.247-2.221 6-6.345v7.408l-6.249 6.763a57.02 57.02 0 0 1 -5.28 4.993 23.217 23.217 0 0 1 -4.843 3.06 15.445 15.445 0 0 1 -2.372.774 11.235 11.235 0 0 1 -2.5.257q-2.189 0-8.373-2-6.686-2.253-9.935-2.254a8.834 8.834 0 0 0 -6.812 3.028 3.517 3.517 0 0 1 -1.5 1.224q-4.25 0-4.374-.581 0-.968 3.746-5.994l9.052-11.663 11.776-14.6 7.668-9.675a35.3 35.3 0 0 1 -7.811.771 39.075 39.075 0 0 1 -11.621-1.931q-4 5.989-7.873 11.079-1.064 1.418-2.625 3.414-2.752 3.478-4.282 5.347t-3.311 3.866q-1.781 2-3.78 4.121h-1.436z" transform="translate(164.593 19.866)"/><path d="m204.323 64.146v7.408q-14.623 15.846-21.869 15.846-4 0-6.746-4.316a19.155 19.155 0 0 1 -2.749-10.5 67.512 67.512 0 0 1 2.593-18.1q2.594-9.338 6.405-19.9l15.869-3.414h.75l-6.247 20.161q-2.125 7.088-3 11.079a32.544 32.544 0 0 0 -.874 6.763 5.943 5.943 0 0 0 .906 3.478 2.7 2.7 0 0 0 2.278 1.288 7.786 7.786 0 0 0 5.094-2.029 94.175 94.175 0 0 0 7.59-7.764zm-15.87-58.826 4.5 2.524a9.5 9.5 0 0 0 3.437.647 11.2 11.2 0 0 0 6.686-2.512q0 7.6-2.782 11.529t-8.278 3.928a13.423 13.423 0 0 1 -9.183-3.349 51.974 51.974 0 0 0 5.62-12.767z" transform="translate(197.685 6.081)"/><path d="m196.312 30.752 5.842-20.105 16.766-3.553-6.373 22.432 8.683-.516-2.062 9.92-9.686.771-2.188 7.215q-1.874 6.313-3 11.111a36.49 36.49 0 0 0 -1.123 8.083 8.207 8.207 0 0 0 1.5 4.959 4.62 4.62 0 0 0 3.75 1.869 10.782 10.782 0 0 0 6.716-2.383 84.141 84.141 0 0 0 8.78-8.439v7.408q-8.122 8.376-13.871 12.046t-10.683 3.671a10.236 10.236 0 0 1 -8.715-4.7q-3.343-4.7-3.345-12.238a45.139 45.139 0 0 1 .874-8.793q.874-4.413 2.5-9.888l2.5-8.76-4.811.259 2-10.11z" transform="translate(214.08 8.108)"/><path d="m260.8 50.463v7.408a23.174 23.174 0 0 1 -5.469 3.928 12.15 12.15 0 0 1 -5.467 1.352 12.949 12.949 0 0 1 -2.218-.161 12.089 12.089 0 0 1 -2.218-.675 22.761 22.761 0 0 1 -4.5-2.769 35.632 35.632 0 0 1 -9.622 10.5 21.224 21.224 0 0 1 -5.306 2.639 18.16 18.16 0 0 1 -5.685.9 14.8 14.8 0 0 1 -8.437-2.516 16.088 16.088 0 0 1 -5.778-7.219 26.943 26.943 0 0 1 -2.032-10.768 37.242 37.242 0 0 1 1.125-9.285 35 35 0 0 1 3.5-8.576 36.077 36.077 0 0 1 12.528-13.027 31.933 31.933 0 0 1 17.15-4.9q5.249 0 7.719 1.194a5.632 5.632 0 0 1 3.062 2.773 11.835 11.835 0 0 1 .591 4.1q0 12-6.373 29.611a13.691 13.691 0 0 0 3.219 2.227 7.815 7.815 0 0 0 3.467.806 8.558 8.558 0 0 0 4.841-1.9 35.959 35.959 0 0 0 5.903-5.642zm-23.429 5.527a26.314 26.314 0 0 1 -5.871-16.39 21.1 21.1 0 0 1 2.032-9.547 29.065 29.065 0 0 1 6.648-8.253 7.326 7.326 0 0 0 -2.687-.388 12.328 12.328 0 0 0 -9.935 4.676 29.052 29.052 0 0 0 -5.623 11.42 52.427 52.427 0 0 0 -1.749 13.192q0 6.644 2.062 10.192t5.5 3.547q4.312 0 9.623-8.449z" transform="translate(233.24 19.764)"/><path d="m114.7 4.641c.12 6.343-4.985 9.723-8.85 13.606-7.35 7.386-18.602 8.353-18.602 8.353 3.992-2.752 11.8-15.251 13.535-21.854a30.86 30.86 0 0 0 13.917-.105z" transform="translate(99.721 5.304)"/></g></svg>