<svg enable-background="new 0 0 230.542 58.283" height="58.283" viewBox="0 0 230.542 58.283" width="230.542" xmlns="http://www.w3.org/2000/svg"><g fill="#505096"><path d="m22.042 32.771v3.457c-1.244 1.263-2.463 2.375-3.659 3.336-1.195.962-2.308 1.734-3.338 2.315-2.061 1.122-4.17 1.683-6.327 1.683-2.508 0-4.588-.843-6.239-2.528-1.653-1.685-2.479-3.842-2.479-6.47 0-2.066.408-4.142 1.225-6.229.816-2.086 1.91-3.958 3.28-5.612 1.37-1.655 2.935-2.974 4.694-3.957s3.474-1.475 5.146-1.475c1.75 0 3.164.486 4.242 1.458 1.079.973 1.618 2.27 1.618 3.893 0 .221-.014.436-.043.646s-.132.446-.307.707-.544.511-1.107.751l-3.383 1.653c-.369.161-.67.261-.903.301-.272 0-.408-.2-.408-.601l.175-1.593.175-1.623c0-.842-.175-1.543-.524-2.104-.351-.561-.836-.842-1.458-.842-.934 0-1.837.497-2.712 1.49-.875.994-1.584 2.313-2.128 3.959-.545 1.646-.816 3.382-.816 5.208 0 2.348.554 4.245 1.661 5.69 1.108 1.445 2.585 2.167 4.433 2.167.972 0 1.909-.181 2.813-.541.903-.361 1.86-.952 2.872-1.773 1.009-.821 2.176-1.943 3.497-3.366z"/><path d="m53.182 32.771v3.457c-2.935 2.846-5.087 4.779-6.458 5.801-1.37 1.022-2.726 1.533-4.067 1.533-2.896 0-4.344-2.795-4.344-8.386-2.003 2.966-3.83 5.105-5.481 6.417-1.652 1.312-3.314 1.969-4.986 1.969-1.107 0-2.139-.376-3.091-1.126s-1.7-1.796-2.244-3.138c-.545-1.341-.816-2.772-.816-4.293 0-2.502.515-4.824 1.545-6.966s2.327-4.008 3.893-5.599c1.564-1.591 3.236-2.848 5.015-3.768 1.778-.921 3.367-1.381 4.768-1.381 2.409 0 4.11 1.132 5.102 3.396l5.948-3.396h1.633l-2.565 8.82-1.342 5.117c-.194.843-.35 1.621-.466 2.333-.117.712-.175 1.27-.175 1.67 0 .823.164 1.46.495 1.912.33.452.758.677 1.283.677.622 0 1.341-.331 2.157-.992.814-.661 2.213-2.013 4.196-4.057zm-15.949-13.015c-1.303 0-2.585.815-3.849 2.446s-2.294 3.616-3.091 5.957c-.797 2.34-1.195 4.371-1.195 6.091 0 1.04.253 1.911.758 2.611.544.68 1.205 1.02 1.983 1.02 1.341 0 2.628-.815 3.863-2.445 1.233-1.631 2.244-3.626 3.032-5.987.787-2.361 1.181-4.401 1.181-6.122 0-1.1-.233-1.97-.7-2.61-.465-.641-1.126-.961-1.982-.961z"/><path d="m52.512 33.521 5.526-5.923 1.615-7.813c.194-.883.394-1.691.598-2.424.204-.732.496-1.702.875-2.906s.733-2.289 1.063-3.252c.331-.964.652-1.827.963-2.59.661-1.686 1.225-3.026 1.691-4.02s.802-1.651 1.006-1.972 1.541-.843 4.01-1.566c1.225-.341 2.162-.597 2.813-.768s1.075-.267 1.269-.287c.739 0 1.342.502 1.809 1.505.466 1.003.699 2.308.699 3.914 0 3.292-.846 6.222-2.536 8.791-1.691 2.569-4.286 5.56-7.785 8.972l-2.449 12.534c.933 2.104 2.361 3.156 4.286 3.156 1.38 0 2.789-.491 4.228-1.473 1.438-.981 2.983-2.525 4.636-4.629v3.457c-1.905 2.205-3.868 3.978-5.89 5.32s-3.829 2.014-5.423 2.014c-.7 0-1.711-.291-3.032-.872l-.584 3.312-.438 2.8-.525 3.492-.611 4.696c-1.633.24-4.063.672-7.29 1.294.642-5.536 1.721-12.667 3.236-21.392l-1.137-2.888-1.953 2.224h-.671v-2.706zm14.519-14.427c2.177-1.943 3.937-4.113 5.277-6.507 1.342-2.395 2.013-4.594 2.013-6.598 0-.801-.156-1.482-.467-2.044-.312-.561-.681-.841-1.108-.841-.583 0-1.166.521-1.749 1.563-.214.421-.457.982-.729 1.683-.272.702-.545 1.473-.816 2.314-.486 1.664-.924 3.387-1.312 5.17-.292 1.502-.467 2.385-.524 2.645-.137.662-.332 1.533-.585 2.615z"/><path d="m98.608 32.771v3.457c-1.011 1.002-1.905 1.849-2.682 2.54-.778.691-1.546 1.328-2.304 1.909-1.322.982-2.658 1.708-4.009 2.179-1.352.471-2.736.707-4.155.707-2.644 0-4.777-.876-6.399-2.63-1.623-1.753-2.435-4.042-2.435-6.868 0-2.063.383-4.118 1.151-6.162s1.793-3.837 3.076-5.38 2.77-2.785 4.461-3.727 3.392-1.413 5.103-1.413c1.788 0 3.231.476 4.329 1.428 1.099.952 1.647 2.219 1.647 3.802 0 1.724-.67 3.256-2.012 4.599-1.341 1.343-2.906 2.415-4.694 3.216-1.69.742-3.731 1.503-6.122 2.285.388 1.904 1.112 3.356 2.172 4.358 1.059 1.002 2.366 1.503 3.921 1.503 1.05 0 2.017-.22 2.901-.661s1.706-1.002 2.464-1.684c.33-.28.807-.716 1.429-1.307.623-.593 1.342-1.309 2.158-2.151zm-15.277-2.104c2.43-.722 4.28-1.753 5.554-3.096 1.273-1.342 1.91-2.976 1.91-4.899 0-.921-.186-1.633-.554-2.134-.37-.5-.865-.751-1.487-.751-.758 0-1.556.421-2.391 1.263-.836.841-1.551 2.089-2.144 3.742s-.888 3.611-.888 5.875z"/><path d="m144.676 32.771v3.457c-2.935 2.846-5.087 4.779-6.458 5.801-1.37 1.022-2.726 1.533-4.067 1.533-2.896 0-4.344-2.795-4.344-8.386-2.003 2.966-3.83 5.105-5.481 6.417-1.652 1.312-3.314 1.969-4.986 1.969-1.107 0-2.139-.376-3.091-1.126s-1.7-1.796-2.244-3.138c-.545-1.341-.816-2.772-.816-4.293 0-2.502.515-4.824 1.545-6.966s2.327-4.008 3.893-5.599c1.564-1.591 3.236-2.848 5.015-3.768 1.778-.921 3.367-1.381 4.768-1.381 2.409 0 4.11 1.132 5.102 3.396l5.948-3.396h1.633l-2.565 8.82-1.342 5.117c-.194.843-.35 1.621-.466 2.333-.117.712-.175 1.27-.175 1.67 0 .823.164 1.46.495 1.912.33.452.758.677 1.283.677.622 0 1.341-.331 2.157-.992.814-.661 2.213-2.013 4.196-4.057zm-15.948-13.015c-1.303 0-2.585.815-3.849 2.446s-2.294 3.616-3.091 5.957c-.797 2.34-1.195 4.371-1.195 6.091 0 1.04.253 1.911.758 2.611.544.68 1.205 1.02 1.983 1.02 1.341 0 2.628-.815 3.863-2.445 1.233-1.631 2.244-3.626 3.032-5.987.787-2.361 1.181-4.401 1.181-6.122 0-1.1-.233-1.97-.7-2.61-.466-.641-1.127-.961-1.982-.961z"/><path d="m144.006 36.228v-2.705c1.885-1.964 3.878-4.348 5.978-7.154l2.216-3.096 1.924-2.976 1.108-1.924c.271-.661.534-.992.787-.992l.875.12c.913.221 1.865.391 2.856.511.992.121 1.973.181 2.945.181 1.847 0 3.955-.21 6.327-.631.642-.12 1.098-.18 1.37-.18.35 0 .534.1.554.3 0 .321-.397 1.103-1.194 2.345l-2.272 3.036-4.109 5.174-4.201 5.198-2.334 2.915 1.925-.121c.544 0 1.87.226 3.979.676 2.108.451 3.328.677 3.659.677.835 0 1.55-.135 2.143-.406s1.239-.751 1.939-1.442c.699-.691 1.633-1.678 2.799-2.961v3.457l-2.916 3.156c-.914.962-1.734 1.739-2.464 2.33-.729.591-1.482 1.067-2.26 1.428-.389.16-.758.28-1.107.361-.35.08-.739.12-1.166.12-.681 0-1.983-.311-3.907-.932-2.08-.701-3.626-1.052-4.636-1.052-1.264 0-2.323.471-3.179 1.413-.291.341-.524.531-.699.571-1.322 0-2.002-.09-2.041-.271 0-.301.583-1.233 1.748-2.797l4.224-5.443 5.495-6.812 3.578-4.515c-1.05.24-2.265.36-3.645.36-1.69 0-3.499-.3-5.423-.901-1.245 1.863-2.47 3.587-3.674 5.17-.331.441-.739.972-1.225 1.593-.856 1.082-1.521 1.914-1.998 2.495-.477.582-.991 1.183-1.545 1.804s-1.143 1.262-1.764 1.923h-.67z"/><path d="m187.595 32.771v3.457c-4.548 4.93-7.95 7.395-10.205 7.395-1.244 0-2.293-.671-3.148-2.014s-1.283-2.976-1.283-4.9c0-2.725.403-5.541 1.21-8.446s1.803-6.001 2.989-9.288l7.405-1.593h.35l-2.915 9.408c-.661 2.205-1.128 3.928-1.399 5.17-.272 1.243-.408 2.295-.408 3.156 0 .681.141 1.222.423 1.623.281.401.636.601 1.063.601.836 0 1.628-.315 2.377-.947.747-.631 1.927-1.838 3.541-3.622zm-7.406-27.451 2.099 1.178c.525.202 1.06.302 1.604.302 1.03 0 2.07-.391 3.12-1.172 0 2.365-.433 4.158-1.298 5.38-.864 1.223-2.152 1.833-3.863 1.833-1.672 0-3.101-.521-4.285-1.563 1.087-1.744 1.962-3.731 2.623-5.958z"/><path d="m191.507 18.134 2.726-9.382 7.824-1.658-2.974 10.468 4.052-.241-.962 4.629-4.52.36-1.021 3.367c-.583 1.964-1.05 3.692-1.399 5.185-.35 1.493-.524 2.75-.524 3.772 0 .901.233 1.673.699 2.314.467.582 1.05.872 1.75.872 1.127 0 2.172-.371 3.134-1.112.963-.741 2.328-2.054 4.097-3.938v3.457c-2.527 2.605-4.685 4.479-6.473 5.621-1.789 1.142-3.45 1.713-4.985 1.713-1.673 0-3.028-.731-4.067-2.194-1.04-1.462-1.561-3.367-1.561-5.711 0-1.363.136-2.73.408-4.103s.661-2.911 1.167-4.614l1.166-4.088-2.245.121.935-4.718z"/><path d="m230.542 32.771v3.457c-.855.802-1.706 1.413-2.552 1.833-.845.421-1.695.631-2.551.631-.408 0-.754-.025-1.035-.075-.282-.05-.627-.155-1.035-.315-.603-.26-1.303-.691-2.099-1.292-1.342 2.124-2.839 3.757-4.49 4.899-.798.541-1.624.952-2.479 1.232s-1.74.421-2.653.421c-1.458 0-2.77-.391-3.937-1.174-1.166-.782-2.065-1.906-2.696-3.37-.632-1.464-.948-3.139-.948-5.025 0-1.524.175-2.969.525-4.333s.894-2.698 1.633-4.002c1.438-2.528 3.387-4.554 5.846-6.079s5.126-2.287 8.003-2.287c1.633 0 2.833.186 3.602.557.768.371 1.243.803 1.429 1.294.185.492.276 1.129.276 1.912 0 3.733-.991 8.339-2.974 13.818.485.442.986.788 1.502 1.039.515.251 1.054.376 1.618.376.68 0 1.433-.295 2.259-.887.826-.591 1.745-1.467 2.756-2.63zm-10.934 2.579c-1.827-2.368-2.741-4.917-2.741-7.646 0-1.706.316-3.191.948-4.455.631-1.264 1.666-2.548 3.104-3.853-.291-.12-.71-.181-1.254-.181-1.885 0-3.431.728-4.636 2.182-1.205 1.455-2.08 3.231-2.624 5.329s-.816 4.149-.816 6.156c0 2.067.321 3.652.962 4.756.642 1.104 1.497 1.655 2.566 1.655 1.342 0 2.839-1.314 4.491-3.943z"/><path d="m100.06 4.641c.056 2.96-2.326 4.537-4.13 6.349-3.431 3.447-8.682 3.896-8.682 3.896 1.863-1.284 5.508-7.117 6.316-10.198 1.797.45 3.906.49 6.496-.047z"/></g></svg>