<svg height="314.228" viewBox="0 0 1256.154 314.228" width="1256.154" xmlns="http://www.w3.org/2000/svg"><path d="m111.223 108.718c4.458-.371 8.916-.371 8.916 3.343 2.6 1.114 9.287-1.857 8.916 1.857 28.233 1.486 49.036-4.458 67.982-12.631 5.2.743 5.944-3.343 8.916-5.2 5.572.743 6.687-2.6 10.4-3.715 5.944-4.086 11.516-8.916 19.689-10.4 8.544-12.631 20.432-21.175 30.462-32.32 3.343-7.8 6.315-15.974 12.259-21.175a56.459 56.459 0 0 1 10.774-26.747c.371-18.574 7.8-30.462 5.572-52.008q-4.458-7.244-5.572-17.831c-6.687-4.458-10.4-11.888-15.974-17.831a52.189 52.189 0 0 1 -15.974-7.06h-28.6c-2.6.371-2.972 2.972-5.2 3.715-24.152 9.285-43.469 23.032-60.929 39.006-4.829.372-2.972 7.8-8.916 7.43-2.229 2.972-4.458 5.944-7.058 8.916-2.972 2.972-6.315 5.2-8.916 8.916-4.458 1.114-3.715 7.8-8.916 8.916-5.2 5.572-8.916 13.374-15.974 17.831 0 5.2-4.086 6.315-7.058 8.916-2.6 8.544-9.287 13-12.631 21.175-3.715 2.229-4.086 7.8-7.058 10.773-8.544 14.117-18.2 27.119-24.89 42.721-4.829 4.458-6.315 10.773-8.916 15.974-4.458 9.287-8.173 17.46-12.631 25.261-4.829 8.173-11.516 15.6-14.117 24.89-2.972 2.229-4.458 5.944-5.572 10.773-1.857 3.715-6.687 4.829-7.058 10.4-6.686 10.775-17.088 26.749-14.116 41.237 0 2.6-.371 5.944 3.343 5.2 2.972 5.572 8.173-1.486 12.631 0a36.112 36.112 0 0 1 7.058-10.773c1.486-10.4 11.516-11.888 10.773-24.89 2.6-3.343 9.287-2.6 8.916-8.916 2.6-.371 1.486-4.086 1.857-7.058 3.343-.371 5.944-1.114 7.058-3.715 1.486-11.145 12.259-13.745 14.117-24.89 5.2 1.114 4.829-5.572 5.572-7.058.743-2.229 5.944-5.572 7.058-7.058 1.486-1.857 3.715-3.715 5.2-5.572 5.2-7.8 11.145-14.86 16.346-23.032 4.088 4.086 8.174 8.172 12.261 12.63zm-1.857-21.546c-1.857-8.544 7.43-5.944 7.43-12.631 3.343-2.972 8.173-4.829 8.916-10.4 7.8-4.829 11.516-13.374 17.831-19.689 5.572-6.315 14.488-10.773 17.831-19.689 6.687-4.829 15.231-8.916 15.974-21.546-.748-4.088-5.573-3.717-7.059-7.06-10.03 2.229-14.117 10.03-19.689 15.974-9.287 2.229-10.4 12.259-17.831 16.346-3.343 8.544-11.516 12.259-15.974 19.317-1.857 4.086-5.944 6.315-8.916 8.916-2.6 2.6-5.572 5.944-8.916 7.43-2.971 8.915-8.915 14.86-12.63 23.032a25.611 25.611 0 0 0 -8.916 8.916c-4.086 1.857-2.972 8.912-8.917 8.912 2.229-6.687 7.8-10.03 7.058-19.689 7.43-6.687 10.773-16.346 15.974-24.89 5.2-7.8 10.773-15.6 17.831-21.546 3.715-13.745 11.888-22.661 19.689-31.948 15.231-25.633 42.721-39.378 60.553-62.41 7.8-1.114 11.145-7.058 17.831-8.916 5.572-2.972 9.287-7.43 16.346-8.916a7.357 7.357 0 0 1 5.2-5.2c7.8 2.229 11.145.743 19.689 0 3.715 3.715 10.4 4.829 15.974 7.058 3.343 5.944 13.745 17.088 14.117 26.747.371 2.229 2.972 10.4-3.343 10.773 1.486 2.972 4.829 4.458 3.343 10.4-2.6 7.8-2.972 18.2-8.916 23.4-4.829 26-20.432 41.235-33.805 58.7-11.516 7.8-22.289 17.088-35.663 23.4-13.745 6.315-28.6 9.659-44.579 14.117-18.199-.364-37.146.379-46.434-8.908zm289.761 33.062c-9.659 10.4-23.4 20.432-40.121 31.948-15.231 10.4-41.978 30.091-71.326 30.091-7.43 0-15.6-1.114-15.6-13 0-7.43 2.229-14.86 3.715-20.8 8.173-.743 10.03-7.8 17.831-8.916 1.857-8.916 11.516-10.03 15.974-15.974 6.687-4.086 13.374-8.544 21.546-10.773.371-2.6.371-3.715 3.715-3.715 2.229-5.944 17.088-15.231 26.747-19.689 4.086-10.4 13.745-17.088 21.175-24.89 24.888-25.638 42.717-49.416 55.35-83.59 0-4.458 3.343-5.572 5.2-8.916 5.572-11.145 11.145-33.063 11.145-42.721 0-6.687-2.229-11.145-3.715-16.345a7.252 7.252 0 0 1 -2.6.372c-4.086 0-5.572-2.229-10.03-2.229 0 5.572-20.432 12.259-30.462 21.546-32.319 30.091-34.548 43.836-54.98 60.553-2.6 10.4-13.374 22.661-17.831 24.89-1.114 4.458-3.715 7.43-5.572 10.773-15.974 23.032-31.948 47.551-46.436 71.326-2.972 4.829-4.829 10.773-7.058 14.488-11.145 18.2-21.546 39.006-21.546 56.838 0 8.916 2.972 14.86 5.572 21.546 8.173 4.829 18.2 8.544 28.6 8.916 4.458 0 5.944-1.857 15.974-1.857 5.2-1.114 18.946-7.43 22.289-7.43.371 0 1.486.371 2.229.371 4.458 0 11.145-7.058 13.374-7.058 1.486 0 14.117-11.145 18.574-14.117 4.829 0 8.544-7.43 13.374-9.659 5.572-2.6 22.289-22.661 22.289-21.918.003 1.486 3.718-19.689 2.603-20.061zm34.548-186.858c2.6 0 5.572 1.114 5.572 4.458 0 3.715-3.343 7.43-3.343 13a10.286 10.286 0 0 0 .371 3.343c-4.829 6.315-12.259 20.8-12.259 25.633 0 1.486.372 3.715-1.857 2.6-4.458 9.659-10.03 18.574-12.631 28.6-14.116 15.231-26.376 31.948-40.864 46.436-4.457 4.465-17.831 21.554-21.917 21.554-.371 0-1.486-.371-2.229-.371-11.145 5.944-40.492 38.635-53.866 38.635 2.972-2.6 13.374-17.831 13.374-21.546 0 1.486 4.458-9.659 4.458-9.659 2.6 0 8.173-10.4 8.173-11.888 0-1.857 3.715-1.114 3.715-2.972 0-3.715 6.687-3.343 8.916-18.946.743-2.229 4.086-.743 5.572-1.857 2.6-2.6 7.058-18.2 19.317-24.89 0-2.972 3.343-15.6 16.345-21.546 0-6.687 5.2-6.687 5.2-12.631 0-1.857 13.745-14.117 17.831-19.317 7.058-8.916 18.574-18.574 26.747-28.6 3.716-3.721 7.8-10.036 13.375-10.036zm111.075 202.461c-3.715 0-10.773 3.715-14.116 4.829-3.343 1.486-10.773 5.2-14.117 7.8-15.6 11.516-44.95 23.775-64.639 24.89h-3.715c-5.2-1.486-14.117-3.715-19.689-8.544 8.544-2.972 13-9.659 21.546-12.631 2.229-4.829 7.43-6.315 10.773-10.4s7.058-11.888 12.259-14.488c1.114-13 14.86-28.976 14.86-43.464 2.972-3.343 2.229-9.659 3.715-12.259.743-1.486 1.486-.743 1.486-3.715.371-7.058 0-11.888-5.2-15.974-12.259-.372-17.46 6.315-30.462 5.2-7.058 7.43-16.717 11.888-26.747 16.346-5.2 8.544-15.231 13-19.317 23.032-5.2 1.857-7.058 7.43-8.916 12.631-4.458 1.857-10.4 19.689-11.516 23.4 0 1.114-1.486 1.857-1.486 1.857-2.229 8.544 0 17.831 1.486 25.261-.743 6.687 2.229 16.717 10.773 17.831 14.117 9.659 35.663 15.231 59.067 13.745 27.862-1.857 77.27-31.205 82.842-40.121 1.113-1.852 1.113-14.483 1.113-15.226zm-72.812-62.41c1.486 0 1.486 2.229 1.857 3.343 0 7.058-4.086 12.631-7.43 17.831-6.687 10.773-21.175 36.406-32.32 45.322a77.107 77.107 0 0 1 -10.773 7.058c-2.229 1.114-8.916 4.086-14.488 3.715.371-18.946 17.088-40.121 23.775-52.38 10.03-4.458 15.974-15.6 26.747-21.546 2.974-1.486 7.803 0 12.632-3.343zm291.618 46.065c-8.544 4.829-14.86 10.03-22.289 14.117-5.2 2.972-10.4 5.572-14.86 10.773-10.773 4.829-21.175 9.287-31.948 14.117-5.572 2.6-12.259 4.458-17.832 7.058-5.572 2.972-10.03 1.486-15.974 3.343-3.343.743-7.8 0-10.773 1.486-1.115-3.343-10.773 1.114-8.916-5.2-2.6-7.058 4.458-8.173 7.058-10.773 3.343-3.343 5.944-7.058 10.773-8.916 3.343-5.2 6.687-11.145 12.259-14.117.372-10.03 10.03-10.4 8.916-21.546-2.6-2.972-2.6-8.916-7.058-10.773-20.8-1.857-21.175 16.717-35.663 21.546 0 7.43-5.2 10.03-8.916 14.117-.743 8.173-5.572 12.259-7.058 19.689-5.572-.743-4.829 4.829-8.916 5.2-2.229 2.229-6.315 2.229-10.773 1.857.371 5.572-7.43 5.572-10.773 7.43-1.857 1.114-2.972 2.229-5.2 3.343-2.229 1.486-5.2.371-5.2 3.715-10.03.371-19.689 9.659-30.462 3.343 1.115-13.374 7.8-20.432 10.773-31.948 5.2-.743 5.572-6.315 8.916-8.916s4.458-7.43 8.916-8.916a205.226 205.226 0 0 0 15.974-19.689c11.888-4.086 18.574-13.745 28.6-19.689 5.944-1.114 8.916-5.944 14.117-8.916 5.572-2.6 12.631-3.343 17.831-7.058 11.516 1.857 17.831-6.315 26.747-1.857-.372 8.173-11.888 12.259-5.2 21.546 2.6-.371 6.687.743 7.058-1.857 0-2.6 4.458-1.486 3.715-5.2 5.2-1.486 7.43-5.572 10.4-8.916 4.458-14.86-1.115-27.862-14.117-30.462-15.974 2.229-26.376 10.4-42.721 12.631-3.715 6.315-12.631 7.43-19.689 10.773-5.944 3.343-8.544 10.03-17.831 10.4-3.715 6.315-9.659 10.4-15.974 14.488-9.659 10.4-21.546 18.946-30.462 30.091-5.2 5.572-8.544 13-14.117 17.831-1.857 7.8-4.458 14.86-8.916 19.689-4.086 15.974.372 27.862 8.916 35.663 3.715-1.857 9.659 1.857 8.916 1.857 5.944.371 20.432-3.715 23.032-5.2 5.572-3.715 15.231-5.572 17.831-7.43 5.944-3.715 13-7.43 17.831-8.916 4.086-.743 5.572-5.944 10.773-5.2 4.829-.743 1.857 6.687 5.2 7.058.372 4.458 7.058 2.6 7.43 7.058 2.972 1.114 10.4-1.857 10.4 1.857 12.259-2.229 21.175-1.486 34.177-2.972 5.2-7.43 16.717-5.572 23.032-11.888 4.458.371 5.2-1.486 8.916-3.715 3.343-1.857 7.43-1.857 10.773-3.343 6.315-3.343 11.145-8.173 17.46-11.516s4.829-5.944 11.145-8.916c5.944-2.972 13-12.259 19.317-15.6-1.105.371-5.563-12.631-5.563-12.631zm-39.749 45.322c.371-3.343 5.944-1.114 7.058-3.715 3.343-.743 3.343-4.829 8.916-3.343a21.512 21.512 0 0 0 0 15.231c7.8 2.6 13 7.8 17.832 12.631 7.8.371 14.488 4.829 21.546 5.2 22.289 2.229 44.207-8.173 64.268-10.4 7.058-4.458 20.06-7.43 24.89-8.544 5.572-1.486 6.687-2.6 10.773-3.715s8.544-3.343 12.259-4.829a16.433 16.433 0 0 0 5.572-1.857c4.829-2.6 7.43-6.687 13.374-9.287 1.857-1.114 2.972-1.114 5.2-1.857 1.114 0 4.458-2.972 5.572-3.343 3.715-1.486 9.287-7.8 13.374-9.287 2.6 2.229 1.115-7.43 1.115-15.231-16.346 9.659-35.292 17.831-53.123 26-15.6 4.086-32.32 8.544-47.922 12.259-7.43-2.6-13.745 5.2-17.832 0 1.486-7.8 7.43-11.516 12.259-15.974 1.857-7.058 18.574-37.892 21.918-40.864.743-.371-.372-2.6 0-3.343 4.458-6.687 8.916-13 12.63-20.06 2.229-4.458 7.058-9.659 5.2-15.974a74.027 74.027 0 0 1 -7.056-8.912c-10.03 1.114-17.46 7.8-24.89 12.259-8.544 5.2-16.346 11.516-25.261 16.717-16.717 8.544-37.892 27.49-53.494 37.52-12.631 6.687-30.091 24.89-44.95 28.976.743 0 .743 10.4.743 17.46-.001 1.482 5.572-1.118 10.029-3.719zm58.7 1.114c-15.6 1.857-21.175-7.8-30.091-15.231 10.4-6.315 38.635-27.862 47.179-35.663 13.373-2.972 15.231-16.717 28.233-20.06.372-2.229 2.972-2.6 3.343-5.2 2.972-.743 3.343 1.486 3.715 3.715-3.343.371-4.086 2.972-3.715 7.058-4.458 1.857-5.944 14.488-10.773 16.346-1.114 8.916-17.831 30.091-23.4 34.92-2.979 6.687-7.437 11.514-14.498 14.115zm285.675-30.091c-3.715 0-10.773 3.715-14.117 4.829-3.344 1.486-10.773 5.2-14.117 7.8-15.6 11.516-44.95 23.775-64.639 24.89h-3.715c-5.2-1.486-14.117-3.715-19.689-8.544 8.544-2.972 13-9.659 21.546-12.631 2.229-4.829 7.43-6.315 10.773-10.4s7.058-11.888 12.259-14.488c1.115-13 14.86-28.976 14.86-43.464 2.972-3.343 2.229-9.659 3.715-12.259.743-1.486 1.486-.743 1.486-3.715.372-7.058 0-11.888-5.2-15.974-12.259-.372-17.46 6.315-30.462 5.2-7.058 7.43-16.717 11.888-26.747 16.346-5.2 8.544-15.231 13-19.318 23.032-5.2 1.857-7.058 7.43-8.916 12.631-4.458 1.857-10.4 19.689-11.516 23.4 0 1.114-1.486 1.857-1.486 1.857-2.229 8.544 0 17.831 1.486 25.261-.743 6.687 2.229 16.717 10.773 17.831 14.117 9.659 35.663 15.231 59.067 13.745 27.862-1.857 77.27-31.205 82.842-40.121 1.111-1.852 1.111-14.483 1.111-15.226zm-72.812-62.41c1.486 0 1.486 2.229 1.857 3.343 0 7.058-4.086 12.631-7.43 17.831-6.687 10.773-21.175 36.406-32.32 45.322a77.1 77.1 0 0 1 -10.773 7.058c-2.229 1.114-8.916 4.086-14.488 3.715.371-18.946 17.088-40.121 23.775-52.38 10.03-4.458 15.974-15.6 26.747-21.546 2.969-1.486 7.798 0 12.628-3.343zm242.949-118.133c-20.06 20.06-37.52 43.093-56.838 64.268-14.488 14.117-24.147 32.691-39.378 46.065-2.6 2.229-.743 8.916-5.2 8.916-3.343 1.857-2.972 6.687-7.058 7.43a66.783 66.783 0 0 1 -8.916 17.831c-3.343 6.687-9.287 10.03-5.572 19.317 4.458 3.715 15.6 2.229 17.831-1.486 3.344-.371-2.6-8.544 1.858-10.773 7.8-10.4 14.859-20.8 23.032-30.462s18.2-18.2 23.4-30.091c5.944-.743 7.43-7.43 10.773-10.773 3.343-3.715 7.058-7.058 10.4-10.773 6.687-7.43 12.259-16.345 21.546-21.546 1.857-7.43 8.916-10.03 10.773-17.831 7.058-6.687 15.6-11.516 19.689-21.175-3.709-4.831-5.938-11.146-16.34-8.917zm-156.768 212.12c-5.572 7.43-18.575 20.8-8.916 31.948h8.916c4.086-4.829 6.315-11.516 12.63-14.117 6.315 1.114 6.687-3.715 12.259-3.715 3.716-17.088-13.001-17.83-24.889-14.116z" fill="#505096" opacity=".1" transform="translate(1.489 93)"/></svg>