<svg height="101.503" viewBox="0 0 405.769 101.503" width="405.769" xmlns="http://www.w3.org/2000/svg"><path d="m34.92-27.84c1.44-.12 2.88-.12 2.88 1.08.84.36 3-.6 2.88.6a46.388 46.388 0 0 0 21.96-4.08c1.68.24 1.92-1.08 2.88-1.68 1.8.24 2.16-.84 3.36-1.2 1.92-1.32 3.72-2.88 6.36-3.36 2.76-4.08 6.6-6.84 9.84-10.44 1.08-2.52 2.04-5.16 3.96-6.84a18.238 18.238 0 0 1 3.48-8.64c.12-6 2.52-9.84 1.8-16.8a13.582 13.582 0 0 1 -1.8-5.76c-2.16-1.44-3.36-3.84-5.16-5.76a16.858 16.858 0 0 1 -5.16-2.28h-9.24c-.84.12-.96.96-1.68 1.2a61.536 61.536 0 0 0 -19.68 12.6c-1.56.12-.96 2.52-2.88 2.4-.72.96-1.44 1.92-2.28 2.88a21.765 21.765 0 0 0 -2.88 2.88c-1.44.36-1.2 2.52-2.88 2.88-1.68 1.8-2.88 4.32-5.16 5.76 0 1.68-1.32 2.04-2.28 2.88-.84 2.76-3 4.2-4.08 6.84-1.2.72-1.32 2.52-2.28 3.48-2.76 4.56-5.88 8.76-8.04 13.8-1.56 1.44-2.04 3.48-2.88 5.16-1.44 3-2.64 5.64-4.08 8.16-1.56 2.64-3.72 5.04-4.56 8.04a5.7 5.7 0 0 0 -1.8 3.48c-.6 1.2-2.16 1.56-2.28 3.36-2.16 3.48-5.52 8.64-4.56 13.32 0 .84-.12 1.92 1.08 1.68.96 1.8 2.64-.48 4.08 0a11.665 11.665 0 0 1 2.28-3.48c.48-3.36 3.72-3.84 3.48-8.04.84-1.08 3-.84 2.88-2.88.84-.12.48-1.32.6-2.28 1.08-.12 1.92-.36 2.28-1.2.48-3.6 3.96-4.44 4.56-8.04 1.68.36 1.56-1.8 1.8-2.28.24-.72 1.92-1.8 2.28-2.28.48-.6 1.2-1.2 1.68-1.8 1.68-2.52 3.6-4.8 5.28-7.44 1.32 1.32 2.64 2.64 3.96 4.08zm-.6-6.96c-.6-2.76 2.4-1.92 2.4-4.08 1.08-.96 2.64-1.56 2.88-3.36 2.52-1.56 3.72-4.32 5.76-6.36 1.8-2.04 4.68-3.48 5.76-6.36 2.16-1.56 4.92-2.88 5.16-6.96-.24-1.32-1.8-1.2-2.28-2.28-3.24.72-4.56 3.24-6.36 5.16-3 .72-3.36 3.96-5.76 5.28-1.08 2.76-3.72 3.96-5.16 6.24-.6 1.32-1.92 2.04-2.88 2.88a10.97 10.97 0 0 1 -2.88 2.4c-.96 2.88-2.88 4.8-4.08 7.44a8.273 8.273 0 0 0 -2.88 2.88c-1.32.6-.96 2.88-2.88 2.88.72-2.16 2.52-3.24 2.28-6.36 2.4-2.16 3.48-5.28 5.16-8.04a32.362 32.362 0 0 1 5.76-6.96c1.2-4.44 3.84-7.32 6.36-10.32 4.92-8.28 13.8-12.72 19.56-20.16 2.52-.36 3.6-2.28 5.76-2.88 1.8-.96 3-2.4 5.28-2.88a2.377 2.377 0 0 1 1.68-1.68c2.52.72 3.6.24 6.36 0 1.2 1.2 3.36 1.56 5.16 2.28 1.08 1.92 4.44 5.52 4.56 8.64.12.72.96 3.36-1.08 3.48.48.96 1.56 1.44 1.08 3.36-.84 2.52-.96 5.88-2.88 7.56-1.56 8.4-6.6 13.32-10.92 18.96-3.72 2.52-7.2 5.52-11.52 7.56-4.44 2.04-9.24 3.12-14.4 4.56-5.88-.12-12 .12-15-2.88zm93.6 10.68c-3.12 3.36-7.56 6.6-12.96 10.32-4.92 3.36-13.56 9.72-23.04 9.72-2.4 0-5.04-.36-5.04-4.2a27.945 27.945 0 0 1 1.2-6.72c2.64-.24 3.24-2.52 5.76-2.88.6-2.88 3.72-3.24 5.16-5.16a27 27 0 0 1 6.96-3.48c.12-.84.12-1.2 1.2-1.2.72-1.92 5.52-4.92 8.64-6.36 1.32-3.36 4.44-5.52 6.84-8.04 8.04-8.28 13.8-15.96 17.88-27 0-1.44 1.08-1.8 1.68-2.88 1.8-3.6 3.6-10.68 3.6-13.8 0-2.16-.72-3.6-1.2-5.28a2.343 2.343 0 0 1 -.84.12c-1.32 0-1.8-.72-3.24-.72 0 1.8-6.6 3.96-9.84 6.96-10.44 9.72-11.16 14.16-17.76 19.56-.84 3.36-4.32 7.32-5.76 8.04a13.566 13.566 0 0 1 -1.8 3.48c-5.16 7.44-10.32 15.36-15 23.04-.96 1.56-1.56 3.48-2.28 4.68-3.6 5.88-6.96 12.6-6.96 18.36 0 2.88.96 4.8 1.8 6.96a19.94 19.94 0 0 0 9.24 2.88c1.44 0 1.92-.6 5.16-.6 1.68-.36 6.12-2.4 7.2-2.4.12 0 .48.12.72.12 1.44 0 3.6-2.28 4.32-2.28.48 0 4.56-3.6 6-4.56 1.56 0 2.76-2.4 4.32-3.12 1.8-.84 7.2-7.32 7.2-7.08 0 .48 1.2-6.36.84-6.48zm11.16-60.36c.84 0 1.8.36 1.8 1.44 0 1.2-1.08 2.4-1.08 4.2a3.322 3.322 0 0 0 .12 1.08c-1.56 2.04-3.96 6.72-3.96 8.28 0 .48.12 1.2-.6.84-1.44 3.12-3.24 6-4.08 9.24-4.56 4.92-8.52 10.32-13.2 15-1.44 1.44-5.76 6.96-7.08 6.96-.12 0-.48-.12-.72-.12-3.6 1.92-13.08 12.48-17.4 12.48.96-.84 4.32-5.76 4.32-6.96 0 .48 1.44-3.12 1.44-3.12.84 0 2.64-3.36 2.64-3.84 0-.6 1.2-.36 1.2-.96 0-1.2 2.16-1.08 2.88-6.12.24-.72 1.32-.24 1.8-.6.84-.84 2.28-5.88 6.24-8.04a9.062 9.062 0 0 1 5.28-6.96c0-2.16 1.68-2.16 1.68-4.08 0-.6 4.44-4.56 5.76-6.24 2.28-2.88 6-6 8.64-9.24 1.2-1.2 2.52-3.24 4.32-3.24zm35.88 65.4c-1.2 0-3.48 1.2-4.56 1.56a28.758 28.758 0 0 0 -4.56 2.52c-5.04 3.72-14.52 7.68-20.88 8.04h-1.2c-1.68-.48-4.56-1.2-6.36-2.76 2.76-.96 4.2-3.12 6.96-4.08.72-1.56 2.4-2.04 3.48-3.36s2.28-3.84 3.96-4.68c.36-4.2 4.8-9.36 4.8-14.04.96-1.08.72-3.12 1.2-3.96.24-.48.48-.24.48-1.2.12-2.28 0-3.84-1.68-5.16-3.96-.12-5.64 2.04-9.84 1.68-2.28 2.4-5.4 3.84-8.64 5.28-1.68 2.76-4.92 4.2-6.24 7.44-1.68.6-2.28 2.4-2.88 4.08-1.44.6-3.36 6.36-3.72 7.56 0 .36-.48.6-.48.6-.72 2.76 0 5.76.48 8.16-.24 2.16.72 5.4 3.48 5.76 4.56 3.12 11.52 4.92 19.08 4.44 9-.6 24.96-10.08 26.76-12.96.36-.6.36-4.68.36-4.92zm-23.52-20.16c.48 0 .48.72.6 1.08 0 2.28-1.32 4.08-2.4 5.76-2.16 3.48-6.84 11.76-10.44 14.64a24.908 24.908 0 0 1 -3.48 2.28 10.536 10.536 0 0 1 -4.68 1.2c.12-6.12 5.52-12.96 7.68-16.92 3.24-1.44 5.16-5.04 8.64-6.96.96-.48 2.52 0 4.08-1.08zm94.2 14.88c-2.76 1.56-4.8 3.24-7.2 4.56a16.31 16.31 0 0 0 -4.8 3.48c-3.48 1.56-6.84 3-10.32 4.56-1.8.84-3.96 1.44-5.76 2.28-1.8.96-3.24.48-5.16 1.08-1.08.24-2.52 0-3.48.48-.36-1.08-3.48.36-2.88-1.68-.84-2.28 1.44-2.64 2.28-3.48 1.08-1.08 1.92-2.28 3.48-2.88 1.08-1.68 2.16-3.6 3.96-4.56.12-3.24 3.24-3.36 2.88-6.96-.84-.96-.84-2.88-2.28-3.48-6.72-.6-6.84 5.4-11.52 6.96 0 2.4-1.68 3.24-2.88 4.56-.24 2.64-1.8 3.96-2.28 6.36-1.8-.24-1.56 1.56-2.88 1.68-.72.72-2.04.72-3.48.6.12 1.8-2.4 1.8-3.48 2.4-.6.36-.96.72-1.68 1.08-.72.48-1.68.12-1.68 1.2-3.24.12-6.36 3.12-9.84 1.08.36-4.32 2.52-6.6 3.48-10.32 1.68-.24 1.8-2.04 2.88-2.88s1.44-2.4 2.88-2.88a66.292 66.292 0 0 0 5.16-6.36c3.84-1.32 6-4.44 9.24-6.36 1.92-.36 2.88-1.92 4.56-2.88 1.8-.84 4.08-1.08 5.76-2.28 3.72.6 5.76-2.04 8.64-.6-.12 2.64-3.84 3.96-1.68 6.96.84-.12 2.16.24 2.28-.6 0-.84 1.44-.48 1.2-1.68 1.68-.48 2.4-1.8 3.36-2.88 1.44-4.8-.36-9-4.56-9.84-5.16.72-8.52 3.36-13.8 4.08-1.2 2.04-4.08 2.4-6.36 3.48-1.92 1.08-2.76 3.24-5.76 3.36-1.2 2.04-3.12 3.36-5.16 4.68-3.12 3.36-6.96 6.12-9.84 9.72-1.68 1.8-2.76 4.2-4.56 5.76a14.166 14.166 0 0 1 -2.88 6.36c-1.32 5.16.12 9 2.88 11.52a3.124 3.124 0 0 1 2.88.6 23.522 23.522 0 0 0 7.44-1.68c1.8-1.2 4.92-1.8 5.76-2.4a28.552 28.552 0 0 1 5.76-2.88c1.32-.24 1.8-1.92 3.48-1.68 1.56-.24.6 2.16 1.68 2.28.12 1.44 2.28.84 2.4 2.28.96.36 3.36-.6 3.36.6 3.96-.72 6.84-.48 11.04-.96 1.68-2.4 5.4-1.8 7.44-3.84 1.44.12 1.68-.48 2.88-1.2 1.08-.6 2.4-.6 3.48-1.08 2.04-1.08 3.6-2.64 5.64-3.72s1.56-1.92 3.6-2.88c1.92-.96 4.2-3.96 6.24-5.04-.36.12-1.8-4.08-1.8-4.08zm-12.84 14.64c.12-1.08 1.92-.36 2.28-1.2 1.08-.24 1.08-1.56 2.88-1.08a6.949 6.949 0 0 0 0 4.92 14.73 14.73 0 0 1 5.76 4.08c2.52.12 4.68 1.56 6.96 1.68 7.2.72 14.28-2.64 20.76-3.36 2.28-1.44 6.48-2.4 8.04-2.76 1.8-.48 2.16-.84 3.48-1.2a38.821 38.821 0 0 0 3.96-1.56 5.309 5.309 0 0 0 1.8-.6c1.56-.84 2.4-2.16 4.32-3a6.939 6.939 0 0 1 1.68-.6c.36 0 1.44-.96 1.8-1.08 1.2-.48 3-2.52 4.32-3 .84.72.36-2.4.36-4.92a189.588 189.588 0 0 1 -17.16 8.4c-5.04 1.32-10.44 2.76-15.48 3.96-2.4-.84-4.44 1.68-5.76 0 .48-2.52 2.4-3.72 3.96-5.16.6-2.28 6-12.24 7.08-13.2.24-.12-.12-.84 0-1.08a73.24 73.24 0 0 0 4.08-6.48c.72-1.44 2.28-3.12 1.68-5.16a23.913 23.913 0 0 1 -2.28-2.88c-3.24.36-5.64 2.52-8.04 3.96-2.76 1.68-5.28 3.72-8.16 5.4-5.4 2.76-12.24 8.88-17.28 12.12-4.08 2.16-9.72 8.04-14.52 9.36.24 0 .24 3.36.24 5.64 0 .48 1.8-.36 3.24-1.2zm18.96.36c-5.04.6-6.84-2.52-9.72-4.92a163.488 163.488 0 0 0 15.24-11.52c4.32-.96 4.92-5.4 9.12-6.48.12-.72.96-.84 1.08-1.68.96-.24 1.08.48 1.2 1.2-1.08.12-1.32.96-1.2 2.28-1.44.6-1.92 4.68-3.48 5.28-.36 2.88-5.76 9.72-7.56 11.28a7.975 7.975 0 0 1 -4.68 4.56zm92.28-9.72c-1.2 0-3.48 1.2-4.56 1.56a28.756 28.756 0 0 0 -4.56 2.52c-5.04 3.72-14.52 7.68-20.88 8.04h-1.2c-1.68-.48-4.56-1.2-6.36-2.76 2.76-.96 4.2-3.12 6.96-4.08.72-1.56 2.4-2.04 3.48-3.36s2.28-3.84 3.96-4.68c.36-4.2 4.8-9.36 4.8-14.04.96-1.08.72-3.12 1.2-3.96.24-.48.48-.24.48-1.2.12-2.28 0-3.84-1.68-5.16-3.96-.12-5.64 2.04-9.84 1.68-2.28 2.4-5.4 3.84-8.64 5.28-1.68 2.76-4.92 4.2-6.24 7.44-1.68.6-2.28 2.4-2.88 4.08-1.44.6-3.36 6.36-3.72 7.56 0 .36-.48.6-.48.6-.72 2.76 0 5.76.48 8.16-.24 2.16.72 5.4 3.48 5.76 4.56 3.12 11.52 4.92 19.08 4.44 9-.6 24.96-10.08 26.76-12.96.36-.6.36-4.68.36-4.92zm-23.52-20.16c.48 0 .48.72.6 1.08 0 2.28-1.32 4.08-2.4 5.76-2.16 3.48-6.84 11.76-10.44 14.64a24.907 24.907 0 0 1 -3.48 2.28 10.535 10.535 0 0 1 -4.68 1.2c.12-6.12 5.52-12.96 7.68-16.92 3.24-1.44 5.16-5.04 8.64-6.96.96-.48 2.52 0 4.08-1.08zm78.48-38.16c-6.48 6.48-12.12 13.92-18.36 20.76-4.68 4.56-7.8 10.56-12.72 14.88-.84.72-.24 2.88-1.68 2.88-1.08.6-.96 2.16-2.28 2.4a21.573 21.573 0 0 1 -2.88 5.76c-1.08 2.16-3 3.24-1.8 6.24 1.44 1.2 5.04.72 5.76-.48 1.08-.12-.84-2.76.6-3.48 2.52-3.36 4.8-6.72 7.44-9.84s5.88-5.88 7.56-9.72c1.92-.24 2.4-2.4 3.48-3.48 1.08-1.2 2.28-2.28 3.36-3.48 2.16-2.4 3.96-5.28 6.96-6.96.6-2.4 2.88-3.24 3.48-5.76 2.28-2.16 5.04-3.72 6.36-6.84-1.2-1.56-1.92-3.6-5.28-2.88zm-50.64 68.52c-1.8 2.4-6 6.72-2.88 10.32h2.88c1.32-1.56 2.04-3.72 4.08-4.56 2.04.36 2.16-1.2 3.96-1.2 1.2-5.52-4.2-5.76-8.04-4.56z" fill="#505096" transform="translate(1.489 93)"/></svg>