<svg height="96.375" viewBox="0 0 366.826 96.375" width="366.826" xmlns="http://www.w3.org/2000/svg"><path d="m-104.7-17.52c-2.76.6-4.92 2.28-7.44 3.48s-5.16 2.04-7.56 3.48a48.431 48.431 0 0 0 -10.92 2.88h-8.64c-.72-1.2-3.24-.6-3.48-2.28-1.92-.24-2.52-1.68-3.96-2.4-.96-3-4.08-6.24-4.08-10.32a23.451 23.451 0 0 1 1.2-5.16c.24-.48 1.08-.48 1.08-1.2.12-.72 1.68-1.2 1.8-1.68 4.92-1.32 9.48 0 13.8-.6 7.32-.84 12.72-4.92 18.36-6.84 1.2-1.92 3.12-3.12 4.68-4.68a54.5 54.5 0 0 1 4.56-4.56c1.08-2.88 3.6-5.52 5.16-9.24a51.758 51.758 0 0 0 1.8-5.16 43.082 43.082 0 0 0 1.68-5.76 24.8 24.8 0 0 0 -3.48-16.2 15.653 15.653 0 0 0 -8.04-2.88c-1.2.48-1.92 1.56-3.96 1.2-3.12 2.4-6.72 4.08-9.84 6.36a72.5 72.5 0 0 0 -8.64 7.44 29.537 29.537 0 0 0 -5.76 5.16c-3.84 3.36-6.48 7.68-10.32 10.92-1.2 2.52-3.6 3.84-5.28 5.88-.24.36-.24 1.32-.48 1.68a1.446 1.446 0 0 0 -.6.6 9.277 9.277 0 0 0 -2.88 4.56c-2.16.72-2.4 2.28-3.48 3.48a31.759 31.759 0 0 1 -3.48 3.48c-1.44 3.12-4.32 4.92-5.76 8.04-2.88 2.04-4.68 5.28-8.04 6.84-.96 2.28-2.52 3.84-4.08 5.88a7.749 7.749 0 0 0 -1.08 2.28c-.12.12-1.08.36-1.2.48-.48.84-.84 2.04-1.08 2.4a9.976 9.976 0 0 0 -1.8 2.28c-.72 1.2-1.08 2.04-1.68 2.88-1.92 2.52-4.08 5.4-2.88 9.24 3.12.96 5.64-.96 7.44-2.88.24-.24-.12-.96 0-1.2.36-.72 1.92-1.8 2.28-2.28a16.386 16.386 0 0 0 2.4-4.08c2.28-1.56 3.12-4.44 5.16-6.36 1.56-2.4 4.32-3.6 4.56-7.44 2.28-.6 2.52-3.24 4.68-3.96.72-.84.36-2.76 1.08-3.48 3.84-3.96 8.88-7.92 12.12-11.52.36-.48.12-1.32.6-1.8.36-.36 1.32-.12 1.68-.6 1.68-1.68 2.64-3.84 4.08-5.64 1.68-1.92 4.8-2.52 5.76-5.28.48-2.16-2.52-.96-1.8-3.48.84-.48.84-1.92 1.8-2.28 1.44.24.48-2.16 2.28-1.68 3.6-4.56 8.28-7.8 12.12-12.12a23.9 23.9 0 0 0 3.96-2.88c2.4-.96 3.96-2.88 6.36-3.96a30.135 30.135 0 0 1 8.04-2.4c-.12 1.08.72 1.2 1.2 1.8 2.28 2.76 3.36 6.12 2.88 10.92-1.2 3-2.4 6-3.48 9.24-1.56 2.52-3.48 4.92-4.56 8.04-1.8.36-1.56 2.76-3.48 2.88-.96 1.08-1.32 2.88-2.88 3.48a25.462 25.462 0 0 0 -5.16 3.36c-2.88.36-4.44 2.16-6.96 3a51.055 51.055 0 0 1 -14.4 1.08c-3.72-.36-5.4 1.32-8.04 1.2-.12 1.08-1.68 1.44-2.28 2.28-.48.6-.24 1.08-.6 1.68-.24.6-.96.84-1.2 1.2-.36.96-.12 2.76-.48 3.96-.12.24-1.08.96-1.2 1.2-1.56 4.92 2.64 7.68 2.28 11.52 3.72 4.92 7.8 10.92 15 12.12 2.64.36 5.04-.84 8.04 0 7.68-1.8 15.12-3.84 21.36-6.96-.24.24 7.08-3.96 6.84-4.08s-.6-6.12-1.68-4.56zm46.44-1.56c-1.2 0-3.48 1.2-4.56 1.56a28.757 28.757 0 0 0 -4.56 2.52c-5.04 3.72-14.52 7.68-20.88 8.04h-1.2c-1.68-.48-4.56-1.2-6.36-2.76 2.76-.96 4.2-3.12 6.96-4.08.72-1.56 2.4-2.04 3.48-3.36s2.28-3.84 3.96-4.68c.36-4.2 4.8-9.36 4.8-14.04.96-1.08.72-3.12 1.2-3.96.24-.48.48-.24.48-1.2.12-2.28 0-3.84-1.68-5.16-3.96-.12-5.64 2.04-9.84 1.68-2.28 2.4-5.4 3.84-8.64 5.28-1.68 2.76-4.92 4.2-6.24 7.44-1.68.6-2.28 2.4-2.88 4.08-1.44.6-3.36 6.36-3.72 7.56 0 .36-.48.6-.48.6-.72 2.76 0 5.76.48 8.16-.24 2.16.72 5.4 3.48 5.76 4.56 3.12 11.52 4.92 19.08 4.44 9-.6 24.96-10.08 26.76-12.96.36-.6.36-4.68.36-4.92zm-23.52-20.16c.48 0 .48.72.6 1.08 0 2.28-1.32 4.08-2.4 5.76-2.16 3.48-6.84 11.76-10.44 14.64a24.909 24.909 0 0 1 -3.48 2.28 10.536 10.536 0 0 1 -4.68 1.2c.12-6.12 5.52-12.96 7.68-16.92 3.24-1.44 5.16-5.04 8.64-6.96.96-.48 2.52 0 4.08-1.08zm88.56 20.4c.12-.48 2.04-1.2 3.12-1.2 1.8-.12 3.12-2.4 2.52-8.04-3.48.12-5.28 2.04-7.56 3.24-.84.36-2.52 1.8-3.48 2.16a17.266 17.266 0 0 1 -3 2.64c-2.04 1.44-1.8 1.2-4.32 2.16-5.16 3.72-7.08 3.24-13.32 5.88-1.32.36-1.32.96-2.88 1.08-.96.84-2.88 0-4.08.48-1.32-.12-2.52 2.76-3.48 1.2 1.2-.72.6-3.24 2.28-3.48a19.237 19.237 0 0 0 2.4-4.08c1.92-2.04 6.12-8.04 6.96-11.28 1.56-.36 1.2-2.64 2.88-2.88-.12-2.28 2.52-1.8 2.28-4.08a6.811 6.811 0 0 0 2.88-8.64c-2.88-1.56-7.8.84-9.84 1.8-2.64 2.4-7.08 3.84-9.84 5.76-.6.36-1.2 1.32-1.8 1.68a28.365 28.365 0 0 1 -4.56 2.88c-1.08.6-1.56 1.56-2.88 1.2-.6 1.44-2.28 1.92-2.88 3.48-1.56-.48-.84 1.08-1.92 1.08-.84-.24-1.44 2.28-1.8.6h.6c0-.6.84-.84 0-1.2 1.44-2.4 3.48-12.96 1.44-14.88-2.88-.48-4.2-.72-5.04 1.32-.6 1.44-2.76 11.52-3.24 13.56-1.44 4.08-6.36 10.8-8.16 14.28-1.08 1.56-1.92 3.48-3.48 4.56-.96 1.8-2.52 2.88-2.28 5.76 1.56 2.16 2.28.24 5.28.6 1.32-.84 2.28-2.04 3.48-2.88 1.8-.36 1.56-2.76 3.48-2.88 2.52-1.8 3.36-4.92 6-6.6.72-1.32 2.52-2.52 3.6-3.6 3.6-3.24 14.04-11.04 18.84-12.72-1.44 2.64-5.16 9.72-6.36 11.4a5.689 5.689 0 0 1 -1.2 1.2c-.12.12.12.96 0 1.08-.48.72-1.32 1.2-1.68 1.8a19.741 19.741 0 0 0 -1.2 2.28c-.24.48-.96.24-1.08.6-.48.72 0 1.2-.6 1.68-.24.12.12.96 0 1.2a12.5 12.5 0 0 0 -1.8 6.84c2.64 2.76 7.08 1.32 10.44 1.2 4.68-2.88 10.2-3.24 14.64-6.36 2.16-1.68 3.24-1.2 5.28-3 3.24-1.44 3.72-2.4 5.76-3.12a49.661 49.661 0 0 0 9.6-5.76zm42.96 4.68c-1.68.24-3.84-.12-4.44 1.2a35.172 35.172 0 0 0 -3.48.6c-1.08.48-1.8 1.32-2.76 1.8-.12 0-3.24 1.56-3.36 1.68-1.92 1.68-4.8 2.16-6.6 2.64-4.2.6-9.48 2.4-13.32.6-.12-.12 0-.48-.48-.6-1.32-.36-2.16-1.32-3.48-2.28-2.04-4.44-.12-8.16.6-12.72 1.44-.84 1.44-2.76 2.28-3.96.72-1.2 2.4-1.92 2.28-3.48 3.12-1.92 2.88-5.4 5.76-7.44 1.32-3.6 4.44-5.28 5.76-8.64.84-.36 3 .6 2.88-.6 2.04-2.4 4.92.24 6.36 0a14.847 14.847 0 0 0 3.48-1.2 4.1 4.1 0 0 0 3.36 0c3.96-1.2 4.2.72 8.16-1.08a16.632 16.632 0 0 0 5.76.48c3.24-1.2 5.52-.24 8.04-1.68 3.72.36 5.88-.72 9.24-.6-.12.12 2.4-.24 5.4-.48 1.44-1.8-.6-2.76-2.04-3.48-13.32 1.08-27.48 1.68-40.8 2.88-1.2-.36-3.84.6-4.08-.6 1.92-6.6 6.96-9.96 9.84-15.6-1.32-1.08.6-5.16-1.8-5.16-3.96-.48-3.72 3.12-5.76 4.56-2.16 3.12-3.96 6.36-6.36 9.24-1.2 1.68-3.72 3.6-4.56 4.68-.36.48-.24 1.2-.6 1.68a4.107 4.107 0 0 1 -2.28 1.68c-5.76.6-11.28 1.44-17.28 1.8-.84 1.2-3.48.72-4.56 1.68-1.08 1.08-4.32 0-4.08 2.28 1.2 3.96 6.12 2.16 9.84 1.8 2.64-.36 5.52-.96 6.84-1.2 1.8-.24 3.84-.36 4.68.6-3.36 4.08-5.28 9.72-8.16 14.4-1.68 1.56-2.52 6.84-3.96 9.84-.84 3.12-1.68 6.12-1.2 9.12.6 4.08 3.72 6.24 5.16 8.64 1.56.48 3.36.6 4.08 1.8 3.48.12 7.8-.48 10.32.6a10.029 10.029 0 0 1 3.48-1.2c2.52-.6.6.24 2.4-.24 1.08-.24 3.24-.96 3.96-1.2 1.44-.36 1.56-.84 2.28-1.08a11.392 11.392 0 0 1 2.52-1.08c1.92-.6 3.96-2.4 5.16-3 1.92-.96 3.24-2.52 6.12-3.84-1.08-1.32 1.2-2.4-.6-3.84zm68.16-10.2c-2.76 1.56-4.8 3.24-7.2 4.56a16.31 16.31 0 0 0 -4.8 3.48c-3.48 1.56-6.84 3-10.32 4.56-1.8.84-3.96 1.44-5.76 2.28-1.8.96-3.24.48-5.16 1.08-1.08.24-2.52 0-3.48.48-.36-1.08-3.48.36-2.88-1.68-.84-2.28 1.44-2.64 2.28-3.48 1.08-1.08 1.92-2.28 3.48-2.88 1.08-1.68 2.16-3.6 3.96-4.56.12-3.24 3.24-3.36 2.88-6.96-.84-.96-.84-2.88-2.28-3.48-6.72-.6-6.84 5.4-11.52 6.96 0 2.4-1.68 3.24-2.88 4.56-.24 2.64-1.8 3.96-2.28 6.36-1.8-.24-1.56 1.56-2.88 1.68-.72.72-2.04.72-3.48.6.12 1.8-2.4 1.8-3.48 2.4-.6.36-.96.72-1.68 1.08-.72.48-1.68.12-1.68 1.2-3.24.12-6.36 3.12-9.84 1.08.36-4.32 2.52-6.6 3.48-10.32 1.68-.24 1.8-2.04 2.88-2.88s1.44-2.4 2.88-2.88a66.293 66.293 0 0 0 5.16-6.36c3.84-1.32 6-4.44 9.24-6.36 1.92-.36 2.88-1.92 4.56-2.88 1.8-.84 4.08-1.08 5.76-2.28 3.72.6 5.76-2.04 8.64-.6-.12 2.64-3.84 3.96-1.68 6.96.84-.12 2.16.24 2.28-.6 0-.84 1.44-.48 1.2-1.68 1.68-.48 2.4-1.8 3.36-2.88 1.44-4.8-.36-9-4.56-9.84-5.16.72-8.52 3.36-13.8 4.08-1.2 2.04-4.08 2.4-6.36 3.48-1.92 1.08-2.76 3.24-5.76 3.36-1.2 2.04-3.12 3.36-5.16 4.68-3.12 3.36-6.96 6.12-9.84 9.72-1.68 1.8-2.76 4.2-4.56 5.76a14.166 14.166 0 0 1 -2.88 6.36c-1.32 5.16.12 9 2.88 11.52a3.124 3.124 0 0 1 2.88.6 23.522 23.522 0 0 0 7.44-1.68c1.8-1.2 4.92-1.8 5.76-2.4a28.552 28.552 0 0 1 5.76-2.88c1.32-.24 1.8-1.92 3.48-1.68 1.56-.24.6 2.16 1.68 2.28.12 1.44 2.28.84 2.4 2.28.96.36 3.36-.6 3.36.6 3.96-.72 6.84-.48 11.04-.96 1.68-2.4 5.4-1.8 7.44-3.84 1.44.12 1.68-.48 2.88-1.2 1.08-.6 2.4-.6 3.48-1.08 2.04-1.08 3.6-2.64 5.64-3.72s1.56-1.92 3.6-2.88c1.92-.96 4.2-3.96 6.24-5.04-.36.12-1.8-4.08-1.8-4.08zm40.2.24c-3.12 3.36-7.56 6.6-12.96 10.32-4.92 3.36-13.56 9.72-23.04 9.72-2.4 0-5.04-.36-5.04-4.2a27.945 27.945 0 0 1 1.2-6.72c2.64-.24 3.24-2.52 5.76-2.88.6-2.88 3.72-3.24 5.16-5.16a27 27 0 0 1 6.96-3.48c.12-.84.12-1.2 1.2-1.2.72-1.92 5.52-4.92 8.64-6.36 1.32-3.36 4.44-5.52 6.84-8.04 8.04-8.28 13.8-15.96 17.88-27 0-1.44 1.08-1.8 1.68-2.88 1.8-3.6 3.6-10.68 3.6-13.8 0-2.16-.72-3.6-1.2-5.28a2.343 2.343 0 0 1 -.84.12c-1.32 0-1.8-.72-3.24-.72 0 1.8-6.6 3.96-9.84 6.96-10.44 9.72-11.16 14.16-17.76 19.56-.84 3.36-4.32 7.32-5.76 8.04a13.566 13.566 0 0 1 -1.8 3.48c-5.16 7.44-10.32 15.36-15 23.04-.96 1.56-1.56 3.48-2.28 4.68-3.6 5.88-6.96 12.6-6.96 18.36 0 2.88.96 4.8 1.8 6.96a19.94 19.94 0 0 0 9.24 2.88c1.44 0 1.92-.6 5.16-.6 1.68-.36 6.12-2.4 7.2-2.4.12 0 .48.12.72.12 1.44 0 3.6-2.28 4.32-2.28.48 0 4.56-3.6 6-4.56 1.56 0 2.76-2.4 4.32-3.12 1.8-.84 7.2-7.32 7.2-7.08 0 .48 1.2-6.36.84-6.48zm11.16-60.36c.84 0 1.8.36 1.8 1.44 0 1.2-1.08 2.4-1.08 4.2a3.322 3.322 0 0 0 .12 1.08c-1.56 2.04-3.96 6.72-3.96 8.28 0 .48.12 1.2-.6.84-1.44 3.12-3.24 6-4.08 9.24-4.56 4.92-8.52 10.32-13.2 15-1.44 1.44-5.76 6.96-7.08 6.96-.12 0-.48-.12-.72-.12-3.6 1.92-13.08 12.48-17.4 12.48.96-.84 4.32-5.76 4.32-6.96 0 .48 1.44-3.12 1.44-3.12.84 0 2.64-3.36 2.64-3.84 0-.6 1.2-.36 1.2-.96 0-1.2 2.16-1.08 2.88-6.12.24-.72 1.32-.24 1.8-.6.84-.84 2.28-5.88 6.24-8.04a9.062 9.062 0 0 1 5.28-6.96c0-2.16 1.68-2.16 1.68-4.08 0-.6 4.44-4.56 5.76-6.24 2.28-2.88 6-6 8.64-9.24 1.2-1.2 2.52-3.24 4.32-3.24z" fill="#505096" opacity=".8" transform="translate(190.846 91.68)"/></svg>