<svg xmlns="http://www.w3.org/2000/svg" width="110.391" height="450.813" viewBox="0 0 110.391 450.813">
  <g id="レイヤー_2" data-name="レイヤー 2" transform="translate(0 0.01)">
    <g id="レイヤー_1" data-name="レイヤー 1" transform="translate(0 -0.01)">
      <path id="パス_1" data-name="パス 1" d="M32.294,1.572l1.35,2.64v.343h.443l.222-.524h0V2.418A2.459,2.459,0,0,0,33.745.947,1.854,1.854,0,0,0,32.637.2a1.008,1.008,0,0,0-.927.463h0l.121.625Z" transform="translate(32.191 0.221)" fill="#fff"/>
      <path id="パス_2" data-name="パス 2" d="M30.666,13.284a4.574,4.574,0,0,0,1.612,1.088,8.242,8.242,0,0,0,1.894.524h.685a9.935,9.935,0,0,0,1.108,0,8.746,8.746,0,0,0,1.632-.383,9.068,9.068,0,0,0,1.491-.665h.1v-.564h-.2l-2.418-.121-2.4-.121a3.748,3.748,0,0,1-2.015-.725,1.894,1.894,0,0,1-.6-.786,3.083,3.083,0,0,1-.222-.947,10.661,10.661,0,0,1,.141-1.814,13.984,13.984,0,0,1,.4-1.713,5.421,5.421,0,0,1,.766-1.572h0l-.222-.705h-.725a8.624,8.624,0,0,0-.887,1.632c-.222.564-.443,1.128-.625,1.713a8.06,8.06,0,0,0-.322,1.854A8.847,8.847,0,0,0,30,11.632,3.486,3.486,0,0,0,30.666,13.284Z" transform="translate(30.313 4.872)" fill="#fff"/>
      <path id="パス_3" data-name="パス 3" d="M36.205,2.186l.161.181.141-.181a2.015,2.015,0,0,0,.423-1.128V.514l-.544-.5h0a.806.806,0,0,0-.887.4h0A3.264,3.264,0,0,0,36.205,2.186Z" transform="translate(36.038 0.01)" fill="#fff"/>
      <path id="パス_4" data-name="パス 4" d="M35.4,2.064h0a.584.584,0,0,0,.524-.665L35.518.25h-.2c-.524,0-.725.121-.826.322h0l.181,1.008Z" transform="translate(35.013 0.274)" fill="#fff"/>
      <path id="パス_5" data-name="パス 5" d="M37.906,15.13l-.645.161v.2c.121.484.222.987.343,1.491a6.67,6.67,0,0,1,.181,1.552v.1h0l-2.015,1.31a15.013,15.013,0,0,0-1.914,1.511,6.912,6.912,0,0,0-1.491,2.015v.947l.363-.5a8.06,8.06,0,0,1,1.552-1.552c.584-.443,1.189-.846,1.814-1.229l1.814-1.048v5.038a15.014,15.014,0,0,1-.222,3.164,7.275,7.275,0,0,1-.846,2.7h-.161a15.739,15.739,0,0,0-1.673,0,12.958,12.958,0,0,0-1.612.222,4.474,4.474,0,0,0-1.491.564h-.1v.746l1.048.343h3.184a2.882,2.882,0,0,0,1.39-.544l1.491.322c.5.121,1.008.282,1.491.443a5.723,5.723,0,0,1,1.31.665v.181l.766-.121V33.67a1.713,1.713,0,0,0-.5-1.471h0a5.119,5.119,0,0,0-1.753-.665l-1.552-.3a11.2,11.2,0,0,0,.463-1.471,12.271,12.271,0,0,0,.262-1.814,7.372,7.372,0,0,1,.161-1.874,10.346,10.346,0,0,0,0-2.237,13.63,13.63,0,0,0-.121-2.237c-.121-.746-.121-1.532-.222-2.2h0A2.438,2.438,0,0,0,40.3,18.233h0l-.04-1.128L40,16.984h-.383v.161a1.27,1.27,0,0,1-.544.806,9.129,9.129,0,0,0-.262-1.33,3.426,3.426,0,0,0-.746-1.411Z" transform="translate(32.282 15.379)" fill="#fff"/>
      <path id="パス_6" data-name="パス 6" d="M28.653,34.928a16.121,16.121,0,0,0,.524,2.781v.343h.564V33.215c0-2.015.141-4.03.242-5.925s.282-4.03.544-5.884a26.3,26.3,0,0,1,1.229-5.481h.161l-.161-.705-.665.262h0A13.985,13.985,0,0,0,29.4,19.855c-.3,1.511-.564,3.063-.766,4.595a44.716,44.716,0,0,0-.363,4.7,19.859,19.859,0,0,0,.141,2.922C28.552,32.974,28.552,34.082,28.653,34.928Z" transform="translate(28.699 15.471)" fill="#fff"/>
      <path id="パス_7" data-name="パス 7" d="M28.958,51.091h0c.242-.645.5-1.31.786-2.015a10.861,10.861,0,0,1,.967-1.773,20.352,20.352,0,0,1,1.249-1.693,5.682,5.682,0,0,1,.766-.786,2.156,2.156,0,0,1,.867-.363h.746a4.212,4.212,0,0,1,1.108,1.209c.3.5.584,1.008.907,1.491a13.7,13.7,0,0,0,1.088,1.552,4.514,4.514,0,0,0,1.411,1.229,5.683,5.683,0,0,0,1.733.584,6.428,6.428,0,0,0,2.257-.222c.685-.222,1.35-.443,2.015-.705a14.686,14.686,0,0,0,1.874-.927h0V48.23H46.49l-1.532.443a12.09,12.09,0,0,1-1.532.383l-1.491.282a6.61,6.61,0,0,1-1.128,0,5.582,5.582,0,0,1-1.008-.2,4.917,4.917,0,0,1-1.552-1.229,11.1,11.1,0,0,1-1.189-1.673c-.343-.584-.705-1.169-1.108-1.733a2.922,2.922,0,0,0-1.632-1.128h0l-1.31.141h0A5.642,5.642,0,0,0,31.8,44.3a2.8,2.8,0,0,0-.423.423c.564-1.511,1.169-3,1.773-4.474s1.491-3.466,2.277-5.179a55.492,55.492,0,0,1,2.6-4.977V29.65l-.625.181h0A47.878,47.878,0,0,0,33.573,36.4c-1.088,2.3-2.015,4.635-3.023,6.932s-1.834,4.7-2.7,7.134v.1l.544.746Z" transform="translate(28.272 30.12)" fill="#fff"/>
      <path id="パス_8" data-name="パス 8" d="M49.412,51.015h0a3.889,3.889,0,0,0-1.35-.685,8.865,8.865,0,0,0-1.491-.242H44.153a19.242,19.242,0,0,0-2.418.141l-2.277.3h-.544l-.544-2.317V47a3.325,3.325,0,0,1,.3-1.129h0l-.161-.846-3.285,2.882h0v.544l2.459-1.733-.121.262a8.645,8.645,0,0,0,0,1.914,7.415,7.415,0,0,0,.383,1.693q-1.209.153-2.4.423l-2.66.484c-.887.161-1.753.343-2.559.544h-.1L29.5,50.31a.947.947,0,0,1,.1-.685,2.378,2.378,0,0,1,1.048-.544,9.089,9.089,0,0,1,1.31,0h.2v-.463h-.2a10.818,10.818,0,0,0-1.411,0A3.748,3.748,0,0,0,29.22,49h0l-.4.665h0a2.9,2.9,0,0,0,.121,1.33,6.427,6.427,0,0,0,.484,1.088l-2.9.544.121.6.463.222,2.358-.3h.5A35.648,35.648,0,0,0,32.3,57.061c.927,1.27,1.894,2.519,2.882,3.728s2.015,2.418,3.083,3.567L42,67.942l-1.048-1.552c-1.068-1.572-2.2-3.1-3.385-4.534s-2.358-2.781-3.527-4.373a53.842,53.842,0,0,1-3.2-4.454l7.194-1.249h.423l.725,1.048a7.517,7.517,0,0,0,1.652,1.411,11.2,11.2,0,0,0,1.753.927,6.67,6.67,0,0,0,2.015.484,8.706,8.706,0,0,0,1.471-.121,5.825,5.825,0,0,0,1.35-.4,4.272,4.272,0,0,0,2.015-1.673,3.305,3.305,0,0,0,.4-1.128A2.176,2.176,0,0,0,49.412,51.015Zm-.806,1.048v.322a3.325,3.325,0,0,1-.665.927,4.9,4.9,0,0,1-.967.766l-1.511.5a5.8,5.8,0,0,1-1.572,0,7.013,7.013,0,0,1-1.431-.423l-1.169-.685A7.738,7.738,0,0,1,39.457,51.7l4.151-.685h1.632a9.371,9.371,0,0,1,1.511.121,9.091,9.091,0,0,1,1.37.322Z" transform="translate(26.922 45.733)" fill="#fff"/>
      <path id="パス_9" data-name="パス 9" d="M41.984,98.132a42.318,42.318,0,0,1,4.03,1.793,43.381,43.381,0,0,1,3.849,2.237,23.579,23.579,0,0,1,3.567,2.942l.141.141H55.3l1.008-1.29v-.121a7.053,7.053,0,0,0-.524-4.03v-.141a10.076,10.076,0,0,0-4.03-2.539c-1.33-.423-2.8-.806-4.373-1.149a13.481,13.481,0,0,0-5.522.5l-.463.161.4,1.39Z" transform="translate(42.028 97.359)" fill="#fff"/>
      <path id="パス_10" data-name="パス 10" d="M24.371,113.7h.181a21.221,21.221,0,0,0,4.393,0,16.464,16.464,0,0,0,3.809-.927h0l-.181,7.819.2,1.189-.443,15.134c-.4-1.209-.826-2.4-1.249-3.527a17.653,17.653,0,0,0-2.418-4.514l-1.834-1.028-3.265,1.128L21.772,132.7v.2a13.582,13.582,0,0,0,.463,4.857c.423,1.39.887,2.781,1.39,4.151s1.008,2.72,1.552,4.151a46.545,46.545,0,0,1,2.237,4.494,9.935,9.935,0,0,0,3.426,4.03l.181.121,3.3-.685.846-1.673c.846.544,1.733,1.129,2.68,1.693a8.787,8.787,0,0,0,3.647,1.31h2.015a22.166,22.166,0,0,0,4.333-.443,36.273,36.273,0,0,0,5.884-1.814,21.521,21.521,0,0,0,5.5-3.265,13.925,13.925,0,0,0,3.023-3.527,12.616,12.616,0,0,0,1.532-4.353c.222-1.511.443-3.023.645-4.615a20.8,20.8,0,0,0-.262-3.224,19.829,19.829,0,0,0-.746-3.224l-1.35-3.768.3,4.03a14.247,14.247,0,0,1-.423,4.736c-.423,1.572-.887,3.144-1.37,4.655a14.287,14.287,0,0,1-2.015,4.03,13.945,13.945,0,0,1-4.333,3.285,47.826,47.826,0,0,1-5,2.015,24.606,24.606,0,0,1-5.26,1.149,13.581,13.581,0,0,1-3.285-.383,7.053,7.053,0,0,1-2.64-1.229l-1.632-2.539.282-6.952V121.675l-.584-8.061v-2.358l2.4-1.652a15.719,15.719,0,0,0,3.506-4.474A15.174,15.174,0,0,0,43.5,94.571a23.2,23.2,0,0,0-1.572-5.119,34.221,34.221,0,0,1-2.015-3.1,5.884,5.884,0,0,0-3-2.579h-.121l-1.612.242-.121.141A7.4,7.4,0,0,0,33.419,88c-.161,1.35-.343,2.66-.544,4.03v15.779c-1.068.464-2.176.887-3.3,1.29s-2.539.786-3.829,1.108a5.6,5.6,0,0,1-3.547-.625l-.564-1.652h-.867l-.524.907.564,2.982Zm5.743,26.358c.524,1.733,1.108,3.426,1.733,5.038l-.484,4.03h0a29.319,29.319,0,0,1-2.68-4.03c-.907-1.652-1.753-3.325-2.5-4.977A38.915,38.915,0,0,1,24.311,135a4.857,4.857,0,0,1,1.612-4.716l.665.121a11.728,11.728,0,0,1,2.136,4.474c.4,1.753.867,3.426,1.39,5.179ZM40.835,97.211c-.262,1.149-.544,2.237-.867,3.244-.625.967-1.29,2.015-2.015,2.922a8.463,8.463,0,0,1-2.015,2.015l-.4-4.8V90.138a10.983,10.983,0,0,1,.846-4.312l.463.141a9.753,9.753,0,0,1,2.64,3.587,35.73,35.73,0,0,1,1.431,4.292,10.519,10.519,0,0,1-.081,3.365Z" transform="translate(20.547 85.061)" fill="#fff"/>
      <path id="パス_11" data-name="パス 11" d="M35.959,162.757c4.836-.685,9.653-1.491,14.288-2.4a129.659,129.659,0,0,0,13.9-3.446h.1l-.161,14.811c-.3-.806-.625-1.612-.987-2.358a15.979,15.979,0,0,0-2.176-3.446,7.154,7.154,0,0,0-4.232-2.66,6.288,6.288,0,0,0-4.574,1.914,9.048,9.048,0,0,0-2.72,5.1,25.673,25.673,0,0,0,2.015,9.834c1.249,3,2.519,6.045,3.789,8.947a62.031,62.031,0,0,0,4.353,8.262l-2.257,3.2a38.63,38.63,0,0,1-3.043,2.72,15.559,15.559,0,0,1-3.285,2.015l-1.088.484,1.693.685H51.7a12.091,12.091,0,0,0,5.38-1.693,30.85,30.85,0,0,0,4.454-3.164l.181-.141v-.322h.423l.262-.665,2.136-1.39.141-.121a14.731,14.731,0,0,0,2.5-6.831c.222-2.378.443-4.756.625-7.194s.363-4.816.5-7.214V155.6h0A32.737,32.737,0,0,0,73,153.89a22.169,22.169,0,0,0,4.454-2.579,7.638,7.638,0,0,0,2.942-4.836v-.141l-1.532-3.688v-.161a17.328,17.328,0,0,0-2.741-2.237,33.114,33.114,0,0,0-3-1.693H71.486l1.673,1.673a17.07,17.07,0,0,1,2.438,2.579,10.519,10.519,0,0,1,1.39,2.539l-.685,1.814a12.333,12.333,0,0,1-3.728,2.821,44.509,44.509,0,0,1-4.292,1.753h-.141c-.181-1.532-.3-3.063-.4-4.574s-.262-3.345-.484-4.977a25.03,25.03,0,0,0-1.169-4.736,5.119,5.119,0,0,0-2.277-2.841h-.2a3.789,3.789,0,0,0-3.144.927l-.181.141v.867l2.237.3a12.091,12.091,0,0,1,1.068,4.03c.161,1.612.3,3.224.4,4.816s.2,3.164.343,4.595L64.151,153a135.324,135.324,0,0,1-13.683,3.668c-4.776,1.008-9.572,1.894-14.247,2.64a112.116,112.116,0,0,1-14.247,1.33l-5.642-.443a9.028,9.028,0,0,1-4.776-1.814l-.564-2.015-1.894.343v.383a4.292,4.292,0,0,0,.967,3.285,11.889,11.889,0,0,0,5.381,2.72,51.549,51.549,0,0,0,6.046.947,100.757,100.757,0,0,0,14.469-1.29ZM62.5,182.485v5.844a16.121,16.121,0,0,1-1.028,5.219,44.939,44.939,0,0,1-3.829-6.187c-1.229-2.378-2.459-4.877-3.627-7.4a32.747,32.747,0,0,1-2.5-7.617l.463-3.083a8.06,8.06,0,0,1,3.1-3.164l2.015.584a15.072,15.072,0,0,1,2.862,4.655,46.485,46.485,0,0,1,1.592,5.4C61.793,178.576,62.176,180.53,62.5,182.485Z" transform="translate(9.201 136.617)" fill="#fff"/>
      <path id="パス_12" data-name="パス 12" d="M58.465,192.982a12.575,12.575,0,0,0-4.514-4.192H53.81l-2.7.4,1.149,4.171a8.444,8.444,0,0,0,2.418,3.144h.181a4.293,4.293,0,0,0,1.068.161,2.66,2.66,0,0,0,2.579-2.015v-1.612Z" transform="translate(51.885 191.674)" fill="#fff"/>
      <path id="パス_13" data-name="パス 13" d="M50.049,189.27h-.161l-1.874.363-.524.887v.222c.343,1.048.685,2.015,1.048,3.2a9.954,9.954,0,0,0,1.592,3.043l.1.121,1.411.544h1.37l1.572-1.572v-2.237a12.091,12.091,0,0,0-4.534-4.574Z" transform="translate(48.21 192.161)" fill="#fff"/>
      <path id="パス_14" data-name="パス 14" d="M46.116,240.686c-.806,1.532-1.693,3.083-2.64,4.655a12.292,12.292,0,0,1-3.426,3.708,5.522,5.522,0,0,1-4.03-1.149,19.366,19.366,0,0,1-5.139-7.859c-1.008-2.982-1.894-6.045-2.64-9.068a51.328,51.328,0,0,1-1.411-9.471,52.153,52.153,0,0,1,.524-7.4,24.948,24.948,0,0,1,2.015-6.65,27.224,27.224,0,0,1,3.668-5.784,31.881,31.881,0,0,1,4.776-4.252,9.794,9.794,0,0,1,5.381-1.773,15.3,15.3,0,0,0,6.046-1.411,9.008,9.008,0,0,0,3.748-2.7l.121-.222a2.2,2.2,0,0,0-1.27-2.62h-.181a11.3,11.3,0,0,0-5.3.826c-1.552.665-3.063,1.33-4.574,2.015a11.748,11.748,0,0,1-4.816.967H32.01a23,23,0,0,1-4.675-.464,13.442,13.442,0,0,1-4.03-1.652l-1.632-2.3-1.592.584,1.128,3.506.121.2a12.353,12.353,0,0,0,4.252,2.781,21.7,21.7,0,0,0,4.776,1.249,21.971,21.971,0,0,0,3.849.222l-.463.544a35.529,35.529,0,0,0-5.763,6.65,25.794,25.794,0,0,0-3.345,7.718,40.465,40.465,0,0,0-1.249,8.484,64.808,64.808,0,0,0,.887,10.761,71.236,71.236,0,0,0,2.519,10.076,31.718,31.718,0,0,0,5,9.229,10.882,10.882,0,0,0,5.36,3.2h0a9.566,9.566,0,0,0,1.511.121,8.645,8.645,0,0,0,5.945-2.277,67.107,67.107,0,0,0,7.557-12.756c2.015-4.554,3.829-9.169,5.34-13.723s2.922-9.149,4.232-13.643v-3.2L48.675,236.031C47.809,237.562,46.983,239.154,46.116,240.686Z" transform="translate(20.385 190.963)" fill="#fff"/>
      <path id="パス_15" data-name="パス 15" d="M48.558,210.086a28.677,28.677,0,0,1-2.841-8.645,35.527,35.527,0,0,0-2.741-9.088l-.141-.3H40.82v.5a65.613,65.613,0,0,0,.544,8.524,75.767,75.767,0,0,0,1.552,8.222,23.033,23.033,0,0,0,3.3,7.537l4.353,2.7,2.438-.3-.3-.625C51.44,215.688,50.009,212.826,48.558,210.086Z" transform="translate(41.439 194.983)" fill="#fff"/>
      <path id="パス_16" data-name="パス 16" d="M6.059,233.223a2.639,2.639,0,0,1-.705-.927c-.1-.464-.161-.927-.222-1.37a11.294,11.294,0,0,1,0-1.431v-3.748a2.016,2.016,0,0,1-1.249-.383l-.141-.846c.161-.584.3-1.129.443-1.673l.363-1.713a8.4,8.4,0,0,0,.181-1.773H4.588l-2.761,2.559h-.4l-.544-.544v-.705a29.5,29.5,0,0,1,1.713-4.03c.665-1.31,1.35-2.6,2.015-3.849a20.151,20.151,0,0,1,2.62-3.587l.625-.242.3.242v.464c-.685,1.028-1.35,2.015-2.015,3.083a30.3,30.3,0,0,0-1.773,3.164c-.544,1.149-1.048,2.176-1.511,3.325h.282a4.453,4.453,0,0,1,.967-.746,1.773,1.773,0,0,1,1.128-.181l.443.544v1.129a4.748,4.748,0,0,1-.242,1.511l-.282,1.652a5.679,5.679,0,0,1-.322,1.431,1.129,1.129,0,0,1,1.008.3,3.063,3.063,0,0,1,.3,1.39v4.716h.222l2.015-6.731h0v.141a23.032,23.032,0,0,1-.343,2.942l-.423,2.982a9.733,9.733,0,0,1-.867,2.781,1.209,1.209,0,0,1-.685.121Zm.826-10.559L6.6,222.5v-.3c.967-.2,2.015-.443,2.962-.705l3-.705a5.662,5.662,0,0,0,2.66-1.411,3.606,3.606,0,0,0,.746-1.39,7.053,7.053,0,0,0,.181-1.612l-.242-1.713H15.45a4.893,4.893,0,0,1-1.028.2H13.293l-.463-.242-.141-.443a8.269,8.269,0,0,1,1.431-.363,4.554,4.554,0,0,0,1.411-.5v-.242l-1.068-2.862.2-.383.484-.161a13.025,13.025,0,0,0,1.39.524l1.411.463a4.534,4.534,0,0,1,1.35.705,1.169,1.169,0,0,1,.322,1.008l-.484.846a4.717,4.717,0,0,1-.987.665,6.046,6.046,0,0,1-1.088.423v.443a5.482,5.482,0,0,1,.161,1.27v1.29l-.6,1.773h.222a15.239,15.239,0,0,1,2.882-1.008q1.511-.383,3.023-.725a29.682,29.682,0,0,1,3.124-.524l.443.322.161.746a2.378,2.378,0,0,1-1.088.947l-4.373,1.37h0l1.29-1.068h-.463a27.828,27.828,0,0,0-4.877,1.531A26.516,26.516,0,0,1,12,222.2a28.653,28.653,0,0,1-5.119.484Zm7.779,9.33-.443-.322a8.282,8.282,0,0,0-.746-2.015,10.076,10.076,0,0,1-.766-2.015,7.214,7.214,0,0,1-.181-2.2,2.378,2.378,0,0,1,.766-1.229,2.015,2.015,0,0,1,1.612-.544l.161.4a1.794,1.794,0,0,0-1.39.846l-.242,1.068a8.3,8.3,0,0,0,.4,1.31c.161.4.322.826.524,1.249H14.6a10.679,10.679,0,0,1,.383-1.229,7.094,7.094,0,0,1,.564-1.189,4.373,4.373,0,0,1,.887-.967,11.687,11.687,0,0,1,1.511-.927l1.612-.766a4.03,4.03,0,0,1,1.713-.322l.524.625v.6a7.7,7.7,0,0,1-.806,1.753c-.343.544-.665,1.088-.967,1.652h.463l1.773-.161.544.544v.625a2.459,2.459,0,0,1-1.149.987l-1.773.544v-.141l.443-.987h-.141l-1.632.141-.524-.484v-.443a3.789,3.789,0,0,1,.625-1.229,13.371,13.371,0,0,0,.766-1.209,11.747,11.747,0,0,0,.645-1.209h-.141a15.41,15.41,0,0,1-1.773.685,3.385,3.385,0,0,0-2.257,2.338,10.074,10.074,0,0,0-.322,1.391,9.307,9.307,0,0,0-.121,1.491l.141.786a.947.947,0,0,1-.584.625Zm2.862-19.567.383-.242v-.161l-1.673-.625v.161l.443,1.169h.3Z" transform="translate(0.893 212.149)" fill="#e60012" stroke="#e60012" stroke-linecap="round" stroke-linejoin="round" stroke-width="0.2"/>
      <path id="パス_17" data-name="パス 17" d="M16.121,206H12.9A12.917,12.917,0,0,0,0,218.9v9.874a12.917,12.917,0,0,0,12.9,12.9h3.224a12.917,12.917,0,0,0,12.9-12.9V218.9A12.917,12.917,0,0,0,16.121,206Zm0,33.855H12.9a11.1,11.1,0,0,1-11.1-11.083V218.9a11.1,11.1,0,0,1,11.1-11.083h3.224A11.1,11.1,0,0,1,27.2,218.9v9.874a11.1,11.1,0,0,1-11.083,11.144Z" transform="translate(0 209.145)" fill="#e60012"/>
    </g>
  </g>
</svg>
