<svg xmlns="http://www.w3.org/2000/svg" width="45.396" height="55.799" viewBox="0 0 45.396 55.799">
  <g id="グループ_42" data-name="グループ 42" transform="translate(0 -415.145)">
    <path id="パス_16" data-name="パス 16" d="M8.982,246.916a4.129,4.129,0,0,1-1.1-1.45c-.158-.725-.252-1.45-.347-2.144a17.668,17.668,0,0,1,0-2.238V235.22a3.153,3.153,0,0,1-1.955-.6L5.357,233.3c.252-.914.473-1.765.694-2.617L6.618,228a13.147,13.147,0,0,0,.284-2.774H6.681l-4.319,4h-.63l-.851-.851v-1.1a46.152,46.152,0,0,1,2.68-6.3c1.04-2.049,2.112-4.067,3.152-6.021a31.524,31.524,0,0,1,4.1-5.612l.977-.378.473.378v.725c-1.072,1.608-2.112,3.152-3.152,4.823a47.394,47.394,0,0,0-2.774,4.949c-.851,1.8-1.639,3.4-2.364,5.2h.441a6.965,6.965,0,0,1,1.513-1.167,2.774,2.774,0,0,1,1.765-.284l.694.851V226.2A7.428,7.428,0,0,1,8,228.569l-.441,2.585a8.883,8.883,0,0,1-.5,2.238,1.765,1.765,0,0,1,1.576.473,4.792,4.792,0,0,1,.473,2.175v7.377h.347l3.152-10.529h0v.221a36.032,36.032,0,0,1-.536,4.6l-.662,4.666a15.226,15.226,0,0,1-1.356,4.35,1.891,1.891,0,0,1-1.072.189ZM10.274,230.4l-.441-.252v-.473c1.513-.315,3.152-.694,4.634-1.1l4.7-1.1a8.858,8.858,0,0,0,4.161-2.207,5.641,5.641,0,0,0,1.166-2.175,11.033,11.033,0,0,0,.284-2.522l-.378-2.68h-.725a7.656,7.656,0,0,1-1.608.315H20.3l-.725-.378-.221-.694a12.935,12.935,0,0,1,2.238-.567,7.124,7.124,0,0,0,2.207-.788v-.378l-1.671-4.477.315-.6.757-.252a20.373,20.373,0,0,0,2.175.82l2.207.725a7.094,7.094,0,0,1,2.112,1.1,1.828,1.828,0,0,1,.5,1.576l-.757,1.324a7.378,7.378,0,0,1-1.545,1.04,9.457,9.457,0,0,1-1.7.662v.694a8.575,8.575,0,0,1,.252,1.986v2.018l-.946,2.774h.347a23.841,23.841,0,0,1,4.508-1.576q2.364-.6,4.729-1.135a46.435,46.435,0,0,1,4.886-.82l.694.5.252,1.166a3.72,3.72,0,0,1-1.7,1.482l-6.841,2.144h0l2.018-1.671h-.725a43.533,43.533,0,0,0-7.629,2.4,41.479,41.479,0,0,1-7.755,2.4,44.822,44.822,0,0,1-8.007.757Zm12.169,14.6-.694-.5a12.956,12.956,0,0,0-1.166-3.152,15.763,15.763,0,0,1-1.2-3.152,11.286,11.286,0,0,1-.284-3.436,3.72,3.72,0,0,1,1.2-1.923,3.153,3.153,0,0,1,2.522-.851l.252.631a2.806,2.806,0,0,0-2.175,1.324L20.52,235.6a12.984,12.984,0,0,0,.631,2.049c.252.631.5,1.293.82,1.955h.378a16.7,16.7,0,0,1,.6-1.923,11.1,11.1,0,0,1,.883-1.86,6.841,6.841,0,0,1,1.387-1.513,18.285,18.285,0,0,1,2.364-1.45l2.522-1.2a6.305,6.305,0,0,1,2.68-.5l.82.977v.946a12.043,12.043,0,0,1-1.261,2.743c-.536.851-1.04,1.7-1.513,2.585h.725l2.774-.252.851.851v.977a3.847,3.847,0,0,1-1.8,1.545l-2.774.851v-.221l.694-1.545h-.221l-2.554.221-.82-.757v-.694a5.927,5.927,0,0,1,.977-1.923,20.917,20.917,0,0,0,1.2-1.891,18.378,18.378,0,0,0,1.009-1.891h-.221a24.1,24.1,0,0,1-2.774,1.072,5.3,5.3,0,0,0-3.531,3.657,15.76,15.76,0,0,0-.5,2.175,14.56,14.56,0,0,0-.189,2.333l.221,1.229a1.481,1.481,0,0,1-.914.977Zm4.477-30.611.6-.378v-.252l-2.617-.977v.252l.694,1.828h.473Z" transform="translate(1.894 215.516)" fill="#fff" stroke="#fff" stroke-linecap="round" stroke-linejoin="round" stroke-width="0.2"/>
    <path id="パス_17" data-name="パス 17" d="M25.22,206H20.176A20.207,20.207,0,0,0,0,226.176v15.447A20.207,20.207,0,0,0,20.176,261.8H25.22A20.207,20.207,0,0,0,45.4,241.623V226.176A20.207,20.207,0,0,0,25.22,206Zm0,52.962H20.176a17.37,17.37,0,0,1-17.37-17.339V226.176a17.37,17.37,0,0,1,17.37-17.339H25.22a17.37,17.37,0,0,1,17.339,17.339v15.447A17.37,17.37,0,0,1,25.22,259.057Z" transform="translate(0 209.145)" fill="#fff"/>
  </g>
</svg>
