<svg xmlns="http://www.w3.org/2000/svg" width="236.369" height="98.549" viewBox="0 0 236.369 98.549">
  <g id="wssロゴ_文字なし_" data-name="wssロゴ(文字なし)" transform="translate(-31.149 -245)">
    <path id="パス_48" data-name="パス 48" d="M48.342,638.5l-3.249,16.6H41.454l-.992-6.051c-.253-1.537-.467-3.249-.662-5.234h-.039c-.272,1.985-.506,3.658-.817,5.253L37.815,655.1H34.255L31.2,638.5h3.6l.856,6.479c.253,1.926.467,3.989.681,5.818h.039c.233-1.907.584-3.852.9-5.857l1.07-6.44h3.269l.992,6.576c.292,1.907.525,3.7.72,5.7h.058c.195-2,.428-3.872.7-5.818l.876-6.44h3.386Z" transform="translate(-0.041 -316.937)" fill="#fff"/>
    <path id="パス_49" data-name="パス 49" d="M151.311,672.369a9.039,9.039,0,0,1-3.58.661c-3.4,0-5.331-2.276-5.331-6.051,0-3.464,1.809-6.479,5.039-6.479,2.588,0,4.4,1.926,4.4,6.032a9.6,9.6,0,0,1-.1,1.6H145.63c.078,1.44,1.226,2.1,2.627,2.1a7.78,7.78,0,0,0,2.607-.467Zm-2.549-6.849c0-1.07-.311-2.432-1.479-2.432-1.148,0-1.6,1.42-1.654,2.432Z" transform="translate(-89.605 -334.656)" fill="#fff"/>
    <path id="パス_50" data-name="パス 50" d="M228.022,641.479a3.182,3.182,0,0,1,2.763-1.518c2.413,0,3.852,2.549,3.852,6.012,0,4.339-2.082,6.557-4.358,6.557a2.855,2.855,0,0,1-2.7-1.771h-.039l-.175,1.518H224.5c.039-.953.078-2.354.078-3.7V635h3.385v6.479Zm-.058,5.993c0,1.362.778,2.043,1.5,2.043,1.129,0,1.771-1.187,1.771-3.327,0-1.887-.584-3.191-1.771-3.191-.759,0-1.5.759-1.5,2.062Z" transform="translate(-155.731 -314.118)" fill="#fff"/>
    <path id="パス_51" data-name="パス 51" d="M318.233,641.314a5.426,5.426,0,0,0-2.627-.681c-1.3,0-1.946.7-1.946,1.518,0,.915.623,1.382,2.432,2.3,2.374,1.187,3.347,2.821,3.347,4.884,0,3.035-2.062,5.175-5.662,5.175a7.921,7.921,0,0,1-3.677-.856l.584-3.172a7.069,7.069,0,0,0,3.23.856c1.42,0,2.121-.681,2.121-1.674,0-1.012-.681-1.576-2.218-2.335-2.354-1.206-3.561-2.841-3.561-4.806,0-2.821,1.926-5.02,5.37-5.02a6.751,6.751,0,0,1,3.23.739Z" transform="translate(-224.676 -316.131)" fill="#fff"/>
    <path id="パス_52" data-name="パス 52" d="M388.943,645.951l3.347-1.051v3.269h2.257v2.724h-2.257v4.553c0,1.42.409,1.926,1.206,1.926a2.334,2.334,0,0,0,.876-.117l.019,2.919a6.619,6.619,0,0,1-2.082.272c-3.327,0-3.386-3.171-3.386-4.553v-5.02H387.6v-2.724h1.323v-2.2Z" transform="translate(-287.097 -322.092)" fill="#fff"/>
    <path id="パス_53" data-name="パス 53" d="M465.875,669.73c0,1.479.058,2.821.1,3.891h-2.918l-.156-1.5h-.058a3.471,3.471,0,0,1-3.016,1.732c-2.2,0-3.424-1.654-3.424-5.137v-7.2h3.385v6.654c0,1.634.409,2.568,1.342,2.568.7,0,1.362-.6,1.362-1.829V661.5h3.385Z" transform="translate(-342.51 -335.462)" fill="#fff"/>
    <path id="パス_54" data-name="パス 54" d="M549.24,648.42c0,1.323.039,2.724.078,3.7H546.36l-.156-1.576h-.058a3.21,3.21,0,0,1-2.841,1.809c-2.491,0-4.106-2.666-4.106-6.226,0-4.105,2-6.343,4.261-6.343a2.532,2.532,0,0,1,2.354,1.245h.058V634.8h3.385v13.62Zm-3.385-3.444c0-1.673-.876-2.16-1.459-2.16-1.226,0-1.79,1.5-1.79,3.327,0,2.082.739,3.171,1.77,3.171.642,0,1.479-.448,1.479-2.1Z" transform="translate(-409.2 -313.957)" fill="#fff"/>
    <path id="パス_55" data-name="パス 55" d="M632.332,661.7l-2.374,8.6c-1.109,3.716-2.024,5.759-3.191,7.082a5.755,5.755,0,0,1-3.016,1.79l-.837-3.23c1.4-.331,2.743-1.887,2.743-2.607a1.547,1.547,0,0,0-.136-.545L622,661.7h3.716l1.265,5.934c.156.681.311,1.459.409,2.1h.058c.117-.642.233-1.42.35-2.082l1.031-5.954Z" transform="translate(-475.89 -335.623)" fill="#fff"/>
    <path id="パス_56" data-name="パス 56" d="M712.833,641.314a5.426,5.426,0,0,0-2.627-.681c-1.3,0-1.946.7-1.946,1.518,0,.915.623,1.382,2.432,2.3,2.374,1.187,3.347,2.821,3.347,4.884,0,3.035-2.062,5.175-5.662,5.175a7.921,7.921,0,0,1-3.677-.856l.584-3.172a7.069,7.069,0,0,0,3.23.856c1.42,0,2.121-.681,2.121-1.674,0-1.012-.681-1.576-2.218-2.335-2.354-1.206-3.561-2.841-3.561-4.806,0-2.821,1.926-5.02,5.37-5.02a6.75,6.75,0,0,1,3.23.739Z" transform="translate(-542.499 -316.131)" fill="#fff"/>
    <path id="パス_57" data-name="パス 57" d="M791.545,669.876a17.428,17.428,0,0,0,.175,2.86h-3.035l-.195-1.167h-.058a3.223,3.223,0,0,1-2.782,1.4c-1.965,0-3.249-1.673-3.249-3.716,0-3.191,2.568-4.572,5.759-4.592,0-.915-.37-1.6-1.732-1.6a4.86,4.86,0,0,0-2.666.817l-.622-2.451a7.782,7.782,0,0,1,3.969-1.031c3.58,0,4.456,2.529,4.456,5.214v4.261Zm-3.288-2.841c-1.4,0-2.607.448-2.607,1.848,0,.993.545,1.421,1.128,1.421a1.535,1.535,0,0,0,1.459-1.693v-1.576Z" transform="translate(-605.081 -334.576)" fill="#fff"/>
    <path id="パス_58" data-name="パス 58" d="M868.733,662.17a3.368,3.368,0,0,1,3-1.771c2.393,0,4.028,2.568,4.028,6.187,0,4.417-2.218,6.382-4.339,6.382a2.662,2.662,0,0,1-2.316-1.226h-.058v5.8h-3.366v-12.9c0-1.5-.039-2.841-.078-3.989h2.919l.175,1.518Zm.331,5.72c0,1.226.623,2.121,1.479,2.121,1.187,0,1.79-1.4,1.79-3.288,0-2.024-.623-3.269-1.751-3.269-.8,0-1.518.8-1.518,2.082Z" transform="translate(-672.092 -334.576)" fill="#fff"/>
    <path id="パス_59" data-name="パス 59" d="M954.552,662.17a3.369,3.369,0,0,1,3-1.771c2.393,0,4.028,2.568,4.028,6.187,0,4.417-2.218,6.382-4.339,6.382a2.661,2.661,0,0,1-2.315-1.226h-.058v5.8h-3.385v-12.9c0-1.5-.039-2.841-.078-3.989h2.918l.175,1.518Zm.311,5.72c0,1.226.623,2.121,1.479,2.121,1.187,0,1.79-1.4,1.79-3.288,0-2.024-.623-3.269-1.751-3.269-.8,0-1.517.8-1.517,2.082Z" transform="translate(-741.199 -334.576)" fill="#fff"/>
    <path id="パス_60" data-name="パス 60" d="M1044.937,666.707c0,4.709-2.7,6.362-5.078,6.362-3,0-5.059-2.315-5.059-6.207,0-4.066,2.2-6.362,5.176-6.362C1043.069,660.5,1044.937,663.068,1044.937,666.707Zm-5.039-3.463c-1.265,0-1.673,1.848-1.673,3.522,0,2.024.525,3.541,1.673,3.541,1.09,0,1.615-1.615,1.615-3.541C1041.513,664.975,1041.065,663.243,1039.9,663.243Z" transform="translate(-808.371 -334.656)" fill="#fff"/>
    <path id="パス_61" data-name="パス 61" d="M1127.3,664.016a3.383,3.383,0,0,0-.837-.078,1.943,1.943,0,0,0-1.965,1.518,3.735,3.735,0,0,0-.136,1.129v6.051h-3.385v-8.191c0-1.6-.039-2.821-.078-3.911h2.9l.136,2.024h.078a2.927,2.927,0,0,1,2.568-2.257,3.569,3.569,0,0,1,.72.058Z" transform="translate(-877.719 -334.495)" fill="#fff"/>
    <path id="パス_62" data-name="パス 62" d="M1193.237,666.707c0,4.709-2.7,6.362-5.078,6.362-3,0-5.059-2.315-5.059-6.207,0-4.066,2.2-6.362,5.175-6.362C1191.369,660.5,1193.237,663.068,1193.237,666.707Zm-5.039-3.463c-1.265,0-1.673,1.848-1.673,3.522,0,2.024.526,3.541,1.673,3.541,1.09,0,1.615-1.615,1.615-3.541C1189.813,664.975,1189.346,663.243,1188.2,663.243Z" transform="translate(-927.817 -334.656)" fill="#fff"/>
    <g id="グループ_12" data-name="グループ 12" transform="translate(31.149 245)">
      <path id="パス_63" data-name="パス 63" d="M758.36,351.844l-26.948-26.967a1.168,1.168,0,0,0-1.848.039l-6.518,6.518a1.482,1.482,0,0,0,.058,1.6l20.936,20.936.487.486L726.7,372.273a.885.885,0,0,0-.195,1.012c.156.428.662.506.973.506l13.133.078a3.18,3.18,0,0,0,1.829-.876l15.818-15.819C758.886,356.4,760.967,354.47,758.36,351.844Z" transform="translate(-588.258 -308.98)" fill="#fff"/>
      <path id="パス_64" data-name="パス 64" d="M552.006,269.525l26.948,26.948a1.168,1.168,0,0,0,1.849-.039l6.518-6.518a1.482,1.482,0,0,0-.058-1.6L566.346,267.4l-.487-.486L583.682,249.1a.885.885,0,0,0,.195-1.012c-.156-.428-.661-.506-.973-.506L569.77,247.5a3.18,3.18,0,0,0-1.829.876l-15.818,15.818C551.481,264.953,549.4,266.879,552.006,269.525Z" transform="translate(-449.633 -247.014)" fill="#fff"/>
      <path id="パス_65" data-name="パス 65" d="M1092.36,351.924l-26.948-26.948a1.168,1.168,0,0,0-1.848.039l-6.518,6.518a1.482,1.482,0,0,0,.058,1.6l20.936,20.936.486.486L1060.7,372.373a.885.885,0,0,0-.194,1.012c.155.428.661.506.973.506l13.133.078a3.18,3.18,0,0,0,1.829-.876l15.818-15.819C1092.885,356.477,1094.967,354.551,1092.36,351.924Z" transform="translate(-857.271 -309.06)" fill="#fff"/>
      <path id="パス_66" data-name="パス 66" d="M886,269.525l26.948,26.948a1.168,1.168,0,0,0,1.849-.039l6.518-6.518a1.482,1.482,0,0,0-.058-1.6L900.323,267.4l-.486-.486L917.659,249.1a.885.885,0,0,0,.194-1.012c-.156-.428-.661-.506-.973-.506l-13.133-.078a3.178,3.178,0,0,0-1.829.876L886.1,264.194C885.477,264.953,883.395,266.879,886,269.525Z" transform="translate(-718.643 -247.014)" fill="#fff"/>
      <g id="グループ_11" data-name="グループ 11" transform="translate(34.653)">
        <g id="グループ_10" data-name="グループ 10" transform="translate(0)">
          <path id="パス_67" data-name="パス 67" d="M222.781,275.489,229.2,261.6l-7.355-15.916c-.136-.272-.506-.681-.817-.681H210.154c-.525.039-.7.175-.817.506a1.109,1.109,0,0,0,.078,1.012Z" transform="translate(-209.249 -245)" fill="#fff"/>
          <path id="パス_68" data-name="パス 68" d="M355.656,245.506c-.136-.331-.292-.467-.817-.506h-10.9c-.311,0-.681.409-.817.681l-19.34,41.871-5.565-12.063L311.8,289.381l9.009,19.515a1.6,1.6,0,0,0,1.479.953h3a1.6,1.6,0,0,0,1.479-.953l28.816-62.4A1.067,1.067,0,0,0,355.656,245.506Z" transform="translate(-291.847 -245)" fill="#fff"/>
        </g>
      </g>
      <path id="パス_69" data-name="パス 69" d="M94.958,245.506c-.136-.331-.292-.467-.817-.506H83.264c-.311,0-.681.409-.817.681l-19.34,41.871-19.34-41.871c-.136-.272-.506-.681-.817-.681h-10.9c-.525.039-.7.175-.817.506a1.109,1.109,0,0,0,.078,1.012l28.816,62.4a1.6,1.6,0,0,0,1.479.953h3a1.6,1.6,0,0,0,1.479-.953l28.816-62.4A1.166,1.166,0,0,0,94.958,245.506Z" transform="translate(-31.149 -245)" fill="#fff"/>
    </g>
  </g>
</svg>
