<svg id="グループ_6" data-name="グループ 6" xmlns="http://www.w3.org/2000/svg" width="311.138" height="37" viewBox="0 0 311.138 37">
  <path id="パス_1" data-name="パス 1" d="M241.1,123.057H237.91v4.959h-1.116v-4.959H233.6V122.2h7.5v.857Z" transform="translate(-173.803 -91.224)" fill="#fff"/>
  <path id="パス_2" data-name="パス 2" d="M272.094,124.59a2.645,2.645,0,0,1-1.35,2.311,5.2,5.2,0,0,1-2.934.779,5.348,5.348,0,0,1-2.96-.779,2.645,2.645,0,0,1-1.35-2.311,2.734,2.734,0,0,1,1.376-2.311,5.915,5.915,0,0,1,5.868,0A2.731,2.731,0,0,1,272.094,124.59Zm-1.168,0a1.961,1.961,0,0,0-.987-1.662,3.871,3.871,0,0,0-2.129-.545,3.754,3.754,0,0,0-2.259.623,1.877,1.877,0,0,0-.026,3.168,3.783,3.783,0,0,0,2.285.6,3.838,3.838,0,0,0,2.285-.623A1.835,1.835,0,0,0,270.926,124.59Z" transform="translate(-195.939 -90.706)" fill="#fff"/>
  <path id="パス_3" data-name="パス 3" d="M334.292,128.016h-1.116v-4.752h-.026l-3.479,3.791-3.427-3.791h-.026v4.752H325.1V122.2h1.376l3.194,3.505,3.22-3.505h1.376v5.816Z" transform="translate(-241.545 -91.224)" fill="#fff"/>
  <path id="パス_4" data-name="パス 4" d="M373.391,128.016h-1.22l-.779-1.3H366.9l-.779,1.3H364.9l3.531-5.816h1.4Zm-2.519-2.155-1.714-2.83-1.714,2.83Z" transform="translate(-271.011 -91.224)" fill="#fff"/>
  <path id="パス_5" data-name="パス 5" d="M409.864,128.016h-1.428l-3.194-3.064-2.025,1.3v1.766H402.1V122.2h1.117v3.012l4.674-3.012h1.61l-3.427,2.207Z" transform="translate(-298.552 -91.224)" fill="#fff"/>
  <path id="パス_6" data-name="パス 6" d="M443.311,128.016H436.3V122.2h6.751v.857h-5.634v1.506h3.921v.857h-3.921v1.714h5.894Z" transform="translate(-323.872 -91.224)" fill="#fff"/>
  <path id="パス_7" data-name="パス 7" d="M495.739,128.016h-1.22l-.779-1.3h-4.492l-.779,1.3H487.3l3.531-5.816h1.4Zm-2.519-2.155-1.714-2.83-1.714,2.83Z" transform="translate(-361.63 -91.224)" fill="#fff"/>
  <path id="パス_8" data-name="パス 8" d="M551.3,122.2a2.508,2.508,0,0,1,1.636.493,1.6,1.6,0,0,1,.6,1.324,1.558,1.558,0,0,1-.623,1.324,2.979,2.979,0,0,1-1.818.467h-3.973v2.207H546V122.2Zm-.208,2.726c.857,0,1.272-.312,1.272-.909,0-.649-.441-.961-1.35-.961h-3.895v1.869Z" transform="translate(-405.088 -91.224)" fill="#fff"/>
  <path id="パス_9" data-name="パス 9" d="M586.885,128.016H579.9V122.2h6.725v.857h-5.634v1.506h3.921v.857h-3.921v1.714h5.894Z" transform="translate(-430.186 -91.224)" fill="#fff"/>
  <path id="パス_10" data-name="パス 10" d="M620.708,128.016h-1.3l-1.818-2.207h-3.375v2.207H613.1V122.2h5.271a2.536,2.536,0,0,1,1.662.493,1.619,1.619,0,0,1,.6,1.35,1.53,1.53,0,0,1-.493,1.194,2.105,2.105,0,0,1-1.246.519Zm-2.467-3.09c.857,0,1.272-.312,1.272-.909,0-.649-.467-.961-1.376-.961h-3.895v1.869Z" transform="translate(-454.766 -91.224)" fill="#fff"/>
  <path id="パス_11" data-name="パス 11" d="M652.469,123.132a7.351,7.351,0,0,0-3.038-.649,4.786,4.786,0,0,0-1.558.208c-.364.13-.545.338-.545.571,0,.26.182.441.571.571a6.222,6.222,0,0,0,1.35.182c.935.052,1.532.1,1.818.13a4.442,4.442,0,0,1,1.843.545,1.263,1.263,0,0,1,.6,1.116,1.557,1.557,0,0,1-.935,1.428,5.825,5.825,0,0,1-2.7.493,6.9,6.9,0,0,1-3.973-.987l.6-.7a7.214,7.214,0,0,0,3.375.831,4.834,4.834,0,0,0,1.818-.286c.415-.182.623-.441.623-.753,0-.364-.26-.623-.8-.727-.286-.052-1.039-.13-2.285-.208a6.783,6.783,0,0,1-2.311-.389,1.167,1.167,0,0,1-.779-1.142,1.426,1.426,0,0,1,.883-1.3,5.463,5.463,0,0,1,2.493-.467,7.006,7.006,0,0,1,3.609.857Z" transform="translate(-479.049 -90.78)" fill="#fff"/>
  <path id="パス_12" data-name="パス 12" d="M688.494,124.59a2.645,2.645,0,0,1-1.35,2.311,5.2,5.2,0,0,1-2.934.779,5.348,5.348,0,0,1-2.96-.779,2.645,2.645,0,0,1-1.35-2.311,2.734,2.734,0,0,1,1.376-2.311,5.915,5.915,0,0,1,5.868,0A2.675,2.675,0,0,1,688.494,124.59Zm-1.142,0a1.961,1.961,0,0,0-.987-1.662,3.871,3.871,0,0,0-2.129-.545,3.754,3.754,0,0,0-2.259.623,1.877,1.877,0,0,0-.026,3.168,3.783,3.783,0,0,0,2.285.6,3.838,3.838,0,0,0,2.285-.623A1.835,1.835,0,0,0,687.352,124.59Z" transform="translate(-504.221 -90.706)" fill="#fff"/>
  <path id="パス_13" data-name="パス 13" d="M727.882,128.016h-1.376l-5.089-4.778v4.778H720.3V122.2h1.376l5.089,4.778V122.2h1.116v5.816Z" transform="translate(-534.132 -91.224)" fill="#fff"/>
  <path id="パス_14" data-name="パス 14" d="M796.751,123.057h-5.634v1.506h3.921v.857h-3.921v2.6H790V122.2h6.725l.026.857Z" transform="translate(-585.734 -91.224)" fill="#fff"/>
  <path id="パス_15" data-name="パス 15" d="M825.794,124.59a2.645,2.645,0,0,1-1.35,2.311,5.2,5.2,0,0,1-2.934.779,5.348,5.348,0,0,1-2.96-.779,2.645,2.645,0,0,1-1.35-2.311,2.734,2.734,0,0,1,1.376-2.311,5.915,5.915,0,0,1,5.868,0A2.675,2.675,0,0,1,825.794,124.59Zm-1.143,0a1.96,1.96,0,0,0-.987-1.662,3.87,3.87,0,0,0-2.129-.545,3.754,3.754,0,0,0-2.259.623,1.877,1.877,0,0,0-.026,3.168,3.783,3.783,0,0,0,2.285.6,3.839,3.839,0,0,0,2.285-.623A1.835,1.835,0,0,0,824.652,124.59Z" transform="translate(-605.872 -90.706)" fill="#fff"/>
  <path id="パス_16" data-name="パス 16" d="M860.869,123.132a7.351,7.351,0,0,0-3.038-.649,4.786,4.786,0,0,0-1.558.208c-.364.13-.545.338-.545.571,0,.26.182.441.571.571a6.222,6.222,0,0,0,1.35.182c.935.052,1.532.1,1.818.13a4.441,4.441,0,0,1,1.844.545,1.263,1.263,0,0,1,.6,1.116,1.557,1.557,0,0,1-.935,1.428,5.825,5.825,0,0,1-2.7.493,6.9,6.9,0,0,1-3.973-.987l.6-.7a7.214,7.214,0,0,0,3.375.831,4.834,4.834,0,0,0,1.818-.286c.416-.182.623-.441.623-.753,0-.364-.26-.623-.8-.727-.286-.052-1.039-.13-2.285-.208a6.782,6.782,0,0,1-2.311-.389,1.167,1.167,0,0,1-.779-1.142,1.426,1.426,0,0,1,.883-1.3,5.462,5.462,0,0,1,2.493-.467,7.006,7.006,0,0,1,3.609.857Z" transform="translate(-633.339 -90.78)" fill="#fff"/>
  <path id="パス_17" data-name="パス 17" d="M892,123.057H888.81v4.959h-1.116v-4.959H884.5V122.2H892v.857Z" transform="translate(-655.697 -91.224)" fill="#fff"/>
  <path id="パス_18" data-name="パス 18" d="M924.985,128.016H918V122.2h6.725v.857h-5.634v1.506h3.921v.857h-3.921v1.714h5.894v.883Z" transform="translate(-680.499 -91.224)" fill="#fff"/>
  <path id="パス_19" data-name="パス 19" d="M958.882,128.016h-1.3l-1.818-2.207h-3.375v2.207H951.3V122.2h5.271a2.536,2.536,0,0,1,1.662.493,1.7,1.7,0,0,1,.6,1.35,1.531,1.531,0,0,1-.493,1.194,2.1,2.1,0,0,1-1.246.519Zm-2.493-3.09c.857,0,1.272-.312,1.272-.909,0-.649-.467-.961-1.376-.961h-3.895v1.869Z" transform="translate(-705.153 -91.224)" fill="#fff"/>
  <path id="パス_20" data-name="パス 20" d="M1015.982,128.016h-1.116v-2.6h-5.349v2.6H1008.4V122.2h1.116v2.363h5.349V122.2h1.116Z" transform="translate(-747.427 -91.224)" fill="#fff"/>
  <path id="パス_21" data-name="パス 21" d="M1053.556,126.147a1.705,1.705,0,0,1-1.013,1.48,5.618,5.618,0,0,1-2.752.6,5.726,5.726,0,0,1-2.778-.6,1.706,1.706,0,0,1-1.013-1.48V122.2h1.116v3.713a1.121,1.121,0,0,0,.675,1.039,5.68,5.68,0,0,0,4,0,1.148,1.148,0,0,0,.675-1.039V122.2h1.116l-.026,3.947Z" transform="translate(-775.264 -91.224)" fill="#fff"/>
  <path id="パス_22" data-name="パス 22" d="M1092.617,128.016H1091.5v-4.752h-.026L1088,127.055l-3.453-3.791h-.026v4.752H1083.4V122.2h1.376l3.194,3.505,3.22-3.505h1.376v5.816Z" transform="translate(-802.953 -91.224)" fill="#fff"/>
  <path id="パス_23" data-name="パス 23" d="M1131.791,128.016h-1.22l-.779-1.3H1125.3l-.779,1.3h-1.22l3.531-5.816h1.4Zm-2.519-2.155-1.714-2.83-1.714,2.83Z" transform="translate(-832.493 -91.224)" fill="#fff"/>
  <path id="パス_24" data-name="パス 24" d="M1168.182,128.016h-1.376l-5.089-4.778v4.778H1160.6V122.2h1.376l5.089,4.778V122.2h1.117Z" transform="translate(-860.108 -91.224)" fill="#fff"/>
  <path id="パス_25" data-name="パス 25" d="M260.881,27.819a3.009,3.009,0,0,1-1.688-.519L236.681,10.993V25.17a2.449,2.449,0,1,1-4.881,0V5.748a2.528,2.528,0,0,1,1.35-2.363,2.637,2.637,0,0,1,2.752.234l22.356,16.306V5.748a2.7,2.7,0,0,1,5.4,0V25.17a2.669,2.669,0,0,1-1.506,2.363A2.833,2.833,0,0,1,260.881,27.819Z" transform="translate(-172.47 -3.048)" fill="#fff"/>
  <path id="パス_26" data-name="パス 26" d="M530.584,27.874a2.927,2.927,0,0,1-1.766-.571L502.646,7.881a2.54,2.54,0,0,1-.467-3.713,2.994,2.994,0,0,1,4-.415L532.35,23.174a2.54,2.54,0,0,1,.467,3.713A2.974,2.974,0,0,1,530.584,27.874Z" transform="translate(-372.198 -3.104)" fill="#fff"/>
  <path id="パス_27" data-name="パス 27" d="M504.357,27.8a2.91,2.91,0,0,1-2.233-1.013,2.5,2.5,0,0,1,.467-3.713L528.764,3.653a3,3,0,0,1,4,.415,2.5,2.5,0,0,1-.467,3.713L506.123,27.229A2.927,2.927,0,0,1,504.357,27.8Z" transform="translate(-372.144 -3.029)" fill="#fff"/>
  <path id="パス_28" data-name="パス 28" d="M666.54,8.549H639.693A2.587,2.587,0,0,1,637.2,5.874,2.6,2.6,0,0,1,639.693,3.2H666.54a2.587,2.587,0,0,1,2.493,2.674A2.6,2.6,0,0,1,666.54,8.549Z" transform="translate(-472.608 -3.122)" fill="#fff"/>
  <path id="パス_29" data-name="パス 29" d="M690.874,27.919A2.585,2.585,0,0,1,688.2,25.27V5.848a2.675,2.675,0,0,1,5.349,0V25.27A2.571,2.571,0,0,1,690.874,27.919Z" transform="translate(-510.366 -3.122)" fill="#fff"/>
  <path id="パス_30" data-name="パス 30" d="M972.933,28.019a2.99,2.99,0,0,1-1.662-.519L949.1,11.193V25.37a2.648,2.648,0,1,1-5.3,0V5.948a2.78,2.78,0,0,1,4.388-2.129l22.148,16.306V5.948a2.648,2.648,0,1,1,5.3,0V25.37a2.692,2.692,0,0,1-1.48,2.363A2.486,2.486,0,0,1,972.933,28.019Z" transform="translate(-699.6 -3.196)" fill="#fff"/>
  <path id="パス_31" data-name="パス 31" d="M1108.188,8.949h-26.744a2.612,2.612,0,0,1-2.545-2.674,2.612,2.612,0,0,1,2.545-2.674h26.744a2.612,2.612,0,0,1,2.545,2.674A2.612,2.612,0,0,1,1108.188,8.949Z" transform="translate(-799.621 -3.418)" fill="#fff"/>
  <path id="パス_32" data-name="パス 32" d="M1108.236,55.552H1081.8a2.79,2.79,0,0,1-2.8-2.6V43.348a2.816,2.816,0,0,1,2.8-2.648h23.836a2.649,2.649,0,0,1,0,5.3h-21.447v4.31h24.044a2.632,2.632,0,0,1,2.6,2.648A2.6,2.6,0,0,1,1108.236,55.552Z" transform="translate(-799.695 -30.885)" fill="#fff"/>
  <path id="パス_33" data-name="パス 33" d="M833.015,28.093H815.852c-4.025,0-7.452-3.194-7.452-6.959V10.385c0-3.765,3.427-6.985,7.452-6.985h17.163a7.14,7.14,0,0,1,7.218,6.985V21.134A7.1,7.1,0,0,1,833.015,28.093ZM815.852,8.307c-1.506,0-2.571.831-2.571,2.051V21.108c0,1.22,1.039,2.025,2.571,2.025h17.163c1.506,0,2.8-.8,2.8-2.025V10.359c0-1.22-1.272-2.051-2.8-2.051H815.852Z" transform="translate(-599.357 -3.27)" fill="#fff"/>
  <path id="パス_34" data-name="パス 34" d="M396.014,8.223l-26.77.13A2.606,2.606,0,0,1,366.7,5.7a2.607,2.607,0,0,1,2.519-2.674l26.77-.13a2.606,2.606,0,0,1,2.545,2.648A2.607,2.607,0,0,1,396.014,8.223Z" transform="translate(-272.344 -2.9)" fill="#fff"/>
  <path id="パス_35" data-name="パス 35" d="M396.262,55.134l-26.406.1a2.818,2.818,0,0,1-2.83-2.622L367,42.9a2.861,2.861,0,0,1,2.8-2.7l23.81-.1a2.663,2.663,0,0,1,.026,5.323l-21.447.1.026,4.362,24.018-.1a2.676,2.676,0,0,1,.026,5.349Z" transform="translate(-272.566 -30.441)" fill="#fff"/>
  <path id="前面オブジェクトで型抜き_1" data-name="前面オブジェクトで型抜き 1" d="M38.376,35.494H0V9.4H12.489V0h38.4V26.095H38.376v9.4ZM2.674,12.048V32.82H35.7V12.048H2.674ZM15.164,2.674V9.4H38.376V23.42h9.841V2.674Z" transform="translate(0 0.597)" fill="#fff"/>
</svg>
